<svg width="486" height="425" viewBox="0 0 486 425" fill="none" xmlns="http://www.w3.org/2000/svg">
<path fill-rule="evenodd" clip-rule="evenodd" d="M340.566 31.9731V72.3278C340.566 73.4093 339.674 74.3009 338.612 74.3009H271.316C270.234 74.3009 269.343 73.4093 269.343 72.3278V31.9731C269.343 30.8727 270.234 30 271.316 30H338.612C339.674 30 340.566 30.8727 340.566 31.9731ZM335.728 35.1605H273.687V68.7989H335.728V35.1605Z" fill="#C5D5EB"/>
<path d="M347.927 82.7644C347.927 83.8648 347.054 84.7375 345.973 84.7375H263.954C262.873 84.7375 262 83.8648 262 82.7644V78.856C262 77.7556 262.873 76.8828 263.954 76.8828H345.973C347.054 76.8828 347.927 77.7556 347.927 78.856V82.7644Z" fill="#C5D5EB"/>
<path d="M433.267 208.146H351.913C338.179 208.146 327 196.967 327 183.233C327 169.486 338.179 158.307 351.913 158.307C353.098 158.307 354.295 158.397 355.506 158.579C357.892 150.318 365.583 144.365 374.362 144.365C377.747 144.365 381.015 145.221 383.946 146.868C390.146 139.93 398.9 136 408.276 136C420.402 136 431.62 142.822 437.223 153.508C450.723 155.44 460.735 166.892 460.735 180.678C460.735 195.826 448.402 208.146 433.267 208.146Z" fill="#FFD9F9"/>
<path d="M422.211 190.164L418.113 171.941L404.37 184.617L410.074 186.391C406.358 189.625 401.103 190.938 396.051 189.366C392.693 188.311 389.819 186.099 387.955 183.124C387.327 182.124 386.013 181.821 385.003 182.45C383.992 183.079 383.689 184.404 384.318 185.403C386.72 189.254 390.437 192.117 394.771 193.464C396.657 194.041 398.539 194.329 400.418 194.329C405.909 194.329 411.129 191.915 414.722 187.828L422.211 190.164Z" fill="#F2B4E8"/>
<path d="M390.213 164.731C391.208 163.773 392.335 162.961 393.592 162.294C397.062 160.464 401.047 160.105 404.797 161.273C408.637 162.463 411.747 165.101 413.555 168.694C414.094 169.761 415.385 170.176 416.452 169.649C417.507 169.11 417.934 167.818 417.395 166.763C415.06 162.115 411.029 158.713 406.077 157.175C401.227 155.659 396.085 156.13 391.594 158.488C389.281 159.701 387.282 161.351 385.677 163.327L379.019 161.25L383.128 179.484L396.859 166.808L390.213 164.731Z" fill="#F2B4E8"/>
<path d="M155.698 114.426H72.9586C58.4071 114.426 46.585 102.603 46.585 88.0519C46.585 73.5157 58.4071 61.6783 72.9586 61.6783C73.9195 61.6783 74.8957 61.7397 75.8873 61.8623C78.6933 53.4596 86.6975 47.4948 95.7749 47.4948C99.133 47.4948 102.384 48.2922 105.312 49.7949C111.783 42.8948 120.723 39 130.275 39C142.818 39 154.426 45.9615 160.39 56.8943C174.359 59.1483 184.663 71.093 184.663 85.4605C184.663 101.438 171.676 114.426 155.698 114.426Z" fill="#E2DAFF"/>
<path d="M133.357 88.8182L144.321 69.8047L155.315 88.8182H133.357Z" fill="#C8B4FF"/>
<path d="M61.3358 142.702L42.3223 131.738L61.3358 120.744V142.702Z" fill="#C8B4FF"/>
<path d="M121.075 135.679V72.0299C121.075 69.4232 118.944 67.3071 116.337 67.3071C113.73 67.3071 111.614 69.4232 111.614 72.0299V135.679H105.358L116.337 154.693L127.316 135.695L121.075 135.679Z" fill="#FFA8F1"/>
<path d="M88.0156 136.445H55.6465C53.0398 136.445 50.9238 134.33 50.9238 131.723C50.9238 129.116 53.0398 127 55.6465 127H83.2929V81.5361C83.2929 78.9294 85.4089 76.8135 88.0156 76.8135C90.6223 76.8135 92.7383 78.9294 92.7383 81.5361V131.723C92.7383 134.33 90.6223 136.445 88.0156 136.445Z" fill="#C8B4FF"/>
<path d="M176.705 136.445H144.336C141.729 136.445 139.613 134.33 139.613 131.723V81.5361C139.613 78.9294 141.729 76.8135 144.336 76.8135C146.943 76.8135 149.059 78.9294 149.059 81.5361V127H176.705C179.312 127 181.428 129.116 181.428 131.723C181.428 134.33 179.312 136.445 176.705 136.445Z" fill="#C8B4FF"/>
<path d="M83.3085 424.489C81.816 424.489 80.3362 424.451 78.869 424.375C78.0722 424.319 77.4461 423.636 77.4841 422.839C77.541 422.023 78.224 421.378 79.0208 421.454C81.9173 421.605 84.82 421.599 87.7292 421.435C88.564 421.378 89.228 422.023 89.266 422.82C89.3039 423.636 88.6968 424.319 87.881 424.356C86.3632 424.445 84.839 424.489 83.3085 424.489ZM70.1606 423.427C70.072 423.427 69.9898 423.421 69.9139 423.408C66.9289 422.927 63.9945 422.288 61.1107 421.492C60.3328 421.283 59.8774 420.467 60.0861 419.689C60.2948 418.911 61.0917 418.456 61.8885 418.684C64.6712 419.443 67.5044 420.056 70.3882 420.524C71.1851 420.657 71.7163 421.416 71.5835 422.213C71.4697 422.915 70.8625 423.427 70.1606 423.427ZM96.6083 423.408C95.9063 423.408 95.2802 422.896 95.1664 422.194C95.0336 421.397 95.5838 420.638 96.3807 420.505C99.2519 420.037 102.079 419.411 104.861 418.627C105.658 418.418 106.455 418.873 106.664 419.651C106.891 420.429 106.417 421.245 105.658 421.454C102.762 422.25 99.8274 422.896 96.855 423.389C96.7664 423.402 96.6842 423.408 96.6083 423.408ZM53.0852 418.722C52.9082 418.722 52.7311 418.69 52.5541 418.627C49.7588 417.514 47.033 416.249 44.3769 414.832C43.6559 414.472 43.3903 413.58 43.7697 412.859C44.1492 412.157 45.0219 411.873 45.7429 412.271C48.3105 413.624 50.9414 414.839 53.6355 415.914C54.3754 416.217 54.7549 417.052 54.4513 417.811C54.2236 418.38 53.6734 418.722 53.0852 418.722ZM113.646 418.665C113.077 418.665 112.526 418.323 112.299 417.754C111.995 417.014 112.356 416.16 113.114 415.857C115.796 414.782 118.427 413.561 121.007 412.195C121.709 411.816 122.601 412.081 122.98 412.802C123.36 413.504 123.094 414.396 122.373 414.775C119.704 416.192 116.979 417.457 114.196 418.57C114.006 418.633 113.823 418.665 113.646 418.665ZM37.4708 410.45C37.1799 410.45 36.9017 410.367 36.636 410.203C34.157 408.521 31.7665 406.699 29.4645 404.739C28.8384 404.227 28.7624 403.297 29.2937 402.69C29.8059 402.064 30.7356 402.007 31.3427 402.519C33.5689 404.404 35.8835 406.155 38.2866 407.774C38.9507 408.23 39.1215 409.14 38.6661 409.804C38.3815 410.222 37.9262 410.45 37.4708 410.45ZM129.26 410.374C128.805 410.374 128.331 410.146 128.065 409.729C127.61 409.065 127.78 408.154 128.444 407.699C130.848 406.067 133.15 404.309 135.35 402.424C135.977 401.912 136.906 401.969 137.418 402.595C137.95 403.202 137.874 404.132 137.248 404.644C134.958 406.592 132.574 408.413 130.095 410.108C129.829 410.285 129.551 410.374 129.26 410.374ZM23.9624 399.009C23.5703 399.009 23.2161 398.857 22.8999 398.554C20.8382 396.378 18.8903 394.095 17.0563 391.705C16.563 391.06 16.6959 390.149 17.341 389.656C17.9671 389.162 18.8778 389.276 19.371 389.921C21.1545 392.236 23.039 394.443 25.0248 396.543C25.575 397.131 25.556 398.06 24.9679 398.611C24.6769 398.876 24.3418 399.009 23.9624 399.009ZM142.731 398.914C142.364 398.914 142.029 398.781 141.725 398.516C141.137 397.947 141.118 397.017 141.668 396.448C143.679 394.323 145.558 392.109 147.303 389.807C147.796 389.181 148.707 389.048 149.352 389.523C149.997 390.016 150.13 390.927 149.637 391.572C147.815 393.962 145.867 396.258 143.793 398.459C143.49 398.75 143.135 398.902 142.731 398.914ZM13.2428 384.95C12.7306 384.95 12.2563 384.704 11.9907 384.248C10.4223 381.668 9.00568 379.018 7.74084 376.299C7.39934 375.578 7.72188 374.705 8.46181 374.364C9.18277 374.022 10.0554 374.345 10.3969 375.066C11.6112 377.684 12.9773 380.239 14.4951 382.731C14.9125 383.433 14.6848 384.324 14.0018 384.742C13.7488 384.881 13.4958 384.95 13.2428 384.95ZM153.45 384.818C153.185 384.83 152.932 384.761 152.691 384.609C151.989 384.192 151.781 383.3 152.198 382.617C153.69 380.125 155.05 377.564 156.277 374.933C156.619 374.193 157.491 373.87 158.212 374.212C158.952 374.553 159.275 375.426 158.933 376.147C157.656 378.892 156.245 381.548 154.702 384.116C154.418 384.571 153.943 384.818 153.45 384.818ZM5.78661 368.938C5.17949 368.938 4.61035 368.539 4.40165 367.932C3.42773 365.086 2.61817 362.196 1.97311 359.262C1.80235 358.465 2.29569 357.687 3.09254 357.516C3.88939 357.345 4.64824 357.839 4.81899 358.616C5.45141 361.45 6.22937 364.245 7.1527 367.002C7.41831 367.761 7.01981 368.596 6.24194 368.843C6.09016 368.906 5.93839 368.938 5.78661 368.938ZM160.868 368.767C160.717 368.767 160.565 368.741 160.413 368.691C159.635 368.444 159.237 367.61 159.483 366.851C160.419 364.093 161.197 361.298 161.817 358.465C161.988 357.668 162.766 357.175 163.544 357.345C164.34 357.516 164.834 358.294 164.663 359.091C164.018 362.025 163.215 364.922 162.254 367.78C162.045 368.387 161.495 368.767 160.868 368.767ZM1.95423 351.654C1.2143 351.654 0.588187 351.103 0.512297 350.344C0.183439 347.372 0.0126484 344.374 0 341.351C0 340.555 0.664077 339.891 1.46093 339.891H1.47992C2.27676 339.891 2.92175 340.555 2.94073 341.351C2.94073 344.261 3.09883 347.157 3.41504 350.041C3.49093 350.838 2.92177 351.559 2.12492 351.654C2.06168 351.654 2.00482 351.654 1.95423 351.654ZM164.663 351.502C164.612 351.502 164.562 351.495 164.511 351.483C163.714 351.407 163.126 350.686 163.202 349.87C163.518 346.999 163.676 344.109 163.676 341.2V340.858C163.676 340.042 164.321 339.397 165.137 339.397C165.934 339.397 166.598 340.042 166.598 340.858V341.2C166.598 344.21 166.434 347.208 166.105 350.193C166.029 350.933 165.403 351.502 164.663 351.502ZM1.93524 333.971C1.872 333.971 1.81503 333.971 1.76444 333.971C0.967588 333.876 0.379452 333.155 0.474314 332.358C0.790524 329.361 1.26484 326.395 1.89726 323.46C2.06801 322.682 2.84584 322.151 3.62371 322.341C4.42056 322.512 4.93287 323.289 4.74314 324.067C4.13602 326.901 3.68074 329.766 3.37717 332.662C3.30128 333.421 2.6562 333.971 1.93524 333.971ZM164.625 333.478C163.885 333.478 163.259 332.928 163.164 332.188C162.848 329.279 162.374 326.42 161.741 323.612C161.57 322.815 162.064 322.037 162.842 321.848C163.639 321.696 164.416 322.17 164.587 322.967C165.245 325.889 165.744 328.849 166.086 331.846C166.162 332.662 165.593 333.383 164.796 333.478C164.733 333.478 164.676 333.478 164.625 333.478ZM5.67278 316.687C5.521 316.687 5.36924 316.662 5.21746 316.611C4.43958 316.365 4.04118 315.53 4.28782 314.771C5.2491 311.9 6.35583 309.104 7.60802 306.385C7.94953 305.645 8.82221 305.323 9.56214 305.664C10.2831 306.006 10.6056 306.878 10.2641 307.599C9.04987 310.23 7.98108 312.924 7.05774 315.682C6.84904 316.308 6.2799 316.687 5.67278 316.687ZM160.774 316.213C160.166 316.213 159.597 315.833 159.389 315.226C158.453 312.481 157.365 309.794 156.125 307.163C155.784 306.442 156.106 305.569 156.846 305.228C157.567 304.886 158.44 305.19 158.781 305.93C160.059 308.649 161.185 311.438 162.159 314.297C162.424 315.055 162.007 315.871 161.248 316.137C161.083 316.187 160.925 316.213 160.774 316.213ZM13.0721 300.617C12.8065 300.617 12.5598 300.548 12.3322 300.409C11.6302 299.991 11.4025 299.1 11.8199 298.417C13.3756 295.824 15.0579 293.332 16.8666 290.941C17.3599 290.296 18.2895 290.163 18.9156 290.657C19.5607 291.15 19.6935 292.061 19.2002 292.706C17.4548 295.008 15.8294 297.411 14.3243 299.915C14.0587 300.371 13.5654 300.617 13.0721 300.617ZM153.279 300.2C152.786 300.2 152.312 299.953 152.027 299.517C150.509 297.025 148.871 294.628 147.113 292.326C146.639 291.681 146.753 290.77 147.379 290.277C148.024 289.784 148.935 289.917 149.447 290.543C151.268 292.921 152.963 295.4 154.532 297.98C154.949 298.682 154.721 299.574 154.038 299.991C153.798 300.143 153.545 300.213 153.279 300.2ZM23.7537 286.521C23.3869 286.521 23.0517 286.388 22.7481 286.122C22.16 285.572 22.141 284.642 22.6912 284.054C24.7529 281.866 26.9285 279.798 29.2178 277.85C29.8439 277.319 30.7545 277.395 31.2858 278.002C31.817 278.628 31.7412 279.539 31.1151 280.07C28.9143 281.955 26.8146 283.953 24.8162 286.065C24.5126 286.369 24.1585 286.521 23.7537 286.521ZM142.522 286.179C142.117 286.179 141.763 286.027 141.46 285.724C139.448 283.612 137.336 281.626 135.123 279.766C134.516 279.235 134.44 278.325 134.952 277.698C135.483 277.072 136.394 277.015 137.001 277.528C139.303 279.463 141.497 281.518 143.584 283.694C144.135 284.282 144.116 285.212 143.528 285.762C143.237 286.04 142.901 286.179 142.522 286.179ZM37.2052 275.023C36.7309 275.023 36.2755 274.815 35.9909 274.397C35.5356 273.733 35.7064 272.822 36.3704 272.367C38.8621 270.672 41.4297 269.11 44.0733 267.681C44.7942 267.301 45.686 267.586 46.0655 268.288C46.4449 269.009 46.1793 269.882 45.4583 270.261C42.9034 271.64 40.4242 273.145 38.021 274.777C37.768 274.941 37.4961 275.023 37.2052 275.023ZM129.014 274.758C128.723 274.758 128.444 274.675 128.179 274.511C125.776 272.892 123.29 271.406 120.723 270.052C120.002 269.673 119.736 268.781 120.096 268.079C120.476 267.358 121.368 267.093 122.088 267.453C124.745 268.857 127.325 270.4 129.829 272.083C130.493 272.538 130.664 273.449 130.209 274.113C129.924 274.53 129.469 274.758 129.014 274.758ZM52.8007 266.694C52.2126 266.694 51.6623 266.353 51.4346 265.784C51.1311 265.025 51.4915 264.171 52.2504 263.867C55.0457 262.754 57.8916 261.787 60.7881 260.965C61.566 260.756 62.3818 261.211 62.5905 261.989C62.8182 262.767 62.3439 263.564 61.585 263.792C58.7771 264.576 56.026 265.505 53.3319 266.58C53.1548 266.656 52.9778 266.694 52.8007 266.694ZM113.361 266.505C113.171 266.517 112.988 266.486 112.811 266.41C110.117 265.347 107.366 264.43 104.558 263.659C103.78 263.45 103.325 262.653 103.533 261.856C103.742 261.078 104.558 260.642 105.336 260.832C108.245 261.641 111.097 262.596 113.892 263.697C114.632 263.981 115.012 264.835 114.708 265.594C114.481 266.163 113.93 266.505 113.361 266.505ZM69.8191 261.932C69.1171 261.932 68.5099 261.42 68.3771 260.699C68.2443 259.902 68.7945 259.162 69.5914 259.029C72.5638 258.536 75.5489 258.201 78.5465 258.024C79.3813 257.967 80.0453 258.612 80.0833 259.409C80.1212 260.206 79.514 260.908 78.6982 260.946C75.8144 261.11 72.9369 261.433 70.0657 261.913C69.9898 261.926 69.9076 261.932 69.8191 261.932ZM96.2858 261.856C96.2099 261.856 96.1341 261.85 96.0582 261.837C93.2123 261.382 90.3285 261.078 87.4067 260.927C86.6098 260.889 85.9838 260.187 86.0217 259.39C86.0597 258.593 86.6668 257.929 87.5585 258.005C90.5815 258.157 93.5664 258.467 96.5135 258.935C97.3103 259.067 97.8606 259.826 97.7278 260.623C97.6139 261.344 96.9878 261.856 96.2858 261.856Z" fill="#E8EAEE"/>
<path d="M396.104 268C395.419 268 394.861 267.445 394.861 266.78C394.861 266.099 395.419 265.56 396.088 265.56C398.509 265.549 400.92 265.449 403.32 265.259C403.926 265.211 404.579 265.702 404.642 266.368C404.69 267.049 404.196 267.635 403.527 267.683C401.053 267.883 398.578 267.989 396.104 268ZM388.776 267.714C388.744 267.704 388.706 267.699 388.664 267.699C386.179 267.498 383.72 267.202 381.288 266.811C380.619 266.7 380.173 266.067 380.284 265.401C380.396 264.736 381.033 264.277 381.686 264.403C384.055 264.784 386.45 265.074 388.871 265.275C389.54 265.322 390.05 265.908 389.986 266.59C389.938 267.223 389.397 267.714 388.776 267.714ZM410.696 266.796C410.107 266.796 409.581 266.368 409.485 265.766C409.374 265.1 409.82 264.483 410.489 264.372C412.868 263.981 415.226 263.49 417.562 262.898C418.231 262.724 418.9 263.12 419.06 263.77C419.235 264.435 418.837 265.1 418.168 265.259C415.757 265.871 413.335 266.378 410.903 266.78C410.829 266.79 410.76 266.796 410.696 266.796ZM374.31 265.338C374.215 265.338 374.114 265.328 374.008 265.306C371.608 264.704 369.234 264.007 366.887 263.215C366.234 262.993 365.899 262.296 366.122 261.663C366.345 261.013 367.03 260.696 367.683 260.902C369.956 261.673 372.266 262.349 374.613 262.93C375.266 263.104 375.665 263.77 375.505 264.419C375.362 264.974 374.868 265.338 374.31 265.338ZM424.89 263.215C424.38 263.215 423.918 262.898 423.743 262.391C423.52 261.758 423.855 261.061 424.492 260.839C426.786 260.057 429.032 259.186 431.231 258.225C431.852 257.956 432.569 258.225 432.84 258.843C433.11 259.461 432.84 260.189 432.218 260.459C429.956 261.441 427.646 262.339 425.288 263.152C425.161 263.194 425.028 263.215 424.89 263.215ZM360.435 260.633C360.265 260.633 360.106 260.596 359.957 260.522C357.663 259.529 355.433 258.447 353.266 257.274C352.661 256.958 352.438 256.229 352.772 255.627C353.091 255.041 353.84 254.819 354.429 255.136C356.543 256.276 358.709 257.327 360.929 258.288C361.55 258.558 361.837 259.286 361.566 259.904C361.359 260.364 360.913 260.633 360.435 260.633ZM438.304 257.338C437.874 257.338 437.443 257.116 437.22 256.704C436.902 256.118 437.125 255.373 437.714 255.057C439.838 253.905 441.909 252.675 443.927 251.365C444.485 251.001 445.25 251.144 445.616 251.714C445.982 252.284 445.839 253.029 445.266 253.409C443.195 254.761 441.07 256.023 438.893 257.195C438.702 257.301 438.506 257.348 438.304 257.338ZM347.547 253.694C347.313 253.694 347.085 253.631 346.862 253.504C344.802 252.152 342.789 250.721 340.824 249.211C340.283 248.799 340.187 248.023 340.601 247.5C341.016 246.961 341.796 246.866 342.322 247.278C344.233 248.757 346.198 250.151 348.216 251.46C348.774 251.825 348.933 252.585 348.567 253.14C348.328 253.504 347.945 253.694 347.547 253.694ZM450.554 249.353C450.188 249.353 449.822 249.195 449.583 248.894C449.168 248.355 449.264 247.595 449.806 247.167C451.686 245.71 453.523 244.162 455.318 242.525C455.812 242.066 456.592 242.098 457.054 242.589C457.5 243.096 457.468 243.856 456.974 244.316C455.137 246.005 453.247 247.6 451.303 249.1C451.07 249.269 450.82 249.353 450.554 249.353ZM335.965 244.759C335.668 244.759 335.392 244.648 335.137 244.426C333.31 242.768 331.558 241.031 329.88 239.214C329.418 238.707 329.45 237.947 329.944 237.488C330.454 237.028 331.218 237.06 331.68 237.551C333.316 239.315 335.02 241.01 336.794 242.636C337.304 243.096 337.336 243.856 336.874 244.363C336.619 244.627 336.316 244.759 335.965 244.759ZM461.323 239.484C461.016 239.484 460.739 239.378 460.495 239.167C460.001 238.708 459.969 237.931 460.431 237.44C462.056 235.676 463.612 233.849 465.099 231.959C465.513 231.42 466.294 231.325 466.82 231.737C467.361 232.149 467.457 232.925 467.027 233.448C465.508 235.402 463.91 237.282 462.232 239.088C461.977 239.352 461.674 239.484 461.323 239.484ZM326.025 234.05C325.674 234.05 325.308 233.891 325.069 233.575C323.54 231.631 322.09 229.63 320.72 227.571C320.353 227.016 320.513 226.256 321.086 225.891C321.644 225.511 322.409 225.669 322.775 226.24C324.103 228.246 325.51 230.195 326.997 232.085C327.411 232.608 327.315 233.369 326.789 233.796C326.556 233.965 326.301 234.05 326.025 234.05ZM470.34 227.982C470.107 227.982 469.884 227.919 469.671 227.792C469.098 227.412 468.938 226.668 469.305 226.097C470.632 224.069 471.87 222.01 473.017 219.919C473.335 219.317 474.084 219.111 474.673 219.428C475.279 219.744 475.502 220.489 475.167 221.075C473.999 223.23 472.73 225.347 471.36 227.428C471.121 227.792 470.739 227.982 470.34 227.982ZM317.98 221.867C317.55 221.867 317.136 221.646 316.913 221.234C315.712 219.058 314.619 216.851 313.631 214.612C313.36 213.994 313.631 213.265 314.252 212.996C314.873 212.711 315.606 212.996 315.877 213.614C316.843 215.8 317.905 217.954 319.063 220.077C319.382 220.663 319.159 221.408 318.569 221.725C318.378 221.82 318.182 221.867 317.98 221.867ZM477.318 215.166C477.148 215.166 476.983 215.134 476.824 215.071C476.203 214.802 475.932 214.073 476.187 213.455C477.164 211.237 478.045 209.004 478.831 206.754C479.054 206.104 479.739 205.772 480.377 205.994C481.03 206.215 481.364 206.912 481.141 207.546C480.345 209.859 479.447 212.156 478.449 214.437C478.242 214.897 477.796 215.166 477.318 215.166ZM312.07 208.544C311.56 208.544 311.082 208.227 310.907 207.72C310.1 205.397 309.388 203.036 308.772 200.639C308.613 199.989 309.011 199.324 309.664 199.166C310.333 198.991 310.986 199.387 311.162 200.037C311.756 202.371 312.447 204.668 313.233 206.928C313.456 207.562 313.105 208.259 312.468 208.481C312.34 208.523 312.208 208.544 312.07 208.544ZM482.081 201.383C481.975 201.383 481.874 201.368 481.778 201.336C481.109 201.178 480.711 200.512 480.886 199.863C481.47 197.529 481.964 195.184 482.368 192.829C482.479 192.163 483.085 191.704 483.77 191.815C484.439 191.926 484.885 192.559 484.773 193.225C484.37 195.643 483.865 198.051 483.26 200.449C483.133 201.003 482.623 201.383 482.081 201.383ZM308.453 194.429C307.864 194.429 307.354 194.001 307.243 193.415C306.839 190.975 306.531 188.53 306.319 186.08C306.271 185.399 306.765 184.813 307.434 184.765C308.055 184.718 308.708 185.193 308.772 185.874C308.963 188.25 309.26 190.627 309.664 193.003C309.776 193.668 309.33 194.302 308.66 194.413C308.597 194.424 308.528 194.429 308.453 194.429ZM484.471 186.999C484.439 186.999 484.407 186.999 484.375 186.999C483.69 186.951 483.18 186.365 483.244 185.684C483.435 183.297 483.531 180.9 483.531 178.492V178.127C483.531 177.446 484.088 176.907 484.757 176.907C485.442 176.907 485.984 177.446 485.984 178.127L486 178.476C485.989 180.958 485.883 183.429 485.681 185.89C485.634 186.524 485.108 186.999 484.471 186.999ZM307.227 179.822C306.558 179.822 306 179.363 306 178.682V178.492C306 176.094 306.096 173.702 306.287 171.315C306.35 170.634 306.94 170.159 307.609 170.19C308.294 170.238 308.788 170.84 308.74 171.505C308.549 173.829 308.453 176.158 308.453 178.492C308.453 179.173 307.912 179.822 307.227 179.822ZM484.439 172.06C483.802 172.06 483.276 171.569 483.212 170.935C483.01 168.559 482.708 166.182 482.304 163.806C482.193 163.141 482.639 162.523 483.292 162.396C483.961 162.285 484.598 162.729 484.726 163.394C485.129 165.834 485.442 168.279 485.666 170.729C485.713 171.41 485.203 171.996 484.534 172.044C484.503 172.054 484.471 172.06 484.439 172.06ZM308.406 165.39C308.331 165.39 308.262 165.385 308.198 165.374C307.529 165.263 307.067 164.63 307.179 163.98C307.582 161.562 308.082 159.143 308.676 156.725C308.852 156.075 309.505 155.679 310.174 155.837C310.827 156.012 311.225 156.661 311.066 157.327C310.471 159.671 309.983 162.016 309.6 164.36C309.505 164.962 308.979 165.39 308.406 165.39ZM481.986 157.691C481.428 157.691 480.934 157.327 480.791 156.772C480.196 154.449 479.5 152.157 478.704 149.897C478.481 149.263 478.815 148.566 479.453 148.344C480.09 148.122 480.791 148.455 481.03 149.089C481.837 151.412 482.548 153.773 483.164 156.17C483.34 156.82 482.941 157.485 482.288 157.659C482.182 157.68 482.081 157.691 481.986 157.691ZM311.942 151.259C311.815 151.259 311.687 151.233 311.56 151.18C310.907 150.974 310.572 150.277 310.795 149.643C311.581 147.33 312.473 145.028 313.471 142.736C313.742 142.118 314.475 141.849 315.096 142.102C315.718 142.372 315.989 143.1 315.718 143.718C314.751 145.936 313.88 148.17 313.105 150.419C312.93 150.926 312.452 151.259 311.942 151.259ZM477.174 143.94C476.697 143.94 476.25 143.671 476.043 143.211C475.077 141.036 474.01 138.886 472.841 136.764C472.523 136.177 472.73 135.433 473.335 135.116C473.925 134.783 474.673 135.005 474.992 135.591C476.192 137.777 477.291 139.985 478.29 142.213C478.56 142.831 478.29 143.56 477.668 143.829C477.509 143.903 477.344 143.94 477.174 143.94ZM317.805 137.888C317.603 137.888 317.412 137.841 317.231 137.746C316.626 137.429 316.403 136.684 316.737 136.098C317.905 133.933 319.169 131.81 320.529 129.73C320.895 129.159 321.66 129.017 322.233 129.381C322.791 129.745 322.95 130.49 322.584 131.06C321.256 133.088 320.024 135.153 318.888 137.255C318.665 137.667 318.251 137.888 317.805 137.888ZM470.133 131.155C469.735 131.155 469.353 130.965 469.114 130.601C467.786 128.605 466.379 126.662 464.892 124.771C464.462 124.248 464.557 123.472 465.099 123.06C465.625 122.648 466.405 122.743 466.82 123.266C468.349 125.209 469.793 127.211 471.153 129.27C471.535 129.825 471.376 130.585 470.818 130.949C470.606 131.087 470.377 131.155 470.133 131.155ZM325.802 125.674C325.536 125.674 325.287 125.589 325.053 125.421C324.527 125.009 324.416 124.232 324.83 123.71C326.359 121.756 327.958 119.871 329.625 118.054C330.087 117.563 330.868 117.531 331.362 117.975C331.871 118.434 331.903 119.21 331.441 119.702C329.816 121.476 328.26 123.308 326.774 125.199C326.535 125.516 326.168 125.674 325.802 125.674ZM461.085 119.702C460.745 119.702 460.442 119.57 460.177 119.305C458.552 117.563 456.842 115.873 455.047 114.236C454.553 113.792 454.521 113.016 454.967 112.509C455.429 112.018 456.21 111.986 456.704 112.446C458.552 114.125 460.315 115.857 461.993 117.642C462.455 118.149 462.423 118.909 461.913 119.369C461.669 119.591 461.393 119.702 461.085 119.702ZM335.711 114.933C335.371 114.933 335.068 114.801 334.803 114.537C334.341 114.046 334.372 113.27 334.882 112.81C336.698 111.131 338.583 109.536 340.538 108.026C341.063 107.598 341.828 107.693 342.258 108.232C342.672 108.755 342.577 109.531 342.051 109.943C340.15 111.421 338.313 112.974 336.539 114.6C336.295 114.822 336.019 114.933 335.711 114.933ZM450.268 109.864C450.002 109.864 449.753 109.779 449.519 109.61C447.618 108.142 445.653 106.753 443.625 105.444C443.051 105.079 442.892 104.319 443.258 103.764C443.641 103.194 444.389 103.036 444.963 103.4C447.044 104.752 449.062 106.178 451.016 107.677C451.558 108.089 451.654 108.85 451.239 109.388C451.001 109.705 450.634 109.864 450.268 109.864ZM347.244 105.935C346.846 105.935 346.448 105.745 346.209 105.396C345.842 104.826 346.002 104.065 346.575 103.701C348.636 102.349 350.76 101.082 352.948 99.8989C353.521 99.5662 354.27 99.788 354.604 100.374C354.923 100.976 354.716 101.721 354.11 102.038C351.986 103.189 349.921 104.424 347.913 105.745C347.701 105.882 347.478 105.945 347.244 105.935ZM437.985 101.927C437.783 101.927 437.587 101.879 437.396 101.784C435.272 100.643 433.1 99.5926 430.88 98.6315C430.275 98.3622 429.988 97.6493 430.243 97.0315C430.53 96.4136 431.247 96.1284 431.868 96.3978C434.141 97.38 436.371 98.4573 438.559 99.6296C439.148 99.9464 439.371 100.691 439.053 101.277C438.829 101.689 438.415 101.927 437.985 101.927ZM360.1 98.9643C359.638 98.9643 359.176 98.6949 358.985 98.2355C358.698 97.6176 358.985 96.9047 359.607 96.6354C361.869 95.6321 364.173 94.7239 366.52 93.9106C367.158 93.7047 367.859 94.0373 368.082 94.671C368.305 95.3047 367.954 96.0017 367.317 96.2235C365.034 97.0156 362.793 97.8923 360.594 98.8534C360.435 98.9273 360.27 98.9643 360.1 98.9643ZM424.524 96.1126C424.396 96.1126 424.269 96.0915 424.141 96.0493C421.858 95.2783 419.543 94.6023 417.196 94.0214C416.543 93.863 416.144 93.1977 416.304 92.5324C416.479 91.8828 417.132 91.4867 417.801 91.6451C420.201 92.2471 422.575 92.9442 424.922 93.7363C425.575 93.9422 425.91 94.6393 425.687 95.273C425.527 95.7958 425.034 96.1126 424.524 96.1126ZM373.944 94.1958C373.387 94.1958 372.893 93.8314 372.749 93.2769C372.574 92.6274 372.972 91.962 373.641 91.7877C376.042 91.1857 378.463 90.6788 380.906 90.2669C381.575 90.156 382.212 90.5996 382.324 91.2649C382.435 91.9303 381.989 92.5482 381.32 92.6749C378.941 93.0657 376.583 93.5568 374.247 94.1482C374.141 94.1799 374.04 94.1958 373.944 94.1958ZM410.314 92.5798C410.25 92.5904 410.186 92.5851 410.123 92.564C407.744 92.1838 405.349 91.8987 402.938 91.7085C402.269 91.661 401.759 91.0749 401.823 90.4095C401.87 89.7283 402.476 89.1896 403.129 89.2847C405.604 89.4748 408.062 89.7705 410.505 90.1718C411.19 90.2669 411.636 90.9006 411.524 91.5659C411.429 92.1521 410.903 92.5798 410.314 92.5798ZM388.377 91.756C387.756 91.756 387.214 91.2808 387.167 90.6472C387.103 89.9818 387.597 89.3798 388.282 89.3322C390.735 89.121 393.209 89.0101 395.705 88.9995C396.39 88.9995 396.932 89.554 396.932 90.2194C396.932 90.9006 396.39 91.4392 395.705 91.455C393.284 91.455 390.878 91.5554 388.489 91.756C388.457 91.7666 388.42 91.7666 388.377 91.756Z" fill="#E8EAEE"/>
<path d="M114.09 206.991C112.66 206.991 111.231 206.959 109.802 206.896C109.005 206.858 108.379 206.194 108.417 205.378C108.455 204.581 109.138 204.012 109.935 203.974C112.78 204.088 115.626 204.088 118.472 203.974C119.326 203.955 119.952 204.562 119.99 205.359C120.028 206.175 119.402 206.858 118.586 206.896C117.094 206.959 115.595 206.991 114.09 206.991ZM101.245 206.194C101.182 206.194 101.119 206.188 101.055 206.175C98.1336 205.808 95.2498 205.321 92.4039 204.714C91.6071 204.543 91.1137 203.766 91.2845 202.969C91.4363 202.191 92.2142 201.697 93.0111 201.849C95.7811 202.444 98.589 202.918 101.435 203.272C102.232 203.367 102.801 204.107 102.687 204.904C102.592 205.644 101.985 206.194 101.245 206.194ZM127.143 206.156C126.441 206.156 125.796 205.606 125.701 204.885C125.606 204.069 126.175 203.348 126.972 203.234C129.805 202.88 132.607 202.406 135.377 201.811C136.155 201.622 136.952 202.134 137.122 202.912C137.293 203.709 136.781 204.486 136.003 204.657C133.144 205.277 130.261 205.77 127.351 206.137C127.288 206.15 127.219 206.156 127.143 206.156ZM84.3216 202.57C84.1825 202.57 84.0433 202.551 83.9041 202.513C81.1088 201.666 78.3452 200.692 75.6131 199.592C74.8732 199.288 74.4938 198.434 74.7973 197.694C75.1009 196.935 75.9547 196.575 76.6946 196.878C79.3507 197.941 82.0385 198.89 84.7579 199.724C85.5168 199.952 85.9532 200.768 85.7255 201.546C85.5358 202.172 84.9477 202.57 84.3216 202.57ZM144.066 202.513C143.44 202.513 142.871 202.096 142.662 201.47C142.435 200.711 142.871 199.895 143.649 199.648C146.381 198.814 149.056 197.865 151.674 196.803C152.433 196.499 153.287 196.86 153.59 197.618C153.894 198.358 153.534 199.212 152.775 199.516C150.068 200.603 147.31 201.584 144.503 202.456C144.351 202.494 144.205 202.513 144.066 202.513ZM68.2518 196.139C68.0241 196.139 67.8028 196.088 67.5878 195.987C64.9822 194.671 62.4273 193.242 59.9229 191.699C59.2399 191.282 59.0122 190.371 59.4486 189.688C59.866 189.005 60.7766 188.777 61.4597 189.214C63.9008 190.706 66.3862 192.091 68.9159 193.369C69.6368 193.729 69.9214 194.621 69.5609 195.323C69.2953 195.835 68.783 196.139 68.2518 196.139ZM160.117 196.044C159.586 196.044 159.074 195.759 158.808 195.247C158.447 194.526 158.732 193.634 159.453 193.274C162.008 191.983 164.487 190.592 166.89 189.1C167.592 188.682 168.484 188.891 168.901 189.574C169.338 190.276 169.129 191.168 168.427 191.585C165.948 193.128 163.399 194.564 160.781 195.892C160.566 195.993 160.345 196.044 160.117 196.044ZM53.5101 187.07C53.2066 187.07 52.9156 186.975 52.6374 186.785C50.3101 185.052 48.0334 183.212 45.8073 181.264C45.2002 180.733 45.1432 179.822 45.6745 179.215C46.2057 178.608 47.1164 178.551 47.7235 179.082C49.8864 180.967 52.1061 182.75 54.3828 184.432C55.0279 184.907 55.1608 185.817 54.6864 186.482C54.4018 186.861 53.9655 187.07 53.5101 187.07ZM174.821 186.956C174.384 186.956 173.929 186.747 173.663 186.368C173.17 185.723 173.303 184.793 173.967 184.319C176.244 182.624 178.451 180.834 180.588 178.949C181.215 178.418 182.125 178.475 182.656 179.082C183.188 179.689 183.131 180.6 182.524 181.15C180.323 183.085 178.046 184.926 175.693 186.671C175.428 186.861 175.137 186.956 174.821 186.956ZM40.5139 175.648C40.1091 175.648 39.755 175.496 39.4514 175.193C37.4403 173.093 35.5051 170.899 33.6458 168.609C33.1335 167.983 33.2284 167.073 33.8545 166.56C34.4806 166.048 35.3913 166.143 35.9035 166.769C37.7123 168.995 39.5969 171.133 41.5574 173.182C42.1266 173.751 42.1076 174.681 41.5195 175.231C41.2285 175.509 40.8933 175.648 40.5139 175.648ZM187.798 175.515C187.431 175.515 187.096 175.383 186.792 175.117C186.204 174.548 186.204 173.618 186.755 173.049C188.728 170.987 190.606 168.85 192.389 166.636C192.902 166.01 193.831 165.896 194.438 166.409C195.083 166.921 195.178 167.85 194.666 168.477C192.819 170.753 190.884 172.948 188.86 175.06C188.557 175.364 188.203 175.515 187.798 175.515ZM29.6046 162.216C29.1493 162.216 28.6939 161.988 28.4093 161.571C26.7524 159.142 25.2093 156.65 23.78 154.095C23.3816 153.393 23.6473 152.502 24.3303 152.103C25.0323 151.705 25.924 151.97 26.3224 152.672C27.7264 155.151 29.2252 157.567 30.8189 159.92C31.2742 160.584 31.1035 161.495 30.4394 161.95C30.1738 162.127 29.8955 162.216 29.6046 162.216ZM198.688 162.045C198.397 162.045 198.119 161.963 197.853 161.798C197.189 161.343 197.019 160.432 197.474 159.768C199.08 157.403 200.573 154.981 201.952 152.502C202.35 151.8 203.242 151.553 203.944 151.932C204.646 152.331 204.911 153.223 204.513 153.925C203.084 156.479 201.54 158.971 199.884 161.4C199.618 161.817 199.144 162.045 198.688 162.045ZM21.1429 147.132C20.5927 147.132 20.0615 146.81 19.8148 146.279C18.6006 143.622 17.5065 140.909 16.5326 138.139C16.248 137.38 16.6464 136.527 17.4053 136.261C18.1642 135.995 18.999 136.394 19.2835 137.153C20.2322 139.847 21.2946 142.484 22.4709 145.064C22.7935 145.804 22.471 146.658 21.7501 147C21.5477 147.088 21.3453 147.132 21.1429 147.132ZM207.131 146.943C206.929 146.943 206.726 146.898 206.524 146.81C205.803 146.487 205.48 145.615 205.803 144.875C206.979 142.282 208.042 139.644 208.99 136.963C209.256 136.185 210.11 135.806 210.85 136.071C211.609 136.337 212.007 137.172 211.741 137.931C210.767 140.701 209.673 143.42 208.459 146.089C208.231 146.62 207.681 146.943 207.131 146.943ZM15.3373 130.835C14.6923 130.835 14.104 130.399 13.9333 129.734C13.187 126.889 12.5673 124.03 12.074 121.159C11.9412 120.362 12.4724 119.603 13.2693 119.47C14.0661 119.338 14.825 119.869 14.9579 120.666C15.4385 123.461 16.0393 126.237 16.7603 128.995C16.969 129.773 16.4946 130.569 15.7167 130.778C15.5902 130.816 15.4638 130.835 15.3373 130.835ZM212.899 130.626C212.785 130.626 212.658 130.607 212.519 130.569C211.741 130.38 211.286 129.583 211.476 128.805C212.197 126.022 212.798 123.24 213.278 120.457C213.411 119.66 214.189 119.129 214.948 119.262C215.745 119.395 216.295 120.153 216.143 120.95C215.662 123.809 215.055 126.667 214.322 129.526C214.151 130.19 213.544 130.626 212.899 130.626ZM12.3965 113.779C11.6566 113.779 11.0116 113.209 10.9547 112.45C10.7017 109.529 10.5752 106.601 10.5752 103.666C10.5752 102.869 11.2203 102.205 12.0171 102.205C12.833 102.205 13.478 102.869 13.4969 103.666C13.4969 106.512 13.6171 109.352 13.8574 112.185C13.9333 113.001 13.3451 113.703 12.5293 113.779C12.4914 113.779 12.4471 113.779 12.3965 113.779ZM215.802 113.57C215.764 113.57 215.719 113.564 215.669 113.551C214.872 113.494 214.284 112.792 214.341 111.976C214.581 109.143 214.701 106.303 214.701 103.458V103.04C214.701 102.224 215.346 101.56 216.162 101.56C216.959 101.56 217.623 102.224 217.623 103.04V103.439C217.623 106.373 217.503 109.301 217.262 112.223C217.187 112.982 216.56 113.57 215.802 113.57ZM12.3776 96.4756C12.3397 96.4756 12.2954 96.4756 12.2448 96.4756C11.4479 96.4187 10.8408 95.6977 10.9167 94.9009C11.157 92.0044 11.5175 89.1016 11.9981 86.1925C12.1309 85.3957 12.9088 84.8455 13.6867 84.9972C14.4646 85.1111 15.0147 85.87 14.8819 86.6668C14.4139 89.5001 14.0598 92.3269 13.8194 95.1475C13.7625 95.9064 13.1175 96.4756 12.3776 96.4756ZM215.764 95.8495C215.005 95.8495 214.379 95.2613 214.303 94.5214C214.05 91.6755 213.683 88.8486 213.202 86.0407C213.069 85.2628 213.582 84.5039 214.398 84.3521C215.156 84.2003 215.934 84.7505 216.086 85.5474C216.592 88.4312 216.971 91.3341 217.224 94.2559C217.281 95.0527 216.693 95.7736 215.896 95.8495C215.846 95.8495 215.801 95.8495 215.764 95.8495ZM15.2424 79.4193C15.1159 79.4193 14.9957 79.4066 14.8819 79.3813C14.085 79.1726 13.6297 78.3758 13.8194 77.5979C14.553 74.752 15.4069 71.9504 16.3808 69.193C16.6464 68.4341 17.4812 68.0167 18.2401 68.3013C18.999 68.5669 19.3975 69.4018 19.1318 70.1607C18.1959 72.8421 17.3736 75.5615 16.6653 78.3188C16.4946 78.9829 15.8874 79.4193 15.2424 79.4193ZM212.785 78.7932C212.14 78.7932 211.552 78.3568 211.381 77.7117C210.647 74.967 209.8 72.2476 208.839 69.5535C208.573 68.8136 208.971 67.9599 209.73 67.6943C210.489 67.4286 211.324 67.827 211.609 68.5859C212.582 71.3433 213.443 74.1385 214.189 76.9718C214.398 77.7496 213.942 78.5465 213.164 78.7552C213.038 78.7931 212.911 78.8058 212.785 78.7932ZM20.9721 63.0838C20.7698 63.0838 20.5674 63.0459 20.365 62.97C19.6251 62.6285 19.3025 61.7558 19.644 61.0349C20.833 58.3661 22.1421 55.7478 23.5714 53.1802C23.9698 52.4782 24.8615 52.2126 25.5635 52.611C26.2654 53.0095 26.5312 53.9011 26.1327 54.6031C24.7414 57.0949 23.4639 59.6372 22.3002 62.2301C22.0536 62.7803 21.5223 63.0838 20.9721 63.0838ZM206.96 62.5147C206.41 62.5147 205.879 62.1921 205.632 61.6609C204.456 59.0806 203.166 56.5509 201.762 54.0718C201.363 53.3699 201.61 52.4781 202.312 52.0608C203.014 51.6813 203.906 51.928 204.304 52.63C205.746 55.185 207.074 57.7906 208.288 60.4467C208.63 61.1866 208.307 62.0593 207.567 62.3818C207.378 62.4704 207.175 62.5147 206.96 62.5147ZM29.377 47.9627C29.0987 47.9627 28.8268 47.8805 28.5612 47.7161C27.8971 47.2607 27.7263 46.35 28.1817 45.686C29.8007 43.2702 31.5335 40.9113 33.3802 38.6093C33.8924 37.9832 34.8031 37.8883 35.4292 38.4006C36.0743 38.8939 36.1691 39.8235 35.6569 40.4495C33.8735 42.6757 32.1849 44.965 30.5912 47.3176C30.3256 47.735 29.8513 47.9627 29.377 47.9627ZM198.461 47.4694C197.986 47.4694 197.531 47.2418 197.246 46.8244C195.665 44.4845 193.964 42.2013 192.143 39.9752C191.631 39.3491 191.725 38.4385 192.37 37.9263C192.978 37.414 193.907 37.5089 194.419 38.1349C196.279 40.4243 198.024 42.7705 199.656 45.1737C200.13 45.8377 199.959 46.7484 199.276 47.2038C199.023 47.3809 198.751 47.4694 198.461 47.4694ZM40.2293 34.4733C39.8499 34.4733 39.5147 34.3404 39.2237 34.0748C38.6356 33.5246 38.6167 32.5949 39.1669 32.0067C41.1906 29.8944 43.3028 27.8645 45.5037 25.9166C46.0918 25.3854 47.0215 25.4423 47.5717 26.0494C48.103 26.6376 48.046 27.5671 47.4389 28.0984C45.3013 29.9956 43.2523 31.9689 41.2918 34.0179C40.9882 34.3215 40.6341 34.4733 40.2293 34.4733ZM187.532 34.0368C187.128 34.0368 186.773 33.885 186.47 33.5815C184.497 31.5324 182.441 29.572 180.304 27.7C179.697 27.1688 179.621 26.2581 180.152 25.651C180.702 25.0249 181.613 24.9869 182.22 25.4991C184.434 27.4343 186.552 29.4581 188.576 31.5704C189.145 32.1396 189.126 33.0693 188.538 33.6385C188.247 33.9041 187.912 34.0368 187.532 34.0368ZM53.1875 23.0137C52.7512 23.0137 52.3148 22.805 52.0112 22.4256C51.5369 21.7805 51.6698 20.851 52.3149 20.3766C54.6675 18.6185 57.0897 16.9678 59.5814 15.4247C60.2644 15.0073 61.1561 15.216 61.5925 15.899C62.0099 16.582 61.8012 17.4927 61.1182 17.9101C58.7023 19.4153 56.3497 21.0217 54.0603 22.7292C53.7947 22.919 53.5037 23.0137 53.1875 23.0137ZM174.498 22.6533C174.195 22.6533 173.91 22.5585 173.645 22.3687C171.343 20.6739 168.977 19.0865 166.549 17.6066C165.866 17.1702 165.657 16.2785 166.074 15.5955C166.492 14.8935 167.403 14.6848 168.067 15.1022C170.571 16.6327 173.006 18.2707 175.371 20.0162C176.016 20.4905 176.168 21.4011 175.674 22.0461C175.39 22.4445 174.954 22.6533 174.498 22.6533ZM67.8913 13.8879C67.36 13.8879 66.8478 13.6034 66.5822 13.0911C66.2217 12.3702 66.5063 11.4975 67.2273 11.118C69.8455 9.78994 72.508 8.57561 75.2148 7.4752C75.9547 7.17164 76.8085 7.5321 77.112 8.29101C77.4156 9.03094 77.055 9.8847 76.3151 10.1883C73.6716 11.2507 71.0851 12.4335 68.5554 13.7362C68.3404 13.8374 68.1189 13.8879 67.8913 13.8879ZM159.738 13.6034C159.523 13.6034 159.307 13.5528 159.092 13.4516C156.537 12.1741 153.945 11.0104 151.314 9.9606C150.555 9.65704 150.194 8.80328 150.479 8.06334C150.783 7.30444 151.636 6.94398 152.376 7.24754C155.096 8.32265 157.771 9.51795 160.402 10.8334C161.123 11.2128 161.407 12.0855 161.066 12.8065C160.8 13.3187 160.288 13.6034 159.738 13.6034ZM83.9231 7.38036C83.297 7.38036 82.7089 6.98198 82.5192 6.35588C82.2725 5.57801 82.7089 4.76214 83.4868 4.53447C86.2947 3.66173 89.1279 2.91549 91.9865 2.29572C92.7644 2.12497 93.5423 2.63728 93.713 3.41516C93.8838 4.212 93.3905 4.98985 92.5936 5.1606C89.8236 5.76772 87.0726 6.48871 84.3406 7.3235C84.2015 7.3741 84.0623 7.39301 83.9231 7.38036ZM143.649 7.20967C143.522 7.20967 143.383 7.1843 143.231 7.13371C140.487 6.31156 137.736 5.6096 134.978 5.02778C134.182 4.85703 133.688 4.07918 133.84 3.28233C134.011 2.50446 134.808 2.01112 135.586 2.1629C138.431 2.75738 141.265 3.4847 144.085 4.34479C144.844 4.57246 145.299 5.38821 145.053 6.16609C144.863 6.79218 144.294 7.20967 143.649 7.20967ZM100.828 3.69968C100.107 3.69968 99.4617 3.16848 99.3668 2.42855C99.272 1.6317 99.8411 0.910767 100.638 0.796932C103.522 0.430128 106.437 0.177114 109.384 0.0379822C110.257 -0.113798 110.864 0.626095 110.902 1.42294C110.94 2.23876 110.314 2.92177 109.517 2.95972C106.659 3.0862 103.825 3.33287 101.017 3.69968C100.954 3.69968 100.891 3.69968 100.828 3.69968ZM126.744 3.62383C126.681 3.62383 126.618 3.62383 126.555 3.62383C123.734 3.26967 120.901 3.03569 118.055 2.92185C117.239 2.90288 116.613 2.21979 116.651 1.42294C116.689 0.607122 117.258 0 118.169 0C121.09 0.113835 124.006 0.354164 126.915 0.720967C127.712 0.81583 128.281 1.53688 128.186 2.3527C128.091 3.09263 127.465 3.62383 126.744 3.62383Z" fill="#E8EAEE"/>
<path d="M192.249 383.601H73.2533C53.1614 383.601 36.7881 367.247 36.7881 347.136C36.7881 327.044 53.1614 310.69 73.2533 310.69C74.9862 310.69 76.738 310.823 78.5088 311.088C81.9807 299.003 93.2314 290.275 106.076 290.275C111.047 290.275 115.828 291.546 120.097 293.956C129.184 283.806 141.991 278.038 155.708 278.038C173.429 278.038 189.84 288.037 198.055 303.67C217.805 306.497 232.433 323.25 232.433 343.418C232.433 365.577 214.409 383.601 192.249 383.601Z" fill="#F0EDFB"/>
<path fill-rule="evenodd" clip-rule="evenodd" d="M120.612 337.946V343.049C120.612 343.846 119.967 344.491 119.189 344.491H115.527C115.223 345.503 114.825 346.458 114.332 347.356L116.912 349.955C117.481 350.505 117.481 351.416 116.912 351.966L113.307 355.59C112.738 356.14 111.827 356.14 111.277 355.59L108.678 352.991C107.767 353.484 106.812 353.883 105.813 354.186V357.848C105.813 358.645 105.168 359.271 104.39 359.271H99.2675C98.4897 359.271 97.8446 358.645 97.8446 357.848V354.186C96.8327 353.895 95.8714 353.497 94.9607 352.991L92.3805 355.59C91.8113 356.14 90.9196 356.14 90.3504 355.59L86.7266 351.966C86.1764 351.416 86.1764 350.505 86.7266 349.955L89.3259 347.356C88.8326 346.445 88.4342 345.49 88.1307 344.491H84.4688C83.691 344.491 83.0459 343.846 83.0459 343.049V337.946C83.0459 337.149 83.691 336.504 84.4688 336.504H88.1495C88.4404 335.492 88.8326 334.537 89.3259 333.639L86.7266 331.04C86.1764 330.489 86.1764 329.579 86.7266 329.028L90.3504 325.405C90.9196 324.855 91.8113 324.855 92.3805 325.405L94.9607 328.004C95.8714 327.498 96.8327 327.1 97.8446 326.809V323.147C97.8446 322.35 98.4897 321.705 99.2675 321.705H104.39C105.168 321.705 105.813 322.35 105.813 323.147V326.809C106.825 327.1 107.78 327.498 108.678 328.004L111.277 325.405C111.827 324.855 112.738 324.855 113.307 325.405L116.912 329.028C117.481 329.579 117.481 330.489 116.912 331.04L114.332 333.639C114.825 334.537 115.217 335.492 115.508 336.504H119.189C119.967 336.504 120.612 337.149 120.612 337.946ZM110.442 340.488C110.442 335.745 106.572 331.893 101.829 331.893C97.0857 331.893 93.2153 335.745 93.2153 340.488C93.2153 345.25 97.0857 349.101 101.829 349.101C106.572 349.101 110.442 345.25 110.442 340.488Z" fill="#F2B4E8"/>
<path fill-rule="evenodd" clip-rule="evenodd" d="M175.857 316.951V323.667C175.857 324.692 175.022 325.546 173.979 325.546H169.236C168.843 326.899 168.318 328.177 167.661 329.378L171 332.736C171.74 333.457 171.74 334.653 171 335.373L166.238 340.136C165.517 340.876 164.322 340.876 163.601 340.136L160.243 336.796C159.041 337.454 157.763 337.979 156.41 338.371V343.114C156.41 344.158 155.556 344.993 154.532 344.993H147.815C146.772 344.993 145.937 344.158 145.937 343.114V338.371C144.584 337.979 143.3 337.454 142.086 336.796L138.747 340.136C138.007 340.876 136.83 340.876 136.09 340.136L131.347 335.373C130.607 334.653 130.607 333.457 131.347 332.736L134.686 329.378C134.016 328.177 133.491 326.899 133.112 325.546H128.369C127.325 325.546 126.49 324.692 126.49 323.667V316.951C126.49 315.908 127.325 315.073 128.369 315.073H133.112C133.491 313.719 134.016 312.436 134.686 311.221L131.347 307.882C130.607 307.142 130.607 305.966 131.347 305.226L136.09 300.483C136.83 299.743 138.007 299.743 138.747 300.483L142.086 303.822C143.3 303.152 144.584 302.621 145.937 302.228V297.485C145.937 296.461 146.772 295.607 147.815 295.607H154.532C155.556 295.607 156.41 296.461 156.41 297.485V302.228C157.763 302.621 159.041 303.152 160.243 303.822L163.601 300.483C164.322 299.743 165.517 299.743 166.238 300.483L171 305.226C171.74 305.966 171.74 307.142 171 307.882L167.661 311.221C168.318 312.436 168.843 313.719 169.236 315.073H173.979C175.022 315.073 175.857 315.908 175.857 316.951ZM162.481 320.309C162.481 314.067 157.397 308.983 151.174 308.983C144.932 308.983 139.847 314.067 139.847 320.309C139.847 326.551 144.932 331.617 151.174 331.617C157.397 331.617 162.481 326.551 162.481 320.309Z" fill="#D3C7FF"/>
<path fill-rule="evenodd" clip-rule="evenodd" d="M148.302 364.245L146.917 367.622C146.708 368.153 146.101 368.4 145.589 368.191L143.16 367.204C142.718 367.774 142.199 368.299 141.605 368.779L142.61 371.189C142.838 371.701 142.591 372.308 142.079 372.517L138.702 373.921C138.19 374.149 137.602 373.902 137.374 373.371L136.368 370.98C135.622 371.056 134.882 371.056 134.148 370.98L133.162 373.409C132.953 373.921 132.346 374.167 131.834 373.959L128.438 372.574C127.925 372.365 127.679 371.777 127.907 371.246L128.893 368.836C128.311 368.381 127.786 367.856 127.318 367.261L124.89 368.286C124.378 368.495 123.789 368.248 123.562 367.736L122.158 364.378C121.949 363.865 122.177 363.258 122.689 363.049L125.118 362.025C125.029 361.279 125.023 360.539 125.099 359.805L122.689 358.819C122.158 358.61 121.911 358.022 122.12 357.491L123.505 354.113C123.714 353.601 124.321 353.355 124.833 353.563L127.261 354.55C127.717 353.968 128.235 353.443 128.817 352.975L127.812 350.566C127.584 350.053 127.831 349.446 128.343 349.238L131.72 347.815C132.232 347.606 132.82 347.852 133.048 348.365L134.054 350.774C134.8 350.686 135.54 350.679 136.273 350.755L137.26 348.346C137.469 347.833 138.076 347.568 138.588 347.777L141.965 349.162C142.477 349.389 142.743 349.977 142.515 350.49L141.529 352.918C142.111 353.374 142.635 353.892 143.103 354.474L145.513 353.468C146.044 353.241 146.632 353.487 146.86 354.019L148.264 357.377C148.492 357.889 148.245 358.496 147.733 358.705L145.304 359.71C145.393 360.457 145.399 361.203 145.323 361.949L147.752 362.936C148.264 363.144 148.511 363.733 148.302 364.245ZM137.602 366.54C140.713 365.231 142.193 361.627 140.865 358.496C139.556 355.366 135.951 353.905 132.839 355.214C129.709 356.523 128.248 360.128 129.538 363.258C130.847 366.37 134.471 367.831 137.602 366.54Z" fill="#DED6F9"/>
<path d="M274.483 239.832L263.08 237.726C263.042 237.726 263.004 237.726 262.967 237.726C256.8 237.669 251.754 232.736 251.583 226.57V218.203C265.072 209.893 274.483 190.427 274.483 167.774C274.483 137.494 257.749 122.088 237.088 122.088H237.069C216.389 122.088 199.655 137.494 199.655 167.774C199.655 190.427 209.084 209.893 222.555 218.203V226.57C222.384 232.736 217.338 237.669 211.19 237.726C211.152 237.726 211.115 237.726 211.077 237.726L199.655 239.832C174.384 247.648 169.735 266.374 169.735 287.946V295.915H237.069H237.088H304.422V287.946C304.422 266.374 299.773 247.648 274.483 239.832Z" fill="#FFE9BA"/>
<path d="M251.659 224.805C251.659 224.793 251.64 224.755 251.602 224.691V224.805C251.64 224.805 251.659 224.805 251.659 224.805Z" fill="#FFE9BA"/>
<path d="M264.56 204.789C261.031 210.557 256.591 215.148 251.602 218.203V226.133C248.705 227.082 245.733 227.562 242.685 227.575C235.247 227.575 228.303 224.634 222.555 219.531V218.203C226.937 220.707 231.699 222.035 236.689 222.035C247.769 222.035 257.806 215.319 264.56 204.789Z" fill="#FFE9BA"/>
<path d="M251.659 224.805C251.659 224.805 251.64 224.805 251.602 224.805V224.691C251.64 224.755 251.659 224.793 251.659 224.805Z" fill="#FFE9BA"/>
<path d="M304.422 287.946V295.914H169.735V287.946C169.735 266.374 174.384 247.629 199.655 239.831L211.077 237.725C211.115 237.725 211.152 237.725 211.19 237.725C213.41 237.725 215.516 237.042 217.281 235.828C221.72 241.975 228.93 245.978 237.088 245.978C245.227 245.978 252.437 241.975 256.857 235.828C258.641 237.042 260.747 237.725 262.967 237.725C263.004 237.725 263.042 237.725 263.08 237.725L274.483 239.831C299.773 247.629 304.422 266.374 304.422 287.946Z" fill="#D0BFFF"/>
<path d="M251.659 224.805C251.659 224.805 251.64 224.805 251.602 224.805V224.691C251.64 224.755 251.659 224.793 251.659 224.805Z" fill="#FFE9BA"/>
<path d="M284.937 250.647V295.916H192.028V250.647C192.028 249.13 193.242 247.858 194.798 247.858H282.167C283.723 247.858 284.937 249.13 284.937 250.647Z" fill="#9E81EF"/>
<path d="M251.66 224.805C251.66 224.805 251.64 224.805 251.603 224.805V224.691C251.64 224.755 251.66 224.793 251.66 224.805Z" fill="#FFE9BA"/>
<path d="M222.328 218.089C221.214 217.47 220.127 216.768 219.064 215.983C219.026 215.996 218.988 215.983 218.95 215.945C218.894 215.869 218.893 215.869 218.893 215.813C218.678 215.585 218.457 215.332 218.229 215.054C219.558 216.154 220.886 217.198 222.328 218.089Z" fill="#FFE9BA"/>
<path d="M251.602 218.203V224.692C251.64 224.755 251.659 224.793 251.659 224.806C251.659 224.806 251.64 224.806 251.602 224.806V226.134C248.706 227.082 245.733 227.563 242.685 227.576C235.248 227.576 228.304 224.635 222.555 219.531C221.341 218.431 220.177 217.248 219.064 215.983C219.026 215.996 218.988 215.983 218.95 215.945C218.894 215.869 218.893 215.869 218.893 215.813C218.678 215.585 218.457 215.332 218.229 215.054C219.558 216.154 220.886 217.198 222.328 218.089C222.378 218.153 222.454 218.19 222.555 218.203C226.938 220.707 231.7 222.017 236.69 222.017C247.77 222.017 251.602 218.203 251.602 218.203Z" fill="#F3BE4C"/>
<path d="M204.113 193.596C204.113 193.596 185.634 179.499 194.399 145.329C194.399 145.329 197.587 146.733 198.061 148.574C198.554 150.414 195.784 136.716 206.409 122.088C206.409 122.088 210.564 125.465 210.564 127.325C210.564 129.165 212.879 122.24 226.729 111.141L229.043 117.155C229.043 117.155 250.198 103.761 264.56 111.141C264.56 111.141 259.532 114.84 259.988 116.7C259.988 116.7 272.927 118.54 277.082 133.32L273.857 132.864C273.857 132.864 279.852 147.967 280.307 151.268C280.307 151.268 285.582 180.505 270.441 191.831C270.441 191.831 276.911 166.256 263.706 146.088C263.124 145.203 262.505 144.33 261.847 143.47C261.847 143.47 246.233 155.518 229.973 143.034C229.973 143.034 200.414 146.24 204.113 193.596Z" fill="#051323"/>
<path d="M209.501 183.879C209.501 189.249 207.092 193.593 204.113 193.593C201.116 193.593 198.706 189.249 198.706 183.879C198.706 178.51 201.116 174.146 204.113 174.146C207.092 174.146 209.501 178.51 209.501 183.879Z" fill="#FFE9BA"/>
<path d="M277.5 183.879C277.5 189.249 275.09 193.593 272.092 193.593C269.114 193.593 266.704 189.249 266.704 183.879C266.704 178.51 269.114 174.146 272.092 174.146C275.09 174.146 277.5 178.51 277.5 183.879Z" fill="#FFE9BA"/>
<path d="M199.921 174.148C199.921 174.148 202.255 173.959 204.114 179.973L205.954 167.812L199.921 174.148Z" fill="#051323"/>
<path d="M271.276 166.636C271.276 166.636 272.623 178.626 271.276 180.941C271.276 180.941 275.337 176.008 277.499 179.556C278.353 180.941 271.276 166.636 271.276 166.636Z" fill="#051323"/>
<path d="M284.937 250.647L281.218 295.916H196.714L192.028 250.647C192.028 249.13 193.242 247.858 194.798 247.858H282.167C283.723 247.858 284.937 249.13 284.937 250.647Z" fill="white"/>
<path d="M246.631 274.003C246.631 278.481 242.988 282.104 238.511 282.104C234.033 282.104 230.409 278.481 230.409 274.003C230.409 269.507 234.033 265.883 238.511 265.883C242.988 265.883 246.631 269.507 246.631 274.003Z" fill="#FFD9F9"/>
<path d="M245.607 210.387L245.284 207.636C267.103 205.075 269.797 187.867 269.911 187.127L272.643 187.506C272.624 187.715 269.607 207.56 245.607 210.387Z" fill="#051323"/>
<path d="M251.602 208.623C251.602 210.159 250.369 211.393 248.832 211.393H241.281C239.763 211.393 238.511 210.159 238.511 208.623V207.56C238.511 206.023 239.763 204.79 241.281 204.79H248.832C250.369 204.79 251.602 206.023 251.602 207.56V208.623Z" fill="#051323"/>
<path d="M272.111 185.27C271.561 185.27 271.049 184.947 270.821 184.397C270.631 183.923 268.981 179.73 270.669 177.13C271.201 176.334 272.282 175.347 274.388 175.29C274.401 175.29 274.413 175.29 274.426 175.29C275.166 175.29 275.792 175.878 275.811 176.637C275.83 177.415 275.223 178.041 274.464 178.06C273.363 178.079 273.079 178.515 273.003 178.648C272.282 179.73 272.965 182.291 273.382 183.353C273.686 184.074 273.344 184.871 272.624 185.156C272.459 185.232 272.288 185.27 272.111 185.27Z" fill="#051323"/>
<path d="M203.696 182.766C203.519 182.766 203.342 182.728 203.165 182.653C202.463 182.368 202.121 181.552 202.406 180.85C202.861 179.788 203.526 177.226 202.805 176.145C202.729 176.012 202.444 175.576 201.344 175.557C200.585 175.519 199.978 174.893 199.997 174.134C200.015 173.356 200.566 172.73 201.419 172.787C203.525 172.825 204.607 173.811 205.138 174.627C206.827 177.226 205.176 181.419 204.967 181.894C204.759 182.425 204.246 182.766 203.696 182.766Z" fill="#051323"/>
<path d="M275.451 188.663C275.451 190.2 274.217 191.452 272.681 191.452H271.77C270.233 191.452 269 190.2 269 188.663V182.744C269 181.207 270.233 179.974 271.77 179.974H272.681C274.217 179.974 275.451 181.207 275.451 182.744V188.663Z" fill="#051323"/>
<path d="M206.163 188.663C206.163 190.2 204.929 191.452 203.412 191.452H202.501C200.945 191.452 199.712 190.2 199.712 188.663V182.744C199.712 181.207 200.945 179.974 202.501 179.974H203.412C204.929 179.974 206.163 181.207 206.163 182.744V188.663Z" fill="#051323"/>
<path d="M373.557 368.763C372.621 368.763 371.679 368.694 370.73 368.554C369.933 368.441 369.383 367.682 369.497 366.885C369.611 366.088 370.332 365.576 371.147 365.652C373.86 366.069 376.593 365.784 379.002 364.817C379.761 364.513 380.615 364.874 380.899 365.614C381.203 366.373 380.842 367.226 380.102 367.53C378.041 368.352 375.859 368.763 373.557 368.763ZM362.78 365.5C362.515 365.5 362.256 365.424 362.003 365.272C359.271 363.546 356.956 361.326 355.305 358.802C354.85 358.138 355.04 357.228 355.704 356.791C356.387 356.336 357.297 356.526 357.734 357.209C359.157 359.372 361.187 361.307 363.577 362.806C364.26 363.242 364.45 364.134 364.033 364.817C363.748 365.253 363.274 365.5 362.78 365.5ZM386.42 362.35C386.117 362.35 385.838 362.262 385.585 362.085C384.921 361.629 384.751 360.7 385.206 360.055C385.965 358.992 386.338 357.942 386.325 356.905C386.325 355.843 385.933 354.742 385.149 353.604C384.675 352.959 384.846 352.029 385.51 351.574C386.155 351.119 387.065 351.27 387.54 351.934C388.678 353.579 389.247 355.236 389.247 356.905C389.247 358.55 388.703 360.156 387.616 361.724C387.331 362.123 386.876 362.35 386.42 362.35ZM353.712 351.251C352.953 351.251 352.327 350.682 352.251 349.923C352.213 349.379 352.187 348.855 352.175 348.349C352.175 345.635 352.801 343.112 354.091 340.646C354.47 339.925 355.362 339.64 356.064 340.02C356.785 340.399 357.051 341.272 356.69 341.993C355.628 344.042 355.116 346.11 355.116 348.349C355.116 348.779 355.135 349.215 355.172 349.658C355.248 350.474 354.641 351.176 353.844 351.251C353.806 351.251 353.762 351.251 353.712 351.251ZM379.723 348.576C379.457 348.576 379.204 348.5 378.964 348.349C376.852 347.058 374.303 345.762 371.318 344.459C370.578 344.137 370.256 343.264 370.578 342.524C370.901 341.784 371.755 341.462 372.494 341.784C375.593 343.138 378.262 344.497 380.501 345.863C381.184 346.281 381.393 347.191 380.975 347.874C380.71 348.33 380.216 348.576 379.723 348.576ZM363.729 341.386C363.565 341.386 363.4 341.36 363.236 341.31C360.656 340.399 357.898 339.507 354.964 338.635C354.167 338.407 353.731 337.591 353.977 336.813C354.205 336.035 355.021 335.599 355.78 335.827C358.777 336.725 361.585 337.635 364.203 338.559C364.962 338.824 365.38 339.659 365.095 340.418C364.886 341.006 364.336 341.386 363.729 341.386ZM346.9 336.339C346.774 336.339 346.654 336.326 346.54 336.301C343.593 335.542 340.76 334.859 338.04 334.252C337.243 334.062 336.75 333.284 336.94 332.507C337.111 331.71 337.907 331.235 338.666 331.387C341.424 332.007 344.288 332.696 347.261 333.455C348.039 333.664 348.513 334.461 348.323 335.239C348.153 335.903 347.545 336.339 346.9 336.339ZM360.864 335.997C360.447 335.997 360.086 335.839 359.783 335.523C359.233 334.916 359.271 334.005 359.859 333.455C361.206 332.222 362.799 330.913 364.867 329.338C365.538 328.832 366.195 328.339 366.841 327.858C367.486 327.384 368.396 327.536 368.871 328.181C369.345 328.845 369.212 329.755 368.567 330.23C367.922 330.685 367.277 331.166 366.632 331.672C364.64 333.171 363.122 334.423 361.851 335.599C361.56 335.865 361.231 335.997 360.864 335.997ZM329.749 332.507C329.661 332.494 329.572 332.481 329.484 332.469C326.068 331.823 323.014 331.33 320.889 331.065C320.092 330.989 319.523 330.249 319.618 329.452C319.713 328.655 320.472 328.067 321.25 328.181C323.412 328.427 326.543 328.94 330.015 329.604C330.812 329.755 331.343 330.514 331.191 331.311C331.058 332.013 330.451 332.507 329.749 332.507ZM294.764 330.818C294.764 330.818 294.757 330.818 294.745 330.818C291.33 330.818 288.522 330.742 285.923 330.59C285.107 330.552 284.5 329.869 284.538 329.053C284.594 328.257 285.202 327.63 286.074 327.687C288.636 327.82 291.406 327.896 294.764 327.896C295.58 327.915 296.225 328.56 296.225 329.376C296.225 330.173 295.561 330.818 294.764 330.818ZM303.529 330.761C302.732 330.761 302.068 330.135 302.068 329.319C302.068 328.522 302.713 327.858 303.51 327.839C305.736 327.814 307.95 327.801 310.15 327.801H312.313C313.11 327.82 313.774 328.465 313.755 329.281C313.755 330.078 313.11 330.723 312.294 330.723H310.15C307.962 330.723 305.762 330.736 303.548 330.761C303.548 330.761 303.542 330.761 303.529 330.761ZM277.271 329.736C277.208 329.749 277.138 329.743 277.062 329.717C273.856 329.243 270.991 328.598 268.297 327.744C267.519 327.498 267.102 326.682 267.348 325.923C267.576 325.145 268.411 324.728 269.17 324.974C271.712 325.771 274.444 326.378 277.499 326.834C278.277 326.967 278.846 327.706 278.713 328.503C278.618 329.224 277.992 329.736 277.271 329.736ZM374.885 325.487C374.411 325.487 373.955 325.259 373.671 324.842C373.215 324.177 373.386 323.267 374.05 322.812C376.668 321.009 379.002 319.396 381.032 317.727C381.658 317.215 382.569 317.309 383.081 317.936C383.593 318.562 383.499 319.472 382.872 319.985C380.766 321.73 378.376 323.381 375.701 325.221C375.435 325.398 375.163 325.487 374.885 325.487ZM260.727 324.291C260.474 324.291 260.227 324.222 259.987 324.083C257.318 322.502 254.934 320.604 252.834 318.391C252.284 317.803 252.322 316.892 252.91 316.323C253.479 315.773 254.428 315.811 254.978 316.399C256.876 318.41 259.045 320.136 261.486 321.578C262.169 321.996 262.397 322.887 261.998 323.57C261.713 324.045 261.239 324.291 260.727 324.291ZM387.938 313.97C387.647 313.97 387.375 313.888 387.122 313.724C386.458 313.268 386.269 312.377 386.724 311.694C388.204 309.512 389.266 307.045 389.968 304.18C390.158 303.384 390.936 302.909 391.733 303.099C392.529 303.308 393.004 304.086 392.795 304.882C392.017 308.07 390.822 310.84 389.152 313.325C388.868 313.743 388.412 313.97 387.938 313.97ZM248.812 311.77C248.3 311.77 247.788 311.485 247.522 310.992C246.156 308.475 245.005 305.698 244.069 302.663C243.822 301.885 244.259 301.069 245.018 300.822C245.796 300.595 246.611 301.031 246.839 301.79C247.737 304.648 248.825 307.254 250.102 309.607C250.482 310.309 250.216 311.2 249.514 311.58C249.287 311.706 249.053 311.77 248.812 311.77ZM392.511 297.312C392.498 297.312 392.479 297.312 392.454 297.312C391.638 297.293 391.012 296.61 391.05 295.795C391.075 295.048 391.094 294.27 391.107 293.461C391.107 292.645 391.752 292 392.567 292C393.383 292 394.028 292.664 394.009 293.461C394.022 294.308 394.009 295.13 393.971 295.927C393.933 296.705 393.288 297.312 392.511 297.312Z" fill="#E8EAEE"/>
<path d="M324.186 358.845L320.075 340.629L306.348 353.296L312.042 355.068C308.324 358.308 303.08 359.615 298.025 358.046C294.669 357 291.808 354.778 289.948 351.814C289.309 350.812 287.987 350.507 286.985 351.132C285.983 351.756 285.663 353.078 286.302 354.08C288.699 357.93 292.418 360.791 296.746 362.142C298.635 362.723 300.518 363.009 302.397 362.999C307.873 362.999 313.103 360.603 316.691 356.506L324.186 358.845Z" fill="#FFD1F8"/>
<path d="M292.185 333.425C293.182 332.466 294.311 331.653 295.57 330.985C299.041 329.154 303.021 328.791 306.769 329.968C310.604 331.159 313.713 333.803 315.528 337.39C316.066 338.451 317.359 338.872 318.419 338.335C319.465 337.797 319.901 336.504 319.363 335.444C317.024 330.81 313.001 327.411 308.047 325.871C303.196 324.361 298.068 324.826 293.565 327.179C291.255 328.399 289.265 330.055 287.667 332.016L281 329.939L285.111 348.169L298.838 335.502L292.185 333.425Z" fill="#FFD1F8"/>
</svg>
