<svg width="506" height="450" viewBox="0 0 506 450" fill="none" xmlns="http://www.w3.org/2000/svg">
<g opacity="0.3">
<path d="M120.192 78.3903C118.778 77.5999 117.928 76.6527 118.464 75.0976C118.771 74.208 119.561 73.9518 120.451 74.0338C121.381 74.119 121.977 74.6378 122.058 75.5645C122.11 76.1525 122.15 76.9043 121.843 77.3194C121.464 77.8317 120.719 78.0707 120.192 78.3903Z" fill="#909090"/>
<path d="M156.177 78.4274C154.189 76.7487 153.796 75.5933 154.753 74.5718C155.436 73.8417 156.824 73.825 157.53 74.5385C158.511 75.5287 158.137 76.6956 156.177 78.4274Z" fill="#909090"/>
<path d="M30.9107 60.987C28.9278 59.3258 28.5287 58.1587 29.4813 57.1358C30.1655 56.4009 31.5488 56.3843 32.2576 57.1026C33.2422 58.1005 32.8681 59.2745 30.9107 60.987Z" fill="#909090"/>
<path d="M86.5917 110.872C86.5477 111.873 85.6233 112.693 84.5389 112.694C83.392 112.694 82.3395 111.616 82.4708 110.575C82.6028 109.529 83.4947 108.857 84.6804 108.909C85.7266 108.956 86.6351 109.888 86.5917 110.872Z" fill="#909090"/>
<path d="M64.9371 58.5496C65.0041 57.4053 65.6359 56.6217 66.5055 56.6057C67.4655 56.5882 68.7425 57.8779 68.7023 58.8251C68.6616 59.8021 67.3227 61.0057 66.3849 60.9094C65.4229 60.8109 64.8593 59.8924 64.9371 58.5496Z" fill="#909090"/>
<path d="M82.3477 58.4786C83.0184 57.3934 83.6069 56.3946 84.9693 56.6742C85.8089 56.8468 86.6248 58.2525 86.3718 59.0703C86.1021 59.9425 85.726 60.8978 84.6187 60.9013C83.0064 60.9066 82.9643 59.4209 82.3477 58.4786Z" fill="#909090"/>
<path d="M104.138 58.787C104.127 60.1011 103.422 60.9936 102.447 60.9239C101.602 60.8629 100.453 59.7421 100.372 58.8984C100.282 57.9646 101.505 56.6399 102.489 56.6051C103.449 56.5711 104.147 57.4952 104.138 58.787Z" fill="#909090"/>
<path d="M122.113 58.8382C122.086 60.1714 121.368 61.0292 120.373 60.9172C119.504 60.8193 118.389 59.686 118.338 58.8479C118.281 57.9076 119.544 56.6035 120.514 56.6013C121.468 56.5991 122.14 57.5392 122.113 58.8382Z" fill="#909090"/>
<path d="M138.283 60.9707C136.23 59.3839 135.803 58.281 136.717 57.1958C137.356 56.435 138.741 56.359 139.494 57.0432C140.528 57.9842 140.187 59.2041 138.283 60.9707Z" fill="#909090"/>
<path d="M30.9898 78.4094C28.9316 76.807 28.5069 75.7169 29.4169 74.6358C30.0528 73.8794 31.4433 73.7987 32.1954 74.4744C33.2322 75.4063 32.8957 76.6186 30.9898 78.4094Z" fill="#909090"/>
<path d="M173.674 56.6232C174.612 56.5204 175.948 57.7137 175.997 58.6985C176.037 59.4956 174.996 60.7118 174.113 60.9007C173.133 61.11 172.317 60.2802 172.231 58.9871C172.142 57.6499 172.704 56.7296 173.674 56.6232Z" fill="#909090"/>
<path d="M12.9989 78.41C10.9665 76.7915 10.5453 75.6823 11.4574 74.6204C12.1009 73.8711 13.4892 73.8064 14.2342 74.4911C15.267 75.4402 14.9239 76.6398 12.9989 78.41Z" fill="#909090"/>
<path d="M49.0693 78.3267C47.6343 78.0385 46.7673 77.3923 46.9585 75.8085C47.0892 74.7273 47.6075 74.1433 48.7104 74.0248C49.7732 73.9108 50.1512 74.6153 50.5006 75.3864C51.2228 76.9837 49.9938 77.578 49.0693 78.3267Z" fill="#909090"/>
<path d="M138.096 78.4151C136.174 76.6385 135.83 75.4434 136.856 74.493C137.599 73.8051 138.986 73.8679 139.633 74.6185C140.554 75.6874 140.138 76.7903 138.096 78.4151Z" fill="#909090"/>
<path d="M12.8292 61.0107C11.8512 60.1617 10.502 59.6188 11.2594 58.0555C11.6538 57.2418 12.3545 56.3902 13.389 56.6867C13.9362 56.8437 14.3937 57.5426 14.7393 58.0936C14.9242 58.3885 14.8301 58.8945 14.7772 59.2938C14.7395 59.5787 14.6356 59.9465 14.4302 60.0988C13.9561 60.451 13.4023 60.6945 12.8292 61.0107Z" fill="#909090"/>
<path d="M49.0859 60.8732C47.7433 60.6308 46.8004 60.0942 46.9522 58.489C47.0376 57.5849 47.3544 56.9072 48.2565 56.6542C49.0343 56.4359 50.3138 57.2518 50.614 58.2156C51.0507 59.617 49.9836 60.2065 49.0859 60.8732Z" fill="#909090"/>
<path d="M156.427 60.9367C154.684 60.5054 154.011 59.6776 154.27 58.1937C154.429 57.2856 154.964 56.4728 155.825 56.6761C156.6 56.8593 157.515 57.5273 157.861 58.2322C158.518 59.5757 157.192 60.1432 156.427 60.9367Z" fill="#909090"/>
<path d="M102.016 78.3435C101.082 77.5781 99.8668 76.9281 100.565 75.6126C100.931 74.9228 101.856 74.2836 102.63 74.1267C103.508 73.9487 103.99 74.7934 104.131 75.6958C104.369 77.206 103.627 77.9752 102.016 78.3435Z" fill="#909090"/>
<path d="M82.4006 145.827C82.808 144.486 83.3939 143.32 84.6568 143.552C85.4614 143.699 86.1078 144.715 86.7931 145.315C84.827 148.222 84.581 148.241 82.4006 145.827Z" fill="#909090"/>
<path d="M67.1144 78.3741C65.358 77.9386 64.7007 77.1003 64.95 75.6253C65.1043 74.7139 65.6462 73.9108 66.5068 74.117C67.2795 74.3021 68.1873 74.9707 68.5328 75.6753C69.1932 77.0202 67.8545 77.5793 67.1144 78.3741Z" fill="#909090"/>
<path d="M86.6108 128.432C85.9523 129.595 85.0668 130.559 83.6935 129.993C83.123 129.757 82.5294 128.737 82.5537 128.096C82.5836 127.278 83.0401 126.391 84.2507 126.313C85.8566 126.209 86.3819 127.112 86.6108 128.432Z" fill="#909090"/>
<path d="M50.7428 93.4359C50.7058 94.6086 49.9721 95.2887 48.7837 95.2516C47.5979 95.2151 46.9317 94.4959 46.97 93.2937C47.0082 92.1044 47.7158 91.4511 48.9297 91.4818C50.1282 91.512 50.781 92.2152 50.7428 93.4359Z" fill="#909090"/>
<path d="M173.689 143.467C174.587 143.39 175.843 144.327 175.972 145.169C176.115 146.097 174.986 147.439 173.972 147.547C173.088 147.641 172.361 146.906 172.234 145.793C172.093 144.558 172.725 143.549 173.689 143.467Z" fill="#909090"/>
<path d="M12.9487 143.768C14.122 143.779 14.8245 144.511 14.8015 145.697C14.7787 146.883 14.0619 147.58 12.8819 147.564C11.6961 147.549 11.0131 146.839 11.0268 145.636C11.0405 144.456 11.759 143.758 12.9487 143.768Z" fill="#909090"/>
<path d="M30.924 143.768C32.0935 143.788 32.7962 144.526 32.7725 145.708C32.7491 146.891 32.0285 147.585 30.8431 147.567C29.659 147.548 28.9813 146.836 28.9959 145.626C29.0103 144.444 29.7331 143.747 30.924 143.768Z" fill="#909090"/>
<path d="M156.19 126.34C157.363 126.361 158.059 127.089 158.039 128.278C158.02 129.462 157.306 130.148 156.111 130.132C154.923 130.116 154.246 129.408 154.26 128.197C154.275 127.018 155 126.32 156.19 126.34Z" fill="#909090"/>
<path d="M12.8718 91.4818C14.0706 91.4639 14.779 92.1396 14.8043 93.3244C14.8298 94.524 14.1518 95.2292 12.9559 95.2484C11.7596 95.267 11.0446 94.5842 11.0244 93.4052C11.0038 92.1947 11.6718 91.4998 12.8718 91.4818Z" fill="#909090"/>
<path d="M176 76.2094C176.008 77.0369 174.844 78.1238 173.897 78.1718C173.097 78.2115 172.273 77.3059 172.231 76.34C172.173 75.013 172.777 74.1042 173.75 74.0523C174.72 74.0005 175.99 75.2173 176 76.2094Z" fill="#909090"/>
<path d="M32.7753 93.3033C32.8055 94.508 32.1344 95.2221 30.9455 95.249C29.7467 95.2759 29.0227 94.5983 28.9972 93.425C28.9707 92.2125 29.6303 91.5119 30.8266 91.4818C32.0251 91.4511 32.7454 92.1248 32.7753 93.3033Z" fill="#909090"/>
<path d="M138.329 143.768C139.471 143.846 140.148 144.643 140.068 145.818C139.99 146.97 139.202 147.646 138.031 147.568C136.898 147.492 136.216 146.689 136.288 145.515C136.358 144.381 137.167 143.688 138.329 143.768Z" fill="#909090"/>
<path d="M156.179 143.767C157.349 143.789 158.054 144.522 158.039 145.701C158.024 146.888 157.31 147.582 156.119 147.568C154.941 147.555 154.253 146.838 154.26 145.633C154.268 144.449 154.991 143.746 156.179 143.767Z" fill="#909090"/>
<path d="M138.321 126.34C139.463 126.41 140.145 127.205 140.071 128.378C139.998 129.529 139.218 130.205 138.042 130.133C136.905 130.063 136.22 129.268 136.289 128.097C136.356 126.957 137.152 126.268 138.321 126.34Z" fill="#909090"/>
<path d="M14.8053 110.853C14.7779 112.028 14.0569 112.709 12.8638 112.684C11.6653 112.659 11.0036 111.962 11.0272 110.751C11.0505 109.565 11.7614 108.893 12.9659 108.918C14.1587 108.942 14.833 109.651 14.8053 110.853Z" fill="#909090"/>
<path d="M122.103 128.267C122.081 129.453 121.365 130.147 120.181 130.13C118.992 130.114 118.308 129.404 118.324 128.205C118.339 127.027 119.065 126.322 120.247 126.337C121.421 126.352 122.124 127.084 122.103 128.267Z" fill="#909090"/>
<path d="M82.3783 75.8213C83.0987 74.7806 83.7025 73.6662 85.1082 74.185C86.0664 74.5391 86.5725 75.5287 86.3455 76.4151C86.1766 77.0722 85.3798 77.9259 84.7512 78.0329C83.1663 78.3018 82.8309 76.9172 82.3783 75.8213Z" fill="#909090"/>
<path d="M50.7428 128.183C50.7702 129.388 50.0964 130.103 48.91 130.13C47.7216 130.156 47.0045 129.476 46.9688 128.29C46.9331 127.105 47.6254 126.367 48.7997 126.339C49.9836 126.312 50.7167 127.007 50.7428 128.183Z" fill="#909090"/>
<path d="M32.7738 128.181C32.799 129.387 32.1245 130.104 30.9403 130.13C29.7519 130.155 29.0284 129.472 28.996 128.292C28.9633 127.104 29.6528 126.37 30.8292 126.341C32.0121 126.312 32.7495 127.009 32.7738 128.181Z" fill="#909090"/>
<path d="M14.8037 128.181C14.8277 129.388 14.1538 130.104 12.9699 130.129C11.7715 130.155 11.0564 129.479 11.0268 128.294C10.9973 127.103 11.6831 126.373 12.8588 126.343C14.0464 126.312 14.7807 127.007 14.8037 128.181Z" fill="#909090"/>
<path d="M158.04 110.68C158.102 111.884 157.45 112.625 156.274 112.684C155.083 112.743 154.324 112.08 154.261 110.924C154.196 109.743 154.869 108.98 156.03 108.917C157.219 108.853 157.98 109.521 158.04 110.68Z" fill="#909090"/>
<path d="M140.072 110.86C140.044 112.032 139.319 112.711 138.124 112.684C136.927 112.657 136.263 111.955 136.29 110.744C136.316 109.569 137.041 108.889 138.238 108.916C139.429 108.944 140.101 109.656 140.072 110.86Z" fill="#909090"/>
<path d="M120.167 108.917C121.364 108.898 122.082 109.581 122.102 110.757C122.122 111.965 121.453 112.663 120.255 112.684C119.054 112.705 118.345 112.03 118.323 110.846C118.301 109.639 118.974 108.936 120.167 108.917Z" fill="#909090"/>
<path d="M140.072 93.4154C140.048 94.5862 139.322 95.2734 138.129 95.2497C136.935 95.2259 136.263 94.5176 136.291 93.3135C136.32 92.1319 137.035 91.4555 138.232 91.4799C139.432 91.5036 140.096 92.203 140.072 93.4154Z" fill="#909090"/>
<path d="M48.9042 108.918C50.0995 108.939 50.7657 109.639 50.7428 110.85C50.7205 112.032 50.0071 112.707 48.8073 112.684C47.61 112.662 46.9457 111.964 46.9668 110.752C46.9872 109.568 47.696 108.897 48.9042 108.918Z" fill="#909090"/>
<path d="M32.7759 110.747C32.8033 111.958 32.1377 112.66 30.9406 112.684C29.7399 112.708 29.0224 112.034 28.9963 110.858C28.9691 109.654 29.6394 108.944 30.8304 108.917C32.0251 108.89 32.7494 109.572 32.7759 110.747Z" fill="#909090"/>
<path d="M172.55 95.0684C172.166 92.2344 172.52 91.4838 174.117 91.485C175.047 91.4857 175.899 92.4143 175.985 93.5223C176.082 94.7808 175.149 95.2285 172.55 95.0684Z" fill="#909090"/>
<path d="M158.04 93.2091C158.119 94.3978 157.46 95.1734 156.306 95.2503C155.12 95.3284 154.334 94.6649 154.26 93.5223C154.183 92.3458 154.852 91.5612 155.998 91.4806C157.184 91.3973 157.963 92.0569 158.04 93.2091Z" fill="#909090"/>
<path d="M122.105 93.5204C122.035 94.6604 121.248 95.3259 120.061 95.2503C118.907 95.176 118.249 94.4042 118.324 93.2111C118.397 92.057 119.171 91.3992 120.362 91.4812C121.505 91.56 122.177 92.3458 122.105 93.5204Z" fill="#909090"/>
<path d="M103.902 94.9774C101.33 95.2624 100.351 94.8628 100.363 93.6382C100.374 92.4585 101.406 91.3844 102.435 91.4824C103.882 91.6202 104.137 92.1876 103.902 94.9774Z" fill="#909090"/>
<path d="M82.4006 93.2239C84.4649 90.9009 84.6103 90.9003 86.6223 93.1778C86.324 94.109 86.2391 95.144 84.8442 95.2759C83.406 95.411 82.8138 94.6476 82.4006 93.2239Z" fill="#909090"/>
<path d="M172.578 126.445C173.283 126.404 173.8 126.284 174.283 126.366C175.259 126.53 176.155 127.695 175.855 128.517C175.599 129.218 175.376 130.092 174.299 130.138C173.148 130.187 172.341 129.637 172.26 128.427C172.217 127.777 172.462 127.106 172.578 126.445Z" fill="#909090"/>
<path d="M68.6558 145.815C68.1024 146.778 67.5019 147.754 66.1382 147.487C65.2878 147.32 64.3978 145.877 64.749 145.107C64.9983 144.562 65.611 143.979 66.1733 143.825C67.3839 143.492 67.6606 143.8 68.6558 145.815Z" fill="#909090"/>
<path d="M103.919 144.081C104.111 146.604 103.666 147.607 102.473 147.557C101.518 147.516 100.327 146.247 100.365 145.312C100.414 144.117 101.422 143.738 103.919 144.081Z" fill="#909090"/>
<path d="M65.1654 94.9761C64.9212 92.1933 65.3107 91.4504 66.8803 91.485C67.7887 91.5048 68.7221 92.6084 68.6239 93.5473C68.4926 94.8141 67.5287 95.2432 65.1654 94.9761Z" fill="#909090"/>
<path d="M65.0915 126.485C65.8871 126.419 66.3882 126.3 66.8689 126.355C67.8157 126.466 68.828 127.606 68.5864 128.403C68.3683 129.123 68.149 129.991 67.1264 130.13C66.021 130.28 65.1584 129.726 64.9748 128.546C64.8855 127.973 65.0322 127.363 65.0915 126.485Z" fill="#909090"/>
<path d="M104.126 110.746C104.152 111.977 103.473 112.678 102.252 112.684C101.186 112.689 100.358 111.988 100.363 111.084C100.367 110.09 101.291 108.967 102.138 108.924C103.371 108.862 104.101 109.531 104.126 110.746Z" fill="#909090"/>
<path d="M48.5064 147.553C47.6317 147.519 46.9592 146.674 46.9693 145.621C46.9815 144.431 47.6968 143.743 48.8953 143.768C49.9147 143.79 50.7524 144.537 50.7333 145.407C50.7116 146.378 49.4557 147.589 48.5064 147.553Z" fill="#909090"/>
<path d="M120.083 143.768C121.262 143.697 122.044 144.38 122.103 145.533C122.157 146.583 121.528 147.451 120.649 147.541C119.711 147.637 118.43 146.5 118.342 145.492C118.264 144.604 119.046 143.83 120.083 143.768Z" fill="#909090"/>
<path d="M100.44 128.318C100.39 127.337 101.353 126.319 102.31 126.342C103.366 126.368 104.027 126.971 104.127 128.001C104.241 129.173 103.59 130.008 102.467 130.133C101.526 130.239 100.492 129.312 100.44 128.318Z" fill="#909090"/>
<path d="M68.6245 110.719C68.6717 111.706 67.7193 112.703 66.7605 112.684C65.6748 112.662 65.0678 112.11 64.9448 111.035C64.8103 109.858 65.4555 109.041 66.5973 108.915C67.5497 108.811 68.5774 109.725 68.6245 110.719Z" fill="#909090"/>
<path d="M174.039 112.682C172.851 112.646 172.196 111.934 172.234 110.718C172.271 109.526 172.99 108.872 174.206 108.923C174.988 108.955 175.882 109.9 175.916 110.73C175.958 111.723 175.008 112.711 174.039 112.682Z" fill="#909090"/>
</g>
<path d="M380.272 22.724V423.148C380.272 435.7 370.1 445.872 357.548 445.872H158.144C151.837 445.872 146.135 443.306 142.017 439.161C137.94 435.05 135.42 429.393 135.42 423.148V22.724C135.42 10.1718 145.592 0 158.144 0H357.547C361.257 0 364.76 0.888135 367.855 2.46776C375.227 6.22338 380.272 13.8824 380.272 22.724Z" fill="#E6EBF2"/>
<path d="M380.271 22.7239V423.148C380.271 435.7 370.099 445.872 357.547 445.872H158.143C151.836 445.872 146.135 443.306 142.017 439.161L367.854 2.46765C375.227 6.22328 380.271 13.8823 380.271 22.7239Z" fill="#E6EBF2"/>
<path d="M157.021 12.2222H359.335C360.668 12.2222 361.926 12.49 363.073 12.9771V12.978C366.474 14.4437 368.855 17.8129 368.855 21.7271V424.579C368.855 429.837 364.591 434.083 359.335 434.083H157.021C153.209 434.083 149.924 431.851 148.399 428.616L148.258 428.299C147.769 427.153 147.5 425.897 147.5 424.579V21.7271C147.5 16.6453 151.503 12.4894 156.531 12.2349L157.021 12.2222Z" fill="white" stroke="white"/>
<rect x="155.997" y="199.574" width="123" height="15" rx="7.5" fill="#F5F5F5"/>
<rect x="155.997" y="92.5741" width="204" height="93" rx="20" fill="#D7E5FF"/>
<rect x="168.997" y="130.574" width="178" height="15" rx="7.5" fill="white" fill-opacity="0.8"/>
<rect x="168.997" y="152.574" width="70" height="15" rx="7.5" fill="white" fill-opacity="0.8"/>
<path d="M177.979 117.342H173.263L172.507 119.574H169.285L173.857 106.938H177.421L181.993 119.574H178.735L177.979 117.342ZM177.187 114.966L175.621 110.34L174.073 114.966H177.187ZM188.119 106.938C189.451 106.938 190.615 107.202 191.611 107.73C192.607 108.258 193.375 109.002 193.915 109.962C194.467 110.91 194.743 112.008 194.743 113.256C194.743 114.492 194.467 115.59 193.915 116.55C193.375 117.51 192.601 118.254 191.593 118.782C190.597 119.31 189.439 119.574 188.119 119.574H183.385V106.938H188.119ZM187.921 116.91C189.085 116.91 189.991 116.592 190.639 115.956C191.287 115.32 191.611 114.42 191.611 113.256C191.611 112.092 191.287 111.186 190.639 110.538C189.991 109.89 189.085 109.566 187.921 109.566H186.463V116.91H187.921ZM201.035 119.7C200.111 119.7 199.283 119.55 198.551 119.25C197.819 118.95 197.231 118.506 196.787 117.918C196.355 117.33 196.127 116.622 196.103 115.794H199.379C199.427 116.262 199.589 116.622 199.865 116.874C200.141 117.114 200.501 117.234 200.945 117.234C201.401 117.234 201.761 117.132 202.025 116.928C202.289 116.712 202.421 116.418 202.421 116.046C202.421 115.734 202.313 115.476 202.097 115.272C201.893 115.068 201.635 114.9 201.323 114.768C201.023 114.636 200.591 114.486 200.027 114.318C199.211 114.066 198.545 113.814 198.029 113.562C197.513 113.31 197.069 112.938 196.697 112.446C196.325 111.954 196.139 111.312 196.139 110.52C196.139 109.344 196.565 108.426 197.417 107.766C198.269 107.094 199.379 106.758 200.747 106.758C202.139 106.758 203.261 107.094 204.113 107.766C204.965 108.426 205.421 109.35 205.481 110.538H202.151C202.127 110.13 201.977 109.812 201.701 109.584C201.425 109.344 201.071 109.224 200.639 109.224C200.267 109.224 199.967 109.326 199.739 109.53C199.511 109.722 199.397 110.004 199.397 110.376C199.397 110.784 199.589 111.102 199.973 111.33C200.357 111.558 200.957 111.804 201.773 112.068C202.589 112.344 203.249 112.608 203.753 112.86C204.269 113.112 204.713 113.478 205.085 113.958C205.457 114.438 205.643 115.056 205.643 115.812C205.643 116.532 205.457 117.186 205.085 117.774C204.725 118.362 204.197 118.83 203.501 119.178C202.805 119.526 201.983 119.7 201.035 119.7Z" fill="#95AFE0"/>
<path d="M156 249.574C156 238.528 164.954 229.574 176 229.574H280C291.046 229.574 300 238.528 300 249.574V402.574C300 413.62 291.046 422.574 280 422.574H176C164.954 422.574 156 413.62 156 402.574V249.574Z" fill="#EEE8FF"/>
<rect x="169.997" y="358.574" width="109" height="15" rx="7.5" fill="white" fill-opacity="0.8"/>
<rect x="169.997" y="385.574" width="86" height="15" rx="7.5" fill="white" fill-opacity="0.8"/>
<circle cx="227.914" cy="280.491" r="26.917" fill="white"/>
<path d="M241.373 291.279L238.205 267.618H218.209L215.041 291.279L225.103 293.364L228.207 284.074L231.31 293.364L241.373 291.279Z" fill="#C4B0FF"/>
<path d="M212.098 328.79C212.098 329.426 211.948 330.026 211.648 330.59C211.348 331.154 210.868 331.616 210.208 331.976C209.548 332.324 208.702 332.498 207.67 332.498H205.402V337.574H203.35V325.064H207.67C208.63 325.064 209.44 325.232 210.1 325.568C210.772 325.892 211.27 326.336 211.594 326.9C211.93 327.464 212.098 328.094 212.098 328.79ZM207.67 330.824C208.45 330.824 209.032 330.65 209.416 330.302C209.8 329.942 209.992 329.438 209.992 328.79C209.992 327.422 209.218 326.738 207.67 326.738H205.402V330.824H207.67ZM213.371 332.57C213.371 331.574 213.575 330.692 213.983 329.924C214.403 329.156 214.967 328.562 215.675 328.142C216.395 327.71 217.187 327.494 218.051 327.494C218.831 327.494 219.509 327.65 220.085 327.962C220.673 328.262 221.141 328.64 221.489 329.096V327.656H223.559V337.574H221.489V336.098C221.141 336.566 220.667 336.956 220.067 337.268C219.467 337.58 218.783 337.736 218.015 337.736C217.163 337.736 216.383 337.52 215.675 337.088C214.967 336.644 214.403 336.032 213.983 335.252C213.575 334.46 213.371 333.566 213.371 332.57ZM221.489 332.606C221.489 331.922 221.345 331.328 221.057 330.824C220.781 330.32 220.415 329.936 219.959 329.672C219.503 329.408 219.011 329.276 218.483 329.276C217.955 329.276 217.463 329.408 217.007 329.672C216.551 329.924 216.179 330.302 215.891 330.806C215.615 331.298 215.477 331.886 215.477 332.57C215.477 333.254 215.615 333.854 215.891 334.37C216.179 334.886 216.551 335.282 217.007 335.558C217.475 335.822 217.967 335.954 218.483 335.954C219.011 335.954 219.503 335.822 219.959 335.558C220.415 335.294 220.781 334.91 221.057 334.406C221.345 333.89 221.489 333.29 221.489 332.606ZM231.258 327.494C232.038 327.494 232.734 327.656 233.346 327.98C233.97 328.304 234.456 328.784 234.804 329.42C235.152 330.056 235.326 330.824 235.326 331.724V337.574H233.292V332.03C233.292 331.142 233.07 330.464 232.626 329.996C232.182 329.516 231.576 329.276 230.808 329.276C230.04 329.276 229.428 329.516 228.972 329.996C228.528 330.464 228.306 331.142 228.306 332.03V337.574H226.254V327.656H228.306V328.79C228.642 328.382 229.068 328.064 229.584 327.836C230.112 327.608 230.67 327.494 231.258 327.494ZM240.338 329.33V334.82C240.338 335.192 240.422 335.462 240.59 335.63C240.77 335.786 241.07 335.864 241.49 335.864H242.75V337.574H241.13C240.206 337.574 239.498 337.358 239.006 336.926C238.514 336.494 238.268 335.792 238.268 334.82V329.33H237.098V327.656H238.268V325.19H240.338V327.656H242.75V329.33H240.338ZM248.241 337.736C247.461 337.736 246.759 337.598 246.135 337.322C245.523 337.034 245.037 336.65 244.677 336.17C244.317 335.678 244.125 335.132 244.101 334.532H246.225C246.261 334.952 246.459 335.306 246.819 335.594C247.191 335.87 247.653 336.008 248.205 336.008C248.781 336.008 249.225 335.9 249.537 335.684C249.861 335.456 250.023 335.168 250.023 334.82C250.023 334.448 249.843 334.172 249.483 333.992C249.135 333.812 248.577 333.614 247.809 333.398C247.065 333.194 246.459 332.996 245.991 332.804C245.523 332.612 245.115 332.318 244.767 331.922C244.431 331.526 244.263 331.004 244.263 330.356C244.263 329.828 244.419 329.348 244.731 328.916C245.043 328.472 245.487 328.124 246.063 327.872C246.651 327.62 247.323 327.494 248.079 327.494C249.207 327.494 250.113 327.782 250.797 328.358C251.493 328.922 251.865 329.696 251.913 330.68H249.861C249.825 330.236 249.645 329.882 249.321 329.618C248.997 329.354 248.559 329.222 248.007 329.222C247.467 329.222 247.053 329.324 246.765 329.528C246.477 329.732 246.333 330.002 246.333 330.338C246.333 330.602 246.429 330.824 246.621 331.004C246.813 331.184 247.047 331.328 247.323 331.436C247.599 331.532 248.007 331.658 248.547 331.814C249.267 332.006 249.855 332.204 250.311 332.408C250.779 332.6 251.181 332.888 251.517 333.272C251.853 333.656 252.027 334.166 252.039 334.802C252.039 335.366 251.883 335.87 251.571 336.314C251.259 336.758 250.815 337.106 250.239 337.358C249.675 337.61 249.009 337.736 248.241 337.736Z" fill="#080C10"/>
<path d="M311.997 249.574C311.997 238.528 320.951 229.574 331.997 229.574H435.997C447.043 229.574 455.997 238.528 455.997 249.574V402.574C455.997 413.62 447.043 422.574 435.997 422.574H331.997C320.951 422.574 311.997 413.62 311.997 402.574V249.574Z" fill="#FFE4FB"/>
<rect x="325.997" y="358.574" width="109" height="15" rx="7.5" fill="white" fill-opacity="0.8"/>
<rect x="325.997" y="385.574" width="86" height="15" rx="7.5" fill="white" fill-opacity="0.8"/>
<circle cx="383.914" cy="280.491" r="26.917" fill="white"/>
<path d="M387.476 266.574C387.478 266.597 387.48 266.621 387.482 266.645C387.482 268.511 385.962 270.02 384.091 270.02C382.216 270.02 380.696 268.511 380.696 266.645C380.698 266.621 380.701 266.597 380.705 266.574L368.997 271.055L371.884 277.881L375.264 276.629V294.574H392.914V276.629L396.11 277.881L398.997 271.055L387.476 266.574Z" fill="#FFB4F3"/>
<path d="M358.45 325.064V326.738H355.12V337.574H353.068V326.738H349.72V325.064H358.45ZM368.142 330.194V331.922H360.744V330.194H368.142ZM374.657 337.736C373.877 337.736 373.175 337.598 372.551 337.322C371.939 337.034 371.453 336.65 371.093 336.17C370.733 335.678 370.541 335.132 370.517 334.532H372.641C372.677 334.952 372.875 335.306 373.235 335.594C373.607 335.87 374.069 336.008 374.621 336.008C375.197 336.008 375.641 335.9 375.953 335.684C376.277 335.456 376.439 335.168 376.439 334.82C376.439 334.448 376.259 334.172 375.899 333.992C375.551 333.812 374.993 333.614 374.225 333.398C373.481 333.194 372.875 332.996 372.407 332.804C371.939 332.612 371.531 332.318 371.183 331.922C370.847 331.526 370.679 331.004 370.679 330.356C370.679 329.828 370.835 329.348 371.147 328.916C371.459 328.472 371.903 328.124 372.479 327.872C373.067 327.62 373.739 327.494 374.495 327.494C375.623 327.494 376.529 327.782 377.213 328.358C377.909 328.922 378.281 329.696 378.329 330.68H376.277C376.241 330.236 376.061 329.882 375.737 329.618C375.413 329.354 374.975 329.222 374.423 329.222C373.883 329.222 373.469 329.324 373.181 329.528C372.893 329.732 372.749 330.002 372.749 330.338C372.749 330.602 372.845 330.824 373.037 331.004C373.229 331.184 373.463 331.328 373.739 331.436C374.015 331.532 374.423 331.658 374.963 331.814C375.683 332.006 376.271 332.204 376.727 332.408C377.195 332.6 377.597 332.888 377.933 333.272C378.269 333.656 378.443 334.166 378.455 334.802C378.455 335.366 378.299 335.87 377.987 336.314C377.675 336.758 377.231 337.106 376.655 337.358C376.091 337.61 375.425 337.736 374.657 337.736ZM385.802 327.494C386.558 327.494 387.23 327.656 387.818 327.98C388.418 328.304 388.886 328.784 389.222 329.42C389.57 330.056 389.744 330.824 389.744 331.724V337.574H387.71V332.03C387.71 331.142 387.488 330.464 387.044 329.996C386.6 329.516 385.994 329.276 385.226 329.276C384.458 329.276 383.846 329.516 383.39 329.996C382.946 330.464 382.724 331.142 382.724 332.03V337.574H380.672V324.254H382.724V328.808C383.072 328.388 383.51 328.064 384.038 327.836C384.578 327.608 385.166 327.494 385.802 327.494ZM393.406 326.342C393.034 326.342 392.722 326.216 392.47 325.964C392.218 325.712 392.092 325.4 392.092 325.028C392.092 324.656 392.218 324.344 392.47 324.092C392.722 323.84 393.034 323.714 393.406 323.714C393.766 323.714 394.072 323.84 394.324 324.092C394.576 324.344 394.702 324.656 394.702 325.028C394.702 325.4 394.576 325.712 394.324 325.964C394.072 326.216 393.766 326.342 393.406 326.342ZM394.414 327.656V337.574H392.362V327.656H394.414ZM399.16 329.096C399.46 328.592 399.856 328.202 400.348 327.926C400.852 327.638 401.446 327.494 402.13 327.494V329.618H401.608C400.804 329.618 400.192 329.822 399.772 330.23C399.364 330.638 399.16 331.346 399.16 332.354V337.574H397.108V327.656H399.16V329.096ZM406.41 329.33V334.82C406.41 335.192 406.494 335.462 406.662 335.63C406.842 335.786 407.142 335.864 407.562 335.864H408.822V337.574H407.202C406.278 337.574 405.57 337.358 405.078 336.926C404.586 336.494 404.34 335.792 404.34 334.82V329.33H403.17V327.656H404.34V325.19H406.41V327.656H408.822V329.33H406.41ZM414.313 337.736C413.533 337.736 412.831 337.598 412.207 337.322C411.595 337.034 411.109 336.65 410.749 336.17C410.389 335.678 410.197 335.132 410.173 334.532H412.297C412.333 334.952 412.531 335.306 412.891 335.594C413.263 335.87 413.725 336.008 414.277 336.008C414.853 336.008 415.297 335.9 415.609 335.684C415.933 335.456 416.095 335.168 416.095 334.82C416.095 334.448 415.915 334.172 415.555 333.992C415.207 333.812 414.649 333.614 413.881 333.398C413.137 333.194 412.531 332.996 412.063 332.804C411.595 332.612 411.187 332.318 410.839 331.922C410.503 331.526 410.335 331.004 410.335 330.356C410.335 329.828 410.491 329.348 410.803 328.916C411.115 328.472 411.559 328.124 412.135 327.872C412.723 327.62 413.395 327.494 414.151 327.494C415.279 327.494 416.185 327.782 416.869 328.358C417.565 328.922 417.937 329.696 417.985 330.68H415.933C415.897 330.236 415.717 329.882 415.393 329.618C415.069 329.354 414.631 329.222 414.079 329.222C413.539 329.222 413.125 329.324 412.837 329.528C412.549 329.732 412.405 330.002 412.405 330.338C412.405 330.602 412.501 330.824 412.693 331.004C412.885 331.184 413.119 331.328 413.395 331.436C413.671 331.532 414.079 331.658 414.619 331.814C415.339 332.006 415.927 332.204 416.383 332.408C416.851 332.6 417.253 332.888 417.589 333.272C417.925 333.656 418.099 334.166 418.111 334.802C418.111 335.366 417.955 335.87 417.643 336.314C417.331 336.758 416.887 337.106 416.311 337.358C415.747 337.61 415.081 337.736 414.313 337.736Z" fill="#080C10"/>
<path d="M353.778 79.0653H162.184C158.787 79.0653 156.034 76.3109 156.034 72.9152V56.3426C156.034 52.9456 158.787 50.1925 162.184 50.1925H353.778C357.175 50.1925 359.928 52.9469 359.928 56.3426V72.9152C359.928 76.3109 357.175 79.0653 353.778 79.0653Z" fill="#F4F5F6"/>
<g clip-path="url(#clip0_568_479)">
<path d="M164.664 63.6574C164.664 64.3687 164.804 65.0731 165.076 65.7303C165.349 66.3874 165.748 66.9846 166.251 67.4876C166.754 67.9905 167.351 68.3895 168.008 68.6617C168.665 68.9339 169.369 69.0741 170.081 69.0741C170.792 69.0741 171.496 68.9339 172.154 68.6617C172.811 68.3895 173.408 67.9905 173.911 67.4876C174.414 66.9846 174.813 66.3874 175.085 65.7303C175.357 65.0731 175.497 64.3687 175.497 63.6574C175.497 62.9461 175.357 62.2417 175.085 61.5845C174.813 60.9273 174.414 60.3302 173.911 59.8272C173.408 59.3242 172.811 58.9253 172.154 58.653C171.496 58.3808 170.792 58.2407 170.081 58.2407C169.369 58.2407 168.665 58.3808 168.008 58.653C167.351 58.9253 166.754 59.3242 166.251 59.8272C165.748 60.3302 165.349 60.9273 165.076 61.5845C164.804 62.2417 164.664 62.9461 164.664 63.6574Z" stroke="#A5A5A5" stroke-width="1.5" stroke-linecap="round" stroke-linejoin="round"/>
<path d="M175.592 70.2294C175.885 70.5223 176.36 70.5223 176.652 70.2294C176.945 69.9365 176.945 69.4617 176.652 69.1688L176.122 69.6991L175.592 70.2294ZM176.122 69.6991L176.652 69.1688L174.309 66.825L173.778 67.3553L173.248 67.8857L175.592 70.2294L176.122 69.6991Z" fill="#A5A5A5"/>
</g>
<path d="M296.887 29.1604H219.484C218.118 29.1604 217 28.0422 217 26.6759V25.978C217 24.6117 218.118 23.4935 219.484 23.4935H296.887C298.254 23.4935 299.373 24.6117 299.373 25.978V26.6759C299.373 28.0422 298.255 29.1604 296.887 29.1604Z" fill="#E6EBF2"/>
<path d="M93.0523 445.872C89.6908 445.872 86.9658 443.147 86.9658 439.786C86.9658 436.424 89.6908 433.699 93.0523 433.699C96.4137 433.699 99.1387 436.424 99.1387 439.786C99.1387 443.147 96.4137 445.872 93.0523 445.872Z" fill="#B2C1D7"/>
<path d="M93.0513 443.592C95.1503 443.592 96.8574 441.884 96.8574 439.786C96.8574 437.687 95.1497 435.98 93.0513 435.98C90.953 435.98 89.2452 437.687 89.2452 439.786C89.2452 441.884 90.953 443.592 93.0513 443.592Z" fill="#D2DCEB"/>
<path d="M59.8267 445.872C56.4652 445.872 53.7402 443.147 53.7402 439.786C53.7402 436.425 56.4652 433.7 59.8267 433.7C63.1881 433.7 65.9131 436.425 65.9131 439.786C65.9131 443.147 63.1881 445.872 59.8267 445.872Z" fill="#B2C1D7"/>
<path d="M59.8267 443.592C61.9257 443.592 63.6328 441.884 63.6328 439.786C63.6328 437.687 61.925 435.98 59.8267 435.98C57.7284 435.98 56.0206 437.687 56.0206 439.786C56.0206 441.884 57.7277 443.592 59.8267 443.592Z" fill="#D2DCEB"/>
<path d="M12.1367 356.215C12.1067 355.497 12.8009 354.555 13.3011 354.574H25.818C26.5221 354.574 27.1405 355.045 27.3258 355.726L28.7513 360.946H118.497C118.944 360.946 119.371 361.141 119.665 361.478C119.957 361.815 120.091 362.263 120.029 362.708L118.593 373.025C118.626 373.148 118.643 373.279 118.643 373.413C118.643 373.7 118.566 373.966 118.431 374.196L116.613 387.247L116.182 390.342L114.471 402.631L114.04 405.726L112.525 416.602C112.42 417.367 111.766 417.937 110.993 417.937H44.5914L46.7561 425.708C47.7691 429.346 51.1129 431.886 54.8864 431.886H102.225C103.08 431.886 103.772 432.577 103.772 433.432C103.772 434.287 103.08 434.978 102.225 434.978H54.8864C49.7299 434.978 45.16 431.508 43.775 426.539L41.1194 417.002C41.1194 417.002 41.1194 417.002 41.1194 417L41.1174 416.998C41.0895 416.936 41.0663 416.871 41.0496 416.803L37.9636 405.725L37.1027 402.63L33.6786 390.34L32.8177 387.246L29.2793 374.542L28.8456 372.986V372.984L26.0392 362.905C26.0266 362.859 26.0153 362.812 26.008 362.766L24.625 357.7H13.3011C12.6594 357.7 12.1644 356.879 12.1367 356.215ZM41.5359 407.025V407.03C41.5638 407.096 41.589 407.162 41.6096 407.233L43.7299 414.844H109.644L110.913 405.728H41.1732L41.5359 407.025ZM40.311 402.633H111.345L113.057 390.343H36.8902L40.311 402.633ZM36.0267 387.248H113.49L115.199 374.96H32.6058L36.0267 387.248ZM31.7437 371.867H115.63L116.721 364.042H29.5643L31.7437 371.867Z" fill="#B2C1D7"/>
<path d="M0 447.574L506 447.574" stroke="url(#paint0_linear_568_479)" stroke-width="3"/>
<defs>
<linearGradient id="paint0_linear_568_479" x1="4.37114e-08" y1="448.074" x2="506" y2="448.074" gradientUnits="userSpaceOnUse">
<stop stop-color="white"/>
<stop offset="0.490385" stop-color="#C5D5EB"/>
<stop offset="1" stop-color="white"/>
</linearGradient>
<clipPath id="clip0_568_479">
<rect width="15" height="15" fill="white" transform="translate(162.997 56.5741)"/>
</clipPath>
</defs>
</svg>
