<svg width="556" height="426" viewBox="0 0 556 426" fill="none" xmlns="http://www.w3.org/2000/svg">
<path d="M508.854 337.208H42.2104C34.0129 337.208 27.3652 330.56 27.3652 322.363V14.8454C27.3652 6.64794 34.0129 0.000244141 42.2104 0.000244141H508.854C517.052 0.000244141 523.7 6.64794 523.7 14.8454V322.363C523.7 330.56 517.052 337.208 508.854 337.208Z" fill="#E6EBF2"/>
<path d="M113.867 18.446H451.503C482.681 18.4462 507.946 43.712 507.946 74.8796V302.737C507.946 305.938 505.356 308.528 502.166 308.528H48.9092C45.7086 308.528 43.1183 305.938 43.1182 302.737V89.1843C43.1183 50.4202 74.3039 18.9416 112.952 18.4519L113.867 18.446Z" fill="white" stroke="white"/>
<path d="M303.42 323.279H247.649C245.854 323.279 244.396 321.821 244.396 320.026C244.396 318.222 245.854 316.764 247.649 316.764H303.42C305.215 316.764 306.683 318.222 306.683 320.026C306.683 321.821 305.215 323.279 303.42 323.279Z" fill="#D0DDEF"/>
<path d="M339.451 410.762H211.615L219.507 337.036H330.122L339.451 410.762Z" fill="#DDE4EF"/>
<path d="M360.312 424.291H190.765C188.645 424.291 186.932 422.568 186.932 420.457V411.209C186.932 409.099 188.645 407.376 190.765 407.376H360.312C362.423 407.376 364.146 409.099 364.146 411.209V420.457C364.146 422.568 362.423 424.291 360.312 424.291Z" fill="#D0DDEF"/>
<path d="M35.1573 93.7401C26.2155 93.7401 18.9561 87.0516 18.9561 78.7929V54.068H51.3585V78.7929C51.3585 87.0516 44.1092 93.7401 35.1573 93.7401Z" fill="#F3EFFF"/>
<path d="M67.5586 93.7401C58.6067 93.7401 51.3574 87.0516 51.3574 78.7929V54.068H83.7599V78.7929C83.7599 87.0516 76.5106 93.7401 67.5586 93.7401Z" fill="#D0BFFF"/>
<path d="M99.961 93.7401C91.009 93.7401 83.7598 87.0516 83.7598 78.7929V54.068H116.162V78.7929C116.162 87.0516 108.903 93.7401 99.961 93.7401Z" fill="#F3EFFF"/>
<path d="M132.995 93.7401H131.721C123.126 93.7401 116.162 86.7763 116.162 78.1812V54.068H148.565V78.1812C148.565 86.7763 141.591 93.7401 132.995 93.7401Z" fill="#D0BFFF"/>
<path d="M164.765 93.7401C155.813 93.7401 148.563 87.0516 148.563 78.7929V54.068H180.966V78.7929C180.966 87.0516 173.706 93.7401 164.765 93.7401Z" fill="#F3EFFF"/>
<path d="M197.169 93.7401C188.217 93.7401 180.968 87.0516 180.968 78.7929V54.068H213.37V78.7929C213.37 87.0516 206.111 93.7401 197.169 93.7401Z" fill="#D0BFFF"/>
<path d="M229.571 93.7401C220.619 93.7401 213.37 87.0516 213.37 78.7929V54.068H245.762V78.7929C245.762 87.0516 238.513 93.7401 229.571 93.7401Z" fill="#F3EFFF"/>
<path d="M261.965 93.7401C253.023 93.7401 245.764 87.0516 245.764 78.7929V54.068H278.166V78.7929C278.166 87.0516 270.917 93.7401 261.965 93.7401Z" fill="#D0BFFF"/>
<path d="M294.366 93.7401C285.424 93.7401 278.165 87.0516 278.165 78.7929V54.068H310.567V78.7929C310.567 87.0516 303.318 93.7401 294.366 93.7401Z" fill="#F3EFFF"/>
<path d="M326.769 93.7401C317.827 93.7401 310.567 87.0516 310.567 78.7929V54.068H342.97V78.7929C342.97 87.0516 335.721 93.7401 326.769 93.7401Z" fill="#D0BFFF"/>
<path d="M359.812 93.7401H358.528C349.933 93.7401 342.969 86.7763 342.969 78.1812V54.068H375.371V78.1812C375.371 86.7763 368.407 93.7401 359.812 93.7401Z" fill="#F3EFFF"/>
<path d="M391.572 93.7401C382.62 93.7401 375.371 87.0516 375.371 78.7929V54.068H407.774V78.7929C407.774 87.0516 400.524 93.7401 391.572 93.7401Z" fill="#D0BFFF"/>
<path d="M423.975 93.7401C415.023 93.7401 407.773 87.0516 407.773 78.7929V54.068H440.176V78.7929C440.176 87.0516 432.916 93.7401 423.975 93.7401Z" fill="#F3EFFF"/>
<path d="M456.378 93.7401C447.426 93.7401 440.177 87.0516 440.177 78.7929V54.068H472.579V78.7929C472.579 87.0516 465.32 93.7401 456.378 93.7401Z" fill="#D0BFFF"/>
<path d="M488.78 93.7401C479.828 93.7401 472.579 87.0516 472.579 78.7929V54.068H504.981V78.7929C504.981 87.0516 497.722 93.7401 488.78 93.7401Z" fill="#F3EFFF"/>
<path d="M521.183 93.7401C512.231 93.7401 504.981 87.0516 504.981 78.7929V54.068H537.384V78.7929C537.384 87.0516 530.124 93.7401 521.183 93.7401Z" fill="#D0BFFF"/>
<path d="M51.3483 54.0673C38.3893 54.0673 31.915 54.0673 18.9561 54.0673C40.5577 40.2961 62.1627 26.5249 83.7711 12.7537C93.4878 12.7537 98.3512 12.7537 108.068 12.7537C89.1647 26.5249 70.2582 40.2961 51.3483 54.0673Z" fill="#F3EFFF"/>
<path d="M116.153 54.0673C103.194 54.0673 96.7099 54.0673 83.751 54.0673C99.9556 40.2961 116.16 26.5249 132.365 12.7537C142.082 12.7537 146.945 12.7537 156.662 12.7537C143.162 26.5249 129.66 40.2961 116.153 54.0673Z" fill="#F3EFFF"/>
<path d="M180.958 54.0673C167.999 54.0673 161.515 54.0673 148.556 54.0673C159.356 40.2961 170.161 26.5249 180.968 12.7537C190.685 12.7537 195.548 12.7537 205.265 12.7537C195.548 29.2811 190.685 37.5398 180.958 54.0673Z" fill="#F3EFFF"/>
<path d="M245.762 54.0673C232.803 54.0673 226.318 54.0673 213.359 54.0673C219.844 37.5398 223.086 29.2811 229.571 12.7537C239.287 12.7537 244.151 12.7537 253.868 12.7537C250.625 29.2811 249.004 37.5398 245.762 54.0673Z" fill="#F3EFFF"/>
<path d="M310.576 54.0673C297.607 54.0673 291.133 54.0673 278.174 54.0673C278.174 37.5398 278.174 29.2811 278.174 12.7537C287.89 12.7537 292.754 12.7537 302.471 12.7537C305.713 29.2811 307.334 37.5398 310.576 54.0673Z" fill="#F3EFFF"/>
<path d="M375.384 54.0673C362.425 54.0673 355.941 54.0673 342.982 54.0673C336.497 37.5398 333.255 29.2811 326.771 12.7537C336.497 12.7537 341.361 12.7537 351.077 12.7537C360.794 29.2811 365.658 37.5398 375.384 54.0673Z" fill="#F3EFFF"/>
<path d="M440.186 54.0673C427.227 54.0673 420.743 54.0673 407.784 54.0673C396.983 40.2961 386.179 26.5249 375.371 12.7537C385.098 12.7537 389.951 12.7537 399.678 12.7537C413.177 26.5249 426.68 40.2961 440.186 54.0673Z" fill="#F3EFFF"/>
<path d="M504.993 54.0673C492.034 54.0673 485.549 54.0673 472.59 54.0673C456.386 40.2961 440.181 26.5249 423.977 12.7537C433.693 12.7537 438.557 12.7537 448.273 12.7537C467.176 26.5249 486.083 40.2961 504.993 54.0673Z" fill="#F3EFFF"/>
<path d="M83.7481 54.068C70.7892 54.068 64.3046 54.068 51.3457 54.068C70.2556 40.2968 89.1621 26.5256 108.065 12.7544C117.782 12.7544 122.645 12.7544 132.362 12.7544C116.157 26.5256 99.9528 40.2968 83.7481 54.068Z" fill="#D0BFFF"/>
<path d="M148.555 54.068C135.596 54.068 129.111 54.068 116.152 54.068C129.658 40.2968 143.161 26.5256 156.66 12.7544C166.387 12.7544 171.241 12.7544 180.967 12.7544C170.16 26.5256 159.356 40.2968 148.555 54.068Z" fill="#D0BFFF"/>
<path d="M213.358 54.068C200.4 54.068 193.915 54.068 180.956 54.068C190.683 37.5405 195.546 29.2819 205.263 12.7544C214.99 12.7544 219.843 12.7544 229.57 12.7544C223.085 29.2819 219.843 37.5405 213.358 54.068Z" fill="#D0BFFF"/>
<path d="M278.177 54.068C265.208 54.068 258.734 54.068 245.765 54.068C249.007 37.5405 250.628 29.2819 253.87 12.7544C263.587 12.7544 268.45 12.7544 278.177 12.7544C278.177 29.2819 278.177 37.5405 278.177 54.068Z" fill="#D0BFFF"/>
<path d="M342.978 54.068C330.019 54.068 323.534 54.068 310.575 54.068C307.333 37.5405 305.712 29.2819 302.47 12.7544C312.186 12.7544 317.05 12.7544 326.766 12.7544C333.251 29.2819 336.493 37.5405 342.978 54.068Z" fill="#D0BFFF"/>
<path d="M407.785 54.068C394.826 54.068 388.341 54.068 375.382 54.068C365.655 37.5405 360.792 29.2819 351.075 12.7544C360.792 12.7544 365.655 12.7544 375.372 12.7544C386.179 26.5256 396.984 40.2968 407.785 54.068Z" fill="#D0BFFF"/>
<path d="M472.588 54.068C459.629 54.068 453.145 54.068 440.186 54.068C426.68 40.2968 413.177 26.5256 399.678 12.7544C409.394 12.7544 414.258 12.7544 423.974 12.7544C440.179 26.5256 456.384 40.2968 472.588 54.068Z" fill="#D0BFFF"/>
<path d="M537.384 54.068C524.425 54.068 517.951 54.068 504.992 54.068C486.082 40.2968 467.176 26.5256 448.272 12.7544C457.989 12.7544 462.853 12.7544 472.569 12.7544C494.178 26.5256 515.783 40.2968 537.384 54.068Z" fill="#D0BFFF"/>
<path d="M230.378 256.588H107.191C102.175 256.588 98.0967 252.51 98.0967 247.493V126.193C98.0967 121.167 102.175 117.099 107.191 117.099H230.378C235.394 117.099 239.472 121.167 239.472 126.193V247.493C239.472 252.51 235.394 256.588 230.378 256.588Z" fill="#EEE8FF"/>
<path d="M132.397 293.423H113.759C111.873 293.423 110.354 291.894 110.354 290.018V271.38C110.354 269.494 111.873 267.974 113.759 267.974H132.397C134.273 267.974 135.802 269.494 135.802 271.38V290.018C135.802 291.894 134.273 293.423 132.397 293.423Z" fill="#FFF5FD"/>
<path d="M162.084 293.423H143.446C141.57 293.423 140.041 291.894 140.041 290.018V271.38C140.041 269.494 141.57 267.974 143.446 267.974H162.084C163.971 267.974 165.49 269.494 165.49 271.38V290.018C165.49 291.894 163.971 293.423 162.084 293.423Z" fill="#FFF5FD"/>
<path d="M191.786 293.424H173.148C171.261 293.424 169.742 291.894 169.742 290.018V271.38C169.742 269.494 171.261 267.975 173.148 267.975H191.786C193.662 267.975 195.191 269.494 195.191 271.38V290.018C195.191 291.894 193.662 293.424 191.786 293.424Z" fill="#FFF5FD"/>
<path d="M221.475 293.423H202.837C200.961 293.423 199.432 291.894 199.432 290.018V271.38C199.432 269.494 200.961 267.974 202.837 267.974H221.475C223.361 267.974 224.881 269.494 224.881 271.38V290.018C224.881 291.894 223.361 293.423 221.475 293.423Z" fill="#FFF5FD"/>
<path d="M231.221 283.463L229.886 282.515L231.262 280.588L229.773 278.966L230.977 277.855L233.362 280.455L231.221 283.463Z" fill="#E3E3E3"/>
<path d="M104.479 283.463L102.338 280.455L104.724 277.855L105.927 278.966L104.438 280.588L105.815 282.515L104.479 283.463Z" fill="#E3E3E3"/>
<path d="M349.823 213.692H254.022C252.768 213.692 251.759 212.682 251.759 211.428V171.348C251.759 170.094 252.768 169.085 254.022 169.085H349.823C351.077 169.085 352.086 170.094 352.086 171.348V211.428C352.086 212.682 351.077 213.692 349.823 213.692Z" fill="#E6EBF2"/>
<path d="M179.226 141.73C179.233 141.804 179.24 141.883 179.247 141.964C179.247 148.102 174.271 153.067 168.144 153.067C162.006 153.067 157.03 148.102 157.03 141.964C157.037 141.883 157.047 141.804 157.061 141.73L118.734 156.473L128.186 178.934L139.248 174.815V233.859H197.028V174.815L207.489 178.934L216.941 156.473L179.226 141.73Z" fill="#C4B0FF"/>
<path d="M307.061 141.1H256.062C253.533 141.1 251.474 139.05 251.474 136.522C251.474 133.983 253.533 131.934 256.062 131.934H307.061C309.59 131.934 311.639 133.983 311.639 136.522C311.639 139.05 309.59 141.1 307.061 141.1Z" fill="#E6EBF2"/>
<path d="M284.03 154.699H256.603C254.075 154.699 252.025 152.65 252.025 150.111C252.025 147.582 254.075 145.533 256.603 145.533H284.03C286.559 145.533 288.608 147.582 288.608 150.111C288.608 152.65 286.559 154.699 284.03 154.699Z" fill="#E6EBF2"/>
<path d="M331.562 243.83H278.849C274.363 243.83 270.713 240.18 270.713 235.693C270.713 231.197 274.363 227.557 278.849 227.557H331.562C336.048 227.557 339.688 231.197 339.688 235.693C339.688 240.18 336.048 243.83 331.562 243.83Z" fill="#E6EBF2"/>
<path d="M267.053 235.695C267.053 240.12 263.464 243.709 259.039 243.709C254.614 243.709 251.025 240.12 251.025 235.695C251.025 231.27 254.614 227.681 259.039 227.681C263.464 227.681 267.053 231.27 267.053 235.695Z" fill="#E6EBF2"/>
<path d="M260.131 255.719L261.141 258.37L263.975 258.513C264.546 258.543 264.77 259.257 264.332 259.614L262.13 261.398L262.864 264.131C263.007 264.681 262.405 265.12 261.926 264.814L259.55 263.264L257.175 264.814C256.706 265.12 256.094 264.681 256.247 264.131L256.981 261.398L254.779 259.614C254.33 259.257 254.564 258.543 255.125 258.513L257.96 258.37L258.979 255.719C259.183 255.189 259.927 255.189 260.131 255.719Z" fill="#9AEDF2"/>
<path d="M274.467 255.719L275.476 258.37L278.311 258.513C278.882 258.543 279.106 259.257 278.668 259.614L276.465 261.398L277.199 264.131C277.342 264.681 276.74 265.12 276.271 264.814L273.886 263.264L271.51 264.814C271.041 265.12 270.429 264.681 270.582 264.131L271.316 261.398L269.114 259.614C268.665 259.257 268.9 258.543 269.471 258.513L272.295 258.37L273.315 255.719C273.519 255.189 274.263 255.189 274.467 255.719Z" fill="#9AEDF2"/>
<path d="M288.801 255.719L289.821 258.37L292.645 258.513C293.216 258.543 293.45 259.257 293.002 259.614L290.8 261.398L291.534 264.131C291.687 264.681 291.075 265.12 290.606 264.814L288.23 263.264L285.844 264.814C285.375 265.12 284.774 264.681 284.917 264.131L285.651 261.398L283.448 259.614C283.01 259.257 283.234 258.543 283.805 258.513L286.64 258.37L287.649 255.719C287.853 255.189 288.597 255.189 288.801 255.719Z" fill="#9AEDF2"/>
<path d="M303.136 255.719L304.155 258.37L306.99 258.513C307.55 258.543 307.785 259.257 307.346 259.614L305.134 261.398L305.868 264.131C306.021 264.681 305.419 265.12 304.94 264.814L302.565 263.264L300.189 264.814C299.71 265.12 299.108 264.681 299.251 264.131L299.985 261.398L297.783 259.614C297.344 259.257 297.579 258.543 298.14 258.513L300.974 258.37L301.983 255.719C302.187 255.189 302.932 255.189 303.136 255.719Z" fill="#E3E3E3"/>
<path d="M317.483 255.719L318.492 258.37L321.326 258.513C321.887 258.543 322.122 259.257 321.683 259.614L319.471 261.398L320.215 264.131C320.358 264.681 319.756 265.12 319.277 264.814L316.902 263.264L314.526 264.814C314.047 265.12 313.445 264.681 313.588 264.131L314.332 261.398L312.12 259.614C311.681 259.257 311.916 258.543 312.476 258.513L315.311 258.37L316.331 255.719C316.524 255.189 317.279 255.189 317.483 255.719Z" fill="#E3E3E3"/>
<path d="M262.822 272.677C262.353 272.167 261.721 271.892 261.028 271.892C260.505 271.892 260.032 272.055 259.611 272.381C259.4 272.544 259.21 272.741 259.04 272.972C258.87 272.741 258.68 272.544 258.469 272.381C258.047 272.055 257.575 271.892 257.052 271.892C256.358 271.892 255.716 272.167 255.247 272.677C254.788 273.176 254.533 273.859 254.533 274.594C254.533 275.358 254.819 276.052 255.43 276.786C255.971 277.448 256.756 278.111 257.663 278.886C257.976 279.151 258.319 279.447 258.693 279.773C258.788 279.855 258.904 279.895 259.04 279.895C259.169 279.895 259.284 279.855 259.386 279.773C259.753 279.447 260.093 279.151 260.406 278.886C261.313 278.111 262.099 277.448 262.649 276.786C263.251 276.052 263.536 275.358 263.536 274.594C263.536 273.859 263.281 273.176 262.822 272.677Z" fill="#9AEDF2"/>
<path d="M273.61 271.84C271.408 271.84 269.614 273.625 269.614 275.827C269.614 276.52 269.797 277.204 270.144 277.805L269.491 279.773C269.478 279.827 269.488 279.875 269.522 279.916C269.549 279.943 269.58 279.956 269.614 279.956C269.627 279.956 269.641 279.953 269.654 279.946L271.795 279.385C272.356 279.671 272.978 279.824 273.61 279.824C275.813 279.824 277.597 278.029 277.597 275.827C277.597 273.625 275.813 271.84 273.61 271.84Z" fill="#9AEDF2"/>
<path d="M283.518 278.784V279.538C283.518 279.712 283.64 279.865 283.803 279.905C283.837 279.912 283.868 279.916 283.895 279.916C284.038 279.916 284.17 279.844 284.231 279.712V279.702C284.945 278.284 286.362 277.407 287.943 277.407H288.544V279.039C288.544 279.192 288.636 279.334 288.779 279.385C288.921 279.447 289.085 279.406 289.197 279.304L292.459 275.909C292.602 275.756 292.602 275.531 292.459 275.378L289.197 271.983C289.085 271.881 288.921 271.84 288.779 271.902C288.636 271.953 288.544 272.095 288.544 272.248V273.88H288.422C285.72 273.88 283.518 276.082 283.518 278.784Z" fill="#9AEDF2"/>
<path d="M128.036 138.735C128.036 141.54 124.666 143.86 123.981 146.436C123.26 149.112 124.995 152.802 123.643 155.141C122.273 157.507 118.2 157.844 116.273 159.772C114.346 161.699 114.017 165.773 111.642 167.143C109.304 168.495 105.614 166.76 102.938 167.472C100.363 168.166 98.043 171.528 95.2391 171.528C92.4444 171.528 90.1246 168.166 87.5399 167.472C84.873 166.76 81.1832 168.495 78.8451 167.143C76.4705 165.773 76.1326 161.699 74.2147 159.772C72.2876 157.844 68.2142 157.507 66.8442 155.141C65.4834 152.802 67.2187 149.112 66.5063 146.436C65.8213 143.86 62.4512 141.54 62.4512 138.735C62.4512 135.94 65.8213 133.62 66.5063 131.035C67.2187 128.368 65.4834 124.677 66.8442 122.339C68.2142 119.964 72.2876 119.626 74.2147 117.708C76.1326 115.781 76.4705 111.707 78.8451 110.336C81.1832 108.975 84.873 110.711 87.5399 109.998C90.1246 109.304 92.4444 105.943 95.2391 105.943C98.043 105.943 100.363 109.304 102.938 109.998C105.614 110.711 109.304 108.975 111.642 110.336C114.017 111.707 114.346 115.781 116.273 117.708C118.2 119.626 122.273 119.964 123.643 122.339C124.995 124.677 123.26 128.368 123.981 131.035C124.666 133.62 128.036 135.94 128.036 138.735Z" fill="#9AEDF2"/>
<path d="M83.6847 140.646V139.374H85.5927V133.482H86.3367L84.1167 134.826L83.5167 133.698L86.0367 132.186H87.1287V139.374H88.9167V140.646H83.6847ZM93.1721 140.766C92.5081 140.766 91.9441 140.598 91.4801 140.262C91.0241 139.918 90.6761 139.422 90.4361 138.774C90.2041 138.126 90.0881 137.334 90.0881 136.398C90.0881 135.454 90.2041 134.662 90.4361 134.022C90.6761 133.374 91.0241 132.886 91.4801 132.558C91.9441 132.23 92.5081 132.066 93.1721 132.066C93.8441 132.066 94.4081 132.23 94.8641 132.558C95.3281 132.886 95.6761 133.37 95.9081 134.01C96.1401 134.65 96.2561 135.442 96.2561 136.386C96.2561 137.322 96.1361 138.118 95.8961 138.774C95.6641 139.422 95.3201 139.918 94.8641 140.262C94.4081 140.598 93.8441 140.766 93.1721 140.766ZM93.1721 139.506C93.7161 139.506 94.1161 139.258 94.3721 138.762C94.6361 138.258 94.7681 137.466 94.7681 136.386C94.7681 135.314 94.6361 134.538 94.3721 134.058C94.1161 133.57 93.7161 133.326 93.1721 133.326C92.6361 133.326 92.2361 133.57 91.9721 134.058C91.7081 134.538 91.5761 135.318 91.5761 136.398C91.5761 137.47 91.7081 138.258 91.9721 138.762C92.2361 139.258 92.6361 139.506 93.1721 139.506ZM100.463 140.982L99.4794 140.406L104.423 131.85L105.395 132.426L100.463 140.982ZM99.4314 137.238C98.9834 137.238 98.5994 137.134 98.2794 136.926C97.9594 136.718 97.7154 136.422 97.5474 136.038C97.3794 135.646 97.2954 135.182 97.2954 134.646C97.2954 133.846 97.4834 133.218 97.8594 132.762C98.2354 132.298 98.7594 132.066 99.4314 132.066C99.8794 132.066 100.263 132.17 100.583 132.378C100.903 132.586 101.147 132.882 101.315 133.266C101.483 133.65 101.567 134.11 101.567 134.646C101.567 135.182 101.483 135.646 101.315 136.038C101.147 136.422 100.903 136.718 100.583 136.926C100.263 137.134 99.8794 137.238 99.4314 137.238ZM99.4314 136.23C99.7194 136.23 99.9434 136.102 100.103 135.846C100.263 135.582 100.343 135.182 100.343 134.646C100.343 134.11 100.263 133.714 100.103 133.458C99.9434 133.202 99.7194 133.074 99.4314 133.074C99.1434 133.074 98.9194 133.202 98.7594 133.458C98.5994 133.706 98.5194 134.102 98.5194 134.646C98.5194 135.19 98.5994 135.59 98.7594 135.846C98.9194 136.102 99.1434 136.23 99.4314 136.23ZM105.455 140.766C105.007 140.766 104.623 140.662 104.303 140.454C103.983 140.246 103.739 139.95 103.571 139.566C103.403 139.174 103.319 138.71 103.319 138.174C103.319 137.374 103.507 136.746 103.883 136.29C104.259 135.826 104.783 135.594 105.455 135.594C105.903 135.594 106.287 135.698 106.607 135.906C106.927 136.114 107.171 136.41 107.339 136.794C107.507 137.178 107.591 137.638 107.591 138.174C107.591 138.71 107.507 139.174 107.339 139.566C107.171 139.95 106.927 140.246 106.607 140.454C106.287 140.662 105.903 140.766 105.455 140.766ZM105.455 139.758C105.743 139.758 105.967 139.63 106.127 139.374C106.287 139.11 106.367 138.71 106.367 138.174C106.367 137.638 106.287 137.242 106.127 136.986C105.967 136.73 105.743 136.602 105.455 136.602C105.167 136.602 104.943 136.73 104.783 136.986C104.623 137.234 104.543 137.63 104.543 138.174C104.543 138.718 104.623 139.118 104.783 139.374C104.943 139.63 105.167 139.758 105.455 139.758Z" fill="#2B8B90"/>
<path d="M448.443 178.745H407.456C403.765 178.745 400.777 175.757 400.777 172.067V131.069C400.777 127.388 403.765 124.391 407.456 124.391H448.443C452.134 124.391 455.121 127.388 455.121 131.069V172.067C455.121 175.757 452.134 178.745 448.443 178.745Z" fill="#FFEBFC"/>
<path d="M448.443 265.951H407.456C403.765 265.951 400.777 262.954 400.777 259.263V218.275C400.777 214.584 403.765 211.597 407.456 211.597H448.443C452.134 211.597 455.121 214.584 455.121 218.275V259.263C455.121 262.954 452.134 265.951 448.443 265.951Z" fill="#FFEBFC"/>
<path d="M432.609 219.252C432.609 219.286 432.613 219.317 432.619 219.344C432.619 221.852 430.58 223.891 428.072 223.891C425.564 223.891 423.535 221.852 423.535 219.344C423.535 219.317 423.538 219.286 423.545 219.252L407.874 225.278L411.738 234.454L416.265 232.772V256.916H439.879V232.772L444.161 234.454L448.025 225.278L432.609 219.252Z" fill="#FFCAF7"/>
<path d="M444.557 166.203L440.56 136.003H415.336L411.339 166.203L424.033 168.864L427.948 157.006L431.863 168.864L444.557 166.203Z" fill="#FFCAF7"/>
<path d="M406.905 182.528L407.415 183.864L408.843 183.935C409.138 183.955 409.25 184.312 409.026 184.496L407.915 185.393L408.282 186.78C408.363 187.055 408.058 187.279 407.813 187.126L406.61 186.341L405.407 187.126C405.162 187.279 404.856 187.055 404.938 186.78L405.305 185.393L404.193 184.496C403.969 184.312 404.081 183.955 404.367 183.935L405.804 183.864L406.314 182.528C406.416 182.253 406.803 182.253 406.905 182.528Z" fill="#9AEDF2"/>
<path d="M414.156 182.528L414.665 183.864L416.103 183.935C416.389 183.955 416.511 184.312 416.287 184.496L415.165 185.393L415.542 186.78C415.614 187.055 415.308 187.279 415.073 187.126L413.87 186.341L412.667 187.126C412.422 187.279 412.117 187.055 412.188 186.78L412.565 185.393L411.444 184.496C411.229 184.312 411.342 183.955 411.627 183.935L413.065 183.864L413.575 182.528C413.676 182.253 414.054 182.253 414.156 182.528Z" fill="#9AEDF2"/>
<path d="M421.415 182.528L421.925 183.864L423.362 183.935C423.648 183.955 423.76 184.312 423.536 184.496L422.424 185.393L422.792 186.78C422.873 187.055 422.567 187.279 422.323 187.126L421.119 186.341L419.916 187.126C419.682 187.279 419.376 187.055 419.447 186.78L419.814 185.393L418.703 184.496C418.479 184.312 418.601 183.955 418.886 183.935L420.314 183.864L420.834 182.528C420.936 182.253 421.313 182.253 421.415 182.528Z" fill="#9AEDF2"/>
<path d="M428.666 182.528L429.186 183.864L430.613 183.935C430.899 183.955 431.021 184.312 430.797 184.496L429.675 185.393L430.052 186.78C430.124 187.055 429.818 187.279 429.583 187.126L428.38 186.341L427.177 187.126C426.932 187.279 426.627 187.055 426.698 186.78L427.075 185.393L425.964 184.496C425.739 184.312 425.852 183.955 426.137 183.935L427.575 183.864L428.085 182.528C428.187 182.253 428.564 182.253 428.666 182.528Z" fill="#9AEDF2"/>
<path d="M435.922 182.528L436.432 183.864L437.869 183.935C438.155 183.955 438.267 184.312 438.043 184.496L436.931 185.393L437.308 186.78C437.38 187.055 437.074 187.279 436.829 187.126L435.626 186.341L434.423 187.126C434.189 187.279 433.883 187.055 433.954 186.78L434.331 185.393L433.21 184.496C432.985 184.312 433.108 183.955 433.393 183.935L434.821 183.864L435.341 182.528C435.443 182.253 435.82 182.253 435.922 182.528Z" fill="#E3E3E3"/>
<path d="M448.025 193.631H405.712C404.804 193.631 404.07 192.897 404.07 191.99C404.07 191.082 404.804 190.358 405.712 190.358H448.025C448.922 190.358 449.656 191.082 449.656 191.99C449.656 192.897 448.922 193.631 448.025 193.631Z" fill="#F3EFFF"/>
<path d="M432.129 199.943H405.712C404.804 199.943 404.07 199.209 404.07 198.301C404.07 197.394 404.804 196.67 405.712 196.67H432.129C433.027 196.67 433.761 197.394 433.761 198.301C433.761 199.209 433.027 199.943 432.129 199.943Z" fill="#F3EFFF"/>
<path d="M406.905 269.549L407.415 270.885L408.843 270.966C409.138 270.976 409.25 271.333 409.026 271.517L407.915 272.424L408.282 273.811C408.363 274.086 408.058 274.311 407.813 274.147L406.61 273.362L405.407 274.147C405.162 274.311 404.856 274.086 404.938 273.811L405.305 272.424L404.193 271.517C403.969 271.333 404.081 270.976 404.367 270.966L405.804 270.885L406.314 269.549C406.416 269.284 406.803 269.284 406.905 269.549Z" fill="#9AEDF2"/>
<path d="M414.156 269.549L414.665 270.885L416.103 270.966C416.389 270.976 416.511 271.333 416.287 271.517L415.165 272.424L415.542 273.811C415.614 274.086 415.308 274.311 415.073 274.147L413.87 273.362L412.667 274.147C412.422 274.311 412.117 274.086 412.188 273.811L412.565 272.424L411.444 271.517C411.229 271.333 411.342 270.976 411.627 270.966L413.065 270.885L413.575 269.549C413.676 269.284 414.054 269.284 414.156 269.549Z" fill="#9AEDF2"/>
<path d="M421.415 269.549L421.925 270.885L423.362 270.966C423.648 270.976 423.76 271.333 423.536 271.517L422.424 272.424L422.792 273.811C422.873 274.086 422.567 274.311 422.323 274.147L421.119 273.362L419.916 274.147C419.682 274.311 419.376 274.086 419.447 273.811L419.814 272.424L418.703 271.517C418.479 271.333 418.601 270.976 418.886 270.966L420.314 270.885L420.834 269.549C420.936 269.284 421.313 269.284 421.415 269.549Z" fill="#9AEDF2"/>
<path d="M428.666 269.549L429.186 270.885L430.613 270.966C430.899 270.976 431.021 271.333 430.797 271.517L429.675 272.424L430.052 273.811C430.124 274.086 429.818 274.311 429.583 274.147L428.38 273.362L427.177 274.147C426.932 274.311 426.627 274.086 426.698 273.811L427.075 272.424L425.964 271.517C425.739 271.333 425.852 270.976 426.137 270.966L427.575 270.885L428.085 269.549C428.187 269.284 428.564 269.284 428.666 269.549Z" fill="#E3E3E3"/>
<path d="M435.922 269.549L436.432 270.885L437.869 270.966C438.155 270.976 438.267 271.333 438.043 271.517L436.931 272.424L437.308 273.811C437.38 274.086 437.074 274.311 436.829 274.147L435.626 273.362L434.423 274.147C434.189 274.311 433.883 274.086 433.954 273.811L434.331 272.424L433.21 271.517C432.985 271.333 433.108 270.976 433.393 270.966L434.821 270.885L435.341 269.549C435.443 269.284 435.82 269.284 435.922 269.549Z" fill="#E3E3E3"/>
<path d="M448.025 280.652H405.712C404.804 280.652 404.07 279.918 404.07 279.02C404.07 278.113 404.804 277.379 405.712 277.379H448.025C448.922 277.379 449.656 278.113 449.656 279.02C449.656 279.918 448.922 280.652 448.025 280.652Z" fill="#F3EFFF"/>
<path d="M432.129 286.964H405.712C404.804 286.964 404.07 286.23 404.07 285.333C404.07 284.425 404.804 283.691 405.712 283.691H432.129C433.027 283.691 433.761 284.425 433.761 285.333C433.761 286.23 433.027 286.964 432.129 286.964Z" fill="#F3EFFF"/>
<path d="M0 424L556 424" stroke="url(#paint0_linear_519_3126)" stroke-width="3"/>
<path d="M397.292 334.227V312.658C397.292 301.802 406.094 293 416.95 293C427.809 293 436.608 301.802 436.608 312.658V334.227" stroke="#E4ABDA" stroke-width="3" stroke-linecap="round" stroke-linejoin="round"/>
<path d="M481.203 423.92H438.395L451.353 320.195L469.214 327.955L481.203 423.92Z" fill="#FFE0FA"/>
<path d="M366.958 320.195L354 423.92H438.393L451.351 320.195H366.958Z" fill="#FFC9F6"/>
<path d="M389.433 334.227V312.658C389.433 301.802 398.235 293 409.091 293C419.95 293 428.748 301.802 428.748 312.658V334.227" stroke="#E4ABDA" stroke-width="3" stroke-linecap="round" stroke-linejoin="round"/>
<path d="M394.879 333.685C394.879 335.19 394.271 336.552 393.284 337.539C392.297 338.526 390.935 339.134 389.43 339.134C387.926 339.134 386.563 338.526 385.58 337.539C384.593 336.552 383.981 335.19 383.981 333.685C383.981 332.18 384.593 330.822 385.58 329.835" stroke="white" stroke-width="3" stroke-linecap="round" stroke-linejoin="round"/>
<path d="M434.197 333.685C434.197 335.19 433.589 336.552 432.602 337.539C431.615 338.526 430.253 339.134 428.749 339.134C427.244 339.134 425.882 338.526 424.898 337.539C423.911 336.552 423.3 335.19 423.3 333.685C423.3 332.18 423.911 330.822 424.898 329.835" stroke="white" stroke-width="3" stroke-linecap="round" stroke-linejoin="round"/>
<defs>
<linearGradient id="paint0_linear_519_3126" x1="4.37114e-08" y1="424.5" x2="556" y2="424.5" gradientUnits="userSpaceOnUse">
<stop stop-color="white"/>
<stop offset="0.490385" stop-color="#C5D5EB"/>
<stop offset="1" stop-color="white"/>
</linearGradient>
</defs>
</svg>
