<svg width="507" height="434" viewBox="0 0 507 434" fill="none" xmlns="http://www.w3.org/2000/svg">
<path d="M306 317.562C306 324.724 311.805 330.532 318.967 330.532L426.841 330.537C434.001 330.537 439.808 324.727 439.808 317.566L439.811 276.971C439.811 269.81 434.005 264.004 426.843 264.004L318.968 264C311.807 264 306.001 269.805 306.001 276.968L306 317.562Z" fill="#D7E5FF"/>
<path d="M364.082 314.574L327.133 314.571C325.228 314.571 323.437 313.829 322.09 312.482C320.742 311.135 320 309.342 320 307.438L320.001 286.136C320.001 282.202 323.201 279 327.133 279L364.083 279.002C368.017 279.002 371.217 282.204 371.217 286.138L371.216 307.44C371.216 311.372 368.017 314.574 364.082 314.574ZM327.133 281.943C324.824 281.945 322.944 283.825 322.944 286.137V307.439C322.943 308.558 323.378 309.609 324.171 310.402C324.961 311.192 326.014 311.628 327.133 311.628L364.082 311.631C366.394 311.631 368.273 309.751 368.273 307.441V286.139C368.273 283.827 366.394 281.945 364.083 281.945L327.133 281.943Z" fill="white"/>
<path d="M345.155 300.257C344.836 300.257 344.516 300.153 344.25 299.947L322.535 283.006C321.895 282.505 321.78 281.582 322.28 280.941C322.782 280.3 323.704 280.186 324.346 280.685L345.138 296.905L365.946 280.067C366.577 279.555 367.505 279.652 368.016 280.284C368.528 280.917 368.429 281.843 367.798 282.355L346.08 299.928C345.81 300.147 345.482 300.257 345.155 300.257Z" fill="white"/>
<path d="M422.021 292H380.979C380.438 292 380 291.328 380 290.5C380 289.672 380.439 289 380.979 289L422.021 289.002C422.562 289.002 423 289.672 423 290.5C423 291.329 422.562 292 422.021 292Z" fill="white"/>
<path d="M413.459 303.99L381.47 303.988C380.658 303.988 380 303.329 380 302.516C380 301.704 380.658 301.045 381.47 301.045L413.459 301.047C414.272 301.047 414.93 301.706 414.93 302.519C414.93 303.331 414.272 303.99 413.459 303.99Z" fill="white"/>
<path fill-rule="evenodd" clip-rule="evenodd" d="M302 16.7765C302 7.50905 309.846 0 319.523 0H488.991C498.667 0 506.513 7.51013 506.513 16.7765V30.8992H302V16.7765Z" fill="#DCCFFF"/>
<path fill-rule="evenodd" clip-rule="evenodd" d="M506.511 30.8984V140.567C506.511 149.835 498.667 157.348 488.99 157.348H319.523C309.847 157.348 302 149.835 302 140.567V30.8984H506.511Z" fill="#EFE9FF"/>
<path d="M486.59 15.9079C486.59 18.7696 488.911 21.0911 491.773 21.0911C494.637 21.0911 496.957 18.7686 496.957 15.9079C496.957 13.0461 494.637 10.7246 491.773 10.7246C488.91 10.7246 486.59 13.0461 486.59 15.9079Z" fill="white"/>
<path d="M470.328 15.9079C470.328 18.7696 472.647 21.0911 475.512 21.0911C478.376 21.0911 480.696 18.7686 480.696 15.9079C480.696 13.0461 478.375 10.7246 475.512 10.7246C472.649 10.7246 470.328 13.0461 470.328 15.9079Z" fill="white"/>
<path d="M454.062 15.9079C454.062 18.7696 456.383 21.0911 459.247 21.0911C462.111 21.0911 464.43 18.7686 464.43 15.9079C464.43 13.0461 462.11 10.7246 459.247 10.7246C456.383 10.7246 454.062 13.0461 454.062 15.9079Z" fill="white"/>
<path d="M496.509 64.5936C496.509 51.1455 485.606 40.2441 472.158 40.2441C458.709 40.2441 447.809 51.1455 447.809 64.5936C447.809 78.0417 458.709 88.9452 472.158 88.9452C485.606 88.9452 496.509 78.0417 496.509 64.5936Z" fill="white"/>
<mask id="mask0_653_17029" style="mask-type:luminance" maskUnits="userSpaceOnUse" x="447" y="40" width="50" height="49">
<path d="M496.509 64.5936C496.509 51.1455 485.606 40.2441 472.158 40.2441C458.709 40.2441 447.809 51.1455 447.809 64.5936C447.809 78.0417 458.709 88.9452 472.158 88.9452C485.606 88.9452 496.509 78.0417 496.509 64.5936Z" fill="white"/>
</mask>
<g mask="url(#mask0_653_17029)">
<path fill-rule="evenodd" clip-rule="evenodd" d="M493.845 89.9297C477.626 89.7922 466.658 89.7792 450.48 89.9297C450.364 83.8033 451.568 80.1663 456.127 78.1837C459.455 76.7393 464.133 76.9169 465.16 74.119C466.621 70.1495 463.298 66.3468 462.225 62.8256C459.901 55.2061 463.937 46.3025 471.26 45.6593C478.919 44.9891 484.047 53.7379 482.101 61.6963C481.098 65.7989 477.771 69.6287 478.939 73.6664C479.627 76.0431 482.462 76.6992 485.263 77.507C491.317 79.2524 493.805 81.5761 493.845 89.9297Z" fill="#AE95F5"/>
</g>
<path fill-rule="evenodd" clip-rule="evenodd" d="M270 78.7988V223.589C270 235.825 259.651 245.739 246.871 245.739H23.1344C10.3561 245.739 0.00390625 235.823 0.00390625 223.589V78.7988H270Z" fill="#FFE4FB"/>
<path fill-rule="evenodd" clip-rule="evenodd" d="M0 60.1542C0 47.9164 10.3558 38 23.1341 38H246.871C259.653 38 270 47.9164 270 60.1542V78.7964H0V60.1542Z" fill="#FDD9F8"/>
<path d="M41.6074 57.7257C41.6074 62.6121 45.565 66.5842 50.4586 66.5842C55.3535 66.5842 59.3147 62.6108 59.3147 57.7257C59.3147 52.8393 55.3523 48.8672 50.4586 48.8672C45.565 48.866 41.6074 52.8393 41.6074 57.7257Z" fill="white"/>
<path d="M28.8267 66.5213H18.6973L23.7638 57.748L28.8267 48.9747L33.8895 57.748L38.9536 66.5213H28.8267Z" fill="white"/>
<path d="M141.609 219.921C141.609 224.13 145.02 227.542 149.229 227.542H246.9C251.109 227.542 254.52 224.13 254.52 219.921V100.585C254.52 96.377 251.109 92.9648 246.9 92.9648H149.229C145.02 92.9648 141.609 96.377 141.609 100.585V219.921Z" fill="white"/>
<path d="M129.373 100.585C129.373 96.377 125.961 92.9648 121.754 92.9648H24.0814C19.8731 92.9648 16.4609 96.377 16.4609 100.585V219.921C16.4609 224.13 19.8731 227.542 24.0814 227.542H121.754C125.961 227.542 129.373 224.13 129.373 219.921V100.585Z" fill="white"/>
<path d="M84.0188 184.394C84.0188 168.433 71.0786 155.494 55.1182 155.494C39.1565 155.494 26.2188 168.433 26.2188 184.394C26.2188 200.354 39.1565 213.293 55.1182 213.293C71.0786 213.293 84.0188 200.355 84.0188 184.394Z" fill="#D7E5FF"/>
<path d="M23.6914 178.324C26.529 163.55 39.5155 152.387 55.1168 152.387C57.8424 152.387 60.4888 152.729 63.0148 153.372L55.1168 186.879L23.6914 178.324Z" fill="#A2BDEE"/>
<path d="M29.845 146.873H119.017C120.035 146.873 120.86 146.05 120.86 145.032C120.86 144.015 120.035 143.189 119.017 143.189H29.845C28.8273 143.189 28.002 144.015 28.002 145.032C28.002 146.05 28.8273 146.873 29.845 146.873Z" fill="#FFE2FB"/>
<path d="M29.845 126.86H119.017C120.035 126.86 120.86 126.035 120.86 125.017C120.86 123.999 120.035 123.174 119.017 123.174H29.845C28.8273 123.174 28.002 123.999 28.002 125.017C28.002 126.035 28.8273 126.86 29.845 126.86Z" fill="#FFE2FB"/>
<path d="M29.845 106.846H119.017C120.035 106.846 120.86 106.02 120.86 105.003C120.86 103.985 120.035 103.162 119.017 103.162H29.845C28.8273 103.162 28.002 103.985 28.002 105.003C28.002 106.02 28.8273 106.846 29.845 106.846Z" fill="#FFE2FB"/>
<path d="M91.22 186.943H119.015C120.033 186.943 120.858 186.12 120.858 185.103C120.858 184.085 120.033 183.26 119.015 183.26H91.22C90.2023 183.26 89.377 184.085 89.377 185.103C89.377 186.12 90.2023 186.943 91.22 186.943Z" fill="#FFE2FB"/>
<path d="M91.22 166.93H119.015C120.033 166.93 120.858 166.105 120.858 165.087C120.858 164.069 120.033 163.244 119.015 163.244H91.22C90.2023 163.244 89.377 164.069 89.377 165.087C89.377 166.106 90.2023 166.93 91.22 166.93Z" fill="#FFE2FB"/>
<path d="M91.22 206.992H119.015C120.033 206.992 120.858 206.169 120.858 205.152C120.858 204.134 120.033 203.309 119.015 203.309H91.22C90.2023 203.309 89.377 204.134 89.377 205.152C89.377 206.169 90.2023 206.992 91.22 206.992Z" fill="#FFE2FB"/>
<path d="M153.48 146.873H242.652C243.669 146.873 244.495 146.05 244.495 145.032C244.495 144.015 243.669 143.189 242.652 143.189H153.48C152.462 143.189 151.637 144.015 151.637 145.032C151.638 146.05 152.462 146.873 153.48 146.873Z" fill="#FFE2FB"/>
<path d="M153.48 126.86H242.652C243.669 126.86 244.495 126.035 244.495 125.017C244.495 123.999 243.669 123.174 242.652 123.174H153.48C152.462 123.174 151.637 123.999 151.637 125.017C151.638 126.035 152.462 126.86 153.48 126.86Z" fill="#FFE2FB"/>
<path d="M153.48 106.846H242.652C243.669 106.846 244.495 106.02 244.495 105.003C244.495 103.985 243.669 103.162 242.652 103.162H153.48C152.462 103.162 151.637 103.985 151.637 105.003C151.638 106.02 152.462 106.846 153.48 106.846Z" fill="#FFE2FB"/>
<path d="M153.48 186.943H242.652C243.669 186.943 244.495 186.12 244.495 185.103C244.495 184.085 243.669 183.26 242.652 183.26H153.48C152.462 183.26 151.637 184.085 151.637 185.103C151.638 186.12 152.462 186.943 153.48 186.943Z" fill="#FFE2FB"/>
<path d="M153.48 166.93H242.652C243.669 166.93 244.495 166.105 244.495 165.087C244.495 164.069 243.669 163.244 242.652 163.244H153.48C152.462 163.244 151.637 164.069 151.637 165.087C151.638 166.105 152.462 166.93 153.48 166.93Z" fill="#FFE2FB"/>
<path fill-rule="evenodd" clip-rule="evenodd" d="M196.047 284.156C194.369 281.84 193.68 279.154 193.796 276.497L191.07 272.717L198.795 267.135C204.26 263.206 211.887 264.45 215.809 269.916L266.426 340.203C270.348 345.66 269.117 353.269 263.659 357.215L255.932 362.778L253.2 358.983C250.65 358.257 248.314 356.746 246.64 354.443L196.047 284.156Z" fill="#C4B0FF"/>
<path fill-rule="evenodd" clip-rule="evenodd" d="M239.895 359.305C243.822 364.765 251.45 366.009 256.906 362.071C262.367 358.127 263.603 350.516 259.678 345.059L209.066 274.766C205.147 269.31 197.509 268.059 192.058 272.008C186.598 275.944 185.355 283.55 189.276 289.003L239.895 359.305Z" fill="#D8CBFF"/>
<path d="M176.185 239.007C162.5 217.671 158.924 195.558 168.188 189.573C168.197 189.568 168.213 189.561 168.221 189.547L168.237 189.54C168.367 189.465 168.503 189.399 168.63 189.326C178.053 183.96 196.346 196.381 209.853 217.414C223.541 238.77 227.116 260.897 217.832 266.861C217.459 267.101 217.104 267.289 216.726 267.461C207.121 271.872 189.37 259.558 176.185 239.007Z" fill="#D9CCFF"/>
<path fill-rule="evenodd" clip-rule="evenodd" d="M130.539 254.462C130.384 266.196 140.192 275.852 152.484 276.019C164.766 276.201 174.838 266.815 175.008 255.071C175.174 243.316 165.345 233.672 153.069 233.493C140.781 233.323 130.7 242.705 130.539 254.462Z" fill="#D9CCFF"/>
<path d="M137.013 210.004C137.016 209.984 137.016 209.984 137.03 209.978C137.03 209.978 137.119 209.915 137.248 209.824C137.363 209.743 137.475 209.644 137.613 209.572C137.688 209.521 137.767 209.497 137.843 209.433C142.041 206.672 161.423 193.868 168.19 189.572C158.927 195.556 162.502 217.67 176.187 239.006C189.372 259.558 207.123 271.872 216.728 267.462L188.637 285.719C188.208 286.159 187.736 286.553 187.214 286.879C186.706 287.197 186.201 287.432 185.67 287.66L185.659 287.678L185.65 287.665C175.932 291.482 158.544 279.228 145.583 259.015C132.178 238.157 128.477 216.519 137.013 210.004Z" fill="#C4B0FF"/>
<path d="M199.571 263.752L170.541 284.717C166.631 282.466 162.529 279.267 158.484 275.22L186.95 252.969C191.146 257.482 195.459 261.133 199.571 263.752Z" fill="#D8CBFF"/>
<path d="M177.287 240.641C178.643 242.693 180.039 244.652 181.481 246.511L152.299 268.301C150.822 266.462 149.363 264.582 147.947 262.55L177.287 240.641Z" fill="#D8CBFF"/>
<path d="M319.796 237.763C320.131 237.738 320.463 237.705 320.792 237.662C322.071 237.2 323.449 236.913 324.72 236.474C325.016 236.343 325.314 236.22 325.613 236.097C326.18 235.782 326.729 235.424 327.256 235.018C341.844 223.841 335.778 182.266 313.717 142.147C291.655 102.047 261.937 78.6212 247.363 89.7811C245.612 91.1247 244.522 92.9605 243.364 95.1089C234.786 110.926 241.455 147.327 260.892 182.647C279.677 216.783 303.992 238.83 319.796 237.763Z" fill="#C4B0FF"/>
<path d="M250.723 162.385C253.23 159.811 257.164 158.964 261.755 160.008C279.22 163.995 292.188 197.69 276.955 210.68C271.791 203.576 266.743 195.559 262.019 186.772C257.635 178.621 253.873 170.421 250.723 162.385Z" fill="white"/>
<path d="M320.355 237.73C320.422 237.727 320.534 237.72 320.673 237.71C321.89 237.258 323.2 236.969 324.429 236.571C310.774 232.932 295.214 222.37 280.901 206.755C274.648 199.942 268.624 192.158 263.111 183.581C257.993 175.612 253.433 167.651 250.23 159.571C239.689 132.97 235.537 105.523 245.498 91.7942C245.503 91.5628 246.157 90.9624 246.097 90.9649C241.917 96.5743 240.556 101.897 239.081 107.71C233.003 131.773 222.971 152.892 209.253 170.43C200.814 181.187 192.1 189.893 180.252 198.264C177.709 200.047 174.187 202.823 174.187 202.823C174.169 202.842 174.162 202.871 174.162 202.9C168.601 207.769 171.249 222.618 180.467 236.968C189.713 251.36 202.152 259.985 208.889 256.897C208.896 256.892 208.896 256.892 208.896 256.892C210.346 256.383 211.803 255.47 213.592 254.462C235.474 242.117 268.429 234.54 302.588 236.604C308.289 236.962 313.832 237.454 319.381 237.801C319.702 237.76 320.027 237.735 320.355 237.73Z" fill="#AE95F5"/>
<path d="M182.359 206.274C179.82 208.062 176.279 210.855 176.279 210.855C176.278 210.888 176.269 210.89 176.277 210.925C173.628 213.227 172.855 217.834 173.756 223.554C170.404 214.245 170.357 206.22 174.163 202.899C174.162 202.871 174.17 202.841 174.189 202.821C174.189 202.821 177.709 200.046 180.253 198.263C192.106 189.909 200.799 181.186 209.241 170.402C222.972 152.891 233.004 131.772 239.085 107.718C240.558 101.896 241.832 95.4141 246.106 90.976C246.142 90.9354 245.356 91.8053 245.351 92.0354C240.318 98.9541 239.301 108.22 240.107 120.199C233.947 142.331 224.184 162.061 211.35 178.437C202.918 189.214 194.219 197.923 182.359 206.274Z" fill="#BDA7FF"/>
<path d="M320.356 237.729C320.422 237.727 320.534 237.719 320.673 237.709C321.904 237.253 323.229 236.965 324.47 236.555C318.5 234.969 312.174 232.064 305.742 227.985C300.236 227.637 294.716 227.161 289.079 226.813C254.932 224.725 219.306 235.431 197.408 247.783C195.634 248.797 194.177 249.702 192.733 250.215L192.727 250.218C192.452 250.354 192.145 250.415 191.846 250.495C198.304 256.221 204.699 258.841 208.889 256.897C208.897 256.892 208.897 256.892 208.897 256.892C210.346 256.382 211.803 255.469 213.584 254.459C235.475 242.117 268.431 234.539 302.59 236.603C308.29 236.961 313.831 237.453 319.379 237.8C319.701 237.76 320.027 237.734 320.356 237.729Z" fill="#BDA7FF"/>
<path fill-rule="evenodd" clip-rule="evenodd" d="M337.932 159.441C331.14 157.106 324.174 157.509 317.556 157.724C327.747 142.5 341.549 132.589 357.413 125.716C360.419 124.327 359.304 120.149 355.7 121.626C337.969 129.302 322.733 140.652 311.842 158.402C300.159 160.178 284.64 167.306 270.77 175.452C267.958 177.56 270.395 180.626 273.232 179.057C285.708 171.624 299.32 165.104 309.392 163.382C305.519 170.807 304.49 180.822 306.627 187.096C308.824 193.543 313.63 199.22 322.118 200.817C329.6 202.226 336.261 199.943 341.627 196.377C346.948 192.842 351.759 186.906 352.634 179.413C353.805 169.394 347.007 162.562 337.932 159.441ZM348.048 179.899C347.018 185.361 343.508 189.841 339.342 192.672C335.27 195.436 329.933 197.255 324.813 196.704C319.072 196.084 315.18 193.393 312.872 190.062C310.557 186.722 309.526 182.327 310.033 177.123C310.549 171.846 312.298 167.146 314.737 162.497C322.223 161.706 333.578 161.181 341.212 165.79C345.969 168.662 349.301 173.261 348.048 179.899Z" fill="#DFD0FF"/>
<path fill-rule="evenodd" clip-rule="evenodd" d="M434.982 97.9421L365.6 94.1094L378.998 115.964L382.104 139.489L434.982 97.9421Z" fill="white"/>
<path fill-rule="evenodd" clip-rule="evenodd" d="M434.984 97.9414L376.648 112.101L366 120.174L379.452 120.313L434.984 97.9414Z" fill="#AFAFE8"/>
<path d="M321.645 426.449C322.854 427.045 324.713 426.431 326.543 425.682L326.72 425.61C332.168 423.466 336.547 420.516 340.107 416.597C341.343 415.234 342.453 413.796 343.41 412.317C346.577 407.417 347.767 402.642 348.763 398.007C356.326 400.561 364.207 401.373 372.213 400.422C382.198 399.232 389.939 396.33 396.574 391.278C400.399 388.364 404.21 384.227 407.599 379.311C413.44 370.821 416.645 362.893 417.773 354.104C418.171 351.028 418.093 347.675 417.559 344.659C417.541 344.562 417.526 344.453 417.51 344.34C417.377 343.43 417.062 341.303 414.955 341.085C414.632 341.052 414.313 341.138 414.05 341.323C413.798 341.501 413.588 341.718 413.426 341.965C412.794 342.946 413.11 344.038 413.301 344.694C413.338 344.817 413.375 344.934 413.392 345.034C414.261 350.116 413.64 356.112 411.597 362.36C410.497 365.732 408.893 369.253 406.958 372.545C404.639 376.492 402.129 379.954 399.507 382.826C392.822 390.146 385.098 394.172 374.464 395.879C365.626 397.304 357.189 396.562 349.375 393.68C349.398 393.424 349.439 393.144 349.486 392.843C349.55 392.438 349.62 391.978 349.646 391.493C349.788 388.742 349.644 385.725 349.192 382.002C348.75 378.382 347.725 373.103 343.915 369.104C341.05 366.097 337.064 364.354 333.758 364.665C331.507 364.877 329.662 366 328.42 367.922C328.191 368.271 327.985 368.654 327.8 369.056C327.544 369.606 327.428 370.215 327.326 370.752C327.304 370.882 327.277 371.014 327.249 371.138C325.353 380.163 334.991 391.858 344.812 396.358C344.782 396.507 344.738 396.667 344.692 396.834C344.636 397.052 344.579 397.266 344.535 397.475C343.782 401.226 342.634 405.645 339.836 409.973C339.195 410.966 338.476 411.935 337.701 412.858C332.937 418.517 327.67 420.814 323.145 422.314C323.092 422.331 323.027 422.348 322.956 422.369C322.374 422.534 321.403 422.809 320.884 423.613C320.573 424.096 320.489 424.671 320.645 425.245C320.789 425.775 321.143 426.203 321.645 426.449ZM331.15 373.704C331.117 372.802 331.334 371.374 331.736 370.639C332.308 369.585 333.091 369.018 334.139 368.882C336.144 368.62 338.636 369.958 340.219 371.401C343.558 374.449 344.416 378.451 345.005 382.287C345.41 384.921 345.523 387.737 345.345 390.89C345.33 391.141 345.327 391.395 345.322 391.651C345.32 391.744 345.32 391.835 345.316 391.931C338.051 388.146 331.362 379.695 331.15 373.704Z" fill="#E6EBF2"/>
<path fill-rule="evenodd" clip-rule="evenodd" d="M53.1643 213.861C56.2308 211.738 58.8436 213.965 56.42 215.979C51.5339 219.857 46.78 223.7 42.4538 228.058C33.8883 236.687 27.1955 246.99 21.9543 259.038C19.3363 265.055 17.146 271.437 15.7813 278.403C12.9883 292.68 14.8663 306.341 18.2127 317.888C23.3476 335.599 32.1529 349.94 44.7012 362.803C48.8291 367.034 53.1941 371.209 58.075 374.904C73.0352 386.223 90.9479 395.284 116.003 400.089C124.526 401.723 133.759 402.63 143.369 403.057C161.922 403.884 177.959 402.435 191.352 398.192C188.92 395.056 186.514 391.226 185.543 386.701C183.441 376.882 188.804 366.438 197.043 362.527C201.43 360.446 207.5 359.294 213.778 361.365C218.905 363.057 222.188 366.331 223.765 370.247C225.574 374.739 224.305 379.874 221.498 383.814C216.305 391.105 207.782 395.911 198.83 399.45C200.598 401.295 203.043 402.934 205.672 404.368C208.223 405.757 211.029 407.107 213.921 408.306C219.833 410.757 226.366 412.871 234.136 413.863C242.424 414.922 249.963 414.235 256.896 413.186C263.68 412.161 269.839 410.148 275.404 408.348C279.573 407.2 280.16 410.367 276.942 411.636C276.384 412.217 275.34 412.28 274.553 412.534C269.238 414.26 263.053 416.016 256.678 416.879C249.135 417.899 240.957 418.599 231.689 417.267C223.663 416.113 216.578 413.548 210.317 410.852C203.969 408.119 198.352 404.827 194.207 401.151C180.344 405.809 163.98 407.319 144.986 406.788C125.261 406.238 106.932 402.816 92.389 397.639C64.0537 387.551 44.0169 371.016 29.8861 351.898C22.7216 342.201 17.3417 331.522 13.8968 319.395C10.5129 307.479 8.74896 294.205 11.0222 279.001C12.12 271.668 14.5047 264.976 17.1862 258.652C19.8172 252.45 22.8642 246.604 26.3466 241.275C33.5928 230.187 42.0637 221.394 53.1643 213.861ZM210.011 389.109C213.905 386.286 218.529 382.396 219.671 377.447C220.451 374.059 219.764 372.018 218.439 369.817C216.576 366.717 213.517 363.864 206.782 363.856C202.213 363.852 198.534 365.668 195.861 368.106C190.788 372.732 188.275 381.355 190.708 388.319C191.824 391.512 193.635 394.445 195.96 396.598C200.575 395.013 205.566 392.334 210.011 389.109Z" fill="#E6EBF2"/>
<path d="M307.748 431.005C307.748 432.622 303.11 433.932 297.39 433.932C291.67 433.932 287.031 432.622 287.031 431.005C287.031 429.389 291.67 428.08 297.39 428.08C303.11 428.08 307.748 429.39 307.748 431.005Z" fill="#D7E5FF"/>
<path d="M315.337 382.913C315.056 372.625 307.08 364 297.175 364C287.27 364 279.294 372.625 279.011 382.913C278.508 401.014 295.133 430.007 297.175 430.097C299.215 430.008 315.84 401.014 315.337 382.913ZM297.175 394.211C292.434 394.211 288.755 389.811 288.871 384.915C288.984 380.149 292.625 376.03 297.175 376.03C301.725 376.03 305.366 380.149 305.478 384.915C305.594 389.811 301.915 394.211 297.175 394.211Z" fill="#FFB5F4"/>
</svg>
