<svg width="495" height="372" viewBox="0 0 495 372" fill="none" xmlns="http://www.w3.org/2000/svg">
<path d="M-3.05176e-05 22.7854V45.3838H495V22.7854C495 10.1878 485.482 0 473.719 0H21.2841C9.51816 0 -3.05176e-05 10.191 -3.05176e-05 22.7854Z" fill="#EFE9FF"/>
<path d="M0 304.02C0 315.065 8.95431 324.02 20 324.02H475C486.046 324.02 495 315.065 495 304.02V45.3842H0V304.02Z" fill="#F6F3FF"/>
<circle cx="27.3444" cy="21.6647" r="5.68031" fill="white"/>
<circle cx="44.3873" cy="21.6647" r="5.68031" fill="white"/>
<circle cx="61.4264" cy="21.6647" r="5.68031" fill="white"/>
<path d="M298.611 123.398H193.844C186.609 123.398 180.742 129.265 180.742 136.5V332.46C180.742 339.695 186.607 345.562 193.844 345.562H298.611C305.846 345.562 311.713 339.696 311.713 332.46V136.499C311.713 129.264 305.846 123.398 298.611 123.398Z" fill="#FFE4FB"/>
<path d="M203.426 273.258H289.027" stroke="#FFFAFE" stroke-width="6" stroke-miterlimit="10" stroke-linecap="round" stroke-linejoin="round"/>
<path d="M203.426 287.375H289.027" stroke="#FFFAFE" stroke-width="6" stroke-miterlimit="10" stroke-linecap="round" stroke-linejoin="round"/>
<path d="M203.426 301.49H289.027" stroke="#FFFAFE" stroke-width="6" stroke-miterlimit="10" stroke-linecap="round" stroke-linejoin="round"/>
<path d="M225.359 315.385H267.093" stroke="#FFFAFE" stroke-width="6" stroke-miterlimit="10" stroke-linecap="round" stroke-linejoin="round"/>
<path d="M295.422 196.659C297.801 172.45 280.104 150.895 255.894 148.516C231.685 146.137 210.13 163.834 207.751 188.044C205.372 212.253 223.069 233.808 247.279 236.187C271.488 238.566 293.042 220.869 295.422 196.659Z" fill="white"/>
<mask id="mask0_653_16846" style="mask-type:luminance" maskUnits="userSpaceOnUse" x="207" y="148" width="89" height="89">
<path d="M295.422 196.663C297.801 172.453 280.104 150.899 255.894 148.52C231.685 146.141 210.13 163.838 207.751 188.047C205.372 212.257 223.069 233.812 247.279 236.191C271.489 238.57 293.043 220.873 295.422 196.663Z" fill="white"/>
</mask>
<g mask="url(#mask0_653_16846)">
<path d="M252.473 218.098C253.75 203.043 255.028 187.988 256.305 172.932L265.539 174.391C265.162 178.522 265.649 182.729 266.957 186.665C267.949 189.645 269.397 192.449 270.708 195.304C272.02 198.158 273.21 201.112 273.635 204.225C274.06 207.337 273.661 210.652 271.983 213.307C270.303 215.962 267.208 217.819 264.082 217.514" fill="#051323"/>
</g>
<mask id="mask1_653_16846" style="mask-type:luminance" maskUnits="userSpaceOnUse" x="207" y="148" width="89" height="89">
<path d="M295.422 196.663C297.801 172.453 280.104 150.899 255.894 148.52C231.685 146.141 210.13 163.838 207.751 188.047C205.372 212.257 223.069 233.812 247.279 236.191C271.489 238.57 293.043 220.873 295.422 196.663Z" fill="white"/>
</mask>
<g mask="url(#mask1_653_16846)">
<path d="M269.592 202.445C281.905 208.563 285.864 239.753 285.864 239.753L262.668 243.228L269.592 202.445Z" fill="#FFB4F3"/>
<path d="M269.59 202.446L269.066 211.045L268.037 227.848L267.889 230.286L267.414 238.014L266.819 247.726H234.548L234.52 247.436L230.89 205.125L230.664 202.446L240.086 199.929L259.423 198.354L265.382 200.228C265.382 200.235 265.382 200.235 265.382 200.235L269.59 202.446Z" fill="#FFB4F3"/>
<path d="M222.487 211.341C221.738 218.093 220.61 240.078 222.168 257.85L235.927 252.444C246.245 208.424 235.708 201.1 235.708 201.1C235.708 201.1 223.537 201.864 222.487 211.341Z" fill="#FFB4F3"/>
<path d="M235.709 201.098L259.423 198.354L265.383 200.225C265.383 200.231 265.383 200.231 265.383 200.231C266.021 217.845 242.887 214.937 235.709 201.098Z" fill="#EDDCD4"/>
<path d="M254.493 204.193L247.567 204.18C245.031 204.175 242.98 202.116 242.984 199.58L243.015 185.858L259.444 185.888L259.414 199.288C259.408 202.002 257.206 204.198 254.493 204.193Z" fill="#EDDCD4"/>
<path d="M254.749 159.235C262.7 158.41 269.816 164.186 270.641 172.138L271.134 176.884C271.897 184.233 266.557 190.809 259.208 191.572L245.984 192.944C244.734 193.074 243.614 192.165 243.485 190.916L241.846 175.127C241.02 167.175 246.796 160.06 254.749 159.235Z" fill="#EDDCD4"/>
<path d="M243.246 179.977C243.246 179.977 260.405 177.121 260.696 158.789C256.506 157.989 251.536 158.648 251.536 158.648C251.536 158.648 238.694 170.477 243.246 179.977Z" fill="#051323"/>
<path d="M251.537 158.645C239.334 158.685 231.784 161.279 232.092 183.811C232.157 188.581 229.961 192.98 226.356 196.106C222.393 199.545 220.794 205.213 222.717 209.373C226.96 201.86 247.179 209.506 245.757 197.58C244.334 185.655 243.946 178.442 243.946 178.442L251.537 158.645Z" fill="#051323"/>
<path d="M247.521 180.799C244.025 174.21 240.862 173.756 238.307 175.092C233.627 177.541 235.669 188.696 244.334 186.33L247.521 180.799Z" fill="#EDDCD4"/>
<path d="M251.537 159.319C251.537 159.319 266.221 157.989 270.832 173.965C270.984 158.529 262.037 157.761 251.537 159.319Z" fill="#051323"/>
</g>
<path d="M153.938 77.0469H49.2485C42.0184 77.0469 36.1562 83.4335 36.1562 91.3135V269.646C36.1562 277.525 42.0184 283.913 49.2485 283.913H153.938C161.168 283.913 167.03 277.526 167.03 269.646V91.3122C167.03 83.4335 161.168 77.0469 153.938 77.0469Z" fill="#E3DAFF"/>
<path d="M58.5879 200.722H144.189" stroke="white" stroke-width="6" stroke-miterlimit="10" stroke-linecap="round" stroke-linejoin="round"/>
<path d="M58.5879 214.841H144.189" stroke="white" stroke-width="6" stroke-miterlimit="10" stroke-linecap="round" stroke-linejoin="round"/>
<path d="M58.5879 228.957H144.189" stroke="white" stroke-width="6" stroke-miterlimit="10" stroke-linecap="round" stroke-linejoin="round"/>
<path d="M80.5234 242.851H122.257" stroke="white" stroke-width="6" stroke-miterlimit="10" stroke-linecap="round" stroke-linejoin="round"/>
<path d="M101.39 188.025C125.717 188.025 145.437 168.305 145.437 143.978C145.437 119.652 125.717 99.9316 101.39 99.9316C77.0641 99.9316 57.3438 119.652 57.3438 143.978C57.3438 168.305 77.0641 188.025 101.39 188.025Z" fill="white"/>
<mask id="mask2_653_16846" style="mask-type:luminance" maskUnits="userSpaceOnUse" x="57" y="99" width="89" height="90">
<path d="M101.39 188.025C125.717 188.025 145.437 168.305 145.437 143.978C145.437 119.652 125.717 99.9316 101.39 99.9316C77.0641 99.9316 57.3438 119.652 57.3438 143.978C57.3438 168.305 77.0641 188.025 101.39 188.025Z" fill="white"/>
</mask>
<g mask="url(#mask2_653_16846)">
<path d="M112.085 137.488C114.691 135.934 118.116 134.971 120.673 136.604C123.368 138.325 123.815 142.006 124.031 145.196C124.248 148.387 124.817 152.086 127.602 153.661C129.448 154.705 131.72 154.458 133.81 154.817C139.763 155.841 143.883 162.342 143.108 168.333C142.333 174.323 137.396 179.295 131.617 181.056C125.838 182.817 119.45 181.694 114.058 178.97C108.666 176.247 104.163 172.037 100.17 167.504C96.5949 163.446 93.3179 159.002 91.4914 153.91C90.0129 149.79 87.7872 140.245 94.772 140.739C97.7594 140.951 100.304 142.617 103.384 142.12C106.711 141.582 109.287 139.157 112.085 137.488Z" fill="#051323"/>
<path d="M119.381 154.061C131.694 160.178 135.653 191.368 135.653 191.368L112.457 194.844L119.381 154.061Z" fill="#C4B0FF"/>
<path d="M77.5654 133.224C75.6793 134.043 73.8309 135.433 73.3807 137.44C72.6055 140.896 76.2658 144.139 75.6623 147.629C75.2181 150.195 72.5629 151.839 69.9917 152.248C67.4193 152.657 64.7945 152.175 62.1916 152.243C59.5888 152.311 56.7462 153.113 55.3505 155.313C53.726 157.873 54.6678 161.256 55.9893 163.986C57.3108 166.715 59.0156 169.491 58.793 172.515C58.5423 175.913 55.8774 178.791 55.7009 182.195C55.4794 186.458 59.214 189.915 63.0787 191.724C68.1956 194.12 74.1035 194.789 79.6268 193.596C85.1501 192.403 90.2548 189.356 93.9273 185.062C98.5283 179.681 100.76 172.599 101.438 165.552C102.116 158.505 101.353 151.408 100.59 144.37C100.176 140.553 99.7622 136.735 99.3484 132.918C99.0041 129.745 99.3314 125.198 97.629 122.402C94.6136 117.451 87.4731 123.401 87.4731 123.401C88.8177 131.946 81.3134 131.597 77.5654 133.224Z" fill="#051323"/>
<path d="M119.38 154.064L118.856 162.664L117.828 179.466L117.679 181.905L117.205 189.632L116.608 199.345H84.3373L84.3094 199.054L80.6795 156.744L80.4531 154.064L89.8753 151.548L106.274 147.16L115.171 151.846C115.171 151.853 115.171 151.853 115.171 151.853L119.38 154.064Z" fill="#C4B0FF"/>
<path d="M89.877 151.546L106.275 147.16L115.173 151.844C115.173 151.85 115.173 151.85 115.173 151.85C115.811 169.464 97.0564 165.385 89.877 151.546Z" fill="#E6EBF2"/>
<path d="M104.283 155.81L97.3561 155.797C94.8202 155.792 92.7686 153.733 92.7734 151.197L92.8027 137.475L109.231 137.505L109.202 150.905C109.199 153.619 106.996 155.814 104.283 155.81Z" fill="#E6EBF2"/>
<path d="M109.216 147.53L109.214 149.972C102.233 150.694 94.5322 146.038 96.6812 134.954L109.237 134.974L109.216 147.53Z" fill="#E6EBF2"/>
<path d="M104.544 110.855C112.496 110.03 119.611 115.806 120.436 123.758L120.929 128.504C121.691 135.853 116.353 142.429 109.003 143.192L95.7785 144.564C94.5288 144.694 93.4093 143.785 93.2803 142.536L91.6412 126.747C90.8149 118.796 96.5913 111.681 104.544 110.855Z" fill="#E6EBF2"/>
<path d="M93.8681 131.077C93.8681 131.077 102.554 123.698 106.592 110.79C84.0712 108.998 83.829 129.149 93.8681 131.077Z" fill="#051323"/>
<path d="M97.3144 132.417C93.8183 125.826 90.6545 125.374 88.1003 126.71C83.4203 129.158 85.4622 140.313 94.1274 137.947L97.3144 132.417Z" fill="#E6EBF2"/>
<path d="M101.391 110.775C101.391 110.775 116.012 109.607 120.623 125.583C120.757 111.946 111.909 109.215 101.391 110.775Z" fill="#051323"/>
<path d="M72.2764 162.957C71.528 169.709 70.3988 191.694 71.9576 209.467L85.7166 204.059C96.0343 160.039 85.4963 152.715 85.4963 152.715C85.4963 152.715 73.3265 153.479 72.2764 162.957Z" fill="#C4B0FF"/>
</g>
<path d="M448.405 75.9927H343.715C336.485 75.9927 330.623 82.3793 330.623 90.2593V268.592C330.623 276.47 336.484 282.858 343.715 282.858H448.405C455.635 282.858 461.497 276.472 461.497 268.592V90.258C461.497 82.3793 455.635 75.9927 448.405 75.9927Z" fill="white"/>
<path d="M353.463 206.176H439.064" stroke="#E2EEFF" stroke-width="6" stroke-miterlimit="10" stroke-linecap="round" stroke-linejoin="round"/>
<path d="M353.463 220.293H439.064" stroke="#E2EEFF" stroke-width="6" stroke-miterlimit="10" stroke-linecap="round" stroke-linejoin="round"/>
<path d="M353.463 234.408H439.064" stroke="#E2EEFF" stroke-width="6" stroke-miterlimit="10" stroke-linecap="round" stroke-linejoin="round"/>
<path d="M375.398 248.307H417.132" stroke="#E2EEFF" stroke-width="6" stroke-miterlimit="10" stroke-linecap="round" stroke-linejoin="round"/>
<path d="M439.731 152.25C443.649 128.242 427.364 105.603 403.357 101.684C379.349 97.7653 356.71 114.05 352.791 138.058C348.872 162.066 365.157 184.705 389.165 188.624C413.173 192.542 435.812 176.257 439.731 152.25Z" fill="#F9F9F9"/>
<mask id="mask3_653_16846" style="mask-type:luminance" maskUnits="userSpaceOnUse" x="352" y="101" width="89" height="89">
<path d="M439.731 152.254C443.649 128.246 427.364 105.607 403.357 101.688C379.349 97.7692 356.71 114.054 352.791 138.062C348.872 162.069 365.157 184.708 389.165 188.627C413.173 192.546 435.812 176.261 439.731 152.254Z" fill="white"/>
</mask>
<g mask="url(#mask3_653_16846)">
<path d="M385.37 162.453L395.141 165.501C395.125 165.791 394.965 168.67 394.513 172.635C393.846 178.465 392.559 186.619 390.21 192.328C389.68 193.607 388.594 195.312 387.066 197.177L371.639 183.702C373.609 180.598 376.307 175.031 377.28 170.584C377.634 168.944 379.138 166.515 381.253 164.698C382.298 163.789 383.497 163.034 384.783 162.608C384.832 162.583 384.895 162.559 384.944 162.552C385.073 162.519 385.193 162.479 385.314 162.44L385.37 162.453Z" fill="#8EB0F0"/>
<path d="M423.134 173.824C423.134 173.873 423.125 173.92 423.118 173.96C422.603 177.628 421.855 181.319 420.914 184.889C419.241 191.209 416.934 197.177 414.151 202.042C413.057 203.947 411.891 205.692 410.661 207.221C410.467 207.454 410.275 207.687 410.082 207.912L409.021 206.746L408.78 206.481L386.27 210.854L382.661 177.893L381.181 176.277C380.553 173.977 380.168 172.184 379.967 170.728C379.71 168.75 380.232 166.82 381.326 165.292C381.663 164.818 382.057 164.376 382.5 163.989C382.556 163.941 382.621 163.885 382.677 163.836C383.432 163.208 384.326 162.726 385.315 162.437C385.339 162.428 385.355 162.428 385.379 162.421C393.059 160.17 406.65 157.837 411.354 157.081C411.604 157.041 411.82 157.001 412.021 156.969C412.625 156.873 412.978 156.816 413.011 156.816C415.897 156.551 418.076 156.976 419.685 157.974C421.976 159.381 423.103 161.93 423.465 165.204C423.746 167.712 423.577 170.647 423.134 173.824Z" fill="#8EB0F0"/>
<path d="M376.51 133.411C372.4 124.688 378.202 111.49 396.463 119.409L376.51 133.411Z" fill="#051323"/>
<path d="M386.121 162.613C386.907 172.796 406.087 168.571 408.046 158.051L397.343 158.063L386.121 162.613Z" fill="#E6EBF2"/>
<path d="M397.737 144.047C401.065 152.972 410.804 148.494 410.807 133.602C410.811 119.892 400.222 112.94 379.777 126.779L397.737 144.047Z" fill="#051323"/>
<path d="M389.028 164.188L406.354 160.754L402.201 137.596L384.875 141.03L389.028 164.188Z" fill="#E6EBF2"/>
<path d="M388.225 159.715L392.227 158.997C395.883 158.342 398.315 154.847 397.659 151.191L395.496 139.127L384.875 141.032L388.225 159.715Z" fill="#E6EBF2"/>
<path d="M403.694 135.913V154.304H385.978C380.204 154.304 375.426 150.106 374.526 144.59C374.421 143.971 374.365 143.335 374.365 142.692V135.913C374.365 135.206 374.414 134.513 374.519 133.838C374.712 132.447 375.105 131.128 375.677 129.889C377.968 124.799 383.083 121.252 389.034 121.252C389.404 121.252 389.783 121.268 390.137 121.292C395.606 121.702 400.237 125.112 402.4 129.888C402.947 131.127 403.341 132.446 403.535 133.837C403.645 134.513 403.694 135.206 403.694 135.913Z" fill="#E6EBF2"/>
<path d="M384.875 119.239C386.49 129.169 399.388 127.552 399.388 127.552C399.388 127.552 397.428 134.947 400.695 139.705L408.045 135.339L403.999 123.549L384.875 119.239Z" fill="#051323"/>
<path d="M398.713 140.034C402.63 134.005 405.706 133.84 408.044 135.34C410.951 137.206 410.583 143.028 406.91 145.407C403.697 147.487 399.399 145.224 398.898 141.431L398.713 140.034Z" fill="#E6EBF2"/>
<path d="M433.501 181.645L416.305 185.138C409.185 163.378 415.562 156.739 415.562 156.739C415.562 156.739 419.014 157.079 421.458 158.516C425.429 160.839 427.31 163.834 430.072 170.819C431.171 173.602 432.31 177.126 433.501 181.645Z" fill="#8EB0F0"/>
</g>
<path d="M330.375 273.807C334.742 268.87 339.168 267.623 345.031 270.645C345.031 270.645 337.49 268.069 330.375 273.807Z" fill="#E2A8A1"/>
<path d="M322.209 268.936L309.223 256.181L309.349 255.624C309.849 253.44 309.364 251.151 308.02 249.364C307.807 249.074 307.811 248.686 308.014 248.408C308.046 248.365 308.086 248.327 308.125 248.288C309.206 247.3 310.805 247.238 311.941 248.069C312.131 248.208 312.299 248.374 312.463 248.563L313.129 249.474L313.195 249.568C314.337 251.142 314.633 253.169 313.988 255.001L321.947 268.5L322.209 268.936Z" fill="#EDC9C2"/>
<path d="M316.308 265.745L311.208 258.75C312.261 255.218 311.42 252.989 310.075 251.203C309.862 250.914 309.866 250.525 310.069 250.248C310.101 250.204 310.141 250.165 310.18 250.127C311.005 249.366 312.141 249.158 313.128 249.475L313.194 249.569C314.337 251.142 314.632 253.17 313.987 255.002L313.088 259.003L316.308 265.745Z" fill="#E2A8A1"/>
<path d="M313.088 258.998L313.215 258.444C313.715 256.265 313.23 253.975 311.887 252.186C311.639 251.855 311.683 251.39 311.987 251.11C313.249 249.953 315.22 250.076 316.329 251.38L317.058 252.387C318.198 253.96 318.495 255.991 317.854 257.825L326.075 271.758L313.088 258.998Z" fill="#EDC9C2"/>
<path d="M294.018 231.034L290.27 234.783L311.023 255.537L314.772 251.788L294.018 231.034Z" fill="#686C71"/>
<path d="M359.273 298.913L358.149 300.036C354.679 303.507 349.053 303.507 345.583 300.036L307.056 261.509C303.586 258.039 303.586 252.413 307.056 248.943L308.179 247.82C311.65 244.349 317.275 244.349 320.746 247.82L359.273 286.347C362.742 289.817 362.742 295.444 359.273 298.913Z" fill="#686C71"/>
<path d="M209.603 150.366C186.414 173.556 186.414 211.164 209.603 234.354C232.801 257.552 270.401 257.543 293.591 234.354C316.789 211.156 316.789 173.564 293.591 150.366C270.401 127.176 232.801 127.168 209.603 150.366ZM290.141 230.903C268.863 252.181 234.35 252.181 213.064 230.893C191.786 209.615 191.786 175.102 213.064 153.824C234.35 132.538 268.864 132.538 290.141 153.815C311.428 175.102 311.428 209.616 290.141 230.903Z" fill="#FFB4F3"/>
<path d="M124.76 339.646C124.881 340.54 125.042 341.405 125.241 342.245" stroke="#D7E5FF" stroke-miterlimit="10"/>
<path d="M125.926 344.608C131.968 362.182 155.729 366.107 168.07 356.29" stroke="#B1CBFA" stroke-miterlimit="10" stroke-dasharray="3.72 1.86"/>
<path d="M168.998 355.508C169.653 354.921 170.27 354.291 170.843 353.618" stroke="#D7E5FF" stroke-miterlimit="10"/>
<path d="M166.326 353.512C166.437 351.017 168.548 349.085 171.042 349.194C173.538 349.305 175.47 351.416 175.361 353.911C175.25 356.406 173.139 358.338 170.644 358.229C168.149 358.119 166.215 356.008 166.326 353.512Z" fill="#D7E5FF"/>
</svg>
