<svg width="1265" height="256" viewBox="0 0 1265 256" fill="none" xmlns="http://www.w3.org/2000/svg">
<path d="M392.926 78.9561H428.456V114.674H392.926V223.707C392.926 229.723 393.741 234.36 395.37 237.618C396.999 240.877 399.443 243.07 402.701 244.198C405.96 245.326 409.845 245.89 414.356 245.89C417.615 245.89 420.623 245.702 423.38 245.326C426.137 244.95 428.456 244.574 430.336 244.198L430.523 281.42C426.388 282.798 421.688 283.926 416.425 284.804C411.286 285.681 405.458 286.119 398.941 286.119C387.787 286.119 378.012 284.239 369.615 280.479C361.219 276.594 354.701 270.391 350.064 261.869C345.427 253.222 343.109 241.817 343.109 227.655V114.674H311.903V78.9561H343.109V28.9512H392.926V78.9561ZM89.8584 75.1953C105.273 75.1953 118.997 77.8271 131.028 83.0908C143.185 88.2292 152.71 95.9995 159.603 106.401C166.621 116.803 170.13 129.901 170.13 145.691V234.422C170.13 244.573 170.757 253.283 172.01 260.552C173.388 267.695 175.394 273.899 178.025 279.163V282.358H127.456C125.075 277.22 123.258 270.703 122.005 262.808C122.003 262.794 122 262.78 121.998 262.766C120.148 264.842 118.146 266.862 115.989 268.823C110.475 273.836 103.833 277.972 96.0625 281.23C88.2924 284.489 79.2687 286.118 68.9922 286.118C55.8332 286.118 44.0523 283.486 33.6504 278.223C23.2485 272.959 15.039 265.753 9.02344 256.604C3.0079 247.456 8.40073e-05 237.054 0 225.398C0 214.621 2.00534 205.096 6.01562 196.824C10.026 188.553 15.9795 181.597 23.875 175.957C31.7705 170.192 41.5461 165.869 53.2012 162.986C64.9817 159.979 78.4539 158.475 93.6182 158.475H120.125V145.315C120.125 138.423 118.934 132.469 116.553 127.456C114.172 122.443 110.537 118.558 105.649 115.801C100.762 113.044 94.5584 111.665 87.0391 111.665C80.3968 111.665 74.5687 112.793 69.5557 115.049C64.668 117.305 60.9082 120.501 58.2764 124.637C55.6447 128.647 54.3291 133.284 54.3291 138.548H4.51172C4.51172 130.151 6.51693 122.192 10.5273 114.673C14.5378 107.028 20.2406 100.26 27.6348 94.3701C35.1542 88.3546 44.1148 83.6552 54.5166 80.2715C65.0439 76.8877 76.8245 75.1953 89.8584 75.1953ZM606.887 75.1953C624.182 75.1953 639.033 78.0156 651.44 83.6553C663.973 89.2949 673.56 97.0653 680.202 106.966C686.844 116.741 690.166 127.77 690.166 140.052H640.537C640.537 134.663 639.284 129.775 636.777 125.389C634.396 121.002 630.698 117.493 625.686 114.861C620.673 112.104 614.344 110.726 606.699 110.726C599.806 110.726 593.978 111.854 589.216 114.109C584.579 116.365 581.07 119.31 578.688 122.944C576.307 126.579 575.117 130.589 575.117 134.976C575.117 138.234 575.744 141.18 576.997 143.812C578.376 146.318 580.569 148.636 583.576 150.767C586.584 152.897 590.658 154.84 595.796 156.595C601.059 158.349 607.514 160.041 615.158 161.67C630.323 164.678 643.545 168.688 654.824 173.701C666.229 178.589 675.127 185.106 681.519 193.252C687.91 201.398 691.105 211.8 691.105 224.458C691.105 233.481 689.163 241.753 685.278 249.272C681.393 256.667 675.754 263.121 668.359 268.636C660.965 274.15 652.129 278.473 641.853 281.606C631.576 284.614 619.984 286.118 607.075 286.118C588.402 286.118 572.611 282.797 559.702 276.155C546.794 269.388 537.018 260.865 530.376 250.589C523.734 240.187 520.412 229.409 520.412 218.255H567.974C568.35 226.15 570.48 232.479 574.365 237.241C578.25 242.003 583.138 245.451 589.028 247.581C595.044 249.586 601.373 250.589 608.015 250.589C615.534 250.589 621.864 249.586 627.002 247.581C632.14 245.451 636.025 242.63 638.657 239.121C641.289 235.487 642.604 231.351 642.604 226.714C642.604 222.453 641.476 218.631 639.221 215.247C636.965 211.863 632.704 208.792 626.438 206.035C620.297 203.153 611.273 200.459 599.367 197.952C588.84 195.696 579.128 192.876 570.229 189.492C561.332 186.108 553.686 182.036 547.295 177.273C540.903 172.386 535.89 166.683 532.256 160.166C528.747 153.524 526.992 145.879 526.992 137.231C526.992 128.835 528.809 120.939 532.443 113.545C536.078 106.025 541.342 99.4462 548.234 93.8066C555.127 88.0417 563.524 83.5299 573.425 80.2715C583.326 76.8877 594.479 75.1953 606.887 75.1953ZM795.266 75.1953C810.681 75.1953 824.404 77.8271 836.436 83.0908C848.592 88.2292 858.117 95.9995 865.01 106.401C872.028 116.803 875.537 129.901 875.537 145.691V234.422C875.537 244.573 876.164 253.283 877.417 260.552C878.796 267.695 880.801 273.899 883.433 279.163V282.358H832.863C830.482 277.22 828.665 270.703 827.412 262.808C827.41 262.794 827.407 262.78 827.405 262.766C825.555 264.842 823.554 266.862 821.396 268.823C815.882 273.836 809.24 277.972 801.47 281.23C793.7 284.489 784.676 286.118 774.399 286.118C761.24 286.118 749.46 283.486 739.058 278.223C728.656 272.959 720.446 265.753 714.431 256.604C708.415 247.456 705.407 237.054 705.407 225.398C705.407 214.621 707.413 205.096 711.423 196.824C715.433 188.553 721.387 181.597 729.282 175.957C737.178 170.192 746.953 165.869 758.608 162.986C770.389 159.979 783.861 158.475 799.025 158.475H825.532V145.315C825.532 138.423 824.341 132.469 821.96 127.456C819.579 122.443 815.944 118.558 811.057 115.801C806.169 113.044 799.966 111.665 792.446 111.665C785.804 111.665 779.976 112.793 774.963 115.049C770.075 117.305 766.315 120.501 763.684 124.637C761.052 128.647 759.736 133.284 759.736 138.548H709.919C709.919 130.151 711.924 122.192 715.935 114.673C719.945 107.028 725.648 100.26 733.042 94.3701C740.561 88.3546 749.522 83.6552 759.924 80.2715C770.451 76.8877 782.232 75.1953 795.266 75.1953ZM1180.67 75.1953C1197.97 75.1953 1212.82 78.0156 1225.23 83.6553C1237.76 89.2949 1247.35 97.0653 1253.99 106.966C1260.63 116.741 1263.95 127.77 1263.95 140.052H1214.32C1214.32 134.663 1213.07 129.775 1210.56 125.389C1208.18 121.002 1204.48 117.493 1199.47 114.861C1194.46 112.104 1188.13 110.726 1180.48 110.726C1173.59 110.726 1167.76 111.854 1163 114.109C1158.36 116.365 1154.85 119.31 1152.47 122.944C1150.09 126.579 1148.9 130.589 1148.9 134.976C1148.9 138.234 1149.53 141.18 1150.78 143.812C1152.16 146.318 1154.35 148.636 1157.36 150.767C1160.37 152.897 1164.44 154.84 1169.58 156.595C1174.84 158.349 1181.3 160.041 1188.94 161.67C1204.11 164.678 1217.33 168.688 1228.61 173.701C1240.01 178.589 1248.91 185.106 1255.3 193.252C1261.7 201.398 1264.89 211.8 1264.89 224.458C1264.89 233.481 1262.95 241.753 1259.06 249.272C1255.18 256.667 1249.54 263.121 1242.14 268.636C1234.75 274.15 1225.91 278.473 1215.64 281.606C1205.36 284.614 1193.77 286.118 1180.86 286.118C1162.19 286.118 1146.4 282.797 1133.49 276.155C1120.58 269.388 1110.8 260.865 1104.16 250.589C1097.52 240.187 1094.2 229.409 1094.2 218.255H1141.76C1142.13 226.15 1144.27 232.479 1148.15 237.241C1152.04 242.003 1156.92 245.451 1162.81 247.581C1168.83 249.586 1175.16 250.589 1181.8 250.589C1189.32 250.589 1195.65 249.586 1200.79 247.581C1205.93 245.451 1209.81 242.63 1212.44 239.121C1215.07 235.487 1216.39 231.351 1216.39 226.714C1216.39 222.453 1215.26 218.631 1213.01 215.247C1210.75 211.863 1206.49 208.792 1200.22 206.035C1194.08 203.153 1185.06 200.459 1173.15 197.952C1162.63 195.696 1152.91 192.876 1144.01 189.492C1135.12 186.108 1127.47 182.036 1121.08 177.273C1114.69 172.386 1109.68 166.683 1106.04 160.166C1102.53 153.524 1100.78 145.879 1100.78 137.231C1100.78 128.835 1102.59 120.939 1106.23 113.545C1109.86 106.025 1115.13 99.4462 1122.02 93.8066C1128.91 88.0417 1137.31 83.5299 1147.21 80.2715C1157.11 76.8877 1168.26 75.1953 1180.67 75.1953ZM294.405 75.1953C297.162 75.1953 300.107 75.446 303.24 75.9473C306.499 76.3232 309.068 76.8877 310.948 77.6396L310.196 123.885C307.439 123.383 304.306 123.007 300.797 122.757C297.413 122.506 294.217 122.381 291.209 122.381C283.564 122.381 276.86 123.446 271.095 125.576C265.33 127.581 260.504 130.527 256.619 134.412C253.513 137.621 251.008 141.43 249.1 145.837V282.358H199.471V78.9551H246.468L248.021 103.489C248.435 102.758 248.857 102.037 249.288 101.326C254.301 93.0547 260.567 86.6631 268.087 82.1514C275.732 77.5144 284.505 75.1953 294.405 75.1953ZM498.778 282.358H448.962V78.9551H498.778V282.358ZM1011.47 75.1953C1021.24 75.1953 1030.08 76.5739 1037.97 79.3311C1045.87 82.0882 1052.64 86.4747 1058.28 92.4902C1064.04 98.5058 1068.43 106.401 1071.44 116.177C1074.57 125.827 1076.13 137.733 1076.13 151.895V282.358H1026.13V151.519C1026.13 142.245 1024.75 134.913 1021.99 129.524C1019.36 124.135 1015.48 120.312 1010.34 118.057C1005.33 115.801 999.122 114.673 991.729 114.673C984.084 114.673 977.378 116.24 971.613 119.373C965.974 122.381 961.211 126.579 957.326 131.968C955.956 133.932 954.704 136.005 953.566 138.186V282.358H903.938V78.9551H950.559L952.258 103.491C952.627 103.015 953.001 102.544 953.379 102.078C960.522 93.4307 968.982 86.7884 978.757 82.1514C988.532 77.5143 999.436 75.1953 1011.47 75.1953ZM96.0625 187.988C88.2923 187.988 81.4616 188.803 75.5713 190.433C69.6811 191.937 64.8564 194.192 61.0967 197.2C57.3369 200.083 54.5166 203.592 52.6367 207.728C50.757 211.738 49.8174 216.312 49.8174 221.45C49.8174 226.463 50.9453 230.975 53.2012 234.985C55.5824 238.996 58.9662 242.192 63.3525 244.573C67.8641 246.829 73.1282 247.957 79.1436 247.957C87.9161 247.957 95.5613 246.202 102.078 242.693C108.595 239.059 113.67 234.672 117.305 229.534C118.398 227.988 119.338 226.463 120.125 224.962V187.988H96.0625ZM801.47 187.988C793.7 187.988 786.869 188.803 780.979 190.433C775.088 191.937 770.264 194.192 766.504 197.2C762.744 200.083 759.924 203.592 758.044 207.728C756.164 211.738 755.225 216.312 755.225 221.45C755.225 226.463 756.353 230.975 758.608 234.985C760.99 238.996 764.373 242.192 768.76 244.573C773.271 246.829 778.535 247.957 784.551 247.957C793.323 247.957 800.969 246.202 807.485 242.693C814.002 239.059 819.078 234.672 822.712 229.534C823.806 227.988 824.745 226.463 825.532 224.962V187.988H801.47ZM473.776 0C482.424 9.19937e-05 489.254 2.44443 494.267 7.33203C499.405 12.2197 501.975 18.3608 501.975 25.7549C501.974 33.0235 499.405 39.1017 494.267 43.9893C489.254 48.8769 482.424 51.3212 473.776 51.3213C465.129 51.3213 458.236 48.8768 453.098 43.9893C448.085 39.1017 445.578 33.0235 445.578 25.7549C445.578 18.3607 448.085 12.2197 453.098 7.33203C458.236 2.44434 465.129 0 473.776 0Z" fill="url(#paint0_linear_808_239)"/>
<defs>
<linearGradient id="paint0_linear_808_239" x1="-3.88379e-07" y1="143.06" x2="1265" y2="262" gradientUnits="userSpaceOnUse">
<stop stop-color="#D8CBFF"/>
<stop offset="0.480886" stop-color="#DACDFF"/>
<stop offset="1" stop-color="#A0F0F5"/>
</linearGradient>
</defs>
</svg>
