<svg width="151" height="40" viewBox="0 0 151 40" fill="none" xmlns="http://www.w3.org/2000/svg">
<g clip-path="url(#clip0_72_1266)">
<path d="M0.308594 24.5805L5.48689 21.5638L11.0082 18.41V28.8319C11.0082 29.3119 10.7681 29.7233 10.3565 29.9633C9.94497 30.2033 9.46529 30.2033 9.05326 29.9633L5.48689 27.9057L1.13171 25.4038C0.788745 25.1976 0.480076 24.8891 0.308594 24.5805Z" fill="#0D9EA6"/>
<path d="M15.9469 15.53L9.67114 19.1638L2.05779 23.5524C1.26945 24.0319 1.06319 24.7519 1.74912 25.7462L1.13179 25.4033C0.789297 25.1976 0.480628 24.889 0.308669 24.5805C0.103366 24.2376 0 23.8605 0 23.4152V6.34238C0 5.51952 0.412035 4.79952 1.13179 4.35381C1.88631 3.94238 2.70943 3.94238 3.42965 4.35381L9.67114 7.98762L15.9469 11.5876C16.6672 11.9986 17.0782 12.7186 17.0782 13.5757C17.0782 14.3986 16.6672 15.1186 15.9469 15.53Z" fill="#12D9E3"/>
<path d="M11.0087 18.41V19.1986L3.53253 23.141C2.09255 23.9295 0.857875 24.2724 1.74958 25.7467C1.06365 24.7524 1.26943 24.0324 2.05778 23.5524L5.48743 21.5643L9.67113 19.1643L11.0087 18.41Z" fill="#09686D"/>
<path d="M20.7824 0V12.3414L15.2954 9.18762L11.729 7.13095C11.3175 6.89095 11.0774 6.47952 11.0774 5.99952C11.0774 5.51952 11.3175 5.14238 11.729 4.90238L15.2954 2.84571L19.6506 0.308571C20.0278 0.102857 20.4051 0 20.7824 0Z" fill="#674CB3"/>
<path d="M20.7823 18.0667V2.02238C20.7823 1.09667 20.2336 0.582381 19.0332 0.685714L19.6505 0.308571C20.0278 0.102381 20.4051 0 20.7823 0C21.1596 0 21.5711 0.102381 21.9141 0.342381L30.453 5.24524L36.7288 8.87905C37.449 9.29048 37.8606 10.0105 37.8606 10.8333C37.8606 11.69 37.449 12.41 36.7288 12.8214L30.453 16.421L24.2115 20.0552C23.4913 20.4667 22.6682 20.4667 21.9141 20.0552C21.1939 19.6438 20.7823 18.9238 20.7823 18.0667Z" fill="#8D67F5"/>
<path d="M20.7823 12.3414L20.0964 11.9643L20.4051 3.53095C20.4394 1.88524 20.7823 0.650949 19.0332 0.685235C20.2336 0.582378 20.7823 1.09666 20.7823 2.02238V12.3414Z" fill="#443276"/>
<path d="M31.8248 30.0314L26.6122 27.0148L21.1252 23.8605L26.6122 20.6724L30.1786 18.6495C30.5901 18.4095 31.0703 18.4095 31.4818 18.6495C31.8934 18.8552 32.1335 19.2667 32.1335 19.7467V28.9C32.0992 29.3114 31.9963 29.6886 31.8248 30.0314Z" fill="#B438A1"/>
<path d="M16.187 20.9809L22.4285 24.6148L30.0756 29.0371C30.8645 29.4829 31.619 29.2771 32.1334 28.18V28.9C32.0991 29.3114 31.9962 29.6886 31.8248 30.0314C31.619 30.3743 31.3446 30.6486 30.9674 30.8538L22.4285 35.7909L16.187 39.3905C15.4667 39.8019 14.6093 39.8019 13.8891 39.3905C13.1694 38.979 12.7573 38.259 12.7573 37.4367V22.969C12.7573 22.1462 13.1694 21.4267 13.8891 20.9809C14.6093 20.5695 15.4667 20.5695 16.187 20.9809Z" fill="#F74DDD"/>
<path d="M21.1252 23.8605L21.8112 23.4495L28.9444 27.94C30.3505 28.7971 31.2765 29.7233 32.1335 28.18C31.619 29.2771 30.8645 29.4833 30.0762 29.0371L26.6122 27.0148L22.4285 24.6148L21.1252 23.8605Z" fill="#76256A"/>
<path d="M147.703 30.3743C147.703 30.0662 147.84 29.8262 148.114 29.5862C148.389 29.38 148.732 29.2771 149.143 29.2771C149.589 29.2771 149.932 29.38 150.172 29.5862C150.446 29.7914 150.584 30.1005 150.584 30.4433H149.795C149.795 30.2714 149.726 30.1343 149.623 30.0314C149.486 29.9286 149.349 29.86 149.109 29.86C148.903 29.86 148.766 29.9286 148.629 29.9971C148.526 30.1005 148.457 30.2371 148.457 30.3743C148.457 30.5114 148.526 30.6486 148.697 30.7171C148.834 30.8205 149.006 30.8886 149.246 30.9229C149.452 30.9576 149.658 30.9914 149.863 31.06C150.069 31.1286 150.274 31.2314 150.412 31.3686C150.549 31.54 150.652 31.7457 150.652 32.02C150.652 32.3286 150.515 32.6029 150.241 32.8086C149.966 33.0143 149.623 33.0824 149.177 33.0824C148.766 33.0824 148.423 32.98 148.149 32.7743C147.874 32.5681 147.737 32.2943 147.703 31.9171H148.492C148.526 32.0886 148.594 32.2257 148.697 32.3286C148.834 32.4314 148.972 32.5 149.212 32.5C149.418 32.5 149.589 32.4314 149.692 32.3629C149.829 32.26 149.897 32.1229 149.897 31.9857C149.897 31.8486 149.795 31.7114 149.658 31.6429C149.52 31.54 149.315 31.4714 149.109 31.4371C148.903 31.4029 148.697 31.3343 148.492 31.3C148.251 31.2314 148.08 31.1286 147.943 30.9914C147.772 30.8205 147.703 30.6486 147.703 30.3743ZM145.954 30.9229C145.954 30.6143 145.851 30.3743 145.645 30.1686C145.44 29.9971 145.2 29.8943 144.925 29.8943C144.651 29.8943 144.411 29.9971 144.205 30.1686C143.999 30.3743 143.896 30.6143 143.896 30.9229H145.954ZM144.891 33.0824C144.376 33.0824 143.931 32.9114 143.588 32.5681C143.245 32.2257 143.073 31.7457 143.073 31.1629C143.073 30.6143 143.245 30.1343 143.588 29.7914C143.931 29.449 144.376 29.2771 144.925 29.2771C145.473 29.2771 145.885 29.449 146.228 29.7571C146.571 30.1005 146.742 30.5457 146.742 31.0943C146.742 31.1976 146.742 31.3343 146.708 31.4371H143.862C143.896 31.7457 143.999 31.9857 144.171 32.1914C144.376 32.3629 144.616 32.4657 144.891 32.4657C145.336 32.4657 145.611 32.2943 145.783 31.9171H146.605C146.502 32.26 146.297 32.5681 145.988 32.7743C145.714 32.98 145.336 33.0824 144.891 33.0824ZM140.467 33.0824C139.952 33.0824 139.507 32.9114 139.164 32.5681C138.821 32.2257 138.649 31.7457 138.649 31.1976C138.649 30.6143 138.821 30.1343 139.164 29.7914C139.507 29.449 139.952 29.2771 140.467 29.2771C140.947 29.2771 141.29 29.38 141.599 29.5862C141.907 29.7914 142.079 30.1005 142.181 30.5114H141.359C141.222 30.1005 140.947 29.8943 140.467 29.8943C140.158 29.8943 139.918 30.0314 139.713 30.2371C139.541 30.4771 139.438 30.7857 139.438 31.1629C139.438 31.5748 139.541 31.8829 139.713 32.1229C139.918 32.3286 140.158 32.4657 140.467 32.4657C140.912 32.4657 141.222 32.26 141.359 31.8829H142.181C142.079 32.26 141.873 32.5343 141.599 32.7743C141.29 32.98 140.912 33.0824 140.467 33.0824ZM134.946 29.3119V29.8943C135.186 29.4833 135.563 29.2771 136.111 29.2771C136.523 29.2771 136.866 29.4143 137.14 29.689C137.415 29.9633 137.552 30.3405 137.552 30.8543V33.0486H136.797V30.9576C136.797 30.6143 136.729 30.3743 136.558 30.2033C136.386 30.0314 136.146 29.9286 135.871 29.9286C135.597 29.9286 135.357 30.0314 135.186 30.2033C135.014 30.3743 134.946 30.6143 134.946 30.9576V33.0486H134.157V29.3119H134.946ZM132.236 30.9229C132.236 30.6143 132.134 30.3743 131.928 30.1686C131.722 29.9971 131.482 29.8943 131.208 29.8943C130.933 29.8943 130.693 29.9971 130.487 30.1686C130.316 30.3743 130.179 30.6143 130.179 30.9229H132.236ZM131.173 33.0824C130.659 33.0824 130.213 32.9114 129.87 32.5681C129.527 32.2257 129.355 31.7457 129.355 31.1629C129.355 30.6143 129.527 30.1343 129.87 29.7914C130.213 29.449 130.659 29.2771 131.208 29.2771C131.756 29.2771 132.202 29.449 132.511 29.7571C132.854 30.1005 133.025 30.5457 133.025 31.0943C133.025 31.1976 133.025 31.3343 132.991 31.4371H130.145C130.179 31.7457 130.282 31.9857 130.453 32.1914C130.659 32.3629 130.899 32.4657 131.173 32.4657C131.619 32.4657 131.894 32.2943 132.065 31.9171H132.888C132.785 32.26 132.579 32.5681 132.271 32.7743C131.996 32.98 131.619 33.0824 131.173 33.0824ZM127.469 29.3119H128.224V33.049H127.469V29.3119ZM128.327 28.3519C128.327 28.489 128.293 28.5919 128.19 28.6948C128.121 28.7971 127.984 28.8319 127.846 28.8319C127.71 28.8319 127.607 28.7971 127.504 28.6948C127.401 28.5919 127.367 28.489 127.367 28.3519C127.367 28.2148 127.401 28.0776 127.504 27.9748C127.607 27.9057 127.71 27.8376 127.846 27.8376C127.984 27.8376 128.121 27.9057 128.19 27.9748C128.293 28.0776 128.327 28.2148 128.327 28.3519ZM125.275 29.3119V29.9633C125.515 29.5171 125.892 29.2771 126.372 29.2771V30.0662H126.166C125.892 30.0662 125.652 30.1343 125.515 30.3057C125.344 30.4433 125.275 30.7171 125.275 31.0943V33.0486H124.486V29.3119H125.275ZM122.566 30.9229C122.566 30.6143 122.463 30.3743 122.257 30.1686C122.051 29.9971 121.811 29.8943 121.537 29.8943C121.262 29.8943 121.022 29.9971 120.817 30.1686C120.645 30.3743 120.542 30.6143 120.508 30.9229H122.566ZM121.537 33.0824C120.988 33.0824 120.542 32.9114 120.199 32.5681C119.856 32.2257 119.719 31.7457 119.719 31.1629C119.719 30.6143 119.891 30.1343 120.199 29.7914C120.542 29.449 120.988 29.2771 121.537 29.2771C122.086 29.2771 122.531 29.449 122.874 29.7571C123.183 30.1005 123.355 30.5457 123.355 31.0943V31.4371H120.508C120.508 31.7457 120.611 31.9857 120.817 32.1914C120.988 32.3629 121.228 32.4657 121.537 32.4657C121.948 32.4657 122.223 32.2943 122.394 31.9171H123.252C123.114 32.26 122.908 32.5681 122.634 32.7743C122.326 32.98 121.948 33.0824 121.537 33.0824ZM117.079 29.2771C117.559 29.2771 118.004 29.449 118.313 29.7914C118.656 30.1343 118.828 30.6143 118.828 31.1629C118.828 31.7457 118.656 32.1914 118.313 32.5681C117.97 32.9114 117.559 33.0824 117.079 33.0824C116.77 33.0824 116.53 33.0143 116.29 32.8771C116.084 32.74 115.913 32.5681 115.775 32.3286V34.7967H115.021V29.3119H115.775V29.9971C115.913 29.7571 116.084 29.5862 116.29 29.449C116.53 29.3462 116.77 29.2771 117.079 29.2771ZM117.696 32.0886C117.936 31.8486 118.039 31.54 118.039 31.1629C118.039 30.7857 117.936 30.4771 117.696 30.2714C117.49 30.0314 117.216 29.9286 116.907 29.9286C116.599 29.9286 116.324 30.0314 116.118 30.2714C115.878 30.4771 115.775 30.7857 115.775 31.1629C115.775 31.5748 115.878 31.8486 116.118 32.0886C116.324 32.3286 116.599 32.4314 116.907 32.4314C117.216 32.4314 117.49 32.3286 117.696 32.0886ZM114.061 29.3119L112.86 31.1629L114.061 33.0486H113.203L112.381 31.78L111.626 33.0486H110.837L112.038 31.1976L110.837 29.3119H111.695L112.518 30.5805L113.272 29.3119H114.061ZM109.946 28.3519V28.9348H108.128V30.3743H109.74V30.9576H108.128V32.4314H109.946V33.0486H107.34V28.3519H109.946ZM102.847 32.0886C103.053 31.8486 103.155 31.5748 103.155 31.1629C103.155 30.7857 103.053 30.4771 102.847 30.2714C102.607 30.0314 102.333 29.9286 102.058 29.9286C101.749 29.9286 101.475 30.0314 101.235 30.2714C101.029 30.4771 100.927 30.7857 100.927 31.1629C100.927 31.54 101.029 31.8486 101.235 32.0886C101.475 32.3286 101.749 32.4314 102.058 32.4314C102.333 32.4314 102.607 32.3286 102.847 32.0886ZM101.886 33.0824C101.372 33.0824 100.961 32.9114 100.617 32.5681C100.309 32.1914 100.138 31.7457 100.138 31.1629C100.138 30.6143 100.309 30.1343 100.617 29.7914C100.961 29.449 101.372 29.2771 101.886 29.2771C102.161 29.2771 102.436 29.3462 102.641 29.449C102.881 29.5862 103.053 29.7571 103.155 29.9971V29.3119H103.944V33.0824C103.944 33.6314 103.773 34.0424 103.464 34.3857C103.155 34.6938 102.709 34.8657 102.161 34.8657C101.646 34.8657 101.201 34.7629 100.892 34.5229C100.549 34.2829 100.343 33.9743 100.309 33.5624H101.064C101.132 33.7343 101.269 33.9057 101.441 34.0424C101.646 34.1457 101.886 34.2138 102.161 34.2138C102.436 34.2138 102.676 34.1114 102.881 33.9057C103.087 33.7343 103.155 33.4595 103.155 33.0824V32.3286C103.053 32.5681 102.881 32.74 102.641 32.8771C102.436 33.0143 102.161 33.0824 101.886 33.0824ZM96.3999 29.3119V29.8943C96.6399 29.4833 97.051 29.2771 97.5998 29.2771C98.0118 29.2771 98.3543 29.4143 98.6291 29.689C98.903 29.9633 99.0402 30.3405 99.0402 30.8543V33.0486H98.2519V30.9576C98.2519 30.6143 98.1828 30.3743 98.0118 30.2033C97.8398 30.0314 97.6345 29.9286 97.3254 29.9286C97.051 29.9286 96.8109 30.0314 96.6399 30.2033C96.468 30.3743 96.3999 30.6143 96.3999 30.9576V33.0486H95.6453V29.3119H96.3999ZM93.4847 29.3119H94.2392V33.049H93.4847V29.3119ZM94.3421 28.3519C94.3421 28.489 94.3078 28.5919 94.2049 28.6948C94.102 28.7971 93.9991 28.8319 93.8619 28.8319C93.7247 28.8319 93.6218 28.7971 93.519 28.6948C93.4161 28.5919 93.3818 28.489 93.3818 28.3519C93.3818 28.2148 93.4161 28.0776 93.519 27.9748C93.6218 27.9057 93.7247 27.8376 93.8619 27.8376C93.9991 27.8376 94.102 27.9057 94.2049 27.9748C94.3078 28.0776 94.3421 28.2148 94.3421 28.3519ZM92.3872 29.9633H91.4955V32.02C91.4955 32.1571 91.5298 32.26 91.5641 32.2943C91.6326 32.3629 91.7698 32.3971 91.907 32.3971H92.3872V33.0486H91.7698C91.0496 33.0486 90.7071 32.7057 90.7071 32.02V29.9633H90.2613V29.3119H90.7071V28.3857H91.4955V29.3119H92.3872V29.9633ZM89.5406 29.3119V29.9633H88.8208V33.0486H88.0663V29.9633H87.6204V29.3119H88.0663V29.0719C88.0663 28.6257 88.1692 28.3176 88.4092 28.1119C88.615 27.9405 88.9923 27.8376 89.4724 27.8376V28.489C89.2324 28.489 89.0609 28.5229 88.9923 28.5919C88.8894 28.6948 88.8208 28.8319 88.8208 29.0719V29.3119H89.5406ZM84.4994 33.0824C84.0198 33.0824 83.6082 32.9114 83.2652 32.5681C82.9223 32.1914 82.7508 31.7457 82.7508 31.1629C82.7508 30.6143 82.9223 30.1343 83.2652 29.7914C83.6082 29.449 84.0198 29.2771 84.4994 29.2771C84.8086 29.2771 85.0487 29.3462 85.2887 29.449C85.494 29.5862 85.666 29.7571 85.8032 29.9971V29.3119H86.5915V33.0486H85.8032V32.3286C85.666 32.5681 85.494 32.74 85.2887 32.8771C85.0487 33.0143 84.8086 33.0824 84.4994 33.0824ZM85.4597 32.0886C85.7003 31.8486 85.8032 31.5748 85.8032 31.1629C85.8032 30.7857 85.7003 30.4771 85.4597 30.2714C85.254 30.0314 84.9796 29.9286 84.6714 29.9286C84.3623 29.9286 84.1222 30.0314 83.8826 30.2714C83.6768 30.4771 83.5396 30.7857 83.5396 31.1629C83.5396 31.54 83.6768 31.8486 83.8826 32.0886C84.1222 32.3286 84.3623 32.4314 84.6714 32.4314C84.9796 32.4314 85.254 32.3286 85.4597 32.0886ZM80.8302 29.3119V29.9633C81.0703 29.5171 81.4132 29.2771 81.9277 29.2771V30.0662H81.7219C81.4475 30.0662 81.2074 30.1343 81.036 30.3057C80.8993 30.4433 80.8302 30.7171 80.8302 31.0943V33.0486H80.0414V29.3119H80.8302ZM76.6122 33.0824C75.9263 33.0824 75.378 32.8429 74.8974 32.3971C74.452 31.9514 74.2119 31.3686 74.2119 30.6829C74.2119 29.9971 74.452 29.4143 74.8974 28.969C75.378 28.5229 75.9263 28.2829 76.6122 28.2829C77.0923 28.2829 77.5382 28.42 77.9155 28.66C78.3265 28.9 78.6014 29.2429 78.7729 29.689H77.8469C77.6068 29.2429 77.1952 29.0029 76.6122 29.0029C76.132 29.0029 75.7553 29.14 75.4466 29.449C75.1379 29.7571 75.0007 30.1686 75.0007 30.6829C75.0007 31.1976 75.1379 31.6086 75.4466 31.9171C75.7553 32.2257 76.132 32.3971 76.6122 32.3971C77.1952 32.3971 77.6068 32.1571 77.8469 31.6771H78.7729C78.6014 32.1229 78.3265 32.4657 77.9155 32.7057C77.5382 32.9452 77.0923 33.0824 76.6122 33.0824Z" fill="#0D2544"/>
<path d="M138.615 21.0838C138.958 23.8948 141.633 25.1976 144.754 25.1976C148.251 25.1976 150.652 23.6205 150.652 20.7067C150.652 18.7524 149.246 17.4152 147.017 16.9357L143.69 16.2152C142.456 15.9414 142.01 15.4271 142.01 14.6386C142.01 13.6443 142.764 12.8214 144.479 12.8214C146.297 12.8214 147.428 13.7471 147.668 15.0843L150.446 14.5014C149.932 12.17 147.772 10.49 144.582 10.49C141.222 10.49 139.061 12.3071 139.061 14.8786C139.061 16.8671 140.432 18.1352 142.867 18.6838L145.885 19.301C147.188 19.5752 147.772 20.1238 147.772 20.9467C147.772 22.0438 146.708 22.7981 145.028 22.7981C143.176 22.7981 141.736 22.1119 141.53 20.4667L138.615 21.0838ZM130.11 10.49C128.018 10.49 126.406 11.2443 125.275 12.5819V10.8671H122.36V24.8205H125.275V18.3752C125.275 14.8443 126.921 13.1643 129.425 13.1643C131.448 13.1643 132.751 14.7071 132.751 16.9695V24.8205H135.7V16.3871C135.7 12.89 133.471 10.49 130.11 10.49ZM111.454 22.8324C109.74 22.8324 108.608 22.009 108.608 20.741C108.608 19.5067 109.603 18.6152 111.317 18.6152H115.741V19.061C115.741 21.221 113.787 22.8324 111.454 22.8324ZM112.586 10.49C109.466 10.49 107.065 12.2386 106.585 14.8443L109.362 15.4614C109.671 13.8843 110.872 13.0271 112.758 13.0271C114.541 13.0271 115.741 14.1586 115.741 15.9414V16.3871H111.386C107.785 16.3871 105.796 18.1695 105.796 20.7752C105.796 23.4152 107.888 25.1976 111.009 25.1976C113.169 25.1976 114.712 24.3748 115.741 23.209V24.8205H118.519V15.7357C118.519 12.3414 116.187 10.49 112.586 10.49ZM91.6669 21.0838C92.0099 23.8948 94.685 25.1976 97.8055 25.1976C101.304 25.1976 103.704 23.6205 103.704 20.7067C103.704 18.7524 102.298 17.4152 100.069 16.9357L96.7428 16.2152C95.5081 15.9414 95.0623 15.4271 95.0623 14.6386C95.0623 13.6443 95.8163 12.8214 97.5311 12.8214C99.3146 12.8214 100.481 13.7471 100.721 15.0843L103.498 14.5014C102.984 12.17 100.824 10.49 97.6002 10.49C94.2734 10.49 92.1128 12.3071 92.1128 14.8786C92.1128 16.8671 93.4846 18.1352 95.8854 18.6838L98.9373 19.301C100.241 19.5752 100.824 20.1238 100.824 20.9467C100.824 22.0438 99.7604 22.7981 98.0799 22.7981C96.2283 22.7981 94.7879 22.1119 94.5821 20.4667L91.6669 21.0838ZM88.2034 10.8671H85.2887V24.82H88.2034V10.8671ZM86.7287 4.8681C85.6317 4.8681 84.8428 5.69048 84.8428 6.68476C84.8428 7.71333 85.6317 8.46762 86.7287 8.46762C87.7923 8.46762 88.5807 7.71333 88.5807 6.68476C88.5807 5.69048 87.7923 4.8681 86.7287 4.8681ZM81.7905 21.701C81.0702 22.181 80.1447 22.4552 79.424 22.4552C78.0526 22.4552 77.1266 21.5981 77.1266 19.8495V13.3014H81.8933V10.8671H77.1266V5.96476H74.2119V10.8671H71.1938V13.3014H74.2119V20.0552C74.2119 23.5176 76.2349 25.1976 79.2187 25.1976C80.4186 25.1976 81.3794 24.9233 82.6822 24.1348L81.7905 21.701ZM69.5137 10.6962C67.113 10.6962 65.3295 11.9986 64.1978 13.85V10.8671H61.283V24.8205H64.1978V19.8838C64.1978 16.0786 65.9469 13.61 69.5137 13.61H70.3021L70.5083 10.7986C70.1311 10.6962 69.8562 10.6962 69.5137 10.6962ZM50.3777 22.8324C48.6629 22.8324 47.5316 22.009 47.5316 20.741C47.5316 19.5067 48.56 18.6152 50.2748 18.6152H54.6986V19.061C54.6986 21.221 52.7099 22.8324 50.3777 22.8324ZM51.5438 10.49C48.4228 10.49 45.9882 12.2386 45.5081 14.8443L48.2861 15.4614C48.6286 13.8843 49.8289 13.0271 51.7153 13.0271C53.4639 13.0271 54.6986 14.1586 54.6986 15.9414V16.3871H50.3434C46.7427 16.3871 44.7192 18.1695 44.7192 20.7752C44.7192 23.4152 46.8109 25.1976 49.9318 25.1976C52.0925 25.1976 53.6359 24.3748 54.6986 23.209V24.8205H57.4766V15.7357C57.4766 12.3414 55.1101 10.49 51.5438 10.49Z" fill="#0D2544"/>
</g>
<defs>
<clipPath id="clip0_72_1266">
<rect width="151" height="40" fill="white"/>
</clipPath>
</defs>
</svg>
