<svg width="58" height="61" viewBox="0 0 58 61" fill="none" xmlns="http://www.w3.org/2000/svg">
<path d="M31.6564 18.8209L30.6116 18.2457L31.0818 5.3849C31.134 2.87518 31.6564 0.992897 28.9922 1.04518C30.8206 0.888326 31.6564 1.67261 31.6564 3.08433V18.8209Z" fill="#443276"/>
<path d="M0.46875 37.4861L8.35623 32.8857L16.7661 28.0762V43.9696C16.7661 44.7016 16.4004 45.329 15.7735 45.695C15.1467 46.061 14.416 46.061 13.7884 45.695L8.35623 42.5571L1.7225 38.7417C1.20011 38.4273 0.729949 37.9567 0.46875 37.4861Z" fill="#0D9EA6"/>
<path d="M16.7672 28.0762V29.2787L5.37965 35.2909C3.18631 36.4934 1.30568 37.0163 2.66391 39.2646C1.61912 37.7483 1.93255 36.6503 3.13334 35.9183L8.35732 32.8865L14.7298 29.2265L16.7672 28.0762Z" fill="#09686D"/>
<path d="M31.6535 0V18.8207L23.2959 14.0111L17.8636 10.8747C17.2368 10.5087 16.8711 9.88127 16.8711 9.14927C16.8711 8.41727 17.2368 7.84213 17.8636 7.47613L23.2959 4.33971L29.9296 0.470571C30.5042 0.156857 31.0789 0 31.6535 0Z" fill="#674CB3"/>
<path d="M48.4731 45.7979L40.5334 41.1975L32.1758 36.3872L40.5334 31.5254L45.9656 28.4405C46.5925 28.0745 47.3239 28.0745 47.9507 28.4405C48.5776 28.7542 48.9433 29.3817 48.9433 30.1137V44.0725C48.8911 44.6999 48.7343 45.2751 48.4731 45.7979Z" fill="#B438A1"/>
<path d="M32.1758 36.3865L33.2206 35.7598L44.0857 42.6077C46.2275 43.9149 47.638 45.3273 48.9433 42.9737C48.1597 44.6469 47.0104 44.9613 45.8096 44.2809L40.5334 41.1968L34.1609 37.5368L32.1758 36.3865Z" fill="#76256A"/>
<path d="M24.29 23.6842L14.7309 29.2257L3.13439 35.9183C1.9336 36.6496 1.61943 37.7476 2.66423 39.2639L1.72391 38.741C1.20224 38.4273 0.732082 37.9567 0.470158 37.4862C0.157445 36.9633 0 36.3882 0 35.7092V9.67307C0 8.41821 0.627603 7.32021 1.72391 6.64049C2.87319 6.01306 4.12694 6.01306 5.22398 6.64049L14.7309 12.1821L24.29 17.6721C25.3871 18.2988 26.0132 19.3968 26.0132 20.7039C26.0132 21.9588 25.3871 23.0568 24.29 23.6842Z" fill="#12D9E3"/>
<path d="M31.6564 27.5517V3.08413C31.6564 1.67242 30.8206 0.888131 28.9922 1.04571L29.9325 0.470571C30.5071 0.156131 31.0818 0 31.6564 0C32.2311 0 32.8579 0.156131 33.3803 0.522131L46.3866 7.99899L55.9457 13.5405C57.0428 14.168 57.6696 15.266 57.6696 16.5208C57.6696 17.8272 57.0428 18.9252 55.9457 19.5527L46.3866 25.0419L36.8797 30.5842C35.7826 31.2117 34.5289 31.2117 33.3803 30.5842C32.2833 29.9568 31.6564 28.8588 31.6564 27.5517Z" fill="#8D67F5"/>
<path d="M24.6537 31.9979L34.1606 37.5395L45.8086 44.2836C47.0101 44.9633 48.1594 44.6496 48.943 42.9765V44.0745C48.8907 44.7019 48.734 45.277 48.4728 45.7999C48.1594 46.3227 47.7415 46.741 47.1668 47.054L34.1606 54.5832L24.6537 60.0724C23.5566 60.6999 22.2506 60.6999 21.1536 60.0724C20.0573 59.445 19.4297 58.347 19.4297 57.0929V35.0298C19.4297 33.7749 20.0573 32.6776 21.1536 31.9979C22.2506 31.3705 23.5566 31.3705 24.6537 31.9979Z" fill="#F74DDD"/>
</svg>
