<svg width="442" height="200" viewBox="0 0 442 200" fill="none" xmlns="http://www.w3.org/2000/svg">
<path d="M97.2311 116.166H95.0133C82.9256 116.166 73.1257 125.966 73.1257 138.054C73.1257 150.141 63.3257 159.941 51.238 159.941H20.1636" stroke="#E0E7F1" stroke-width="2" stroke-miterlimit="10"/>
<path d="M97.2311 118.229H95.0133C82.9256 118.229 73.1257 108.43 73.1257 96.3418C73.1257 84.2542 63.3257 74.4542 51.238 74.4542H20.1636" stroke="#E0E7F1" stroke-width="2" stroke-miterlimit="10"/>
<path d="M330.493 124.332H357.23V146.734C357.23 165.104 372.122 179.996 390.492 179.996H421.064" stroke="#E0E7F1" stroke-width="2" stroke-miterlimit="10"/>
<path d="M421.064 124.332H357.23V110.638C357.23 92.2679 372.122 77.3762 390.492 77.3762H424.248" stroke="#E0E7F1" stroke-width="2" stroke-miterlimit="10"/>
<path d="M247.274 38.4839H299.076" stroke="#E0E7F1" stroke-width="2" stroke-miterlimit="10"/>
<path d="M241.926 40.2118H246.279C257.166 40.2118 265.99 49.0364 265.99 59.9211V100.111C265.99 110.997 274.815 119.82 285.7 119.82H320.631" stroke="#E0E7F1" stroke-width="2" stroke-miterlimit="10"/>
<path d="M184.895 40.2118H180.542C169.655 40.2118 160.833 49.0364 160.833 59.9211V100.111C160.833 110.997 152.008 119.82 141.122 119.82H106.192" stroke="#E0E7F1" stroke-width="2" stroke-miterlimit="10"/>
<path d="M239.497 0.000328064H189.873C183.915 0.000328064 179.085 4.83038 179.085 10.7882V60.4119C179.085 66.3697 183.915 71.1997 189.873 71.1997H239.497C245.454 71.1997 250.284 66.3697 250.284 60.4119V10.7882C250.284 4.83038 245.454 0.000328064 239.497 0.000328064Z" fill="#EDF2F8"/>
<path d="M331.304 104.506H309.956C307.394 104.506 305.316 106.584 305.316 109.146V130.494C305.316 133.056 307.394 135.134 309.956 135.134H331.304C333.866 135.134 335.944 133.056 335.944 130.494V109.146C335.946 106.584 333.868 104.506 331.304 104.506Z" fill="#FFA4ED"/>
<path d="M436.499 168.589H415.153C412.589 168.589 410.513 170.667 410.513 173.229V194.577C410.513 197.141 412.591 199.217 415.153 199.217H436.499C439.063 199.217 441.139 197.139 441.139 194.577V173.231C441.141 170.667 439.063 168.589 436.499 168.589Z" fill="#B7E1FE"/>
<path d="M436.497 115.537H415.151C412.587 115.537 410.511 117.615 410.511 120.177V141.525C410.511 144.087 412.589 146.165 415.151 146.165H436.497C439.061 146.165 441.137 144.087 441.137 141.525V120.177C441.139 117.615 439.061 115.537 436.497 115.537Z" fill="#B7E1FE"/>
<path d="M436.499 62.0624H415.153C412.589 62.0624 410.513 64.1404 410.513 66.7024V88.0504C410.513 90.6125 412.591 92.6904 415.153 92.6904H436.499C439.063 92.6904 441.139 90.6125 441.139 88.0504V66.7024C441.141 64.1404 439.063 62.0624 436.499 62.0624Z" fill="#B2F5F9"/>
<path d="M315.99 23.164H294.644C292.08 23.164 290.004 25.242 290.004 27.804V49.152C290.004 51.7158 292.082 53.792 294.644 53.792H315.99C318.554 53.792 320.63 51.714 320.63 49.152V27.804C320.63 25.242 318.552 23.164 315.99 23.164Z" fill="#B49AFF"/>
<path d="M401.767 7.52872H380.421C377.857 7.52872 375.781 9.60671 375.781 12.1688V33.5167C375.781 36.0788 377.859 38.1567 380.421 38.1567H401.767C404.331 38.1567 406.407 36.0788 406.407 33.5167V12.1688C406.407 9.60671 404.331 7.52872 401.767 7.52872Z" fill="#B7E1FE"/>
<path d="M110.949 100.852H89.6014C87.0394 100.852 84.9614 102.93 84.9614 105.492V126.84C84.9614 129.404 87.0394 131.48 89.6014 131.48H110.949C113.511 131.48 115.589 129.402 115.589 126.84V105.494C115.589 102.93 113.513 100.852 110.949 100.852Z" fill="#B49AFF"/>
<path d="M29.7474 59.141H8.40123C5.83919 59.141 3.76123 61.219 3.76123 63.7811V85.129C3.76123 87.6911 5.83919 89.769 8.40123 89.769H29.7474C32.3113 89.769 34.3874 87.6911 34.3874 85.129V63.7811C34.3874 61.219 32.3113 59.141 29.7474 59.141Z" fill="#B7E1FE"/>
<path d="M222.297 45.2407H196.062V43.2524H222.297V45.2407Z" fill="#86ADDB"/>
<path d="M231.927 39.4717H196.062V37.4834H231.927V39.4717Z" fill="#A2C3EA"/>
<path d="M231.927 33.7065H196.062V31.7182H231.927V33.7065Z" fill="#A2C3EA"/>
<path d="M231.927 27.9438H196.062V25.9555H231.927V27.9438Z" fill="#A2C3EA"/>
<path d="M25.988 143.669H4.64C2.07796 143.669 0 145.747 0 148.309V169.655C0 172.219 2.07796 174.295 4.64 174.295H25.988C28.5518 174.295 30.628 172.217 30.628 169.655V148.309C30.628 145.745 28.5518 143.669 25.988 143.669Z" fill="#FFA4ED"/>
</svg>
