<svg width="491" height="195" viewBox="0 0 491 195" fill="none" xmlns="http://www.w3.org/2000/svg">
<path d="M270.78 178.707H228.375L232.537 150.136L233.159 145.863L233.692 142.175L235.373 130.629H263.783L265.219 140.508L266.944 152.35L267.522 156.334L270.78 178.707Z" fill="#B5D6FF"/>
<path d="M266.944 152.347L232.537 150.133L233.159 145.86L233.692 142.172L265.218 140.505L266.944 152.347Z" fill="#D2E6FF"/>
<path d="M350.104 18.0817V142.646C350.104 145.66 347.66 148.112 344.639 148.112H155.613C152.592 148.112 150.148 145.66 150.148 142.646V18.0817C150.148 15.0677 152.592 12.6235 155.613 12.6235H344.639C347.66 12.6235 350.104 15.0677 350.104 18.0817Z" fill="#D7E8FD"/>
<path d="M345.732 17.1357H154.519V121.74H345.732V17.1357Z" fill="white"/>
<path d="M344.639 148.11H155.611C152.594 148.11 150.148 145.664 150.148 142.647V128.442H350.103V142.647C350.103 145.665 347.656 148.11 344.639 148.11Z" fill="#BFDAFC"/>
<path d="M288.914 191.82H210.244L228.339 178.708H270.819L288.914 191.82Z" fill="#D2E6FF"/>
<path d="M286.729 193.999H212.429C211.222 193.999 210.244 193.02 210.244 191.813H288.914C288.914 193.021 287.936 193.999 286.729 193.999Z" fill="#B5D6FF"/>
<path d="M200.12 73.1825H184.703C183.896 73.1825 183.241 72.528 183.241 71.7207V56.3036C183.241 55.4962 183.896 54.8418 184.703 54.8418H200.12C200.927 54.8418 201.582 55.4962 201.582 56.3036V71.7207C201.582 72.528 200.927 73.1825 200.12 73.1825Z" fill="#E9F0FE"/>
<path d="M200.12 94.3582H184.703C183.896 94.3582 183.241 93.7038 183.241 92.8965V77.4794C183.241 76.672 183.896 76.0176 184.703 76.0176H200.12C200.927 76.0176 201.582 76.672 201.582 77.4794V92.8965C201.582 93.7038 200.927 94.3582 200.12 94.3582Z" fill="#E9F0FE"/>
<path d="M200.12 115.534H184.703C183.896 115.534 183.241 114.88 183.241 114.072V98.6551C183.241 97.8478 183.896 97.1934 184.703 97.1934H200.12C200.927 97.1934 201.582 97.8478 201.582 98.6551V114.072C201.582 114.88 200.927 115.534 200.12 115.534Z" fill="#E9F0FE"/>
<path d="M198.859 70.8639H195.342C195.328 70.3853 195.319 69.9051 195.314 69.4264C195.309 69.1382 195.307 68.8522 195.305 68.5647L195.304 68.2823L195.293 67.0154L195.295 65.4661C195.307 64.5425 195.219 63.6183 195.054 62.6984C194.976 62.2359 194.874 61.7977 194.752 61.2727C194.639 60.766 194.535 60.2587 194.443 59.7447L196.538 58.8564C196.763 59.3263 197.066 59.9815 197.271 60.4565C197.376 60.6999 197.469 60.919 197.577 61.1932C197.678 61.458 197.771 61.7249 197.858 61.9955C198.197 63.0786 198.402 64.2072 198.492 65.3462L198.61 66.8904L198.716 68.436C198.772 69.2441 198.82 70.0536 198.859 70.8639Z" fill="#C5AAFF"/>
<path d="M185.965 70.8647H189.482C189.503 70.0978 189.516 69.3316 189.519 68.5647L189.531 67.0154L189.53 65.4661C189.517 64.5425 189.605 63.6183 189.77 62.6984C189.848 62.2359 189.95 61.7977 190.072 61.2726C190.185 60.766 190.29 60.2587 190.381 59.7447L188.286 58.8564C188.062 59.3263 187.758 59.9815 187.553 60.4565C187.449 60.6998 187.355 60.919 187.247 61.1932C187.146 61.4579 187.053 61.7249 186.966 61.9955C186.627 63.0786 186.422 64.2072 186.332 65.3462L186.214 66.8904L186.108 68.436C186.052 69.2448 186.004 70.0544 185.965 70.8647Z" fill="#C5AAFF"/>
<path d="M189.398 69.7011H186.011C185.985 69.7011 185.964 69.6797 185.964 69.654C185.964 69.6283 185.985 69.6069 186.011 69.6069H189.398C189.423 69.6069 189.445 69.6283 189.445 69.654C189.445 69.6797 189.423 69.7011 189.398 69.7011Z" fill="white"/>
<path d="M198.759 69.7011H195.372C195.346 69.7011 195.325 69.6797 195.325 69.654C195.325 69.6283 195.346 69.6069 195.372 69.6069H198.759C198.784 69.6069 198.806 69.6283 198.806 69.654C198.806 69.6797 198.784 69.7011 198.759 69.7011Z" fill="white"/>
<path d="M189.509 69.5893C189.509 69.5768 188.758 68.3879 188.758 68.3879L189.521 68.2856L189.509 69.5893Z" fill="#ABB1EE"/>
<path d="M196.085 68.3908C196.085 68.3908 195.336 69.5798 195.336 69.5923L195.313 69.4298C195.308 69.1415 195.306 68.8555 195.304 68.568L195.303 68.2856L196.085 68.3908Z" fill="#ABB1EE"/>
<path d="M192.422 57.8521C191.086 57.8521 189.767 58.1521 188.563 58.7307L188.296 58.8587L188.758 68.4904H196.086L196.548 58.8587L196.281 58.7307C195.077 58.1521 193.758 57.8521 192.422 57.8521Z" fill="#C5AAFF"/>
<path d="M194.312 58.1369L194.036 60.3222L192.599 58.8494L193.649 57.1553L194.312 58.1369Z" fill="white"/>
<path d="M192.599 58.8494L191.549 57.1553H193.649L192.599 58.8494Z" fill="#ABB1EE"/>
<path d="M190.886 58.1369L191.163 60.3222L192.599 58.8494L191.549 57.1553L190.886 58.1369Z" fill="white"/>
<path d="M188.935 68.5378C188.91 68.5378 188.889 68.5179 188.888 68.4929L188.566 61.4487C188.565 61.423 188.586 61.4009 188.611 61.3995C188.64 61.395 188.659 61.4186 188.661 61.4443L188.982 68.4878C188.983 68.5135 188.963 68.5356 188.937 68.537L188.935 68.5378Z" fill="white"/>
<path d="M196.263 68.5375H196.261C196.235 68.536 196.214 68.514 196.216 68.4882L196.554 61.444C196.556 61.4183 196.575 61.3962 196.603 61.3992C196.629 61.4007 196.65 61.4227 196.648 61.4485L196.31 68.4919C196.309 68.5184 196.288 68.5375 196.263 68.5375Z" fill="white"/>
<path d="M192.599 68.5367C192.573 68.5367 192.552 68.5154 192.552 68.4896V58.8483C192.552 58.8226 192.573 58.8013 192.599 58.8013C192.625 58.8013 192.646 58.8226 192.646 58.8483V68.4896C192.646 68.5161 192.625 68.5367 192.599 68.5367Z" fill="white"/>
<path d="M191.893 81.4854V85.1075L190.707 87.3825C190.179 88.395 189.269 89.1553 188.178 89.4943L186.628 89.9766C186.343 90.0649 186.149 90.3281 186.149 90.6266H189.845H192.817L195.195 87.1612L195.739 90.6266H196.949V86.4795V86.2964V81.4861L191.893 81.4854Z" fill="#FFB5F4"/>
<path d="M317.858 63.7513H306.686C306.191 63.7513 305.789 63.0254 305.789 62.1306C305.789 61.2357 306.191 60.5098 306.686 60.5098H317.858C318.353 60.5098 318.755 61.2357 318.755 62.1306C318.755 63.0254 318.353 63.7513 317.858 63.7513Z" fill="#D1E0FF"/>
<path d="M317.858 84.2811H306.686C306.191 84.2811 305.789 83.5552 305.789 82.6603C305.789 81.7655 306.191 81.0396 306.686 81.0396H317.858C318.353 81.0396 318.755 81.7655 318.755 82.6603C318.755 83.5552 318.353 84.2811 317.858 84.2811Z" fill="#D1E0FF"/>
<path d="M317.858 105.891H306.686C306.191 105.891 305.789 105.166 305.789 104.271C305.789 103.376 306.191 102.65 306.686 102.65H317.858C318.353 102.65 318.755 103.376 318.755 104.271C318.755 105.166 318.353 105.891 317.858 105.891Z" fill="#D1E0FF"/>
<path d="M199.005 110.332C194.626 110.885 190.195 110.885 185.816 110.332C186.774 107.556 187.635 104.757 188.398 101.94C191.067 102.185 193.754 102.185 196.423 101.94C197.187 104.757 198.048 107.556 199.005 110.332Z" fill="#5CCDD3"/>
<path d="M192.411 103.313C190.97 103.313 189.53 103.229 188.1 103.061C188.074 103.058 188.056 103.035 188.059 103.009C188.062 102.984 188.084 102.966 188.111 102.969C190.964 103.304 193.858 103.304 196.713 102.969C196.74 102.965 196.762 102.984 196.765 103.009C196.768 103.035 196.749 103.058 196.724 103.061C195.292 103.229 193.851 103.313 192.411 103.313Z" fill="white"/>
<path d="M192.418 110.005C192.134 110.005 191.849 110.003 191.567 109.999C191.054 109.992 190.524 109.977 189.945 109.95C189.397 109.928 188.825 109.893 188.245 109.849C187.498 109.794 186.768 109.725 186.076 109.644L186.102 109.422C186.791 109.503 187.517 109.572 188.261 109.627C188.839 109.671 189.409 109.705 189.956 109.728C190.532 109.754 191.06 109.769 191.57 109.776C192.134 109.785 192.703 109.785 193.267 109.776C193.823 109.767 194.347 109.752 194.867 109.728C195.414 109.705 195.984 109.671 196.562 109.627C197.306 109.572 198.032 109.503 198.721 109.422L198.747 109.644C198.055 109.725 197.325 109.794 196.578 109.849C195.998 109.893 195.426 109.928 194.877 109.95C194.354 109.974 193.828 109.99 193.27 109.999C192.987 110.003 192.703 110.005 192.418 110.005Z" fill="white"/>
<path d="M192.419 109.452C192.141 109.452 191.863 109.45 191.587 109.445C191.082 109.439 190.55 109.423 190.007 109.4C189.489 109.379 188.952 109.348 188.366 109.306C187.688 109.258 186.998 109.195 186.255 109.112L186.28 108.891C187.019 108.972 187.708 109.035 188.383 109.084C188.967 109.126 189.501 109.157 190.016 109.178C190.558 109.2 191.087 109.216 191.59 109.223C192.139 109.231 192.697 109.231 193.248 109.223C193.744 109.216 194.268 109.201 194.805 109.178C195.32 109.156 195.855 109.125 196.439 109.083C197.117 109.035 197.804 108.972 198.542 108.89L198.566 109.111C197.825 109.193 197.134 109.256 196.454 109.305C195.868 109.348 195.331 109.378 194.814 109.4C194.275 109.423 193.749 109.438 193.251 109.445C192.975 109.45 192.697 109.452 192.419 109.452Z" fill="white"/>
<path d="M188.062 110.613C188.058 110.613 188.054 110.613 188.05 110.612C188.025 110.606 188.01 110.581 188.017 110.556C188.545 108.355 188.886 106.348 188.949 105.968C188.953 105.943 188.976 105.927 189.002 105.93C189.027 105.934 189.044 105.957 189.04 105.982C188.977 106.363 188.637 108.372 188.106 110.577C188.101 110.599 188.083 110.613 188.062 110.613Z" fill="white"/>
<path d="M189.845 110.731C189.843 110.731 189.84 110.731 189.839 110.73C189.814 110.727 189.796 110.704 189.799 110.678C190.066 108.657 190.197 106.782 190.241 106.069C190.243 106.044 190.263 106.027 190.29 106.026C190.316 106.027 190.335 106.049 190.334 106.075C190.29 106.788 190.158 108.666 189.891 110.691C189.888 110.713 189.868 110.731 189.845 110.731Z" fill="white"/>
<path d="M196.761 110.618C196.74 110.618 196.721 110.604 196.716 110.582C196.186 108.376 195.845 106.368 195.782 105.987C195.778 105.962 195.795 105.939 195.82 105.934C195.846 105.931 195.869 105.948 195.873 105.973C195.936 106.352 196.276 108.358 196.805 110.561C196.811 110.586 196.796 110.611 196.772 110.617C196.767 110.618 196.764 110.618 196.761 110.618Z" fill="white"/>
<path d="M194.977 110.731C194.954 110.731 194.934 110.714 194.932 110.691C194.665 108.666 194.533 106.788 194.489 106.075C194.487 106.049 194.507 106.027 194.532 106.026C194.56 106.027 194.579 106.044 194.582 106.069C194.626 106.782 194.757 108.657 195.023 110.678C195.027 110.704 195.009 110.727 194.984 110.73C194.982 110.73 194.979 110.731 194.977 110.731Z" fill="white"/>
<path d="M191.538 110.79H191.536C191.51 110.789 191.49 110.767 191.491 110.742C191.543 109.32 191.593 107.937 191.627 106.98L191.657 106.13C191.657 106.105 191.682 106.087 191.704 106.085C191.73 106.086 191.75 106.108 191.749 106.133L191.719 106.983C191.685 107.94 191.636 109.324 191.584 110.745C191.583 110.77 191.563 110.79 191.538 110.79Z" fill="white"/>
<path d="M193.293 110.79C193.268 110.79 193.248 110.77 193.247 110.745C193.187 108.594 193.099 106.672 193.073 106.134C193.072 106.108 193.092 106.087 193.117 106.085C193.142 106.087 193.165 106.104 193.166 106.13C193.192 106.668 193.28 108.591 193.34 110.742C193.341 110.768 193.321 110.789 193.295 110.79H193.293Z" fill="white"/>
<path d="M315.37 48.6304H184.931C183.139 48.6304 181.687 47.1774 181.687 45.3855C181.687 43.5936 183.139 42.1406 184.931 42.1406H315.37C317.162 42.1406 318.615 43.5936 318.615 45.3855C318.614 47.1774 317.162 48.6304 315.37 48.6304Z" fill="#E9F0FE"/>
<path d="M187.357 46.6118L186.255 45.5096C186.435 45.2904 186.547 45.0147 186.547 44.7096C186.547 44.0096 185.978 43.4404 185.279 43.4404C184.579 43.4404 184.01 44.0096 184.01 44.7096C184.01 45.4088 184.579 45.978 185.279 45.978C185.526 45.978 185.756 45.9037 185.951 45.7809L187.069 46.8993C187.109 46.939 187.161 46.9588 187.213 46.9588C187.265 46.9588 187.318 46.939 187.357 46.8993C187.437 46.8199 187.437 46.6912 187.357 46.6118ZM184.417 44.7096C184.417 44.2346 184.803 43.8478 185.279 43.8478C185.754 43.8478 186.14 44.2346 186.14 44.7096C186.14 45.1846 185.754 45.5713 185.279 45.5713C184.804 45.5713 184.417 45.1846 184.417 44.7096Z" fill="#171C4F"/>
<path d="M195.297 44.8647C195.297 45.1743 195.045 45.4258 194.736 45.4258C194.426 45.4258 194.175 45.1743 194.175 44.8647C194.175 44.5552 194.426 44.3037 194.736 44.3037C195.045 44.3037 195.297 44.5552 195.297 44.8647Z" fill="#86B7FF"/>
<path d="M193.292 44.8647C193.292 45.1743 193.041 45.4258 192.731 45.4258C192.422 45.4258 192.17 45.1743 192.17 44.8647C192.17 44.5552 192.422 44.3037 192.731 44.3037C193.041 44.3037 193.292 44.5552 193.292 44.8647Z" fill="#86B7FF"/>
<path d="M191.288 44.8647C191.288 45.1743 191.037 45.4258 190.727 45.4258C190.417 45.4258 190.166 45.1743 190.166 44.8647C190.166 44.5552 190.417 44.3037 190.727 44.3037C191.037 44.3037 191.288 44.5552 191.288 44.8647Z" fill="#86B7FF"/>
<path d="M253.11 62.4819H208.563C207.846 62.4819 207.264 61.9002 207.264 61.1833C207.264 60.4664 207.846 59.8848 208.563 59.8848H253.11C253.827 59.8848 254.409 60.4664 254.409 61.1833C254.409 61.901 253.828 62.4819 253.11 62.4819Z" fill="#D1E0FF"/>
<path d="M224.73 67.2431H208.563C207.846 67.2431 207.264 66.6615 207.264 65.9445C207.264 65.2276 207.846 64.646 208.563 64.646H224.73C225.447 64.646 226.028 65.2276 226.028 65.9445C226.028 66.6615 225.447 67.2431 224.73 67.2431Z" fill="#D1E0FF"/>
<path d="M258.83 84.1049H208.563C207.846 84.1049 207.264 83.5233 207.264 82.8064C207.264 82.0894 207.846 81.5078 208.563 81.5078H258.83C259.547 81.5078 260.129 82.0894 260.129 82.8064C260.129 83.5233 259.548 84.1049 258.83 84.1049Z" fill="#D1E0FF"/>
<path d="M215.229 88.8661H208.563C207.846 88.8661 207.264 88.2845 207.264 87.5676C207.264 86.8507 207.846 86.269 208.563 86.269H215.229C215.946 86.269 216.528 86.8507 216.528 87.5676C216.528 88.2852 215.947 88.8661 215.229 88.8661Z" fill="#D1E0FF"/>
<path d="M244.93 105.285H208.563C207.846 105.285 207.264 104.703 207.264 103.987C207.264 103.27 207.846 102.688 208.563 102.688H244.93C245.647 102.688 246.229 103.27 246.229 103.987C246.229 104.703 245.647 105.285 244.93 105.285Z" fill="#D1E0FF"/>
<path d="M219.029 110.046H208.563C207.846 110.046 207.264 109.465 207.264 108.748C207.264 108.031 207.846 107.449 208.563 107.449H219.029C219.746 107.449 220.328 108.031 220.328 108.748C220.328 109.465 219.747 110.046 219.029 110.046Z" fill="#D1E0FF"/>
<path d="M275.01 64.6444H272.449C271.962 64.6444 271.567 64.2495 271.567 63.762V61.2017C271.567 60.7142 271.962 60.3193 272.449 60.3193H275.01C275.497 60.3193 275.892 60.7142 275.892 61.2017V63.762C275.892 64.2495 275.497 64.6444 275.01 64.6444Z" fill="#D7E5FF"/>
<path d="M274.854 62.8481H272.604C272.402 62.8481 272.237 62.6834 272.237 62.4804C272.237 62.2775 272.402 62.1128 272.604 62.1128H274.854C275.057 62.1128 275.222 62.2775 275.222 62.4804C275.222 62.6834 275.057 62.8481 274.854 62.8481Z" fill="#6784D0"/>
<path d="M281.827 64.6444H279.267C278.78 64.6444 278.385 64.2495 278.385 63.762V61.2017C278.385 60.7142 278.78 60.3193 279.267 60.3193H281.827C282.315 60.3193 282.71 60.7142 282.71 61.2017V63.762C282.71 64.2495 282.315 64.6444 281.827 64.6444Z" fill="#D7E5FF"/>
<path d="M281.672 62.8466H279.422C279.219 62.8466 279.055 62.6819 279.055 62.479C279.055 62.276 279.219 62.1113 279.422 62.1113H281.672C281.875 62.1113 282.04 62.276 282.04 62.479C282.04 62.6819 281.876 62.8466 281.672 62.8466Z" fill="#6784D0"/>
<path d="M280.547 63.9719C280.344 63.9719 280.18 63.8072 280.18 63.6043V61.355C280.18 61.152 280.344 60.9873 280.547 60.9873C280.75 60.9873 280.915 61.152 280.915 61.355V63.6043C280.915 63.8072 280.75 63.9719 280.547 63.9719Z" fill="#6784D0"/>
<path d="M275.01 88.3534H272.449C271.962 88.3534 271.567 87.9585 271.567 87.471V84.9107C271.567 84.4232 271.962 84.0283 272.449 84.0283H275.01C275.497 84.0283 275.892 84.4232 275.892 84.9107V87.471C275.892 87.9585 275.497 88.3534 275.01 88.3534Z" fill="#D7E5FF"/>
<path d="M274.854 86.559H272.604C272.402 86.559 272.237 86.3943 272.237 86.1914C272.237 85.9884 272.402 85.8237 272.604 85.8237H274.854C275.057 85.8237 275.222 85.9884 275.222 86.1914C275.222 86.3943 275.057 86.559 274.854 86.559Z" fill="#6784D0"/>
<path d="M281.827 88.3534H279.267C278.78 88.3534 278.385 87.9585 278.385 87.471V84.9107C278.385 84.4232 278.78 84.0283 279.267 84.0283H281.827C282.315 84.0283 282.71 84.4232 282.71 84.9107V87.471C282.71 87.9585 282.315 88.3534 281.827 88.3534Z" fill="#D7E5FF"/>
<path d="M281.672 86.559H279.422C279.219 86.559 279.055 86.3943 279.055 86.1914C279.055 85.9884 279.219 85.8237 279.422 85.8237H281.672C281.875 85.8237 282.04 85.9884 282.04 86.1914C282.04 86.3943 281.876 86.559 281.672 86.559Z" fill="#6784D0"/>
<path d="M280.547 87.6843C280.344 87.6843 280.18 87.5196 280.18 87.3167V85.0674C280.18 84.8644 280.344 84.6997 280.547 84.6997C280.75 84.6997 280.915 84.8644 280.915 85.0674V87.3167C280.915 87.5203 280.75 87.6843 280.547 87.6843Z" fill="#6784D0"/>
<path d="M275.01 108.528H272.449C271.962 108.528 271.567 108.133 271.567 107.646V105.085C271.567 104.598 271.962 104.203 272.449 104.203H275.01C275.497 104.203 275.892 104.598 275.892 105.085V107.646C275.892 108.133 275.497 108.528 275.01 108.528Z" fill="#D7E5FF"/>
<path d="M274.854 106.733H272.604C272.402 106.733 272.237 106.569 272.237 106.366C272.237 106.163 272.402 105.998 272.604 105.998H274.854C275.057 105.998 275.222 106.163 275.222 106.366C275.222 106.569 275.057 106.733 274.854 106.733Z" fill="#6784D0"/>
<path d="M281.827 108.528H279.267C278.78 108.528 278.385 108.133 278.385 107.646V105.085C278.385 104.598 278.78 104.203 279.267 104.203H281.827C282.315 104.203 282.71 104.598 282.71 105.085V107.646C282.71 108.133 282.315 108.528 281.827 108.528Z" fill="#D7E5FF"/>
<path d="M281.672 106.732H279.422C279.219 106.732 279.055 106.568 279.055 106.365C279.055 106.162 279.219 105.997 279.422 105.997H281.672C281.875 105.997 282.04 106.162 282.04 106.365C282.04 106.568 281.876 106.732 281.672 106.732Z" fill="#6784D0"/>
<path d="M280.547 107.853C280.344 107.853 280.18 107.688 280.18 107.485V105.236C280.18 105.033 280.344 104.868 280.547 104.868C280.75 104.868 280.915 105.033 280.915 105.236V107.485C280.915 107.689 280.75 107.853 280.547 107.853Z" fill="#6784D0"/>
<path d="M171.491 11.0391L156.234 16.9141C156.02 16.995 155.815 17.0833 155.609 17.1715C155.432 17.2524 155.263 17.3333 155.094 17.4215C153.873 18.0171 152.756 18.7744 151.77 19.6642C151.638 19.7892 151.498 19.9142 151.366 20.0392C149.395 21.9583 147.998 24.4142 147.366 27.1201C147.322 27.2966 147.285 27.4804 147.256 27.6569C147.219 27.8334 147.189 28.0172 147.16 28.1937C147.05 28.9216 146.991 29.6569 146.991 30.4069V31.3114C146.932 35.2011 143.631 38.3115 139.66 38.0541C136.005 37.8262 133.248 34.6276 133.248 30.9658V30.8408C133.248 30.6864 133.248 30.5319 133.263 30.3775C133.27 30.1864 133.277 29.9952 133.292 29.804C133.307 29.6349 133.322 29.4658 133.344 29.2966C133.63 26.7819 134.564 24.4216 135.991 22.4363C136.726 21.4068 137.594 20.473 138.579 19.6642C139.689 18.7377 140.954 17.9803 142.329 17.4215C142.425 17.3774 142.528 17.3333 142.631 17.2965C142.814 17.2303 142.998 17.1641 143.182 17.098L161.02 11.0391H171.491Z" fill="#D5C5FF"/>
<path d="M192.514 11.0391L182.272 16.4068C181.992 16.5538 181.712 16.7156 181.44 16.8847C181.218 17.0171 181.005 17.1568 180.799 17.3038C180.74 17.3406 180.681 17.3774 180.622 17.4215C180.607 17.4288 180.585 17.4436 180.571 17.4583C180.121 17.7744 179.686 18.1274 179.281 18.495C178.876 18.87 178.5 19.2597 178.146 19.6642C178.073 19.745 177.999 19.8186 177.932 19.8995C177.859 19.9803 177.793 20.0539 177.733 20.1348C177.299 20.6642 176.915 21.2304 176.569 21.8186C176.415 22.0686 176.267 22.3333 176.135 22.5907C176.135 22.598 176.127 22.6054 176.127 22.6127C176.002 22.8554 175.891 23.098 175.774 23.3407C175 25.0613 174.557 26.9437 174.513 28.8849C174.506 29.0613 174.506 29.2305 174.506 29.4069V31.2011C174.506 35.1423 171.182 38.3115 167.174 38.0541C163.512 37.8262 160.734 34.6349 160.734 30.9731V29.9878C160.734 29.4437 160.764 28.8996 160.823 28.3702C160.867 27.9804 160.926 27.6054 160.992 27.2304C161.537 24.3333 162.93 21.7083 164.963 19.6642C165.818 18.8039 166.79 18.0465 167.859 17.4215C168.22 17.2083 168.596 17.0097 168.979 16.8259C169.14 16.745 169.303 16.6715 169.472 16.598L182.013 11.0391H192.514Z" fill="#D5C5FF"/>
<path d="M203.015 11.0391L194.953 16.2009C194.695 16.37 194.438 16.5391 194.195 16.723C194.055 16.8259 193.914 16.9362 193.775 17.0465C193.628 17.1715 193.48 17.2965 193.333 17.4215C192.552 18.098 191.852 18.8553 191.247 19.6642C189.619 21.8039 188.602 24.3701 188.345 27.0907C188.33 27.2451 188.315 27.3996 188.308 27.554C188.3 27.6128 188.293 27.679 188.3 27.7378C188.286 27.9216 188.286 28.1054 188.278 28.2893V28.4878L188.271 31.2011C188.271 35.1423 184.955 38.3115 180.939 38.0541C177.277 37.8262 174.507 34.6349 174.507 30.9731V29.4069C174.507 29.2305 174.507 29.0613 174.514 28.8849C174.58 26.929 175.022 25.0466 175.774 23.3407C175.892 23.098 176.003 22.8554 176.128 22.6127C176.128 22.6054 176.136 22.598 176.136 22.5907C176.268 22.3333 176.416 22.0686 176.57 21.8186C176.916 21.2304 177.3 20.6642 177.734 20.1348C177.793 20.0539 177.859 19.9803 177.933 19.8995C177.992 19.8186 178.058 19.745 178.133 19.6642C178.486 19.2524 178.869 18.8627 179.282 18.495C179.687 18.1274 180.122 17.7744 180.572 17.4583C180.586 17.4436 180.608 17.4288 180.623 17.4215C180.682 17.3774 180.741 17.3406 180.8 17.3038C181.006 17.1568 181.219 17.0171 181.441 16.8847C181.714 16.7156 181.994 16.5538 182.273 16.4068L192.515 11.0391H203.015Z" fill="#FFC4F6"/>
<path d="M213.514 11.0391L207.332 16.1274C206.846 16.5318 206.381 16.9656 205.954 17.4215C205.305 18.1127 204.731 18.87 204.237 19.6642C202.822 21.9289 202.049 24.5686 202.049 27.2966V30.9658C202.049 34.6276 199.278 37.8262 195.609 38.0541C191.601 38.3115 188.277 35.1423 188.277 31.2011V28.2893C188.277 28.1054 188.285 27.9216 188.299 27.7378C188.292 27.679 188.299 27.6128 188.307 27.554C188.314 27.3996 188.329 27.2451 188.344 27.0907C188.58 24.3701 189.588 21.8039 191.217 19.6642C191.822 18.848 192.529 18.098 193.31 17.4215C193.464 17.2965 193.612 17.1715 193.774 17.0465C193.913 16.9362 194.054 16.8259 194.194 16.723C194.437 16.5391 194.694 16.37 194.952 16.2009L203.014 11.0391H213.514Z" fill="#D5C5FF"/>
<path d="M224.015 11.0391L219.365 16.3847C219.078 16.7156 218.805 17.0612 218.555 17.4215C218.04 18.1274 217.597 18.8774 217.229 19.6642C217.022 20.0906 216.838 20.5245 216.684 20.9657C216.632 21.1201 216.581 21.2671 216.529 21.4142C216.456 21.6421 216.39 21.8701 216.33 22.098C215.991 23.3186 215.821 24.5907 215.821 25.8775V30.9658C215.821 34.6276 213.043 37.8262 209.382 38.0541C205.373 38.3115 202.05 35.1423 202.05 31.2011V27.2966C202.05 24.5686 202.823 21.9289 204.238 19.6642C204.731 18.87 205.306 18.1127 205.955 17.4215C206.382 16.9656 206.847 16.5318 207.333 16.1274L213.515 11.0391H224.015Z" fill="#FFC4F6"/>
<path d="M234.522 11.0391L231.244 17.3259C231.229 17.3553 231.214 17.3921 231.199 17.4215C230.824 18.1421 230.514 18.8995 230.271 19.6642C229.829 21.0686 229.6 22.5319 229.6 24.0172V30.9658C229.6 34.6276 226.822 37.8262 223.16 38.0541C219.151 38.3115 215.829 35.1423 215.829 31.2011V25.8701C215.829 24.5907 215.998 23.3186 216.329 22.098C216.388 21.8701 216.454 21.6421 216.529 21.4142C216.58 21.2671 216.632 21.1201 216.683 20.9657C216.845 20.5245 217.022 20.0906 217.235 19.6642C217.604 18.8847 218.046 18.1347 218.569 17.4215C218.812 17.0685 219.085 16.723 219.372 16.3921L224.014 11.0391H234.522Z" fill="#D5C5FF"/>
<path d="M244.933 11.0391L243.838 17.4215L243.521 19.2598C243.514 19.2892 243.514 19.3186 243.507 19.348C243.499 19.3995 243.492 19.4509 243.485 19.5098L243.455 19.6642L243.316 20.473H243.308V31.2011C243.308 35.1423 239.992 38.3115 235.992 38.0541C232.338 37.8262 229.565 34.6276 229.565 30.9658V23.9951C229.565 22.5245 229.793 21.0612 230.227 19.6642C230.477 18.8921 230.779 18.1421 231.154 17.4215C231.161 17.3921 231.176 17.37 231.19 17.3406L234.455 11.0391H244.933Z" fill="#FFC4F6"/>
<path d="M257.066 20.473H257.059V31.2011C257.059 35.1423 253.743 38.3115 249.742 38.0541C246.088 37.8262 243.316 34.6276 243.316 30.9658V21.701C243.316 21.0245 243.36 20.3406 243.463 19.6642C243.463 19.6127 243.478 19.5612 243.485 19.5098C243.492 19.4509 243.5 19.3995 243.507 19.348C243.514 19.3186 243.514 19.2892 243.522 19.2598L243.838 17.4215L244.934 11.0391H255.419L256.537 17.4215L256.926 19.6642L257.066 20.473Z" fill="#D5C5FF"/>
<path d="M270.794 24.0098V30.9658C270.794 34.6276 268.029 37.8262 264.374 38.0541C260.367 38.3115 257.058 35.1423 257.058 31.2011V21.723C257.058 21.0392 257.007 20.3406 256.904 19.6642C256.889 19.5171 256.86 19.3774 256.838 19.2377L256.521 17.4215L255.411 11.0391H265.889L269.161 17.3259C269.176 17.3553 269.191 17.3921 269.205 17.4215H269.213C269.389 17.7671 269.551 18.12 269.698 18.473C269.86 18.8627 270.007 19.2597 270.125 19.6642C270.566 21.0686 270.794 22.5319 270.794 24.0098Z" fill="#FFC4F6"/>
<path d="M284.544 25.8775V30.9658C284.544 34.6276 281.78 37.8262 278.118 38.0541C274.118 38.3115 270.801 35.1423 270.801 31.2011V24.0098C270.801 22.5319 270.574 21.0686 270.132 19.6642H270.125C270.007 19.2597 269.86 18.8627 269.699 18.473C269.559 18.12 269.397 17.7671 269.213 17.4215C269.198 17.3921 269.184 17.3553 269.169 17.3259L265.897 11.0391H276.375L278.853 13.9067L281.007 16.3847C281.294 16.7156 281.566 17.0612 281.816 17.4215C282.331 18.1274 282.772 18.8774 283.14 19.6642C284.059 21.5907 284.544 23.7157 284.544 25.8775Z" fill="#D5C5FF"/>
<path d="M298.287 27.2966V30.9658C298.287 34.6276 295.515 37.8262 291.861 38.0541C287.86 38.3115 284.544 35.1423 284.544 31.2011V25.8775C284.544 23.7157 284.059 21.5907 283.14 19.6642C282.772 18.8774 282.331 18.1274 281.816 17.4215C281.566 17.0612 281.294 16.7156 281.007 16.3847L278.853 13.9067L276.368 11.0391H286.846L293.015 16.1274C293.5 16.5318 293.963 16.9656 294.39 17.4215C295.037 18.1127 295.611 18.87 296.103 19.6642C297.515 21.9289 298.287 24.5686 298.287 27.2966Z" fill="#FFC4F6"/>
<path d="M339.515 29.8849V30.9658C339.515 34.6276 336.751 37.8262 333.089 38.0541C329.089 38.3115 325.773 35.1423 325.773 31.2011V29.2231C325.773 25.6422 324.449 22.2598 322.162 19.6642C321.434 18.8333 320.603 18.0759 319.677 17.4215C319.155 17.0538 318.603 16.7082 318.022 16.4068L307.802 11.0391H318.28L330.912 16.6494C331.427 16.8774 331.92 17.1347 332.398 17.4215C333.471 18.0465 334.442 18.8039 335.302 19.6642C337.949 22.3333 339.515 25.9804 339.515 29.8849Z" fill="#D5C5FF"/>
<path d="M161.021 11.0391L143.182 17.098L143.065 17.1347C142.917 17.1862 142.77 17.2377 142.631 17.2965C142.52 17.3333 142.417 17.3774 142.315 17.4215C140.925 17.973 139.645 18.7377 138.528 19.6642C135.638 22.0392 133.734 25.4878 133.344 29.2966C133.322 29.4658 133.307 29.6349 133.292 29.804C133.278 29.9952 133.27 30.1864 133.263 30.3775C133.248 30.5319 133.248 30.6864 133.248 30.8408V31.2011C133.248 35.1423 129.917 38.3115 125.917 38.0541C122.263 37.8262 119.498 34.6276 119.498 30.9658C119.498 27.8481 120.52 24.9142 122.285 22.5318C123.086 21.451 124.042 20.4804 125.13 19.6642C126.432 18.6862 127.917 17.9141 129.542 17.4215L150.543 11.0391H161.021Z" fill="#FFC4F6"/>
<path d="M181.969 11.0391L169.454 16.598C169.285 16.6715 169.123 16.745 168.962 16.8259C168.587 17.0097 168.212 17.2083 167.859 17.4215C166.807 18.0539 165.851 18.8112 164.998 19.6642C162.962 21.7157 161.55 24.348 160.991 27.2304C160.925 27.6054 160.866 27.9804 160.822 28.3702C160.756 28.9069 160.726 29.4584 160.726 30.0099V31.2011C160.726 35.1423 157.41 38.3115 153.41 38.0541C149.873 37.8335 147.16 34.8335 146.991 31.3114V31.2011C146.983 31.1275 146.983 31.0467 146.983 30.9731V30.4364C146.983 29.6716 147.042 28.9216 147.16 28.1937C147.189 28.0172 147.219 27.8334 147.255 27.6569C147.285 27.4804 147.322 27.2966 147.366 27.1201C147.991 24.3995 149.395 21.9436 151.366 20.0392C151.491 19.9068 151.623 19.7818 151.756 19.6642C152.741 18.7744 153.851 18.0171 155.072 17.4215C155.248 17.3333 155.425 17.2524 155.609 17.1715C155.814 17.0833 156.02 16.995 156.234 16.9141L171.491 11.0391H181.969Z" fill="#FFC4F6"/>
<path d="M312.03 28.3849V31.2011C312.03 35.1423 308.714 38.3115 304.714 38.0541C301.052 37.8262 298.287 34.6276 298.287 30.9658V27.2966C298.287 24.5686 297.515 21.9289 296.103 19.6642C295.611 18.87 295.037 18.1127 294.39 17.4215C293.963 16.9656 293.5 16.5318 293.015 16.1274L286.846 11.0391H297.324L305.368 16.2009C305.942 16.5685 306.493 16.9803 307 17.4215C307.787 18.098 308.486 18.848 309.096 19.6642C310.971 22.1348 312.03 25.1863 312.03 28.3849Z" fill="#D5C5FF"/>
<path d="M325.773 29.2231V30.9658C325.773 34.6276 323.008 37.8262 319.361 38.0541C315.353 38.3115 312.03 35.1423 312.03 31.2011V28.3849C312.03 25.1863 310.971 22.1348 309.096 19.6642C308.486 18.848 307.787 18.098 307 17.4215C306.493 16.9803 305.941 16.5685 305.368 16.2009L297.324 11.0391H307.802L318.023 16.4068C318.603 16.7082 319.155 17.0538 319.677 17.4215C320.603 18.0759 321.434 18.8333 322.162 19.6642C324.449 22.2598 325.773 25.6422 325.773 29.2231Z" fill="#FFC4F6"/>
<path d="M353.258 30.4069V31.2011C353.258 35.1423 349.942 38.3115 345.942 38.0541C342.287 37.8262 339.515 34.6276 339.515 30.9658V29.8849C339.515 25.9804 337.949 22.3333 335.302 19.6642C334.442 18.8039 333.471 18.0465 332.398 17.4215C331.92 17.1347 331.427 16.8774 330.912 16.6494L318.28 11.0391H328.758L343.979 16.8994C344.383 17.0538 344.78 17.2303 345.17 17.4215C346.39 18.0171 347.493 18.7744 348.479 19.6642C351.464 22.3554 353.258 26.2304 353.258 30.4069Z" fill="#FFC4F6"/>
<path d="M380.744 31.2011C380.744 34.9952 377.678 38.0688 373.883 38.0688C373.729 38.0688 373.582 38.0615 373.427 38.0541C369.773 37.8262 367.008 34.6276 367.008 30.9658V30.8408C367.008 26.4216 365.001 22.3554 361.721 19.6642C360.604 18.7377 359.332 17.9803 357.949 17.4215C357.699 17.3186 357.442 17.223 357.185 17.1347L339.236 11.0391H349.707L370.479 17.348C370.552 17.37 370.626 17.3921 370.699 17.4215C372.288 17.9289 373.736 18.6936 375.016 19.6642C378.545 22.3407 380.744 26.576 380.744 31.2011Z" fill="#FFC4F6"/>
<path d="M367.008 30.8408V30.9658C367.008 34.6276 364.244 37.8262 360.589 38.0541C356.582 38.3115 353.258 35.1423 353.258 31.2011V30.4069C353.258 26.2304 351.464 22.3554 348.479 19.6642C347.493 18.7744 346.39 18.0171 345.17 17.4215C344.78 17.2303 344.383 17.0538 343.979 16.8994L328.758 11.0391H339.236L357.185 17.1347C357.442 17.223 357.699 17.3186 357.949 17.4215C359.332 17.9803 360.604 18.7377 361.721 19.6642C365.001 22.3554 367.008 26.4216 367.008 30.8408Z" fill="#D5C5FF"/>
<path opacity="0.5" d="M370.478 17.3441L349.67 11.0352H265.889H265.72H150.572L129.542 17.4176H269.042H269.205H370.699C370.626 17.3882 370.552 17.3661 370.478 17.3441Z" fill="white"/>
<path d="M415.897 175.202H381.209C376.555 175.202 372.782 171.429 372.782 166.775V143.429C372.782 138.775 376.555 135.002 381.209 135.002H415.897C420.551 135.002 424.324 138.775 424.324 143.429V166.776C424.323 171.43 420.551 175.202 415.897 175.202Z" fill="#FFE7FB"/>
<path d="M386.985 141.485C384.332 141.485 382.191 143.634 382.191 146.279C382.191 146.915 382.315 147.514 382.534 148.07L382.542 148.077C382.761 148.618 386.985 155.041 386.985 155.041C386.985 155.041 391.208 148.626 391.427 148.077V148.07C391.654 147.514 391.778 146.915 391.778 146.279C391.778 143.634 389.63 141.485 386.985 141.485ZM386.985 148.142C385.859 148.142 384.953 147.236 384.953 146.111C384.953 144.993 385.859 144.087 386.985 144.087C388.103 144.087 389.009 144.993 389.009 146.111C389.009 147.236 388.103 148.142 386.985 148.142Z" fill="#FFACF2"/>
<path d="M410.12 154.751C407.467 154.751 405.326 156.899 405.326 159.545C405.326 160.18 405.45 160.78 405.67 161.335L405.677 161.343C405.897 161.884 410.12 168.307 410.12 168.307C410.12 168.307 414.343 161.891 414.563 161.343V161.335C414.79 160.78 414.914 160.181 414.914 159.545C414.914 156.899 412.765 154.751 410.12 154.751ZM410.12 161.408C408.994 161.408 408.088 160.502 408.088 159.377C408.088 158.259 408.994 157.352 410.12 157.352C411.238 157.352 412.144 158.259 412.144 159.377C412.144 160.502 411.238 161.408 410.12 161.408Z" fill="#FFACF2"/>
<path d="M410.12 168.563C410.104 168.563 410.086 168.561 410.069 168.557L388.958 164.323C388.82 164.295 388.729 164.159 388.758 164.02C388.785 163.881 388.919 163.786 389.06 163.819L410.171 168.053C410.309 168.082 410.4 168.217 410.372 168.356C410.348 168.478 410.241 168.563 410.12 168.563Z" fill="#FFA6F0"/>
<path d="M389.073 162.757C388.986 162.757 388.901 162.714 388.853 162.633C388.78 162.512 388.818 162.354 388.94 162.28L398.893 156.23C399.013 156.156 399.172 156.194 399.246 156.316C399.32 156.438 399.282 156.595 399.16 156.669L389.206 162.72C389.164 162.746 389.118 162.757 389.073 162.757Z" fill="#FFA6F0"/>
<path d="M398.616 155.362H387.049C386.907 155.362 386.792 155.247 386.792 155.105C386.792 154.963 386.907 154.848 387.049 154.848H398.616C398.758 154.848 398.873 154.963 398.873 155.105C398.873 155.247 398.758 155.362 398.616 155.362Z" fill="#FFA6F0"/>
<path d="M401.698 155.101C401.698 156.009 400.961 156.746 400.052 156.746C399.144 156.746 398.407 156.01 398.407 155.101C398.407 154.192 399.143 153.456 400.052 153.456C400.961 153.456 401.698 154.192 401.698 155.101Z" fill="#FFA6F0"/>
<path d="M389.435 163.614C389.435 164.522 388.699 165.259 387.79 165.259C386.882 165.259 386.145 164.523 386.145 163.614C386.145 162.706 386.881 161.969 387.79 161.969C388.699 161.969 389.435 162.706 389.435 163.614Z" fill="#FFA6F0"/>
<path d="M479.952 49.2469H437.16C431.443 49.2469 426.808 44.6123 426.808 38.8953V10.3516C426.808 4.63461 431.443 0 437.16 0H479.952C485.669 0 490.304 4.63461 490.304 10.3516V38.8953C490.304 44.6123 485.67 49.2469 479.952 49.2469Z" fill="#D0ECFF"/>
<path d="M438.894 28.2172C437.164 26.5944 436.114 24.4738 436.114 22.1509C436.114 17.0509 441.164 12.917 447.395 12.917C453.625 12.917 458.675 17.0516 458.675 22.1509C458.675 27.2503 453.625 31.3849 447.395 31.3849C445.356 31.3849 443.446 30.94 441.796 30.1657C440.042 31.3885 437.716 33.0055 437.716 33.0055L438.894 28.2172Z" fill="#73ACFF"/>
<path d="M477.63 32.9406C479.727 30.9744 480.999 28.4038 480.999 25.589C480.999 19.4088 474.879 14.3984 467.329 14.3984C459.779 14.3984 453.659 19.4088 453.659 25.589C453.659 31.7692 459.779 36.7796 467.329 36.7796C469.799 36.7796 472.114 36.2406 474.113 35.3024C476.238 36.7847 479.058 38.7436 479.058 38.7436L477.63 32.9406Z" fill="white"/>
<path d="M473.216 26.0912C473.216 26.8023 472.64 27.3787 471.929 27.3787C471.218 27.3787 470.641 26.8023 470.641 26.0912C470.641 25.3802 471.218 24.8037 471.929 24.8037C472.64 24.8037 473.216 25.3802 473.216 26.0912Z" fill="#B7B7B8"/>
<path d="M468.616 26.0912C468.616 26.8023 468.04 27.3787 467.329 27.3787C466.617 27.3787 466.041 26.8023 466.041 26.0912C466.041 25.3802 466.617 24.8037 467.329 24.8037C468.04 24.8037 468.616 25.3802 468.616 26.0912Z" fill="#B7B7B8"/>
<path d="M464.017 26.0912C464.017 26.8023 463.44 27.3787 462.729 27.3787C462.018 27.3787 461.442 26.8023 461.442 26.0912C461.442 25.3802 462.018 24.8037 462.729 24.8037C463.44 24.8037 464.017 25.3802 464.017 26.0912Z" fill="#B7B7B8"/>
<path d="M450.988 23.4454C451.543 23.4454 451.994 22.995 451.994 22.4395C451.994 21.8839 451.543 21.4336 450.988 21.4336C450.432 21.4336 449.982 21.8839 449.982 22.4395C449.982 22.995 450.432 23.4454 450.988 23.4454Z" fill="white"/>
<path d="M447.394 23.4454C447.95 23.4454 448.4 22.995 448.4 22.4395C448.4 21.8839 447.95 21.4336 447.394 21.4336C446.839 21.4336 446.388 21.8839 446.388 22.4395C446.388 22.995 446.839 23.4454 447.394 23.4454Z" fill="white"/>
<path d="M443.8 23.4454C444.356 23.4454 444.806 22.995 444.806 22.4395C444.806 21.8839 444.356 21.4336 443.8 21.4336C443.245 21.4336 442.794 21.8839 442.794 22.4395C442.794 22.995 443.245 23.4454 443.8 23.4454Z" fill="white"/>
<path d="M118.856 179.9H78.7757C73.5065 179.9 69.2344 175.628 69.2344 170.359V144.541C69.2344 139.271 73.5058 135 78.7757 135H118.856C124.125 135 128.397 139.271 128.397 144.067V169.885C128.396 175.628 124.125 179.9 118.856 179.9Z" fill="#D2F9FB"/>
<path d="M78.8896 151.929L78.9963 163.717L97.8399 169.105L97.7829 156.267L78.8896 151.929Z" fill="#5CCDD3"/>
<path d="M78.8906 151.93L98.8451 147.968L119.077 150.737L97.7227 156.384L78.8906 151.93Z" fill="#13D9E4"/>
<path d="M97.8397 169.106L119.083 162.023L119.076 150.737L97.7222 156.384L97.8397 169.106Z" fill="#5CCDD3"/>
<mask id="mask0_1237_49" style="mask-type:luminance" maskUnits="userSpaceOnUse" x="78" y="147" width="42" height="23">
<path d="M119.076 150.734L98.8447 147.965L78.8903 151.927L78.9169 151.933L78.8896 151.927L78.9963 163.714L97.8399 169.103L119.083 162.02L119.076 150.734Z" fill="white"/>
</mask>
<g mask="url(#mask0_1237_49)">
<path d="M103.036 170.033L102.534 155.39L78.9253 150.278L79.0538 149.687L103.123 154.898L103.641 170.011L103.036 170.033Z" fill="white"/>
</g>
<mask id="mask1_1237_49" style="mask-type:luminance" maskUnits="userSpaceOnUse" x="78" y="147" width="42" height="23">
<path d="M119.076 150.734L98.8447 147.965L78.8903 151.927L78.9169 151.933L78.8896 151.927L78.9963 163.714L97.8399 169.103L119.083 162.02L119.076 150.734Z" fill="white"/>
</mask>
<g mask="url(#mask1_1237_49)">
<path d="M97.8236 165.825L77.1304 159.865L77.8013 157.536L97.7715 163.287L120.846 155.599L121.613 157.899L97.8236 165.825Z" fill="white"/>
</g>
<mask id="mask2_1237_49" style="mask-type:luminance" maskUnits="userSpaceOnUse" x="78" y="147" width="42" height="23">
<path d="M119.076 150.734L98.8447 147.965L78.8903 151.927L78.9169 151.933L78.8896 151.927L78.9963 163.714L97.8399 169.103L119.083 162.02L119.076 150.734Z" fill="white"/>
</mask>
<g mask="url(#mask2_1237_49)">
<path d="M105.694 169.045L105.42 154.408L81.8149 149.296L81.9434 148.704L106.017 153.917L106.3 169.034L105.694 169.045Z" fill="white"/>
</g>
<path d="M47.1793 65.4615H10.7178C4.79859 65.4615 0 60.6629 0 54.7437V18.2822C0 12.363 4.79859 7.56445 10.7178 7.56445H47.1793C53.0984 7.56445 57.897 12.363 57.897 18.2822V54.7437C57.897 60.6629 53.0984 65.4615 47.1793 65.4615Z" fill="#E9F0FE"/>
<path d="M39.7048 39.9883H19.1634C15.2693 39.9883 11.9376 37.4588 11.2633 33.9904L9.54639 25.1572H42.588L39.7048 39.9883Z" fill="#86B7FF"/>
<mask id="mask3_1237_49" style="mask-type:luminance" maskUnits="userSpaceOnUse" x="9" y="25" width="34" height="15">
<path d="M39.7048 39.9883H19.1634C15.2693 39.9883 11.9376 37.4588 11.2633 33.9904L9.54639 25.1572H42.588L39.7048 39.9883Z" fill="white"/>
</mask>
<g mask="url(#mask3_1237_49)">
<path d="M35.425 45.5717C35.4037 45.5717 35.3816 45.5695 35.3596 45.5659C35.1603 45.5298 35.0265 45.3386 35.0625 45.1394L39.3567 21.1942C39.3927 20.995 39.5824 20.8604 39.7839 20.8972C39.9832 20.9332 40.117 21.1244 40.0809 21.3244L35.7868 45.2688C35.7552 45.4467 35.6 45.5717 35.425 45.5717Z" fill="white"/>
<path d="M30.1374 45.5717C30.1161 45.5717 30.094 45.5695 30.072 45.5659C29.8727 45.5298 29.7389 45.3386 29.7749 45.1394L34.0691 21.1942C34.1044 20.995 34.297 20.8604 34.4956 20.8972C34.6948 20.9332 34.8286 21.1244 34.7926 21.3244L30.4984 45.2688C30.4668 45.4467 30.3124 45.5717 30.1374 45.5717Z" fill="white"/>
<path d="M24.8489 45.5717C24.8275 45.5717 24.8055 45.5695 24.7834 45.5659C24.5834 45.5298 24.4503 45.3386 24.4864 45.1394L28.7805 21.1942C28.8158 20.995 29.007 20.8604 29.207 20.8972C29.4063 20.9332 29.5401 21.1244 29.5041 21.3244L25.2099 45.2688C25.1783 45.4467 25.0239 45.5717 24.8489 45.5717Z" fill="white"/>
<path d="M19.5612 45.5717C19.5399 45.5717 19.5179 45.5695 19.4958 45.5659C19.2965 45.5298 19.1627 45.3386 19.1987 45.1394L23.4929 21.1942C23.5289 20.995 23.7179 20.8604 23.9194 20.8972C24.1187 20.9332 24.2525 21.1244 24.2164 21.3244L19.9223 45.2688C19.8907 45.4467 19.7362 45.5717 19.5612 45.5717Z" fill="white"/>
<path d="M14.2727 45.5717C14.2513 45.5717 14.2293 45.5695 14.2072 45.5659C14.008 45.5298 13.8741 45.3386 13.9102 45.1394L18.2043 21.1942C18.2396 20.995 18.4315 20.8604 18.6308 20.8972C18.8301 20.9332 18.9639 21.1244 18.9279 21.3244L14.6337 45.2688C14.6021 45.4467 14.4477 45.5717 14.2727 45.5717Z" fill="white"/>
<path d="M8.98458 45.5717C8.96325 45.5717 8.9412 45.5695 8.91914 45.5659C8.71987 45.5298 8.58604 45.3386 8.62207 45.1394L12.9162 21.1942C12.9523 20.995 13.1412 20.8604 13.3427 20.8972C13.5427 20.9332 13.6758 21.1244 13.6398 21.3244L9.34561 45.2688C9.31399 45.4467 9.15958 45.5717 8.98458 45.5717Z" fill="white"/>
</g>
<path d="M38.6362 48.5812C38.595 48.5812 38.5531 48.5775 38.5112 48.5702C38.1112 48.5018 37.8421 48.1217 37.9112 47.7217L42.2002 22.7331C42.2605 22.3802 42.5664 22.1221 42.9245 22.1221H48.5378C48.9437 22.1221 49.2731 22.4515 49.2731 22.8574C49.2731 23.2633 48.9437 23.5927 48.5378 23.5927H43.5444L39.3605 47.9702C39.2987 48.3283 38.9877 48.5812 38.6362 48.5812Z" fill="#86B7FF"/>
<path d="M18.4228 48.5829C18.0169 48.5829 17.6875 48.2543 17.6875 47.8476C17.6875 47.4418 18.0162 47.1123 18.4221 47.1123L38.6348 47.1035C39.0407 47.1035 39.3709 47.4322 39.3709 47.8388C39.3709 48.2447 39.0422 48.5741 38.6356 48.5741L18.4228 48.5829Z" fill="#86B7FF"/>
<path d="M18.445 53.9471C19.9439 53.9471 21.159 52.732 21.159 51.2331C21.159 49.7342 19.9439 48.519 18.445 48.519C16.9461 48.519 15.731 49.7342 15.731 51.2331C15.731 52.732 16.9461 53.9471 18.445 53.9471Z" fill="#86B7FF"/>
<path d="M38.8483 53.9471C40.3472 53.9471 41.5623 52.732 41.5623 51.2331C41.5623 49.7342 40.3472 48.519 38.8483 48.519C37.3494 48.519 36.1343 49.7342 36.1343 51.2331C36.1343 52.732 37.3494 53.9471 38.8483 53.9471Z" fill="#86B7FF"/>
<path d="M99.4087 134.501V115.086C99.4087 104.041 108.363 95.0863 119.409 95.0863H149.113" stroke="#E0E7F1" stroke-width="2" stroke-miterlimit="10"/>
<path d="M398.714 135.032V112.925C398.714 101.88 389.76 92.9253 378.714 92.9253H349.01" stroke="#E0E7F1" stroke-width="2" stroke-miterlimit="10"/>
<path d="M28.0938 64.8315V75.0863C28.0938 86.132 37.0481 95.0863 48.0938 95.0863H149.113" stroke="#E0E7F1" stroke-width="2" stroke-miterlimit="10"/>
<path d="M426.808 21.6105H422.565C411.953 21.6105 403.353 29.5158 403.353 39.2665V75.2693C403.353 85.0216 394.751 92.9253 384.139 92.9253H350.091" stroke="#E0E7F1" stroke-width="2" stroke-miterlimit="10"/>
<path d="M25 194H465" stroke="url(#paint0_linear_1237_49)"/>
<defs>
<linearGradient id="paint0_linear_1237_49" x1="25" y1="194.5" x2="465" y2="194.5" gradientUnits="userSpaceOnUse">
<stop stop-color="white"/>
<stop offset="0.490385" stop-color="#C5D5EB"/>
<stop offset="1" stop-color="white"/>
</linearGradient>
</defs>
</svg>
