<svg width="547" height="342" viewBox="0 0 547 342" fill="none" xmlns="http://www.w3.org/2000/svg">
<path d="M90.3652 175.396L107.478 247.488L108.844 247.476L113.041 226.322C113.254 217.779 111.842 193.042 90.3652 175.396Z" fill="#BBA3FF"/>
<path d="M90.0779 247.639L97.6508 247.574L66.2598 212.171C74.1224 240.133 90.0779 247.639 90.0779 247.639Z" fill="#BBA3FF"/>
<path d="M66.4336 211.3L98.5889 247.565L100.587 247.548L90.6462 227.191C86.9196 221.461 79.0088 212.213 66.4336 211.3Z" fill="#BBA3FF"/>
<path d="M90.803 225.895L101.374 247.541L106.753 247.494L89.766 175.933C81.9133 195.607 87.2832 216.146 90.803 225.895Z" fill="#BBA3FF"/>
<path d="M121.404 247.368C121.404 247.368 145.563 238.026 145.989 201.204L114.047 247.432L121.404 247.368Z" fill="#BBA3FF"/>
<path d="M113.645 226.911L109.566 247.471L113.182 247.44L145.73 200.335C122.73 209.957 115.684 221.859 113.645 226.911Z" fill="#BBA3FF"/>
<path d="M66 211.263C66.0836 211.573 66.1742 211.866 66.26 212.172L97.651 247.575L98.5902 247.566L66.4349 211.301C66.2883 211.291 66.1473 211.271 66 211.263Z" fill="white"/>
<path d="M90.078 175.157C89.9696 175.415 89.869 175.675 89.7656 175.934L106.752 247.495L107.478 247.489L90.3656 175.397C90.2685 175.317 90.175 175.236 90.078 175.157Z" fill="white"/>
<path d="M145.73 200.335L113.182 247.44L114.047 247.433L145.989 201.205C145.993 200.877 145.999 200.552 145.999 200.219C145.907 200.257 145.822 200.296 145.73 200.335Z" fill="white"/>
<path d="M92.9473 231.196C93.0989 231.524 93.1839 231.696 93.1839 231.696C93.1839 231.696 93.1045 231.517 92.9473 231.196Z" fill="#637ABE"/>
<path d="M92.9472 231.197C93.1044 231.517 93.1838 231.697 93.1838 231.697C93.1838 231.697 93.0988 231.525 92.9472 231.197C92.5916 230.471 91.8301 229.009 90.6465 227.19L100.587 247.548L101.372 247.541L90.8016 225.895C91.7501 228.52 92.5633 230.365 92.9472 231.197Z" fill="white"/>
<path d="M112.861 229.367C112.861 229.367 112.993 228.259 113.041 226.322L108.844 247.476L109.567 247.47L113.646 226.91C113.022 228.455 112.861 229.367 112.861 229.367Z" fill="white"/>
<path d="M417.365 175.24L434.478 247.332L435.844 247.32L440.041 226.166C440.254 217.623 438.842 192.886 417.365 175.24Z" fill="#BBA3FF"/>
<path d="M417.078 247.483L424.651 247.417L393.26 212.014C401.122 239.977 417.078 247.483 417.078 247.483Z" fill="#BBA3FF"/>
<path d="M393.434 211.144L425.589 247.409L427.587 247.392L417.646 227.034C413.92 221.305 406.009 212.056 393.434 211.144Z" fill="#BBA3FF"/>
<path d="M417.803 225.738L428.374 247.385L433.753 247.338L416.766 175.777C408.913 195.451 414.283 215.989 417.803 225.738Z" fill="#BBA3FF"/>
<path d="M448.404 247.212C448.404 247.212 472.563 237.87 472.989 201.047L441.047 247.275L448.404 247.212Z" fill="#BBA3FF"/>
<path d="M440.645 226.755L436.566 247.315L440.182 247.284L472.73 200.179C449.73 209.801 442.684 221.703 440.645 226.755Z" fill="#BBA3FF"/>
<path d="M393 211.107C393.084 211.417 393.174 211.71 393.26 212.016L424.651 247.419L425.59 247.41L393.435 211.145C393.288 211.134 393.147 211.114 393 211.107Z" fill="white"/>
<path d="M417.078 175C416.97 175.259 416.869 175.518 416.766 175.778L433.752 247.339L434.478 247.332L417.366 175.241C417.269 175.161 417.175 175.08 417.078 175Z" fill="white"/>
<path d="M472.73 200.179L440.182 247.283L441.047 247.276L472.989 201.048C472.993 200.72 472.999 200.395 472.999 200.062C472.907 200.101 472.822 200.14 472.73 200.179Z" fill="white"/>
<path d="M419.947 231.04C420.099 231.368 420.184 231.54 420.184 231.54C420.184 231.54 420.105 231.361 419.947 231.04Z" fill="#637ABE"/>
<path d="M419.947 231.04C420.104 231.361 420.184 231.54 420.184 231.54C420.184 231.54 420.099 231.368 419.947 231.04C419.592 230.314 418.83 228.853 417.646 227.034L427.587 247.392L428.372 247.385L417.802 225.738C418.75 228.364 419.563 230.209 419.947 231.04Z" fill="white"/>
<path d="M439.861 229.21C439.861 229.21 439.993 228.103 440.041 226.166L435.844 247.32L436.567 247.314L440.646 226.754C440.022 228.299 439.861 229.21 439.861 229.21Z" fill="white"/>
<path d="M433.518 233H116.071C113.91 233 112.158 231.27 112.158 229.136V59.4705C112.158 57.3364 113.91 55.6062 116.071 55.6062H433.517C435.678 55.6062 437.43 57.3364 437.43 59.4705V229.136C437.431 231.27 435.679 233 433.518 233Z" fill="#DCCFFF"/>
<path d="M426.117 221.659H105.156C103.965 221.659 103 220.694 103 219.503V44.2026C103 43.0121 103.965 42.0469 105.156 42.0469H426.117C427.308 42.0469 428.273 43.0121 428.273 44.2026V219.504C428.272 220.695 427.308 221.659 426.117 221.659Z" fill="#EFE9FF"/>
<path fill-rule="evenodd" clip-rule="evenodd" d="M120.16 56.8285H137.206V55.8052H120.16V56.8285ZM116.148 57.3402H118.154V55.2944H116.148V57.3402ZM120.16 62.455H137.206V61.4317H120.16V62.455ZM116.148 62.9667H118.154V60.9209H116.148V62.9667ZM120.16 68.0823H137.206V67.059H120.16V68.0823ZM116.148 68.594H118.154V66.5482H116.148V68.594Z" fill="#686C71"/>
<path d="M399.088 64.7645L397.535 54.42C397.492 54.1348 397.252 53.9267 396.964 53.9247L394.182 53.9075L394.19 52.6235L396.972 52.6408C397.895 52.6469 398.667 53.3147 398.804 54.2292L398.976 55.3802L416.523 55.4908L414.72 63.65L399.088 64.7645ZM399.171 56.6651L400.182 63.3993L413.676 62.4361L414.928 56.7635L399.171 56.6651Z" fill="#686C71"/>
<path d="M414.958 67.1982L399.794 67.1109C399.468 67.1088 399.161 66.9657 398.95 66.7171C398.74 66.4684 398.65 66.1416 398.702 65.8199L399 63.9797L400.268 64.1848L400.002 65.828L414.966 65.9142L414.958 67.1982Z" fill="#686C71"/>
<path d="M403.667 69.7363C403.661 70.6924 402.881 71.4628 401.925 71.4567C400.969 71.4506 400.199 70.6711 400.205 69.715C400.211 68.7589 400.991 67.9886 401.947 67.9947C402.904 67.9997 403.673 68.7802 403.667 69.7363Z" stroke="#686C71" stroke-width="1.265" stroke-miterlimit="10"/>
<path d="M412.747 69.7936C412.741 70.7497 411.962 71.5201 411.006 71.514C410.049 71.5079 409.279 70.7284 409.285 69.7713C409.291 68.8152 410.072 68.0448 411.027 68.0509C411.984 68.057 412.753 68.8365 412.747 69.7936Z" stroke="#686C71" stroke-width="1.265" stroke-miterlimit="10"/>
<path fill-rule="evenodd" clip-rule="evenodd" d="M193.752 207.344H131.634C123.107 207.344 116.193 197.759 116.193 185.935V103.752C116.193 91.929 123.107 82.3438 131.634 82.3438H193.752C202.28 82.3438 209.193 91.929 209.193 103.752V185.935C209.193 197.759 202.28 207.344 193.752 207.344Z" fill="white"/>
<path d="M182.594 162.577H142.993C140.788 162.577 139 160.79 139 158.585V157.993C139 155.787 140.787 154 142.993 154H182.596C184.8 154 186.588 155.787 186.588 157.993V158.585C186.587 160.79 184.8 162.577 182.594 162.577Z" fill="#EFE9FF"/>
<path opacity="0.7" d="M195.704 139.163C195.704 140.429 180.546 141.457 161.846 141.457C143.147 141.457 127.988 140.429 127.988 139.163C127.988 137.896 143.147 136.869 161.846 136.869C180.545 136.868 195.704 137.895 195.704 139.163Z" fill="#E1EBFA"/>
<path d="M134.895 115.232C134.895 115.232 135.572 113.52 141.5 115.769C144.715 116.989 148.905 119.936 157.06 116.38C157.06 116.38 159.545 124.625 149.153 123.904C138.761 123.184 134.895 115.232 134.895 115.232Z" fill="#A079F5"/>
<path d="M192.695 128.502L195.102 129.136C196.469 129.862 196.397 133.501 195.269 134.625C195.269 134.625 185.549 140.308 157.084 140.79C140.711 140.474 129.769 137.675 129.263 136.563C128.758 135.45 128.712 132.964 128.813 131.206L131.899 127.609L192.695 128.502Z" fill="#E2E2E2"/>
<path d="M134.897 115.232C134.897 115.232 131.689 118.311 131.31 120.846C130.764 124.49 130.147 126.296 130.54 129.977C130.54 129.977 139.771 133.576 155.152 133.754C162.743 133.843 173.634 133.383 181.603 131.963C188.384 130.754 195.106 129.135 195.106 129.135C193.148 122.279 187.224 124.825 178.781 122.152C173.039 120.335 159.365 109.049 159.365 109.049C159.365 109.049 156.196 111.401 156.024 112.61C155.915 113.373 157.423 115.357 157.423 115.357C157.423 115.357 157.044 121.838 150.577 122.268C144.28 122.685 134.897 115.232 134.897 115.232Z" fill="#C5AAFF"/>
<path d="M157.422 115.355C157.422 115.355 160.698 115.365 161.859 115.771C164.592 116.726 172.499 123.037 178.422 123.786" stroke="#EFE9DA" stroke-width="1.1573" stroke-miterlimit="10"/>
<path d="M167.208 115.115L164.567 119.381C164.205 119.884 162.624 118.746 162.985 118.243L165.432 113.741C165.96 113.06 167.736 114.433 167.208 115.115Z" fill="#E2E2E2"/>
<path d="M171.054 117.384L168.277 121.907C167.939 122.668 166.164 121.878 166.502 121.118L169.277 116.01C169.805 115.327 171.581 116.702 171.054 117.384Z" fill="#E2E2E2"/>
<path d="M174.895 119.652L172.085 124.198C171.785 124.84 170.044 124.028 170.343 123.386L173.119 118.278C173.647 117.597 175.423 118.97 174.895 119.652Z" fill="#E2E2E2"/>
<path d="M159.186 117.473C159.237 116.226 161.251 116.308 161.199 117.556L160.4 125.135C160.4 126.229 159.252 126.229 159.252 125.135L159.186 117.473Z" fill="#E2E2E2"/>
<path d="M152.176 133.819C152.176 133.819 153.101 130.437 156.344 128.91C159.979 127.196 168.615 130.434 173.394 127.783C174.797 127.004 178.423 123.788 178.423 123.788" stroke="#EFE9DA" stroke-width="1.1573" stroke-miterlimit="10"/>
<path d="M132.146 118.844C132.146 118.844 137.27 121.14 139.653 124.167C140.727 125.53 142.223 132.862 142.223 132.862" stroke="#EFE9DA" stroke-width="1.1573" stroke-miterlimit="10"/>
<path fill-rule="evenodd" clip-rule="evenodd" d="M400.918 207.344H339.468C331.032 207.344 324.193 197.759 324.193 185.935V103.752C324.193 91.929 331.032 82.3438 339.468 82.3438H400.918C409.354 82.3438 416.193 91.929 416.193 103.752V185.935C416.194 197.759 409.355 207.344 400.918 207.344Z" fill="white"/>
<path d="M389.594 162.577H349.993C347.788 162.577 346 160.79 346 158.585V157.993C346 155.787 347.787 154 349.993 154H389.596C391.8 154 393.588 155.787 393.588 157.993V158.585C393.587 160.79 391.8 162.577 389.594 162.577Z" fill="#EFE9FF"/>
<path opacity="0.7" d="M403.612 139.163C403.612 140.429 388.454 141.457 369.754 141.457C351.055 141.457 335.896 140.429 335.896 139.163C335.896 137.896 351.055 136.869 369.754 136.869C388.454 136.868 403.612 137.895 403.612 139.163Z" fill="#E1EBFA"/>
<path d="M342.801 115.232C342.801 115.232 343.478 113.52 349.406 115.769C352.622 116.989 356.811 119.936 364.966 116.38C364.966 116.38 367.451 124.625 357.059 123.904C346.666 123.184 342.801 115.232 342.801 115.232Z" fill="#2DADB5"/>
<path d="M400.603 128.502L403.01 129.136C404.377 129.862 404.305 133.501 403.177 134.625C403.177 134.625 393.457 140.308 364.993 140.79C348.619 140.474 337.677 137.675 337.172 136.563C336.666 135.45 336.621 132.964 336.721 131.206L339.807 127.609L400.603 128.502Z" fill="#E2E2E2"/>
<path d="M342.802 115.232C342.802 115.232 339.594 118.311 339.214 120.846C338.667 124.49 338.052 126.296 338.445 129.977C338.445 129.977 347.676 133.576 363.056 133.754C370.647 133.843 381.539 133.383 389.507 131.963C396.288 130.754 403.01 129.135 403.01 129.135C401.052 122.279 395.128 124.825 386.686 122.152C380.943 120.335 367.269 109.049 367.269 109.049C367.269 109.049 364.101 111.401 363.928 112.61C363.82 113.373 365.328 115.357 365.328 115.357C365.328 115.357 364.948 121.838 358.481 122.268C352.183 122.685 342.802 115.232 342.802 115.232Z" fill="#47CED7"/>
<path d="M365.328 115.355C365.328 115.355 368.604 115.365 369.766 115.771C372.498 116.726 380.405 123.037 386.329 123.786" stroke="#EFE9DA" stroke-width="1.1573" stroke-miterlimit="10"/>
<path d="M375.116 115.115L372.475 119.381C372.113 119.884 370.532 118.746 370.893 118.243L373.339 113.741C373.868 113.06 375.644 114.433 375.116 115.115Z" fill="#E2E2E2"/>
<path d="M378.958 117.384L376.181 121.907C375.843 122.668 374.068 121.878 374.406 121.118L377.182 116.01C377.709 115.327 379.486 116.702 378.958 117.384Z" fill="#E2E2E2"/>
<path d="M382.801 119.652L379.991 124.198C379.692 124.84 377.95 124.028 378.249 123.386L381.025 118.278C381.553 117.597 383.329 118.97 382.801 119.652Z" fill="#E2E2E2"/>
<path d="M367.088 117.473C367.14 116.226 369.153 116.308 369.102 117.556L368.303 125.135C368.303 126.229 367.154 126.229 367.154 125.135L367.088 117.473Z" fill="#E2E2E2"/>
<path d="M360.086 133.819C360.086 133.819 361.012 130.437 364.254 128.91C367.889 127.196 376.525 130.434 381.304 127.783C382.707 127.004 386.333 123.788 386.333 123.788" stroke="#EFE9DA" stroke-width="1.1573" stroke-miterlimit="10"/>
<path d="M340.055 118.844C340.055 118.844 345.178 121.14 347.561 124.167C348.635 125.53 350.131 132.862 350.131 132.862" stroke="#EFE9DA" stroke-width="1.1573" stroke-miterlimit="10"/>
<path fill-rule="evenodd" clip-rule="evenodd" d="M297.752 207.344H235.634C227.107 207.344 220.193 197.759 220.193 185.935V103.752C220.193 91.929 227.107 82.3438 235.634 82.3438H297.752C306.28 82.3438 313.193 91.929 313.193 103.752V185.935C313.193 197.759 306.28 207.344 297.752 207.344Z" fill="white"/>
<path opacity="0.7" d="M302.093 139.163C302.093 140.429 286.935 141.457 268.235 141.457C249.535 141.457 234.377 140.429 234.377 139.163C234.377 137.896 249.535 136.869 268.235 136.869C286.933 136.868 302.093 137.895 302.093 139.163Z" fill="#E1EBFA"/>
<path d="M241.279 115.232C241.279 115.232 241.956 113.52 247.885 115.769C251.1 116.989 255.29 119.936 263.445 116.38C263.445 116.38 265.93 124.625 255.537 123.904C245.145 123.184 241.279 115.232 241.279 115.232Z" fill="#E288D4"/>
<path d="M299.082 128.502L301.488 129.136C302.856 129.862 302.784 133.501 301.656 134.625C301.656 134.625 291.936 140.308 263.471 140.79C247.098 140.474 236.156 137.675 235.65 136.563C235.145 135.45 235.099 132.964 235.2 131.206L238.286 127.609L299.082 128.502Z" fill="#E2E2E2"/>
<path d="M241.28 115.232C241.28 115.232 238.072 118.311 237.692 120.846C237.146 124.49 236.53 126.296 236.923 129.977C236.923 129.977 246.154 133.576 261.535 133.754C269.126 133.843 280.017 133.383 287.986 131.963C294.767 130.754 301.489 129.135 301.489 129.135C299.531 122.279 293.606 124.825 285.164 122.152C279.421 120.335 265.748 109.049 265.748 109.049C265.748 109.049 262.579 111.401 262.407 112.61C262.298 113.373 263.806 115.357 263.806 115.357C263.806 115.357 263.427 121.838 256.959 122.268C250.663 122.685 241.28 115.232 241.28 115.232Z" fill="#FFB3F3"/>
<path d="M263.807 115.355C263.807 115.355 267.083 115.365 268.244 115.771C270.976 116.726 278.884 123.037 284.807 123.786" stroke="#EFE9DA" stroke-width="1.1573" stroke-miterlimit="10" stroke-linecap="round"/>
<path d="M273.595 115.115L270.954 119.381C270.592 119.884 269.01 118.746 269.372 118.243L271.818 113.741C272.346 113.06 274.123 114.433 273.595 115.115Z" fill="#E2E2E2"/>
<path d="M277.437 117.384L274.66 121.907C274.322 122.668 272.547 121.878 272.884 121.118L275.66 116.01C276.189 115.327 277.965 116.702 277.437 117.384Z" fill="#E2E2E2"/>
<path d="M281.28 119.652L278.469 124.198C278.17 124.84 276.428 124.028 276.728 123.386L279.504 118.278C280.032 117.597 281.808 118.97 281.28 119.652Z" fill="#E2E2E2"/>
<path d="M265.566 117.473C265.618 116.226 267.632 116.308 267.58 117.556L266.781 125.135C266.781 126.229 265.632 126.229 265.632 125.135L265.566 117.473Z" fill="#E2E2E2"/>
<path d="M258.564 133.819C258.564 133.819 259.49 130.437 262.733 128.91C266.367 127.196 275.004 130.434 279.782 127.783C281.186 127.004 284.811 123.788 284.811 123.788" stroke="#EFE9DA" stroke-width="1.1573" stroke-miterlimit="10" stroke-linecap="round"/>
<path d="M238.533 118.844C238.533 118.844 243.657 121.14 246.04 124.167C247.114 125.53 248.61 132.862 248.61 132.862" stroke="#EFE9DA" stroke-width="1.1573" stroke-miterlimit="10" stroke-linecap="round"/>
<path d="M230.002 98.8253V98.9308C230.002 99.4566 229.872 99.6819 229.57 99.6819H226.632C226.329 99.6819 226.199 99.4566 226.199 98.9308V98.8253C226.199 98.2995 226.329 98.0742 226.632 98.0742H229.57C229.872 98.0742 230.002 98.2995 230.002 98.8253Z" fill="#686C71"/>
<path d="M236.82 94.7529C236.82 96.8407 235.668 97.2761 234.659 97.2761C233.651 97.2761 232.498 96.8407 232.498 94.7529C232.498 92.6651 233.65 92.2297 234.659 92.2297C235.667 92.2297 236.82 92.6651 236.82 94.7529ZM233.968 94.7529C233.968 95.3385 234.098 96.045 234.659 96.045C235.22 96.045 235.336 95.3396 235.336 94.7529C235.336 94.1673 235.22 93.5208 234.659 93.5208C234.098 93.5208 233.968 94.1673 233.968 94.7529ZM240.837 92.5302C240.837 92.5748 240.809 92.6499 240.765 92.7403L235.623 102.474C235.479 102.744 235.292 102.894 234.989 102.894H234.355C234.154 102.894 234.053 102.804 234.053 102.699C234.053 102.639 234.081 102.564 234.125 102.474L239.267 92.7403C239.411 92.4693 239.598 92.3191 239.901 92.3191H240.534C240.737 92.3201 240.837 92.4104 240.837 92.5302ZM242.393 100.461C242.393 102.549 241.241 102.984 240.232 102.984C239.224 102.984 238.071 102.549 238.071 100.461C238.071 98.3733 239.223 97.9368 240.232 97.9368C241.241 97.9368 242.393 98.3723 242.393 100.461ZM239.542 100.461C239.542 101.047 239.672 101.753 240.233 101.753C240.794 101.753 240.91 101.048 240.91 100.461C240.91 99.8754 240.794 99.2299 240.233 99.2299C239.671 99.2289 239.542 99.8754 239.542 100.461Z" fill="#686C71"/>
<path d="M286.089 162.578H246.487C244.282 162.578 242.494 160.791 242.494 158.585V157.994C242.494 155.788 244.281 154.001 246.487 154.001H286.09C288.294 154.001 290.082 155.788 290.082 157.994V158.585C290.081 160.791 288.294 162.578 286.089 162.578Z" fill="#EFE9FF"/>
<path d="M182.594 180.577H142.993C140.788 180.577 139 178.79 139 176.585V175.993C139 173.787 140.787 172 142.993 172H182.596C184.8 172 186.588 173.787 186.588 175.993V176.585C186.587 178.79 184.8 180.577 182.594 180.577Z" fill="#F6F2FF"/>
<path d="M389.594 180.577H349.993C347.788 180.577 346 178.79 346 176.585V175.993C346 173.787 347.787 172 349.993 172H389.596C391.8 172 393.588 173.787 393.588 175.993V176.585C393.587 178.79 391.8 180.577 389.594 180.577Z" fill="#F6F2FF"/>
<path d="M286.089 180.577H246.487C244.282 180.577 242.494 178.79 242.494 176.585V175.993C242.494 173.787 244.281 172 246.487 172H286.09C288.294 172 290.082 173.787 290.082 175.993V176.585C290.081 178.79 288.294 180.577 286.089 180.577Z" fill="#F6F2FF"/>
<path d="M544.244 342H2.13947C0.120168 342 -0.77089 339.457 0.807003 338.197L81.9948 273.344C83.7366 271.953 85.9556 271.188 88.2505 271.188H458.133C460.428 271.188 462.647 271.953 464.389 273.344L545.577 338.197C547.155 339.457 546.264 342 544.244 342Z" fill="#E7ECF8"/>
<path d="M542.166 315.484H4.21484L87.6307 248.852C89.3213 247.502 91.4743 246.759 93.7015 246.759H452.679C454.906 246.759 457.06 247.502 458.75 248.852L542.166 315.484Z" fill="#FFD9F9"/>
<path d="M488.84 309.526H57.541L118.264 252.719H428.117L488.84 309.526Z" fill="#FBB8F0"/>
<path d="M483.55 309.525H62.8301L122.063 255.157H424.317L483.55 309.525Z" fill="white"/>
<path d="M529.055 333.358H17.3252C10.0841 333.358 4.21484 327.488 4.21484 320.248V315.482H542.166V320.248C542.166 327.489 536.296 333.358 529.055 333.358Z" fill="#FBB8F0"/>
<path d="M4.21484 322.437H542.166" stroke="white" stroke-width="0.9734" stroke-miterlimit="10"/>
<path d="M184.989 327.661H111.404C108.988 327.661 107.029 325.702 107.029 323.286V322.638C107.029 320.222 108.988 318.263 111.404 318.263H184.989C187.405 318.263 189.364 320.222 189.364 322.638V323.286C189.364 325.702 187.405 327.661 184.989 327.661Z" fill="#FBB8F0"/>
<path d="M185.478 327.662H110.909C108.764 327.662 107.025 325.923 107.025 323.779V323.203C107.025 321.058 108.764 319.319 110.909 319.319H185.478C187.622 319.319 189.362 321.057 189.362 323.203V323.779C189.362 325.923 187.622 327.662 185.478 327.662Z" fill="#FFD9F9"/>
<path d="M449.043 263.154L479.615 290.185H495.983V288.033L449.043 261.002V263.154Z" fill="#FBB8F0"/>
<path d="M449.043 261.002L479.615 288.033H495.983L462.005 261.002H449.043Z" fill="#FFEDFC"/>
<path d="M75.6922 279.505C82.7958 279.505 88.5544 276.999 88.5544 273.906C88.5544 270.814 82.7958 268.307 75.6922 268.307C68.5887 268.307 62.8301 270.814 62.8301 273.906C62.8301 276.999 68.5887 279.505 75.6922 279.505Z" fill="white"/>
<path d="M84.7008 273.489C84.7008 275.425 80.6686 276.995 75.6932 276.995C70.7187 276.995 66.6855 275.425 66.6855 273.489C66.6855 271.553 70.7187 269.984 75.6932 269.984C80.6686 269.985 84.7008 271.553 84.7008 273.489Z" fill="#686C71"/>
<path d="M76.7597 272.699C76.7597 273.367 75.3695 273.908 73.6542 273.908C71.939 273.908 70.5488 273.367 70.5488 272.699C70.5488 272.031 71.939 271.49 73.6542 271.49C75.3695 271.49 76.7597 272.031 76.7597 272.699Z" fill="white"/>
<path d="M416.584 26.326H120.255C113.486 26.326 108 20.8395 108 14.071V12.255C108 5.48645 113.486 0 120.255 0H416.584C423.353 0 428.839 5.48645 428.839 12.255V14.071C428.839 20.8395 423.352 26.326 416.584 26.326Z" fill="#DCCFFF"/>
<path d="M283.143 17H253.857C250.07 17 247 15.209 247 13C247 10.791 250.07 9 253.857 9H283.143C286.93 9 290 10.791 290 13C290 15.209 286.93 17 283.143 17Z" fill="#E8DFFF"/>
<path d="M131 18.4954L126.874 14.367C127.45 13.4929 127.763 12.4509 127.758 11.4039C127.745 8.44145 125.324 6.01732 122.362 6.00002C120.968 5.9957 119.562 6.56426 118.562 7.56518C117.56 8.56683 116.992 9.954 117 11.3693C117.013 14.3317 119.434 16.7565 122.396 16.7731C122.403 16.7731 122.411 16.7731 122.418 16.7731C123.463 16.7731 124.499 16.4575 125.375 15.8738L129.499 20L131 18.4954ZM126.152 11.4031C126.157 12.3925 125.759 13.3618 125.059 14.0615C124.362 14.759 123.398 15.159 122.411 15.159C122.406 15.159 122.4 15.159 122.395 15.159C120.316 15.1467 118.616 13.4475 118.606 11.3707C118.601 10.3813 118.999 9.4121 119.698 8.71167C120.399 8.01052 121.365 7.6077 122.362 7.61418C124.443 7.62716 126.142 9.32635 126.152 11.4031Z" fill="#686C71"/>
<path fill-rule="evenodd" clip-rule="evenodd" d="M413.373 13.5L410.744 16.1295C410.432 16.4409 410.432 16.9456 410.744 17.2569C411.055 17.5683 411.559 17.5683 411.871 17.2569L414.5 14.6274L417.129 17.2569C417.441 17.5683 417.945 17.5683 418.256 17.2569C418.568 16.9456 418.568 16.4409 418.256 16.1295L415.627 13.5L418.256 10.8705C418.568 10.5591 418.568 10.0544 418.256 9.74309C417.945 9.43175 417.441 9.43175 417.129 9.74309L414.5 12.3726L411.871 9.74309C411.559 9.43175 411.055 9.43175 410.744 9.74309C410.432 10.0544 410.432 10.5591 410.744 10.8705L413.373 13.5ZM414.5 22C409.805 22 406 18.1941 406 13.5C406 8.80506 409.805 5 414.5 5C419.195 5 423 8.80586 423 13.5C423 18.1949 419.195 22 414.5 22Z" fill="white"/>
<path d="M235.298 267.509L228.07 280.024C226.603 282.564 228.604 285.628 231.732 285.628H302.782C305.608 285.628 307.606 283.083 306.718 280.615L302.215 268.099C301.654 266.538 300.067 265.483 298.279 265.483H238.958C237.426 265.484 236.018 266.262 235.298 267.509Z" fill="#EFE9FF"/>
<path d="M249.845 264.028C249.845 267.513 247.019 270.339 243.533 270.339C240.048 270.339 237.223 267.513 237.223 264.028C237.223 260.543 240.048 257.716 243.533 257.716C247.019 257.716 249.845 260.543 249.845 264.028Z" fill="#686C71"/>
<path d="M243.535 267.824C245.631 267.824 247.33 266.125 247.33 264.029C247.33 261.933 245.631 260.234 243.535 260.234C241.439 260.234 239.74 261.933 239.74 264.029C239.74 266.125 241.439 267.824 243.535 267.824Z" fill="#051323"/>
<path d="M243.939 257.373H251.465C251.933 257.373 252.177 257.932 251.859 258.276L245.083 265.59C244.585 266.127 243.82 266.327 243.123 266.099L242.445 265.877C241.427 265.544 240.893 264.428 241.272 263.427L243.437 257.72C243.516 257.511 243.717 257.373 243.939 257.373Z" fill="white" stroke="#686C71" stroke-width="0.5"/>
<path d="M243.533 265.481C244.336 265.481 244.987 264.83 244.987 264.027C244.987 263.225 244.336 262.574 243.533 262.574C242.731 262.574 242.08 263.225 242.08 264.027C242.08 264.83 242.731 265.481 243.533 265.481Z" fill="#686C71"/>
<path d="M286.404 264.028C286.404 267.513 289.229 270.339 292.715 270.339C296.2 270.339 299.027 267.513 299.027 264.028C299.027 260.543 296.201 257.716 292.715 257.716C289.229 257.716 286.404 260.543 286.404 264.028Z" fill="#686C71"/>
<path d="M288.918 264.029C288.918 266.125 290.617 267.824 292.713 267.824C294.809 267.824 296.508 266.125 296.508 264.029C296.508 261.933 294.809 260.234 292.713 260.234C290.618 260.234 288.918 261.933 288.918 264.029Z" fill="#051323"/>
<path d="M284.782 257.373H292.309C292.531 257.373 292.731 257.511 292.811 257.72L294.975 263.427C295.354 264.428 294.82 265.544 293.803 265.877L293.125 266.099C292.429 266.326 291.664 266.127 291.166 265.59L284.389 258.276C284.07 257.932 284.314 257.374 284.782 257.373Z" fill="white" stroke="#686C71" stroke-width="0.5"/>
<path d="M292.713 265.481C293.516 265.481 294.166 264.83 294.166 264.027C294.166 263.225 293.516 262.574 292.713 262.574C291.91 262.574 291.26 263.225 291.26 264.027C291.26 264.83 291.91 265.481 292.713 265.481Z" fill="#686C71"/>
<path d="M227.028 205.395C226.666 205.395 226.321 205.184 226.169 204.831C224.03 199.88 220.467 191.809 219.827 190.799C218.871 190.104 211.669 187.538 205.145 185.422C204.759 185.296 204.498 184.937 204.498 184.533C204.498 184.127 204.759 183.768 205.145 183.643L216.737 179.887C216.911 179.832 217.096 179.826 217.271 179.874C218.38 180.176 228.166 182.886 230.27 184.843C231.942 186.396 236.873 196.68 237.844 198.725C238.066 199.191 237.867 199.749 237.4 199.971C236.931 200.191 236.376 199.994 236.155 199.527C233.965 194.917 230.085 187.224 228.997 186.212C227.695 185.001 221.095 182.87 217.047 181.751L208.45 184.537C214.437 186.524 220.629 188.744 221.292 189.63C222.069 190.665 226.92 201.855 227.885 204.088C228.09 204.562 227.872 205.113 227.397 205.317C227.278 205.37 227.152 205.395 227.028 205.395Z" fill="#ACCCF9"/>
<path d="M224.496 200.662L235.05 194.109L316.431 198.091L318.297 203.192L224.496 200.662Z" fill="white" stroke="#ACCCF9" stroke-width="1.8544" stroke-miterlimit="10" stroke-linecap="round" stroke-linejoin="round"/>
<path d="M223.725 200.827L236.04 241.446C236.409 242.663 237.548 243.482 238.82 243.442L306.944 241.335C308.21 241.296 309.294 240.416 309.592 239.184L318.297 203.192L223.725 200.827Z" fill="#ACCCF9"/>
<path d="M242.042 217.817C246.444 226.976 256.181 228.822 265.452 228.362C285.353 227.376 302.744 219.605 314.399 203.094C314.399 203.094 241.95 201.283 241.932 201.283C240.862 201.268 240.335 208.22 240.282 209.122C240.107 212.124 240.749 215.125 242.042 217.817Z" fill="#C0DAFF"/>
<path d="M306.778 263.851C305.946 260.524 304.232 257.195 302.992 255.511C302.348 254.637 301.292 253.635 298.82 253.635H242.409C241.521 253.635 239.93 253.488 239.256 252.502C238.624 251.576 238.986 250.115 239.401 249.052C241.064 244.79 242.548 242.093 242.563 242.067L240.359 242.251C240.296 242.365 239.371 243.984 237.658 248.373C236.817 250.528 236.836 252.273 237.712 253.557C238.583 254.832 240.208 255.506 242.409 255.506H245.43V256.771C245.43 257.556 246.067 258.193 246.852 258.193H247.932C248.717 258.193 249.354 257.556 249.354 256.771V255.506H286.652V256.771C286.652 257.556 287.289 258.193 288.074 258.193H289.154C289.939 258.193 290.576 257.556 290.576 256.771V255.506H298.819C300.521 255.506 301.087 256.081 301.484 256.62C302.656 258.211 304.227 261.361 304.964 264.305C305.129 264.967 305.083 265.471 304.829 265.804C304.319 266.474 303.028 266.555 302.645 266.563C289.574 266.856 261.383 266.696 246.238 266.609C241.736 266.582 238.326 266.563 236.701 266.563C234.404 266.563 232.695 265.905 231.888 264.712C231.11 263.563 231.132 261.876 231.952 259.833C233.755 255.34 239.056 241.958 239.056 241.958L237.317 241.27C237.317 241.27 232.02 254.647 230.217 259.137C228.877 262.477 229.543 264.583 230.34 265.759C231.506 267.483 233.765 268.432 236.702 268.432C237.767 268.432 239.613 268.44 242.02 268.453V269.676C242.02 270.461 242.656 271.098 243.441 271.098H244.522C245.307 271.098 245.943 270.461 245.943 269.676V268.759C246.053 268.647 246.113 268.588 246.222 268.476C254.854 268.526 267.718 268.599 279.616 268.599C282.846 268.599 286.002 268.594 288.985 268.581V269.676C288.985 270.461 289.621 271.098 290.406 271.098H291.487C292.272 271.098 292.908 270.461 292.908 269.676V268.559C296.644 268.533 299.989 268.492 302.688 268.432C303.634 268.41 305.364 268.188 306.317 266.938C306.933 266.13 307.088 265.091 306.778 263.851Z" fill="#ACCCF9"/>
<path d="M315.567 202.429L307.124 237.248C306.892 238.207 306.041 238.899 305.054 238.93L273.244 239.913C275.712 237.248 278.161 234.567 280.587 231.863C280.766 231.664 280.824 231.416 280.713 231.301C280.598 231.181 280.344 231.249 280.146 231.452C277.528 234.156 274.932 236.881 272.356 239.626L272.352 239.631C272.258 239.732 272.197 239.84 272.151 239.947L244.069 240.815C246.689 237.988 249.29 235.142 251.868 232.275C252.055 232.067 252.119 231.811 252.009 231.696C251.893 231.575 251.632 231.651 251.426 231.864C248.686 234.699 245.968 237.553 243.272 240.429L243.267 240.434C243.143 240.567 243.064 240.713 243.019 240.848L240.481 240.927C239.504 240.964 238.595 240.316 238.308 239.366L232.702 220.884C234.151 219.313 235.579 217.724 236.986 216.113C237.088 215.996 237.082 215.816 236.969 215.703C236.851 215.586 236.661 215.585 236.545 215.702C235.15 217.102 233.78 218.525 232.422 219.96L226.401 200.106L225.506 200.378L237.413 239.638C237.814 240.96 239.038 241.863 240.412 241.863C240.445 241.863 240.477 241.863 240.51 241.862L305.082 239.865C306.489 239.821 307.702 238.835 308.033 237.469L316.475 202.65L315.567 202.429Z" fill="white"/>
<path d="M237.73 215.339C237.983 215.181 238.182 214.975 238.386 214.773C238.574 214.556 238.766 214.342 238.905 214.08C238.959 213.976 238.958 213.847 238.891 213.74C238.79 213.58 238.579 213.53 238.421 213.628C238.168 213.785 237.969 213.992 237.765 214.194C237.577 214.411 237.385 214.624 237.246 214.887C237.191 214.991 237.193 215.121 237.261 215.228C237.361 215.387 237.572 215.437 237.73 215.339Z" fill="white"/>
<path d="M239.462 213.476C239.572 213.472 239.629 213.419 239.69 213.368C239.735 213.304 239.785 213.243 239.782 213.133C239.782 213.13 239.782 213.126 239.782 213.124C239.768 212.87 239.552 212.672 239.298 212.682C239.188 212.686 239.132 212.739 239.07 212.79C239.025 212.855 238.975 212.915 238.979 213.025C238.979 213.028 238.979 213.033 238.98 213.037C238.992 213.29 239.209 213.487 239.462 213.476Z" fill="white"/>
<path d="M247.25 205.111C249.149 203.179 251.027 201.226 252.882 199.251L252.884 199.248C253.04 199.079 253.029 198.812 252.855 198.653C252.683 198.494 252.417 198.502 252.26 198.671C250.42 200.66 248.603 202.669 246.808 204.699C246.704 204.816 246.711 204.999 246.825 205.111C246.946 205.228 247.135 205.228 247.25 205.111Z" fill="white"/>
<path d="M246.272 206.204C246.382 206.201 246.438 206.147 246.5 206.096C246.545 206.031 246.595 205.971 246.591 205.861C246.591 205.858 246.591 205.853 246.59 205.849C246.577 205.596 246.36 205.399 246.107 205.41C245.997 205.414 245.94 205.467 245.879 205.518C245.834 205.582 245.784 205.642 245.787 205.753C245.787 205.756 245.787 205.759 245.788 205.762C245.801 206.016 246.017 206.214 246.272 206.204Z" fill="white"/>
<path d="M245.236 207.314C245.346 207.31 245.402 207.256 245.464 207.206C245.509 207.141 245.558 207.08 245.555 206.97C245.555 206.968 245.555 206.962 245.555 206.958C245.542 206.706 245.325 206.509 245.072 206.519C244.962 206.523 244.905 206.576 244.844 206.627C244.799 206.692 244.748 206.752 244.752 206.862C244.752 206.864 244.752 206.869 244.752 206.871C244.765 207.125 244.981 207.324 245.236 207.314Z" fill="white"/>
<path d="M244.201 208.421C244.311 208.417 244.368 208.363 244.429 208.313C244.474 208.248 244.525 208.187 244.521 208.077C244.521 208.074 244.521 208.069 244.52 208.065C244.506 207.813 244.289 207.616 244.037 207.626C243.927 207.63 243.87 207.683 243.809 207.734C243.763 207.798 243.713 207.858 243.717 207.969C243.717 207.972 243.717 207.976 243.717 207.978C243.731 208.232 243.948 208.43 244.201 208.421Z" fill="white"/>
<path d="M240.655 212.227C241.144 211.817 241.579 211.357 242.018 210.902C242.442 210.431 242.87 209.965 243.246 209.449C243.333 209.33 243.33 209.161 243.228 209.041C243.109 208.901 242.9 208.881 242.762 208.998C242.274 209.408 241.838 209.868 241.398 210.323C240.974 210.794 240.547 211.26 240.171 211.776C240.084 211.895 240.088 212.065 240.189 212.184C240.307 212.324 240.516 212.344 240.655 212.227Z" fill="white"/>
<path d="M252.599 230.895C252.674 231.083 252.944 231.069 253.201 230.864C253.612 230.537 253.97 230.16 254.333 229.787C254.679 229.4 255.031 229.016 255.328 228.583C255.444 228.412 255.495 228.227 255.445 228.101C255.371 227.912 255.101 227.926 254.843 228.131C254.432 228.458 254.074 228.835 253.711 229.208C253.365 229.596 253.014 229.979 252.717 230.412C252.6 230.583 252.549 230.769 252.599 230.895Z" fill="white"/>
<path d="M256.343 227.495C256.496 227.445 256.596 227.344 256.701 227.249C256.79 227.138 256.883 227.031 256.922 226.874C256.923 226.871 256.925 226.864 256.925 226.862C257.009 226.503 256.791 226.307 256.438 226.423C256.285 226.473 256.184 226.574 256.08 226.669C255.991 226.78 255.898 226.887 255.859 227.044C255.858 227.048 255.856 227.056 255.855 227.06C255.773 227.416 255.991 227.612 256.343 227.495Z" fill="white"/>
<path d="M270.447 212.356C273.843 208.818 277.218 205.258 280.572 201.678L280.575 201.674C280.86 201.368 280.95 200.99 280.778 200.832C280.605 200.674 280.235 200.793 279.951 201.099C276.614 204.694 273.298 208.309 270.006 211.945C269.816 212.156 269.752 212.413 269.864 212.528C269.98 212.647 270.241 212.571 270.447 212.356Z" fill="white"/>
<path d="M268.654 214.32C268.808 214.27 268.907 214.169 269.012 214.074C269.1 213.963 269.193 213.856 269.233 213.699C269.233 213.695 269.235 213.687 269.236 213.683C269.32 213.326 269.101 213.131 268.748 213.248C268.595 213.298 268.495 213.399 268.39 213.494C268.301 213.605 268.209 213.712 268.169 213.869C268.168 213.872 268.167 213.879 268.167 213.882C268.082 214.24 268.3 214.436 268.654 214.32Z" fill="white"/>
<path d="M266.783 216.328C266.936 216.278 267.036 216.177 267.141 216.082C267.229 215.971 267.322 215.864 267.361 215.708C267.362 215.703 267.364 215.696 267.365 215.691C267.448 215.334 267.23 215.139 266.877 215.256C266.724 215.306 266.623 215.407 266.519 215.502C266.43 215.613 266.338 215.72 266.298 215.877C266.297 215.881 266.295 215.887 266.295 215.89C266.211 216.248 266.429 216.444 266.783 216.328Z" fill="white"/>
<path d="M264.912 218.334C265.065 218.284 265.165 218.184 265.27 218.088C265.358 217.977 265.451 217.87 265.49 217.714C265.491 217.709 265.493 217.702 265.494 217.697C265.577 217.34 265.358 217.145 265.006 217.262C264.853 217.312 264.752 217.413 264.648 217.508C264.559 217.619 264.466 217.726 264.427 217.883C264.426 217.887 264.424 217.893 264.424 217.896C264.34 218.254 264.558 218.45 264.912 218.334Z" fill="white"/>
<path d="M258.488 225.223C259.327 224.438 260.112 223.602 260.902 222.771C261.676 221.925 262.453 221.084 263.179 220.193C263.346 219.986 263.41 219.745 263.32 219.615C263.213 219.461 262.933 219.518 262.695 219.741C261.857 220.527 261.071 221.362 260.281 222.193C259.507 223.039 258.729 223.88 258.005 224.771C257.837 224.977 257.773 225.218 257.863 225.349C257.971 225.502 258.25 225.446 258.488 225.223Z" fill="white"/>
<path d="M281.861 230.516C282.256 230.205 282.599 229.846 282.945 229.491C283.275 229.12 283.611 228.755 283.892 228.338C284.002 228.175 284.047 227.995 283.996 227.871C283.919 227.686 283.655 227.693 283.408 227.887C283.013 228.197 282.671 228.557 282.325 228.913C281.994 229.284 281.66 229.65 281.378 230.066C281.267 230.23 281.221 230.41 281.273 230.535C281.35 230.718 281.614 230.71 281.861 230.516Z" fill="white"/>
<path d="M284.86 227.298C285.009 227.253 285.105 227.157 285.205 227.066C285.289 226.96 285.378 226.858 285.412 226.706C285.413 226.702 285.414 226.697 285.415 226.693C285.489 226.345 285.271 226.149 284.928 226.254C284.779 226.3 284.684 226.395 284.583 226.487C284.499 226.593 284.411 226.696 284.375 226.847C284.374 226.852 284.372 226.859 284.371 226.862C284.299 227.21 284.518 227.405 284.86 227.298Z" fill="white"/>
<path d="M298.325 212.842C301.57 209.466 304.794 206.068 307.996 202.65L308 202.647C308.271 202.355 308.352 201.988 308.179 201.83C308.006 201.671 307.646 201.779 307.374 202.072C304.188 205.504 301.024 208.957 297.883 212.431C297.702 212.632 297.644 212.882 297.757 212.997C297.874 213.116 298.128 213.046 298.325 212.842Z" fill="white"/>
<path d="M296.616 214.721C296.765 214.675 296.861 214.58 296.961 214.488C297.045 214.382 297.133 214.279 297.169 214.128C297.17 214.124 297.172 214.116 297.173 214.113C297.246 213.766 297.027 213.571 296.685 213.677C296.536 213.722 296.44 213.818 296.34 213.909C296.256 214.015 296.167 214.117 296.132 214.269C296.132 214.272 296.131 214.278 296.13 214.282C296.056 214.629 296.274 214.826 296.616 214.721Z" fill="white"/>
<path d="M294.83 216.638C294.979 216.592 295.074 216.497 295.174 216.405C295.258 216.299 295.346 216.196 295.382 216.045C295.383 216.041 295.385 216.033 295.386 216.03C295.459 215.684 295.24 215.489 294.898 215.594C294.749 215.64 294.653 215.736 294.553 215.826C294.469 215.933 294.38 216.035 294.345 216.186C294.344 216.189 294.344 216.196 294.343 216.199C294.268 216.546 294.486 216.743 294.83 216.638Z" fill="white"/>
<path d="M293.043 218.555C293.192 218.509 293.287 218.414 293.387 218.323C293.471 218.216 293.559 218.114 293.595 217.963C293.596 217.958 293.598 217.951 293.599 217.947C293.672 217.601 293.453 217.406 293.11 217.511C292.962 217.557 292.866 217.652 292.766 217.744C292.682 217.85 292.593 217.952 292.558 218.104C292.557 218.107 292.556 218.113 292.556 218.117C292.481 218.464 292.699 218.661 293.043 218.555Z" fill="white"/>
<path d="M286.907 225.131C287.71 224.383 288.46 223.586 289.215 222.793C289.953 221.985 290.696 221.181 291.386 220.327C291.546 220.129 291.603 219.896 291.511 219.766C291.403 219.614 291.13 219.663 290.902 219.876C290.099 220.623 289.349 221.421 288.594 222.214C287.856 223.022 287.112 223.826 286.423 224.679C286.263 224.877 286.206 225.11 286.298 225.24C286.406 225.392 286.678 225.343 286.907 225.131Z" fill="white"/>
<path d="M239.317 285.627C243.413 285.627 246.733 282.307 246.733 278.212C246.733 274.116 243.413 270.797 239.317 270.797C235.222 270.797 231.902 274.116 231.902 278.212C231.902 282.307 235.222 285.627 239.317 285.627Z" fill="#686C71"/>
<path d="M243.777 278.212C243.777 280.675 241.781 282.671 239.318 282.671C236.856 282.671 234.859 280.675 234.859 278.212C234.859 275.749 236.856 273.753 239.318 273.753C241.781 273.754 243.777 275.749 243.777 278.212Z" fill="#051323"/>
<path d="M239.795 270.348H248.638C249.19 270.349 249.493 270.966 249.199 271.398L249.133 271.481L241.17 280.075C240.573 280.719 239.656 280.957 238.821 280.684L238.025 280.425H238.024C236.806 280.027 236.166 278.69 236.621 277.49L239.164 270.784C239.264 270.522 239.516 270.348 239.795 270.348Z" fill="white" stroke="#686C71" stroke-width="0.5"/>
<path d="M241.025 278.212C241.025 279.155 240.261 279.92 239.317 279.92C238.374 279.92 237.609 279.155 237.609 278.212C237.609 277.269 238.374 276.504 239.317 276.504C240.261 276.505 241.025 277.27 241.025 278.212Z" fill="#686C71"/>
<path d="M295.968 285.627C300.063 285.627 303.383 282.307 303.383 278.212C303.383 274.116 300.063 270.797 295.968 270.797C291.873 270.797 288.553 274.116 288.553 278.212C288.553 282.307 291.873 285.627 295.968 285.627Z" fill="#686C71"/>
<path d="M291.508 278.212C291.508 280.675 293.504 282.671 295.967 282.671C298.429 282.671 300.426 280.675 300.426 278.212C300.426 275.749 298.429 273.753 295.967 273.753C293.504 273.754 291.508 275.749 291.508 278.212Z" fill="#051323"/>
<path d="M286.649 270.348H295.492C295.737 270.348 295.96 270.481 296.079 270.69L296.123 270.784L298.665 277.49C299.12 278.69 298.48 280.027 297.262 280.425L296.465 280.684C295.631 280.957 294.714 280.719 294.117 280.075L286.154 271.481L286.087 271.398C285.793 270.966 286.097 270.348 286.649 270.348Z" fill="white" stroke="#686C71" stroke-width="0.5"/>
<path d="M294.26 278.212C294.26 279.155 295.024 279.92 295.968 279.92C296.911 279.92 297.676 279.155 297.676 278.212C297.676 277.269 296.911 276.504 295.968 276.504C295.024 276.505 294.26 277.27 294.26 278.212Z" fill="#686C71"/>
<path d="M331.499 204.314C333.612 195.292 328.01 186.265 318.988 184.152C309.965 182.039 300.938 187.641 298.825 196.664C296.713 205.686 302.314 214.713 311.337 216.826C320.359 218.938 329.386 213.337 331.499 204.314Z" fill="#BBA3FF"/>
<path d="M317.042 192.533V205.078H319.425C319.893 205.078 320.095 205.412 320.095 206.192V206.571C320.095 207.35 319.893 207.685 319.425 207.685H310.78C310.312 207.685 310.112 207.35 310.112 206.571V206.192C310.112 205.412 310.312 205.078 310.78 205.078H313.744V195.074L310.713 195.519C310.133 195.519 310 194.272 310 193.648C310 193.314 310.2 193.091 310.579 193.024L316.127 191.999C316.485 191.999 317.042 192.266 317.042 192.533Z" fill="white"/>
<path d="M346.522 104.757H283.694C281.773 104.757 280.215 103.201 280.215 101.279V65.5908C280.215 63.6693 281.773 62.1133 283.694 62.1133H346.522C348.443 62.1133 349.999 63.6693 349.999 65.5908V101.279C349.999 103.201 348.443 104.757 346.522 104.757Z" fill="#DCCFFF" style="mix-blend-mode:multiply"/>
<path d="M279.479 59.2012H342.307C343.952 59.2012 345.284 60.5334 345.284 62.1787V97.8672C345.284 99.5124 343.952 100.845 342.307 100.845H279.479C277.834 100.845 276.5 99.512 276.5 97.8672V62.1787C276.5 60.5338 277.834 59.2012 279.479 59.2012Z" fill="white" stroke="#E5EEFF"/>
<g style="mix-blend-mode:multiply" opacity="0.69">
<path d="M338.98 96.2094H326.377C325.343 96.2094 324.504 95.3722 324.504 94.3382C324.504 93.3042 325.343 92.4669 326.377 92.4669H338.98C340.014 92.4669 340.853 93.3042 340.853 94.3382C340.853 95.3722 340.014 96.2094 338.98 96.2094Z" fill="#DCCFFF"/>
</g>
<g style="mix-blend-mode:multiply" opacity="0.69">
<path d="M338.98 89.7251H315.705C314.671 89.7251 313.832 88.8878 313.832 87.8538C313.832 86.8198 314.671 85.9825 315.705 85.9825H338.98C340.014 85.9825 340.853 86.8198 340.853 87.8538C340.853 88.8878 340.014 89.7251 338.98 89.7251Z" fill="#DCCFFF"/>
</g>
<g style="mix-blend-mode:multiply" opacity="0.69">
<path d="M306.083 68.4666H282.807C281.773 68.4666 280.936 67.6273 280.936 66.5953C280.936 65.5613 281.773 64.722 282.807 64.722H306.083C307.117 64.722 307.954 65.5613 307.954 66.5953C307.954 67.6273 307.117 68.4666 306.083 68.4666Z" fill="#DCCFFF"/>
</g>
<g style="mix-blend-mode:multiply" opacity="0.69">
<path d="M286.34 82.073H280.936V76.67H286.34V82.073Z" fill="#DCCFFF"/>
</g>
<g style="mix-blend-mode:multiply" opacity="0.69">
<path d="M294.128 82.073H288.725V76.67H294.128V82.073Z" fill="#DCCFFF"/>
</g>
<g style="mix-blend-mode:multiply" opacity="0.69">
<path d="M301.913 82.073H296.51V76.67H301.913V82.073Z" fill="#DCCFFF"/>
</g>
<g style="mix-blend-mode:multiply" opacity="0.69">
<path d="M309.702 82.073H304.299V76.67H309.702V82.073Z" fill="#DCCFFF"/>
</g>
<g style="mix-blend-mode:multiply" opacity="0.69">
<path d="M317.489 82.073H312.086V76.67H317.489V82.073Z" fill="#DCCFFF"/>
</g>
<g style="mix-blend-mode:multiply" opacity="0.69">
<path d="M325.28 82.073H319.875V76.67H325.28V82.073Z" fill="#DCCFFF"/>
</g>
<g style="mix-blend-mode:multiply" opacity="0.69">
<path d="M333.065 82.073H327.66V76.67H333.065V82.073Z" fill="#DCCFFF"/>
</g>
<g style="mix-blend-mode:multiply" opacity="0.69">
<path d="M340.854 82.073H335.449V76.67H340.854V82.073Z" fill="#DCCFFF"/>
</g>
<path d="M338.83 62.197C339.956 63.3234 340.653 64.8794 340.653 66.5981C340.653 68.3147 339.956 69.8708 338.83 70.9971" stroke="white" stroke-width="3.5" stroke-linecap="round" stroke-linejoin="round"/>
<path d="M337.723 63.3005C338.566 64.1438 339.088 65.3083 339.088 66.5953C339.088 67.8803 338.566 69.0448 337.723 69.8881" stroke="white" stroke-width="3.5" stroke-linecap="round" stroke-linejoin="round"/>
<path d="M336.617 64.4084C337.175 64.9686 337.523 65.7396 337.523 66.5949C337.523 67.4482 337.175 68.2192 336.617 68.7794" stroke="white" stroke-width="3.5" stroke-linecap="round" stroke-linejoin="round"/>
</svg>
