<svg width="40" height="40" viewBox="0 0 40 40" fill="none" xmlns="http://www.w3.org/2000/svg">
<g clip-path="url(#clip0_220_4347)">
<path d="M15 28.3333L23.3333 25.8333" stroke="#8D68F6" stroke-width="1.5" stroke-linecap="round" stroke-linejoin="round"/>
<path d="M10.833 14.1667L23.8497 23.1167" stroke="#8D68F6" stroke-width="1.5" stroke-linecap="round" stroke-linejoin="round"/>
<path d="M11.667 11.6667L25.0003 10" stroke="#8D68F6" stroke-width="1.5" stroke-linecap="round" stroke-linejoin="round"/>
<path d="M5 11.6666C5 12.5506 5.35119 13.3985 5.97631 14.0236C6.60143 14.6487 7.44928 14.9999 8.33333 14.9999C9.21739 14.9999 10.0652 14.6487 10.6904 14.0236C11.3155 13.3985 11.6667 12.5506 11.6667 11.6666C11.6667 10.7825 11.3155 9.93468 10.6904 9.30956C10.0652 8.68444 9.21739 8.33325 8.33333 8.33325C7.44928 8.33325 6.60143 8.68444 5.97631 9.30956C5.35119 9.93468 5 10.7825 5 11.6666Z" stroke="#8D68F6" stroke-width="1.5" stroke-linecap="round" stroke-linejoin="round"/>
<path d="M23.333 25.0001C23.333 25.8841 23.6842 26.732 24.3093 27.3571C24.9344 27.9822 25.7823 28.3334 26.6663 28.3334C27.5504 28.3334 28.3982 27.9822 29.0234 27.3571C29.6485 26.732 29.9997 25.8841 29.9997 25.0001C29.9997 24.116 29.6485 23.2682 29.0234 22.6431C28.3982 22.0179 27.5504 21.6667 26.6663 21.6667C25.7823 21.6667 24.9344 22.0179 24.3093 22.6431C23.6842 23.2682 23.333 24.116 23.333 25.0001Z" stroke="#8D68F6" stroke-width="1.5" stroke-linecap="round" stroke-linejoin="round"/>
<path d="M25 10C25 11.3261 25.5268 12.5979 26.4645 13.5355C27.4021 14.4732 28.6739 15 30 15C31.3261 15 32.5979 14.4732 33.5355 13.5355C34.4732 12.5979 35 11.3261 35 10C35 8.67392 34.4732 7.40215 33.5355 6.46447C32.5979 5.52678 31.3261 5 30 5C28.6739 5 27.4021 5.52678 26.4645 6.46447C25.5268 7.40215 25 8.67392 25 10Z" stroke="#13D9E4" stroke-width="1.5" stroke-linecap="round" stroke-linejoin="round"/>
<path d="M5 30C5 31.3261 5.52678 32.5979 6.46447 33.5355C7.40215 34.4732 8.67392 35 10 35C11.3261 35 12.5979 34.4732 13.5355 33.5355C14.4732 32.5979 15 31.3261 15 30C15 28.6739 14.4732 27.4021 13.5355 26.4645C12.5979 25.5268 11.3261 25 10 25C8.67392 25 7.40215 25.5268 6.46447 26.4645C5.52678 27.4021 5 28.6739 5 30Z" stroke="#FC4BDA" stroke-width="1.5" stroke-linecap="round" stroke-linejoin="round"/>
</g>
<defs>
<clipPath id="clip0_220_4347">
<rect width="40" height="40" fill="white"/>
</clipPath>
</defs>
</svg>
