<svg width="40" height="40" viewBox="0 0 40 40" fill="none" xmlns="http://www.w3.org/2000/svg">
<g clip-path="url(#clip0_220_4364)">
<path d="M31.6666 30.0001C33.2137 30.0001 34.6974 29.3855 35.7914 28.2916C36.8854 27.1976 37.4999 25.7139 37.4999 24.1668C37.4999 22.6197 36.8854 21.1359 35.7914 20.042C34.6974 18.948 33.2137 18.3334 31.6666 18.3334H29.9999C30.6616 15.3868 29.5249 12.3451 27.0199 10.3551C24.5149 8.36678 21.0199 7.73011 17.8533 8.68844C14.6866 9.64678 12.3283 12.0534 11.6666 15.0001C8.0016 14.8534 4.7416 17.2101 3.88993 20.6218C3.0366 24.0334 4.82993 27.5451 8.1666 29.0001" stroke="#8D68F6" stroke-width="1.5" stroke-linecap="round" stroke-linejoin="round"/>
<path d="M16.6665 24.9999V21.6666C16.6665 20.7825 17.0177 19.9347 17.6428 19.3096C18.2679 18.6844 19.1158 18.3333 19.9998 18.3333C20.8839 18.3333 21.7317 18.6844 22.3569 19.3096C22.982 19.9347 23.3332 20.7825 23.3332 21.6666V24.9999" stroke="#FC4BDA" stroke-width="1.5" stroke-linecap="round" stroke-linejoin="round"/>
<path d="M13.3335 26.6667C13.3335 26.2246 13.5091 25.8007 13.8217 25.4882C14.1342 25.1756 14.5581 25 15.0002 25H25.0002C25.4422 25 25.8661 25.1756 26.1787 25.4882C26.4912 25.8007 26.6668 26.2246 26.6668 26.6667V31.6667C26.6668 32.1087 26.4912 32.5326 26.1787 32.8452C25.8661 33.1577 25.4422 33.3333 25.0002 33.3333H15.0002C14.5581 33.3333 14.1342 33.1577 13.8217 32.8452C13.5091 32.5326 13.3335 32.1087 13.3335 31.6667V26.6667Z" stroke="#8D68F6" stroke-width="1.5" stroke-linecap="round" stroke-linejoin="round"/>
<circle cx="20" cy="30" r="1" fill="#13D9E4"/>
</g>
<defs>
<clipPath id="clip0_220_4364">
<rect width="40" height="40" fill="white"/>
</clipPath>
</defs>
</svg>
