<svg width="40" height="40" viewBox="0 0 40 40" fill="none" xmlns="http://www.w3.org/2000/svg">
<g clip-path="url(#clip0_220_4316)">
<path d="M5 16.6667H8.33333" stroke="#13D9E4" stroke-width="1.5" stroke-linecap="round" stroke-linejoin="round"/>
<path d="M5 23.3333H8.33333" stroke="#13D9E4" stroke-width="1.5" stroke-linecap="round" stroke-linejoin="round"/>
<path d="M16.667 5V8.33333" stroke="#13D9E4" stroke-width="1.5" stroke-linecap="round" stroke-linejoin="round"/>
<path d="M23.333 5V8.33333" stroke="#13D9E4" stroke-width="1.5" stroke-linecap="round" stroke-linejoin="round"/>
<path d="M35.0003 16.6667H31.667" stroke="#13D9E4" stroke-width="1.5" stroke-linecap="round" stroke-linejoin="round"/>
<path d="M35.0003 23.3333H31.667" stroke="#13D9E4" stroke-width="1.5" stroke-linecap="round" stroke-linejoin="round"/>
<path d="M23.333 35.0001V31.6667" stroke="#13D9E4" stroke-width="1.5" stroke-linecap="round" stroke-linejoin="round"/>
<path d="M16.667 35.0001V31.6667" stroke="#13D9E4" stroke-width="1.5" stroke-linecap="round" stroke-linejoin="round"/>
<path d="M8.33301 9.99992C8.33301 9.55789 8.5086 9.13397 8.82116 8.82141C9.13372 8.50885 9.55765 8.33325 9.99967 8.33325H29.9997C30.4417 8.33325 30.8656 8.50885 31.1782 8.82141C31.4907 9.13397 31.6663 9.55789 31.6663 9.99992V29.9999C31.6663 30.4419 31.4907 30.8659 31.1782 31.1784C30.8656 31.491 30.4417 31.6666 29.9997 31.6666H9.99967C9.55765 31.6666 9.13372 31.491 8.82116 31.1784C8.5086 30.8659 8.33301 30.4419 8.33301 29.9999V9.99992Z" stroke="#8D68F6" stroke-width="1.5" stroke-linecap="round" stroke-linejoin="round"/>
<path d="M13.333 16.6666V13.3333H16.6663M26.6663 23.3333V26.6666H23.333M16.6663 26.6666H13.333V23.3333M26.6663 16.6666V13.3333H23.333" stroke="#FC4BDA" stroke-width="1.5" stroke-linecap="round" stroke-linejoin="round"/>
</g>
<defs>
<clipPath id="clip0_220_4316">
<rect width="40" height="40" fill="white"/>
</clipPath>
</defs>
</svg>
