<svg width="40" height="40" viewBox="0 0 40 40" fill="none" xmlns="http://www.w3.org/2000/svg">
<g clip-path="url(#clip0_340_10694)">
<path d="M16.167 28.3333H23.8337" stroke="#13D9E4" stroke-width="1.5" stroke-linecap="round" stroke-linejoin="round"/>
<path d="M5 20H6.66667M20 5V6.66667M33.3333 20H35M9.33333 9.33333L10.5 10.5M30.6667 9.33333L29.5 10.5" stroke="#FC4BDA" stroke-width="1.5" stroke-linecap="round" stroke-linejoin="round"/>
<path d="M15.0003 26.6667C13.6011 25.6173 12.5675 24.1543 12.046 22.4848C11.5245 20.8153 11.5415 19.0241 12.0946 17.3649C12.6477 15.7056 13.7089 14.2624 15.1277 13.2397C16.5466 12.2171 18.2513 11.6667 20.0003 11.6667C21.7493 11.6667 23.454 12.2171 24.8729 13.2397C26.2918 14.2624 27.3529 15.7056 27.906 17.3649C28.4591 19.0241 28.4761 20.8153 27.9546 22.4848C27.4331 24.1543 26.3995 25.6173 25.0003 26.6667C24.3496 27.3109 23.8597 28.0992 23.5701 28.9678C23.2806 29.8364 23.1996 30.761 23.3337 31.6667C23.3337 32.5508 22.9825 33.3986 22.3573 34.0238C21.7322 34.6489 20.8844 35.0001 20.0003 35.0001C19.1163 35.0001 18.2684 34.6489 17.6433 34.0238C17.0182 33.3986 16.667 32.5508 16.667 31.6667C16.8011 30.761 16.7201 29.8364 16.4305 28.9678C16.141 28.0992 15.651 27.3109 15.0003 26.6667Z" stroke="#8D68F6" stroke-width="1.5" stroke-linecap="round" stroke-linejoin="round"/>
</g>
<defs>
<clipPath id="clip0_340_10694">
<rect width="40" height="40" fill="white"/>
</clipPath>
</defs>
</svg>
