<svg width="401" height="440" viewBox="0 0 401 440" fill="none" xmlns="http://www.w3.org/2000/svg">
<path d="M360.795 435.206C369.157 440.082 378.902 440.082 387.264 435.206L387.277 435.198L387.292 435.19C395.626 431.025 400.501 422.692 400.501 412.933V223.519C399.81 215.262 397.774 207.686 394.4 200.785L286.986 262.947L286.984 262.948L174.179 327.798L286.981 393.34L286.982 393.339L360.79 435.203L360.795 435.206Z" fill="black" stroke="url(#paint0_linear_862_3450)"/>
<path d="M70.9785 387.382L200.15 312.178L358.412 220.654C374.737 211.43 390.352 215.687 400.999 238.393V223.493C400.289 214.978 398.16 207.173 394.611 200.077C390.352 192.981 384.674 187.305 376.867 183.057L200.15 80.8805L70.9785 6.38641C56.073 -2.12833 38.3284 -2.12833 23.4229 6.38641C8.5273 14.9011 0 29.802 0 46.8216V346.237C0 363.266 8.5273 378.157 23.4229 387.382C38.3284 395.896 56.073 395.896 70.9785 387.382Z" fill="url(#paint1_linear_862_3450)"/>
<defs>
<linearGradient id="paint0_linear_862_3450" x1="379.964" y1="439.363" x2="232.701" y2="253.739" gradientUnits="userSpaceOnUse">
<stop stop-color="#8181B3"/>
<stop offset="1" stop-color="#020B50" stop-opacity="0"/>
</linearGradient>
<linearGradient id="paint1_linear_862_3450" x1="27.4775" y1="393.853" x2="221.108" y2="94.6058" gradientUnits="userSpaceOnUse">
<stop stop-color="white" stop-opacity="0.3"/>
<stop offset="1" stop-color="#08090D" stop-opacity="0"/>
</linearGradient>
</defs>
</svg>
