<svg width="230" height="423" viewBox="0 0 230 423" fill="none" xmlns="http://www.w3.org/2000/svg">
<path d="M189.795 418.546C198.157 423.422 207.902 423.422 216.264 418.546L216.277 418.538L216.292 418.53C224.626 414.364 229.501 406.032 229.501 396.272V206.858C228.81 198.602 226.774 191.026 223.4 184.125L115.986 246.287L115.984 246.288L3.17871 311.138L115.981 376.68L115.982 376.679L189.79 418.543L189.795 418.546Z" fill="white" fill-opacity="0.1" stroke="url(#paint0_linear_862_3447)"/>
<path d="M-100.021 370.721L29.1496 295.518L187.412 203.994C203.737 194.77 219.352 199.027 229.999 221.733V206.832C229.289 198.318 227.16 190.512 223.611 183.417C219.352 176.321 213.674 170.645 205.867 166.397L29.1496 64.2203L-100.021 -10.2737C-114.927 -18.7885 -132.672 -18.7885 -147.577 -10.2737C-162.473 -1.75901 -171 13.1418 -171 30.1614V329.577C-171 346.606 -162.473 361.497 -147.577 370.721C-132.672 379.236 -114.927 379.236 -100.021 370.721Z" fill="url(#paint1_linear_862_3447)"/>
<defs>
<linearGradient id="paint0_linear_862_3447" x1="208.964" y1="422.703" x2="61.7012" y2="237.079" gradientUnits="userSpaceOnUse">
<stop stop-color="#8181B3"/>
<stop offset="1" stop-color="#020B50" stop-opacity="0"/>
</linearGradient>
<linearGradient id="paint1_linear_862_3447" x1="-143.522" y1="377.193" x2="50.1081" y2="77.9457" gradientUnits="userSpaceOnUse">
<stop stop-color="white" stop-opacity="0.3"/>
<stop offset="1" stop-color="#08090D" stop-opacity="0"/>
</linearGradient>
</defs>
</svg>
