<svg width="40" height="40" viewBox="0 0 40 40" fill="none" xmlns="http://www.w3.org/2000/svg">
<g clip-path="url(#clip0_330_3039)">
<path d="M35 35L27.5 27.5" stroke="#8D68F6" stroke-width="1.5" stroke-linecap="round" stroke-linejoin="round"/>
<path d="M5 16.6667C5 18.1988 5.30177 19.7158 5.88807 21.1313C6.47438 22.5468 7.33374 23.8329 8.41709 24.9162C9.50044 25.9996 10.7866 26.859 12.202 27.4453C13.6175 28.0316 15.1346 28.3333 16.6667 28.3333C18.1988 28.3333 19.7158 28.0316 21.1313 27.4453C22.5468 26.859 23.8329 25.9996 24.9162 24.9162C25.9996 23.8329 26.859 22.5468 27.4453 21.1313C28.0316 19.7158 28.3333 18.1988 28.3333 16.6667C28.3333 15.1346 28.0316 13.6175 27.4453 12.202C26.859 10.7866 25.9996 9.50044 24.9162 8.41709C23.8329 7.33374 22.5468 6.47438 21.1313 5.88807C19.7158 5.30177 18.1988 5 16.6667 5C15.1346 5 13.6175 5.30177 12.202 5.88807C10.7866 6.47438 9.50044 7.33374 8.41709 8.41709C7.33374 9.50044 6.47438 10.7866 5.88807 12.202C5.30177 13.6175 5 15.1346 5 16.6667Z" stroke="#13D9E4" stroke-width="1.5" stroke-linecap="round" stroke-linejoin="round"/>
<path d="M1 16.5C1 18.5355 1.40092 20.551 2.17987 22.4316C2.95882 24.3121 4.10054 26.0208 5.53984 27.4602C6.97915 28.8995 8.68786 30.0412 10.5684 30.8201C12.449 31.5991 14.4645 32 16.5 32C18.5355 32 20.551 31.5991 22.4316 30.8201C24.3121 30.0412 26.0208 28.8995 27.4602 27.4602C28.8995 26.0208 30.0412 24.3121 30.8201 22.4316C31.5991 20.551 32 18.5355 32 16.5C32 14.4645 31.5991 12.449 30.8201 10.5684C30.0412 8.68786 28.8995 6.97915 27.4602 5.53984C26.0208 4.10054 24.3121 2.95881 22.4316 2.17987C20.551 1.40092 18.5355 1 16.5 1C14.4645 1 12.449 1.40092 10.5684 2.17987C8.68786 2.95881 6.97915 4.10054 5.53984 5.53984C4.10054 6.97915 2.95882 8.68786 2.17987 10.5684C1.40092 12.449 1 14.4645 1 16.5Z" stroke="#8D68F6" stroke-width="1.5" stroke-linecap="round" stroke-linejoin="round"/>
<path d="M13.3333 13.3333L10 16.6666L13.3333 19.9999" stroke="#FC4BDA" stroke-width="1.5" stroke-linecap="round" stroke-linejoin="round"/>
<path d="M20 13.3333L23.3333 16.6666L20 19.9999" stroke="#FC4BDA" stroke-width="1.5" stroke-linecap="round" stroke-linejoin="round"/>
</g>
<defs>
<clipPath id="clip0_330_3039">
<rect width="40" height="40" fill="white"/>
</clipPath>
</defs>
</svg>
