<svg width="40" height="40" viewBox="0 0 40 40" fill="none" xmlns="http://www.w3.org/2000/svg">
<g clip-path="url(#clip0_331_10643)">
<path d="M10 8.33333C10 7.44928 10.3512 6.60143 10.9763 5.97631C11.6014 5.35119 12.4493 5 13.3333 5H26.6667C27.5507 5 28.3986 5.35119 29.0237 5.97631C29.6488 6.60143 30 7.44928 30 8.33333V31.6667C30 32.5507 29.6488 33.3986 29.0237 34.0237C28.3986 34.6488 27.5507 35 26.6667 35H13.3333C12.4493 35 11.6014 34.6488 10.9763 34.0237C10.3512 33.3986 10 32.5507 10 31.6667V8.33333Z" stroke="#8D68F6" stroke-width="1.5" stroke-linecap="round" stroke-linejoin="round"/>
<path d="M13.5 13C13.5 12.4477 13.9477 12 14.5 12H25.5C26.0523 12 26.5 12.4477 26.5 13V18C26.5 18.5523 26.0523 19 25.5 19H14.5C13.9477 19 13.5 18.5523 13.5 18V13Z" stroke="#13D9E4" stroke-width="1.5"/>
<path d="M13.5 23C13.5 22.4477 13.9477 22 14.5 22H17.5C18.0523 22 18.5 22.4477 18.5 23V26C18.5 26.5523 18.0523 27 17.5 27H14.5C13.9477 27 13.5 26.5523 13.5 26V23Z" stroke="#8D68F6" stroke-width="1.5"/>
<path d="M21.5 23C21.5 22.4477 21.9477 22 22.5 22H25.5C26.0523 22 26.5 22.4477 26.5 23V26C26.5 26.5523 26.0523 27 25.5 27H22.5C21.9477 27 21.5 26.5523 21.5 26V23Z" stroke="#FC4BDA" stroke-width="1.5"/>
<path d="M18.333 8.66602H21.6663" stroke="#8D68F6" stroke-width="1.5" stroke-linecap="round" stroke-linejoin="round"/>
<path d="M20 30.334V30.3507" stroke="#8D68F6" stroke-width="1.5" stroke-linecap="round" stroke-linejoin="round"/>
</g>
<defs>
<clipPath id="clip0_331_10643">
<rect width="40" height="40" fill="white"/>
</clipPath>
</defs>
</svg>
