<svg width="40" height="40" viewBox="0 0 40 40" fill="none" xmlns="http://www.w3.org/2000/svg">
<g clip-path="url(#clip0_331_10667)">
<path d="M15 30C15 27.3478 16.0536 24.8043 17.9289 22.9289C19.8043 21.0536 22.3478 20 25 20C22.3478 20 19.8043 18.9464 17.9289 17.0711C16.0536 15.1957 15 12.6522 15 10C15 12.6522 13.9464 15.1957 12.0711 17.0711C10.1957 18.9464 7.65216 20 5 20C7.65216 20 10.1957 21.0536 12.0711 22.9289C13.9464 24.8043 15 27.3478 15 30Z" stroke="#8D68F6" stroke-width="1.5" stroke-linecap="round" stroke-linejoin="round"/>
<path d="M29.024 10.9763C28.3989 10.3511 27.551 9.99996 26.667 9.99996C27.551 9.99996 28.3989 9.64877 29.024 9.02365C29.6491 8.39853 30.0003 7.55068 30.0003 6.66663C30.0003 7.55068 30.3515 8.39853 30.9766 9.02365C31.6018 9.64877 32.4496 9.99996 33.3337 9.99996C32.4496 9.99996 31.6018 10.3511 30.9766 10.9763C30.3515 11.6014 30.0003 12.4492 30.0003 13.3333C30.0003 12.4492 29.6491 11.6014 29.024 10.9763Z" stroke="#FC4BDA" stroke-width="1.5" stroke-linecap="round" stroke-linejoin="round"/>
<path d="M29.024 30.9763C28.3989 30.3511 27.551 30 26.667 30C27.551 30 28.3989 29.6488 29.024 29.0236C29.6491 28.3985 30.0003 27.5507 30.0003 26.6666C30.0003 27.5507 30.3515 28.3985 30.9766 29.0236C31.6018 29.6488 32.4496 30 33.3337 30C32.4496 30 31.6018 30.3511 30.9766 30.9763C30.3515 31.6014 30.0003 32.4492 30.0003 33.3333C30.0003 32.4492 29.6491 31.6014 29.024 30.9763Z" stroke="#13D9E4" stroke-width="1.5" stroke-linecap="round" stroke-linejoin="round"/>
</g>
<defs>
<clipPath id="clip0_331_10667">
<rect width="40" height="40" fill="white"/>
</clipPath>
</defs>
</svg>
