<svg width="40" height="40" viewBox="0 0 40 40" fill="none" xmlns="http://www.w3.org/2000/svg">
<g clip-path="url(#clip0_340_10713)">
<path d="M23.333 6.66667C23.333 6.22464 23.5086 5.80072 23.8212 5.48816C24.1337 5.17559 24.5576 5 24.9997 5H33.333C33.775 5 34.199 5.17559 34.5115 5.48816C34.8241 5.80072 34.9997 6.22464 34.9997 6.66667V15C34.9997 15.442 34.8241 15.866 34.5115 16.1785C34.199 16.4911 33.775 16.6667 33.333 16.6667H24.9997C24.5576 16.6667 24.1337 16.4911 23.8212 16.1785C23.5086 15.866 23.333 15.442 23.333 15V6.66667Z" stroke="#FC4BDA" stroke-width="1.5" stroke-linecap="round" stroke-linejoin="round"/>
<path d="M27 10V13.5" stroke="#13D9E4" stroke-width="1.5" stroke-linecap="round"/>
<path d="M5 23.3334H25C25.8841 23.3334 26.7319 23.6846 27.357 24.3097C27.9821 24.9348 28.3333 25.7827 28.3333 26.6667V31.6667C28.3333 32.5508 27.9821 33.3986 27.357 34.0238C26.7319 34.6489 25.8841 35.0001 25 35.0001H8.33333C7.44928 35.0001 6.60143 34.6489 5.97631 34.0238C5.35119 33.3986 5 32.5508 5 31.6667V15.0001C5 14.116 5.35119 13.2682 5.97631 12.6431C6.60143 12.0179 7.44928 11.6667 8.33333 11.6667H13.3333C14.2174 11.6667 15.0652 12.0179 15.6904 12.6431C16.3155 13.2682 16.6667 14.116 16.6667 15.0001V35.0001" stroke="#8D68F6" stroke-width="1.5" stroke-linecap="round" stroke-linejoin="round"/>
</g>
<defs>
<clipPath id="clip0_340_10713">
<rect width="40" height="40" fill="white"/>
</clipPath>
</defs>
</svg>
