<svg width="40" height="40" viewBox="0 0 40 40" fill="none" xmlns="http://www.w3.org/2000/svg">
<g clip-path="url(#clip0_340_10700)">
<path d="M5 20H16.6667M23.3333 20H35" stroke="#8D68F6" stroke-width="1.5" stroke-linecap="round" stroke-linejoin="round"/>
<path d="M5 10H6.66667M13.3333 10H35" stroke="#8D68F6" stroke-width="1.5" stroke-linecap="round" stroke-linejoin="round"/>
<path d="M5 30H6.66667M13.3333 30H26.6667M33.3333 30H35" stroke="#8D68F6" stroke-width="1.5" stroke-linecap="round" stroke-linejoin="round"/>
<path d="M10 5V6.66667M10 13.3333V26.6667M10 33.3333V35" stroke="#8D68F6" stroke-width="1.5" stroke-linecap="round" stroke-linejoin="round"/>
<path d="M20 5V16.6667M20 23.3333V35" stroke="#8D68F6" stroke-width="1.5" stroke-linecap="round" stroke-linejoin="round"/>
<path d="M30 5V26.6667M30 33.3333V35" stroke="#8D68F6" stroke-width="1.5" stroke-linecap="round" stroke-linejoin="round"/>
<path d="M6.66699 10.0001C6.66699 10.8841 7.01818 11.732 7.6433 12.3571C8.26842 12.9822 9.11627 13.3334 10.0003 13.3334C10.8844 13.3334 11.7322 12.9822 12.3573 12.3571C12.9825 11.732 13.3337 10.8841 13.3337 10.0001C13.3337 9.11603 12.9825 8.26818 12.3573 7.64306C11.7322 7.01794 10.8844 6.66675 10.0003 6.66675C9.11627 6.66675 8.26842 7.01794 7.6433 7.64306C7.01818 8.26818 6.66699 9.11603 6.66699 10.0001Z" stroke="#13D9E4" stroke-width="1.5" stroke-linecap="round" stroke-linejoin="round"/>
<path d="M16.667 20.0001C16.667 20.8841 17.0182 21.732 17.6433 22.3571C18.2684 22.9822 19.1163 23.3334 20.0003 23.3334C20.8844 23.3334 21.7322 22.9822 22.3573 22.3571C22.9825 21.732 23.3337 20.8841 23.3337 20.0001C23.3337 19.116 22.9825 18.2682 22.3573 17.6431C21.7322 17.0179 20.8844 16.6667 20.0003 16.6667C19.1163 16.6667 18.2684 17.0179 17.6433 17.6431C17.0182 18.2682 16.667 19.116 16.667 20.0001Z" stroke="#FC4BDA" stroke-width="1.5" stroke-linecap="round" stroke-linejoin="round"/>
<path d="M6.66699 30.0001C6.66699 30.8841 7.01818 31.732 7.6433 32.3571C8.26842 32.9822 9.11627 33.3334 10.0003 33.3334C10.8844 33.3334 11.7322 32.9822 12.3573 32.3571C12.9825 31.732 13.3337 30.8841 13.3337 30.0001C13.3337 29.116 12.9825 28.2682 12.3573 27.6431C11.7322 27.0179 10.8844 26.6667 10.0003 26.6667C9.11627 26.6667 8.26842 27.0179 7.6433 27.6431C7.01818 28.2682 6.66699 29.116 6.66699 30.0001Z" stroke="#FC4BDA" stroke-width="1.5" stroke-linecap="round" stroke-linejoin="round"/>
<path d="M26.667 30.0001C26.667 30.8841 27.0182 31.732 27.6433 32.3571C28.2684 32.9822 29.1163 33.3334 30.0003 33.3334C30.8844 33.3334 31.7322 32.9822 32.3573 32.3571C32.9825 31.732 33.3337 30.8841 33.3337 30.0001C33.3337 29.116 32.9825 28.2682 32.3573 27.6431C31.7322 27.0179 30.8844 26.6667 30.0003 26.6667C29.1163 26.6667 28.2684 27.0179 27.6433 27.6431C27.0182 28.2682 26.667 29.116 26.667 30.0001Z" stroke="#13D9E4" stroke-width="1.5" stroke-linecap="round" stroke-linejoin="round"/>
</g>
<defs>
<clipPath id="clip0_340_10700">
<rect width="40" height="40" fill="white"/>
</clipPath>
</defs>
</svg>
