<svg width="24" height="24" viewBox="0 0 24 24" fill="none" xmlns="http://www.w3.org/2000/svg">
<path d="M2.5 9.25V17.4003C2.5 18.1561 2.78597 18.8809 3.295 19.4153C3.80402 19.9498 4.49441 20.25 5.21429 20.25H18.7857C19.5056 20.25 20.196 19.9498 20.705 19.4153C21.214 18.8809 21.5 18.1561 21.5 17.4003V9.25L13.4223 14.4679C12.9946 14.7442 12.5022 14.8904 12 14.8904C11.4978 14.8904 11.0054 14.7442 10.5777 14.4679L2.5 9.25Z" fill="#686C71"/>
<path d="M21.5 7.28705V7.1351C21.5 6.36993 21.214 5.63609 20.705 5.09503C20.196 4.55397 19.5056 4.25 18.7857 4.25H5.21429C4.49441 4.25 3.80402 4.55397 3.295 5.09503C2.78597 5.63609 2.5 6.36993 2.5 7.1351V7.28705L11.2889 13.0361C11.5027 13.176 11.7489 13.25 12 13.25C12.2511 13.25 12.4973 13.176 12.7111 13.0361L21.5 7.28705Z" fill="#686C71"/>
</svg>
