<svg width="40" height="40" viewBox="0 0 40 40" fill="none" xmlns="http://www.w3.org/2000/svg">
<g clip-path="url(#clip0_72_1367)">
<path d="M18.3335 19.9997C18.3335 20.4417 18.5091 20.8656 18.8217 21.1782C19.1342 21.4907 19.5581 21.6663 20.0002 21.6663C20.4422 21.6663 20.8661 21.4907 21.1787 21.1782C21.4912 20.8656 21.6668 20.4417 21.6668 19.9997C21.6668 19.5576 21.4912 19.1337 21.1787 18.8212C20.8661 18.5086 20.4422 18.333 20.0002 18.333C19.5581 18.333 19.1342 18.5086 18.8217 18.8212C18.5091 19.1337 18.3335 19.5576 18.3335 19.9997Z" stroke="#13D9E4" stroke-width="1.5" stroke-linecap="round" stroke-linejoin="round"/>
<path d="M28.2067 18.5538C27.9206 16.9306 27.1595 15.4287 26.0199 14.2381C24.8802 13.0474 23.413 12.2214 21.8039 11.8646C20.1948 11.5078 18.5161 11.6362 16.9799 12.2334C15.4438 12.8307 14.1192 13.8701 13.1738 15.2202C12.2284 16.5703 11.7045 18.1704 11.6685 19.8182C11.6325 21.466 12.0859 23.0875 12.9714 24.4776C13.8569 25.8677 15.1348 26.964 16.6434 27.6278C18.1519 28.2917 19.8235 28.4933 21.4467 28.2071" stroke="#FC4BDA" stroke-width="1.5" stroke-linecap="round" stroke-linejoin="round"/>
<path d="M5 20C5 22.9667 5.87973 25.8668 7.52796 28.3336C9.17618 30.8003 11.5189 32.7229 14.2597 33.8582C17.0006 34.9935 20.0166 35.2906 22.9264 34.7118C25.8361 34.133 28.5088 32.7044 30.6066 30.6066C32.7044 28.5088 34.133 25.8361 34.7118 22.9264C35.2906 20.0166 34.9935 17.0006 33.8582 14.2597C32.7229 11.5189 30.8003 9.17618 28.3336 7.52796C25.8668 5.87973 22.9667 5 20 5" stroke="#8D68F6" stroke-width="1.5" stroke-linecap="round" stroke-linejoin="round"/>
</g>
<defs>
<clipPath id="clip0_72_1367">
<rect width="40" height="40" fill="white"/>
</clipPath>
</defs>
</svg>
