<svg width="279" height="132" viewBox="0 0 279 132" fill="none" xmlns="http://www.w3.org/2000/svg">
<path d="M61.4937 79.4694H60.091C52.4461 79.4694 46.2481 85.6674 46.2481 93.3123C46.2481 100.957 40.05 107.155 32.4051 107.155H12.752" stroke="#D4D4D4" stroke-miterlimit="10"/>
<path d="M61.4937 80.7744H60.091C52.4461 80.7744 46.2481 74.5764 46.2481 66.9315C46.2481 59.2866 40.05 53.0885 32.4051 53.0885H12.752" stroke="#D4D4D4" stroke-miterlimit="10"/>
<path d="M209.021 84.634H225.932V98.8023C225.932 110.42 235.35 119.839 246.968 119.839H266.304" stroke="#D4D4D4" stroke-miterlimit="10"/>
<path d="M266.304 84.6338H225.932V75.9729C225.932 64.3547 235.35 54.9363 246.968 54.9363H268.318" stroke="#D4D4D4" stroke-miterlimit="10"/>
<path d="M156.39 30.3389H189.152" stroke="#D4D4D4" stroke-miterlimit="10"/>
<path d="M153.008 31.4318H155.761C162.646 31.4318 168.227 37.013 168.227 43.897V69.3151C168.227 76.2002 173.809 81.7803 180.693 81.7803H202.785" stroke="#D4D4D4" stroke-miterlimit="10"/>
<path d="M116.938 31.4318H114.185C107.3 31.4318 101.72 37.013 101.72 43.897V69.3151C101.72 76.2002 96.1384 81.7803 89.2532 81.7803H67.1621" stroke="#D4D4D4" stroke-miterlimit="10"/>
<g filter="url(#filter0_d_220_4033)">
<path d="M151.47 5.99991H120.086C116.317 5.99991 113.263 9.0547 113.263 12.8227V44.2075C113.263 47.9755 116.317 51.0303 120.086 51.0303H151.47C155.238 51.0303 158.293 47.9755 158.293 44.2075V12.8227C158.293 9.0547 155.238 5.99991 151.47 5.99991Z" fill="white"/>
</g>
<path d="M209.535 72.095H196.033C194.413 72.095 193.099 73.4092 193.099 75.0296V88.5312C193.099 90.1516 194.413 91.4658 196.033 91.4658H209.535C211.155 91.4658 212.469 90.1516 212.469 88.5312V75.0296C212.471 73.4092 211.156 72.095 209.535 72.095Z" fill="#FFA4ED"/>
<path d="M276.066 112.624H262.565C260.944 112.624 259.631 113.939 259.631 115.559V129.061C259.631 130.682 260.945 131.995 262.565 131.995H276.066C277.687 131.995 279.001 130.681 279.001 129.061V115.56C279.002 113.939 277.687 112.624 276.066 112.624Z" fill="#B7E1FE"/>
<path d="M276.065 79.0716H262.564C260.943 79.0716 259.63 80.3858 259.63 82.0062V95.5078C259.63 97.1282 260.944 98.4424 262.564 98.4424H276.065C277.686 98.4424 279 97.1282 279 95.5078V82.0062C279.001 80.3858 277.686 79.0716 276.065 79.0716Z" fill="#B7E1FE"/>
<path d="M276.066 45.2513H262.565C260.944 45.2513 259.631 46.5655 259.631 48.1858V61.6875C259.631 63.3078 260.945 64.6221 262.565 64.6221H276.066C277.687 64.6221 279.001 63.3078 279.001 61.6875V48.1858C279.002 46.5655 277.687 45.2513 276.066 45.2513Z" fill="#B2F5F9"/>
<path d="M199.849 20.6497H186.349C184.727 20.6497 183.414 21.9639 183.414 23.5843V37.0859C183.414 38.7074 184.728 40.0205 186.349 40.0205H199.849C201.471 40.0205 202.784 38.7063 202.784 37.0859V23.5843C202.784 21.9639 201.47 20.6497 199.849 20.6497Z" fill="#B49AFF"/>
<path d="M240.599 29.6318H254.1C255.445 29.6316 256.534 28.5415 256.534 27.1973V13.6953C256.534 12.3512 255.445 11.261 254.1 11.2607H240.599C239.254 11.2608 238.164 12.3511 238.164 13.6953V27.1973C238.164 28.5415 239.254 29.6318 240.599 29.6318Z" fill="white" stroke="#686C71"/>
<path d="M70.1706 69.7845H56.669C55.0486 69.7845 53.7344 71.0987 53.7344 72.7191V86.2207C53.7344 87.8422 55.0486 89.1553 56.669 89.1553H70.1706C71.791 89.1553 73.1052 87.8411 73.1052 86.2207V72.7202C73.1052 71.0987 71.7921 69.7845 70.1706 69.7845Z" fill="#B49AFF"/>
<path d="M5.31348 62.2744H18.8145C20.1595 62.2742 21.249 61.184 21.249 59.8398V46.3379C21.2489 44.9938 20.1594 43.9036 18.8145 43.9033H5.31348C3.96935 43.9033 2.87907 44.9938 2.87891 46.3379V59.8398C2.87892 61.1841 3.96926 62.2744 5.31348 62.2744Z" fill="white" stroke="#686C71"/>
<path d="M140.593 34.6123H124V33.3548H140.593V34.6123Z" fill="#8D68F6"/>
<path d="M146.683 30.9639H124V29.7063H146.683V30.9639Z" fill="#686C71"/>
<path d="M146.683 27.3174H124V26.0599H146.683V27.3174Z" fill="#686C71"/>
<path d="M146.683 23.6729H124V22.4153H146.683V23.6729Z" fill="#686C71"/>
<path d="M16.4362 96.8637H2.93459C1.31421 96.8637 0 98.1779 0 99.7983V113.299C0 114.92 1.31421 116.233 2.93459 116.233H16.4362C18.0577 116.233 19.3708 114.919 19.3708 113.299V99.7983C19.3708 98.1768 18.0577 96.8637 16.4362 96.8637Z" fill="#FFA4ED"/>
<defs>
<filter id="filter0_d_220_4033" x="99.2627" y="0" width="73.0303" height="73.0303" filterUnits="userSpaceOnUse" color-interpolation-filters="sRGB">
<feFlood flood-opacity="0" result="BackgroundImageFix"/>
<feColorMatrix in="SourceAlpha" type="matrix" values="0 0 0 0 0 0 0 0 0 0 0 0 0 0 0 0 0 0 127 0" result="hardAlpha"/>
<feOffset dy="8"/>
<feGaussianBlur stdDeviation="7"/>
<feComposite in2="hardAlpha" operator="out"/>
<feColorMatrix type="matrix" values="0 0 0 0 0 0 0 0 0 0 0 0 0 0 0 0 0 0 0.15 0"/>
<feBlend mode="normal" in2="BackgroundImageFix" result="effect1_dropShadow_220_4033"/>
<feBlend mode="normal" in="SourceGraphic" in2="effect1_dropShadow_220_4033" result="shape"/>
</filter>
</defs>
</svg>
