<svg width="40" height="40" viewBox="0 0 40 40" fill="none" xmlns="http://www.w3.org/2000/svg">
<g clip-path="url(#clip0_220_3996)">
<path d="M25.6665 32.6673C25.6665 33.5514 26.0177 34.3992 26.6428 35.0243C27.2679 35.6495 28.1158 36.0007 28.9998 36.0007C29.8839 36.0007 30.7317 35.6495 31.3569 35.0243C31.982 34.3992 32.3332 33.5514 32.3332 32.6673C32.3332 31.7833 31.982 30.9354 31.3569 30.3103C30.7317 29.6852 29.8839 29.334 28.9998 29.334C28.1158 29.334 27.2679 29.6852 26.6428 30.3103C26.0177 30.9354 25.6665 31.7833 25.6665 32.6673Z" stroke="#13D9E4" stroke-width="1.5" stroke-linecap="round" stroke-linejoin="round"/>
<path d="M25.6665 17.5013C25.6665 18.3854 26.0177 19.2332 26.6428 19.8583C27.2679 20.4834 28.1158 20.8346 28.9998 20.8346C29.8839 20.8346 30.7317 20.4834 31.3569 19.8583C31.982 19.2332 32.3332 18.3854 32.3332 17.5013C32.3332 16.6172 31.982 15.7694 31.3569 15.1443C30.7317 14.5192 29.8839 14.168 28.9998 14.168C28.1158 14.168 27.2679 14.5192 26.6428 15.1443C26.0177 15.7694 25.6665 16.6172 25.6665 17.5013Z" stroke="#FC4BDA" stroke-width="1.5" stroke-linecap="round" stroke-linejoin="round"/>
<path d="M8 8.33333C8 9.21739 8.35119 10.0652 8.97631 10.6904C9.60143 11.3155 10.4493 11.6667 11.3333 11.6667C12.2174 11.6667 13.0652 11.3155 13.6904 10.6904C14.3155 10.0652 14.6667 9.21739 14.6667 8.33333C14.6667 7.44928 14.3155 6.60143 13.6904 5.97631C13.0652 5.35119 12.2174 5 11.3333 5C10.4493 5 9.60143 5.35119 8.97631 5.97631C8.35119 6.60143 8 7.44928 8 8.33333Z" stroke="#8D68F6" stroke-width="1.5" stroke-linecap="round" stroke-linejoin="round"/>
<path d="M11.3335 11.666V16.666C11.3335 17.108 11.5091 17.532 11.8217 17.8445C12.1342 18.1571 12.5581 18.3327 13.0002 18.3327H18.0002V29.9993C18.0002 30.4414 18.1758 30.8653 18.4883 31.1779C18.8009 31.4904 19.2248 31.666 19.6668 31.666H24.6668" stroke="#8D68F6" stroke-width="1.5" stroke-linecap="round" stroke-linejoin="round"/>
<path d="M18 18.334H24.6667" stroke="#8D68F6" stroke-width="1.5" stroke-linecap="round" stroke-linejoin="round"/>
</g>
<defs>
<clipPath id="clip0_220_3996">
<rect width="40" height="40" fill="white"/>
</clipPath>
</defs>
</svg>
