<svg width="40" height="40" viewBox="0 0 40 40" fill="none" xmlns="http://www.w3.org/2000/svg">
<g clip-path="url(#clip0_72_1391)">
<path d="M20.0002 5L13.3335 16.6667H26.6668L20.0002 5Z" stroke="#FC4BDA" stroke-width="1.5" stroke-linecap="round" stroke-linejoin="round"/>
<path d="M23.3335 28.333C23.3335 29.6591 23.8603 30.9309 24.798 31.8685C25.7356 32.8062 27.0074 33.333 28.3335 33.333C29.6596 33.333 30.9313 32.8062 31.869 31.8685C32.8067 30.9309 33.3335 29.6591 33.3335 28.333C33.3335 27.0069 32.8067 25.7352 31.869 24.7975C30.9313 23.8598 29.6596 23.333 28.3335 23.333C27.0074 23.333 25.7356 23.8598 24.798 24.7975C23.8603 25.7352 23.3335 27.0069 23.3335 28.333Z" stroke="#13D9E4" stroke-width="1.5" stroke-linecap="round" stroke-linejoin="round"/>
<path d="M6.6665 24.9997C6.6665 24.5576 6.8421 24.1337 7.15466 23.8212C7.46722 23.5086 7.89114 23.333 8.33317 23.333H14.9998C15.4419 23.333 15.8658 23.5086 16.1783 23.8212C16.4909 24.1337 16.6665 24.5576 16.6665 24.9997V31.6663C16.6665 32.1084 16.4909 32.5323 16.1783 32.8449C15.8658 33.1574 15.4419 33.333 14.9998 33.333H8.33317C7.89114 33.333 7.46722 33.1574 7.15466 32.8449C6.8421 32.5323 6.6665 32.1084 6.6665 31.6663V24.9997Z" stroke="#8D68F6" stroke-width="1.5" stroke-linecap="round" stroke-linejoin="round"/>
</g>
<defs>
<clipPath id="clip0_72_1391">
<rect width="40" height="40" fill="white"/>
</clipPath>
</defs>
</svg>
