<svg width="40" height="40" viewBox="0 0 40 40" fill="none" xmlns="http://www.w3.org/2000/svg">
<g clip-path="url(#clip0_270_2183)">
<path d="M8.33317 6.6665H14.9998C15.4419 6.6665 15.8658 6.8421 16.1783 7.15466C16.4909 7.46722 16.6665 7.89114 16.6665 8.33317V18.3332C16.6665 18.7752 16.4909 19.1991 16.1783 19.5117C15.8658 19.8242 15.4419 19.9998 14.9998 19.9998H8.33317C7.89114 19.9998 7.46722 19.8242 7.15466 19.5117C6.8421 19.1991 6.6665 18.7752 6.6665 18.3332V8.33317C6.6665 7.89114 6.8421 7.46722 7.15466 7.15466C7.46722 6.8421 7.89114 6.6665 8.33317 6.6665Z" stroke="#8D68F6" stroke-width="1.5" stroke-linecap="round" stroke-linejoin="round"/>
<path d="M8.33317 26.6665H14.9998C15.4419 26.6665 15.8658 26.8421 16.1783 27.1547C16.4909 27.4672 16.6665 27.8911 16.6665 28.3332V31.6665C16.6665 32.1085 16.4909 32.5325 16.1783 32.845C15.8658 33.1576 15.4419 33.3332 14.9998 33.3332H8.33317C7.89114 33.3332 7.46722 33.1576 7.15466 32.845C6.8421 32.5325 6.6665 32.1085 6.6665 31.6665V28.3332C6.6665 27.8911 6.8421 27.4672 7.15466 27.1547C7.46722 26.8421 7.89114 26.6665 8.33317 26.6665Z" stroke="#13D9E4" stroke-width="1.5" stroke-linecap="round" stroke-linejoin="round"/>
<path d="M25.0002 20H31.6668C32.1089 20 32.5328 20.1756 32.8453 20.4882C33.1579 20.8007 33.3335 21.2246 33.3335 21.6667V31.6667C33.3335 32.1087 33.1579 32.5326 32.8453 32.8452C32.5328 33.1577 32.1089 33.3333 31.6668 33.3333H25.0002C24.5581 33.3333 24.1342 33.1577 23.8217 32.8452C23.5091 32.5326 23.3335 32.1087 23.3335 31.6667V21.6667C23.3335 21.2246 23.5091 20.8007 23.8217 20.4882C24.1342 20.1756 24.5581 20 25.0002 20Z" stroke="#8D68F6" stroke-width="1.5" stroke-linecap="round" stroke-linejoin="round"/>
<path d="M25.0002 6.6665H31.6668C32.1089 6.6665 32.5328 6.8421 32.8453 7.15466C33.1579 7.46722 33.3335 7.89114 33.3335 8.33317V11.6665C33.3335 12.1085 33.1579 12.5325 32.8453 12.845C32.5328 13.1576 32.1089 13.3332 31.6668 13.3332H25.0002C24.5581 13.3332 24.1342 13.1576 23.8217 12.845C23.5091 12.5325 23.3335 12.1085 23.3335 11.6665V8.33317C23.3335 7.89114 23.5091 7.46722 23.8217 7.15466C24.1342 6.8421 24.5581 6.6665 25.0002 6.6665Z" stroke="#FC4BDA" stroke-width="1.5" stroke-linecap="round" stroke-linejoin="round"/>
</g>
<defs>
<clipPath id="clip0_270_2183">
<rect width="40" height="40" fill="white"/>
</clipPath>
</defs>
</svg>
