<svg width="40" height="40" viewBox="0 0 40 40" fill="none" xmlns="http://www.w3.org/2000/svg">
<g clip-path="url(#clip0_669_23)">
<path d="M20.833 25.8335L24.1663 29.1668" stroke="#FC4BDA" stroke-width="1.5" stroke-linecap="round" stroke-linejoin="round"/>
<path d="M25 21.6665L28.3333 24.9998" stroke="#13D9E4" stroke-width="1.5" stroke-linecap="round" stroke-linejoin="round"/>
<path d="M32.5002 20.9531L20.0002 33.3331L7.50018 20.9531C6.67569 20.1508 6.02625 19.1865 5.59276 18.1209C5.15926 17.0552 4.95111 15.9114 4.98141 14.7614C5.0117 13.6113 5.27978 12.48 5.76877 11.4387C6.25776 10.3974 6.95707 9.46856 7.82265 8.71077C8.68824 7.95298 9.70135 7.38262 10.7982 7.03561C11.895 6.68859 13.0519 6.57245 14.1958 6.69448C15.3397 6.8165 16.446 7.17407 17.445 7.74465C18.4439 8.31523 19.3139 9.08647 20.0002 10.0098C20.6894 9.09318 21.5604 8.32867 22.5587 7.76415C23.5569 7.19962 24.661 6.84722 25.8017 6.72901C26.9425 6.61079 28.0953 6.7293 29.1881 7.07713C30.281 7.42495 31.2902 7.9946 32.1528 8.75041C33.0153 9.50623 33.7126 10.4319 34.2009 11.4696C34.6892 12.5073 34.9581 13.6346 34.9907 14.781C35.0233 15.9274 34.8189 17.0681 34.3904 18.1319C33.9619 19.1957 33.3184 20.1595 32.5002 20.9631" stroke="#8D68F6" stroke-width="1.5" stroke-linecap="round" stroke-linejoin="round"/>
<path d="M19.9997 10L14.5114 15.4883C14.199 15.8009 14.0234 16.2247 14.0234 16.6667C14.0234 17.1086 14.199 17.5325 14.5114 17.845L15.4164 18.75C16.5664 19.9 18.4331 19.9 19.5831 18.75L21.2497 17.0833C22.2443 16.0888 23.5932 15.53 24.9997 15.53C26.4063 15.53 27.7552 16.0888 28.7497 17.0833L32.4997 20.8333" stroke="#8D68F6" stroke-width="1.5" stroke-linecap="round" stroke-linejoin="round"/>
</g>
<defs>
<clipPath id="clip0_669_23">
<rect width="40" height="40" fill="white"/>
</clipPath>
</defs>
</svg>
