<svg width="40" height="40" viewBox="0 0 40 40" fill="none" xmlns="http://www.w3.org/2000/svg">
<g clip-path="url(#clip0_220_4115)">
<path d="M5 5V35H35" stroke="#8D68F6" stroke-width="1.5" stroke-linecap="round" stroke-linejoin="round"/>
<path d="M16.9331 17.7002L20.8331 22.5002" stroke="#13D9E4" stroke-width="1.5" stroke-linecap="round" stroke-linejoin="round"/>
<path d="M25.1465 22.2132L29.8748 14.5698" stroke="#13D9E4" stroke-width="1.5" stroke-linecap="round" stroke-linejoin="round"/>
<path d="M11.6665 14.9998C11.6665 15.8839 12.0177 16.7317 12.6428 17.3569C13.2679 17.982 14.1158 18.3332 14.9998 18.3332C15.8839 18.3332 16.7317 17.982 17.3569 17.3569C17.982 16.7317 18.3332 15.8839 18.3332 14.9998C18.3332 14.1158 17.982 13.2679 17.3569 12.6428C16.7317 12.0177 15.8839 11.6665 14.9998 11.6665C14.1158 11.6665 13.2679 12.0177 12.6428 12.6428C12.0177 13.2679 11.6665 14.1158 11.6665 14.9998Z" stroke="#8D68F6" stroke-width="1.5" stroke-linecap="round" stroke-linejoin="round"/>
<path d="M28.3335 11.6668C28.3335 12.5509 28.6847 13.3987 29.3098 14.0239C29.9349 14.649 30.7828 15.0002 31.6668 15.0002C32.5509 15.0002 33.3987 14.649 34.0239 14.0239C34.649 13.3987 35.0002 12.5509 35.0002 11.6668C35.0002 10.7828 34.649 9.93493 34.0239 9.30981C33.3987 8.68469 32.5509 8.3335 31.6668 8.3335C30.7828 8.3335 29.9349 8.68469 29.3098 9.30981C28.6847 9.93493 28.3335 10.7828 28.3335 11.6668Z" stroke="#8D68F6" stroke-width="1.5" stroke-linecap="round" stroke-linejoin="round"/>
<path d="M20 24.9998C20 25.8839 20.3512 26.7317 20.9763 27.3569C21.6014 27.982 22.4493 28.3332 23.3333 28.3332C24.2174 28.3332 25.0652 27.982 25.6904 27.3569C26.3155 26.7317 26.6667 25.8839 26.6667 24.9998C26.6667 24.1158 26.3155 23.2679 25.6904 22.6428C25.0652 22.0177 24.2174 21.6665 23.3333 21.6665C22.4493 21.6665 21.6014 22.0177 20.9763 22.6428C20.3512 23.2679 20 24.1158 20 24.9998Z" stroke="#FC4BDA" stroke-width="1.5" stroke-linecap="round" stroke-linejoin="round"/>
</g>
<defs>
<clipPath id="clip0_220_4115">
<rect width="40" height="40" fill="white"/>
</clipPath>
</defs>
</svg>
