<svg width="659" height="544" viewBox="0 0 659 544" fill="none" xmlns="http://www.w3.org/2000/svg">
<g filter="url(#filter0_f_858_3486)">
<circle cx="540.5" cy="178.5" r="306.5" fill="#001A27"/>
</g>
<path d="M657.795 205.206C666.157 210.082 675.902 210.082 684.264 205.206L684.277 205.198L684.292 205.19C692.626 201.025 697.501 192.692 697.501 182.933V-6.48145C696.81 -14.7383 694.774 -22.314 691.4 -29.2148L583.986 32.9473L583.984 32.9482L471.179 97.7979L583.981 163.34L583.982 163.339L657.79 205.203L657.795 205.206Z" fill="black" stroke="url(#paint0_linear_858_3486)"/>
<path d="M367.979 157.382L497.15 82.1779L655.412 -9.34573C671.737 -18.57 687.352 -14.3127 697.999 8.39331V-6.50746C697.289 -15.0222 695.16 -22.8274 691.611 -29.923C687.352 -37.0186 681.674 -42.6951 673.867 -46.9426L497.15 -149.12L367.979 -223.614C353.073 -232.128 335.328 -232.128 320.423 -223.614C305.527 -215.099 297 -200.198 297 -183.178V116.237C297 133.266 305.527 148.157 320.423 157.382C335.328 165.896 353.073 165.896 367.979 157.382Z" fill="url(#paint1_linear_858_3486)"/>
<defs>
<filter id="filter0_f_858_3486" x="0" y="-362" width="1081" height="1081" filterUnits="userSpaceOnUse" color-interpolation-filters="sRGB">
<feFlood flood-opacity="0" result="BackgroundImageFix"/>
<feBlend mode="normal" in="SourceGraphic" in2="BackgroundImageFix" result="shape"/>
<feGaussianBlur stdDeviation="117" result="effect1_foregroundBlur_858_3486"/>
</filter>
<linearGradient id="paint0_linear_858_3486" x1="676.964" y1="209.363" x2="529.701" y2="23.7391" gradientUnits="userSpaceOnUse">
<stop stop-color="#8181B3"/>
<stop offset="1" stop-color="#020B50" stop-opacity="0"/>
</linearGradient>
<linearGradient id="paint1_linear_858_3486" x1="324.478" y1="163.853" x2="518.108" y2="-135.394" gradientUnits="userSpaceOnUse">
<stop stop-color="white" stop-opacity="0.3"/>
<stop offset="1" stop-color="#08090D" stop-opacity="0"/>
</linearGradient>
</defs>
</svg>
