<svg width="40" height="40" viewBox="0 0 40 40" fill="none" xmlns="http://www.w3.org/2000/svg">
<g clip-path="url(#clip0_72_2058)">
<path d="M10.8335 28.4997L19.1668 13.333" stroke="#FC4BDA" stroke-width="1.5" stroke-linecap="round" stroke-linejoin="round"/>
<path d="M29.1668 28.4997L20.8335 13.333" stroke="#8D68F6" stroke-width="1.5" stroke-linecap="round" stroke-linejoin="round"/>
<path d="M16.6665 8.33366C16.6665 7.89163 16.8421 7.46771 17.1547 7.15515C17.4672 6.84259 17.8911 6.66699 18.3332 6.66699H21.6665C22.1085 6.66699 22.5325 6.84259 22.845 7.15515C23.1576 7.46771 23.3332 7.89163 23.3332 8.33366V11.667C23.3332 12.109 23.1576 12.5329 22.845 12.8455C22.5325 13.1581 22.1085 13.3337 21.6665 13.3337H18.3332C17.8911 13.3337 17.4672 13.1581 17.1547 12.8455C16.8421 12.5329 16.6665 12.109 16.6665 11.667V8.33366Z" stroke="#FC4BDA" stroke-width="1.5" stroke-linecap="round" stroke-linejoin="round"/>
<path d="M5 29.9997C5 29.5576 5.17559 29.1337 5.48816 28.8212C5.80072 28.5086 6.22464 28.333 6.66667 28.333H10C10.442 28.333 10.866 28.5086 11.1785 28.8212C11.4911 29.1337 11.6667 29.5576 11.6667 29.9997V33.333C11.6667 33.775 11.4911 34.199 11.1785 34.5115C10.866 34.8241 10.442 34.9997 10 34.9997H6.66667C6.22464 34.9997 5.80072 34.8241 5.48816 34.5115C5.17559 34.199 5 33.775 5 33.333V29.9997Z" stroke="#8D68F6" stroke-width="1.5" stroke-linecap="round" stroke-linejoin="round"/>
<path d="M28.3335 29.9997C28.3335 29.5576 28.5091 29.1337 28.8217 28.8212C29.1342 28.5086 29.5581 28.333 30.0002 28.333H33.3335C33.7755 28.333 34.1994 28.5086 34.512 28.8212C34.8246 29.1337 35.0002 29.5576 35.0002 29.9997V33.333C35.0002 33.775 34.8246 34.199 34.512 34.5115C34.1994 34.8241 33.7755 34.9997 33.3335 34.9997H30.0002C29.5581 34.9997 29.1342 34.8241 28.8217 34.5115C28.5091 34.199 28.3335 33.775 28.3335 33.333V29.9997Z" stroke="#13D9E4" stroke-width="1.5" stroke-linecap="round" stroke-linejoin="round"/>
<path d="M11.6665 31.667H28.3332" stroke="#13D9E4" stroke-width="1.5" stroke-linecap="round" stroke-linejoin="round"/>
</g>
<defs>
<clipPath id="clip0_72_2058">
<rect width="40" height="40" fill="white"/>
</clipPath>
</defs>
</svg>
