<svg width="40" height="40" viewBox="0 0 40 40" fill="none" xmlns="http://www.w3.org/2000/svg">
<g clip-path="url(#clip0_643_13791)">
<path d="M18.334 20.0007C18.334 20.4427 18.5096 20.8666 18.8221 21.1792C19.1347 21.4917 19.5586 21.6673 20.0007 21.6673C20.4427 21.6673 20.8666 21.4917 21.1792 21.1792C21.4917 20.8666 21.6673 20.4427 21.6673 20.0007C21.6673 19.5586 21.4917 19.1347 21.1792 18.8221C20.8666 18.5096 20.4427 18.334 20.0007 18.334C19.5586 18.334 19.1347 18.5096 18.8221 18.8221C18.5096 19.1347 18.334 19.5586 18.334 20.0007Z" stroke="#13D9E4" stroke-width="1.5" stroke-linecap="round" stroke-linejoin="round"/>
<path d="M19.9994 11.666C18.3512 11.666 16.74 12.1548 15.3696 13.0704C13.9992 13.9861 12.9311 15.2876 12.3004 16.8103C11.6696 18.333 11.5046 20.0086 11.8261 21.6251C12.1477 23.2416 12.9414 24.7265 14.1068 25.8919C15.2722 27.0573 16.7571 27.851 18.3736 28.1726C19.9901 28.4941 21.6657 28.3291 23.1884 27.6983C24.7111 27.0676 26.0126 25.9995 26.9283 24.6291C27.8439 23.2587 28.3327 21.6475 28.3327 19.9993" stroke="#FC4BDA" stroke-width="1.5" stroke-linecap="round" stroke-linejoin="round"/>
<path d="M21.6665 5.09158C18.5766 4.74493 15.4553 5.36704 12.7345 6.87186C10.0136 8.37668 7.82762 10.6898 6.47888 13.4913C5.13014 16.2929 4.6853 19.4443 5.20592 22.5096C5.72653 25.575 7.18685 28.4029 9.38488 30.602C11.5829 32.8011 14.41 34.2629 17.4751 34.785C20.5402 35.3072 23.6919 34.8639 26.4941 33.5166C29.2963 32.1693 31.6105 29.9844 33.1167 27.2643C34.6229 24.5442 35.2466 21.4233 34.9015 18.3332" stroke="#8D68F6" stroke-width="1.5" stroke-linecap="round" stroke-linejoin="round"/>
<path d="M25 10V15H30L35 10H30V5L25 10Z" stroke="#8D68F6" stroke-width="1.5" stroke-linecap="round" stroke-linejoin="round"/>
<path d="M25 15L20 20" stroke="#8D68F6" stroke-width="1.5" stroke-linecap="round" stroke-linejoin="round"/>
</g>
<defs>
<clipPath id="clip0_643_13791">
<rect width="40" height="40" fill="white"/>
</clipPath>
</defs>
</svg>
