<svg width="450" height="386" viewBox="0 0 450 386" fill="none" xmlns="http://www.w3.org/2000/svg">
<path d="M272.743 350.178C266.171 353.171 258.241 350.896 254.32 344.603C202.828 261.943 159.834 267.926 159.407 267.996C159.646 267.956 159.766 267.923 159.766 267.923L153.543 239.403C155.334 239.013 171.727 235.893 195.58 246.546C225.043 259.704 253.141 287.503 279.097 329.168C283.359 336.009 281.267 345.012 274.426 349.273C273.878 349.617 273.316 349.917 272.743 350.178Z" fill="#E7E2FB"/>
<path d="M137.876 333.402H70.0234V383.198H137.876V333.402Z" fill="#FFD9F9"/>
<path d="M12.8828 274.016C12.8828 269.333 13.2278 264.715 13.9178 260.23C16.6107 242.464 31.8174 229.301 49.7828 229.301H153.795C171.31 229.301 186.595 241.774 189.448 259.063C190.257 263.932 190.669 268.921 190.669 274.016C190.669 323.707 150.863 350.775 101.769 350.775C95.7057 350.775 89.7876 350.364 84.0692 349.541C43.4675 343.742 12.8828 317.576 12.8828 274.016Z" fill="#D0BFFF"/>
<path d="M167.11 265.819H88.4779C86.0653 265.819 84.0918 263.846 84.0918 261.433C84.0918 259.02 86.0653 257.047 88.4779 257.047H167.11C169.523 257.047 171.496 259.02 171.496 261.433C171.497 263.846 169.523 265.819 167.11 265.819Z" fill="white"/>
<path d="M167.11 278.829H88.4779C86.0653 278.829 84.0918 276.855 84.0918 274.443C84.0918 272.03 86.0653 270.057 88.4779 270.057H167.11C169.523 270.057 171.496 272.03 171.496 274.443C171.497 276.854 169.523 278.829 167.11 278.829Z" fill="white"/>
<path d="M70.3595 278.139C75.9945 278.139 80.5627 273.571 80.5627 267.936C80.5627 262.301 75.9945 257.732 70.3595 257.732C64.7244 257.732 60.1562 262.301 60.1562 267.936C60.1562 273.571 64.7244 278.139 70.3595 278.139Z" fill="white"/>
<path d="M60.8688 339.347C60.7531 339.347 60.6373 339.313 60.5374 339.239C48.6241 330.632 48.4697 313.403 48.4697 313.231V235.347C48.4697 235.033 48.7239 234.779 49.0371 234.779C49.3504 234.779 49.6046 235.033 49.6046 235.347V313.231C49.6046 313.397 49.7646 330.057 61.2025 338.32C61.4567 338.503 61.5134 338.859 61.3296 339.112C61.2183 339.265 61.0447 339.347 60.8688 339.347Z" fill="white"/>
<path d="M18.0664 304.622C8.12989 304.622 0 296.492 0 286.555V251.07C0 241.134 8.12989 233.004 18.0664 233.004C28.0029 233.004 36.1328 241.134 36.1328 251.07V286.555C36.1328 296.492 28.0029 304.622 18.0664 304.622Z" fill="#E6E0FF"/>
<path d="M220.616 247.606C227.795 247.606 233.615 241.786 233.615 234.608C233.615 227.429 227.795 221.609 220.616 221.609C213.438 221.609 207.618 227.429 207.618 234.608C207.618 241.786 213.438 247.606 220.616 247.606Z" fill="#D0BFFF"/>
<path d="M228.389 256.726C226.319 264.746 223.107 273.918 218.125 283.088C205.142 307.051 177.658 335.6 120.561 335.6C65.6202 335.6 35.6302 317.055 20.1331 301.488C13.6226 294.948 9.00724 288.361 5.7764 282.565C1.29724 274.535 4.56667 264.852 13.1573 261.582C14.889 260.915 16.6299 260.624 18.3616 260.624C23.5852 260.624 28.5001 263.43 31.083 268.122C38.793 282.12 60.7825 306.412 120.559 306.412C154.874 306.412 179.069 293.884 192.468 269.166C196.192 262.297 198.601 255.371 200.149 249.344C201.804 242.93 207.637 238.48 214.264 238.48C223.805 238.48 230.779 247.488 228.389 256.726Z" fill="#F0EDFB"/>
<path d="M234.44 234.206C230.609 233.693 226.794 232.59 223.117 230.853C213.802 226.455 206.758 218.693 203.282 208.997C199.806 199.3 200.315 188.831 204.713 179.516L205.455 177.946C207.489 173.639 212.629 171.791 216.936 173.83C221.243 175.863 223.087 181.004 221.052 185.311L220.31 186.881C217.879 192.03 217.599 197.816 219.519 203.175C221.441 208.534 225.334 212.824 230.482 215.256C241.11 220.275 253.838 215.711 258.857 205.085L259.599 203.513C261.635 199.208 266.773 197.367 271.081 199.398C275.388 201.433 277.23 206.574 275.196 210.88L274.454 212.451C267.112 228.002 250.642 236.375 234.44 234.206Z" fill="#E6E0FF"/>
<path d="M117.445 212.765H90.5625V228.013C90.5625 235.437 96.5805 241.455 104.004 241.455C111.429 241.455 117.446 235.437 117.446 228.013L117.445 212.765Z" fill="#FFD9F9"/>
<path d="M147.439 213.989H68.6412C44.0132 213.989 23.8633 193.839 23.8633 169.212C23.8633 144.584 44.0132 124.434 68.6412 124.434H147.439C172.067 124.434 192.217 144.584 192.217 169.212C192.217 193.839 172.067 213.989 147.439 213.989Z" fill="#F3EFFF"/>
<path d="M147.439 213.989H112.013C87.3853 213.989 67.2354 193.839 67.2354 169.212C67.2354 144.584 87.3853 124.434 112.013 124.434H147.439C172.067 124.434 192.217 144.584 192.217 169.212C192.217 193.839 172.067 213.989 147.439 213.989Z" fill="#D0BFFF"/>
<path d="M46.6616 183.332C37.4173 183.332 29.8525 175.768 29.8525 166.524V135.866C29.8525 126.621 37.4161 119.057 46.6616 119.057C55.9058 119.057 63.4706 126.62 63.4706 135.866V166.524C63.4695 175.768 55.9058 183.332 46.6616 183.332Z" fill="#FFDCF9"/>
<path d="M46.6623 170.675C41.4069 170.675 37.1309 166.399 37.1309 161.144V141.242C37.1309 135.987 41.4069 131.711 46.6623 131.711C51.9176 131.711 56.1936 135.987 56.1936 141.242V161.144C56.1936 166.399 51.9176 170.675 46.6623 170.675ZM46.6623 132.846C42.0322 132.846 38.2657 136.612 38.2657 141.242V161.144C38.2657 165.774 42.0322 169.54 46.6623 169.54C51.2923 169.54 55.0588 165.774 55.0588 161.144V141.242C55.0588 136.612 51.2923 132.846 46.6623 132.846Z" fill="white"/>
<path d="M46.6621 151.761C46.3489 151.761 46.0947 151.507 46.0947 151.193V113.856C46.0947 113.543 46.3489 113.289 46.6621 113.289C46.9754 113.289 47.2296 113.543 47.2296 113.856V151.193C47.2296 151.508 46.9754 151.761 46.6621 151.761Z" fill="white"/>
<path d="M46.5 114C57.8218 114 67 105.046 67 94C67 82.9543 57.8218 74 46.5 74C35.1782 74 26 82.9543 26 94C26 105.046 35.1782 114 46.5 114Z" fill="#E1FAFB"/>
<path d="M46.6615 104.534C52.5529 104.534 57.3288 99.758 57.3288 93.8666C57.3288 87.9752 52.5529 83.1992 46.6615 83.1992C40.7701 83.1992 35.9941 87.9752 35.9941 93.8666C35.9941 99.758 40.7701 104.534 46.6615 104.534Z" fill="#9AEDF2"/>
<path d="M107.331 185.78C115.547 185.78 122.208 178.734 122.208 170.042C122.208 161.351 115.547 154.305 107.331 154.305C99.114 154.305 92.4531 161.351 92.4531 170.042C92.4531 178.734 99.114 185.78 107.331 185.78Z" fill="#33256D"/>
<path d="M166.838 185.78C175.055 185.78 181.716 178.734 181.716 170.042C181.716 161.351 175.055 154.305 166.838 154.305C158.622 154.305 151.961 161.351 151.961 170.042C151.961 178.734 158.622 185.78 166.838 185.78Z" fill="#33256D"/>
<path d="M315.98 374.006V383.148H117.959C117.959 378.098 122.051 374.006 127.101 374.006H315.98Z" fill="#C5D5EB"/>
<path d="M432.632 260.323L393.432 383.146H212.708L253.475 255.398C254.549 252.041 257.674 249.758 261.196 249.758H424.912C430.397 249.759 434.296 255.099 432.632 260.323Z" fill="#E6EBF2"/>
<path d="M151.156 16.6772C147.762 16.6772 145 19.4394 145 22.8337V80.3852C145 83.7794 147.762 86.5416 151.156 86.5416H161.943C162.255 86.5416 162.509 86.7946 162.51 87.1067L162.603 108.2L188.767 86.671C188.869 86.587 188.996 86.5416 189.128 86.5416H237.799C241.193 86.5416 243.956 83.7794 243.956 80.3852V22.8337C243.956 19.4394 241.193 16.6772 237.799 16.6772H151.156Z" fill="#EDF2F8"/>
<path d="M181.667 66.2009C181.255 66.2009 180.84 66.0661 180.493 65.7889L164.137 52.7245C163.69 52.3671 163.429 51.8262 163.429 51.2538C163.429 50.6814 163.69 50.1396 164.137 49.783L180.283 36.8859C181.095 36.2367 182.28 36.3698 182.929 37.1819C183.578 37.9941 183.446 39.179 182.633 39.8282L168.329 51.2546L182.844 62.8482C183.657 63.4966 183.789 64.6816 183.14 65.4946C182.768 65.9587 182.22 66.2009 181.667 66.2009Z" fill="#CDD2DA"/>
<path d="M206.714 66.1968C206.161 66.1968 205.613 65.9545 205.241 65.4887C204.592 64.6766 204.724 63.4916 205.537 62.8424L220.052 51.2488L205.748 39.8224C204.935 39.174 204.803 37.9891 205.452 37.1761C206.101 36.3639 207.286 36.2308 208.098 36.88L224.245 49.7772C224.692 50.1346 224.953 50.6755 224.953 51.2479C224.953 51.8204 224.692 52.3621 224.245 52.7187L207.888 65.783C207.541 66.062 207.126 66.1968 206.714 66.1968Z" fill="#CDD2DA"/>
<path d="M190.517 69.6561C190.254 69.692 189.98 69.6732 189.71 69.5896C188.716 69.2833 188.158 68.2297 188.463 67.2367L198.585 34.3327C198.89 33.3388 199.944 32.7801 200.937 33.0863C201.931 33.3926 202.489 34.4462 202.184 35.4392L192.063 68.3432C191.841 69.0675 191.222 69.5606 190.517 69.6561Z" fill="#CDD2DA"/>
<path d="M300.855 130V100.921V79.9995C300.855 57.9081 282.946 39.9995 260.855 39.9995H244.429H340.429" stroke="#E3EBF5" stroke-width="2" stroke-miterlimit="10"/>
<path d="M437.611 155.856V98.1001M359.854 39.8114L388.519 40.3444H397.611C419.702 40.3444 437.611 58.253 437.611 80.3444V98.1001M437.611 98.1001V21.7651" stroke="#E3EBF5" stroke-width="2" stroke-miterlimit="10"/>
<path d="M445.706 0.000160217H429.253C427.277 0.000160217 425.677 1.60178 425.677 3.5765V20.0306C425.677 22.0053 427.278 23.6069 429.253 23.6069H445.706C447.682 23.6069 449.282 22.0053 449.282 20.0306V3.5765C449.282 1.60178 447.682 0.000160217 445.706 0.000160217Z" fill="#E3EAF2"/>
<path d="M356.526 27.6037H340.073C338.097 27.6037 336.497 29.2053 336.497 31.18V47.6341C336.497 49.6088 338.099 51.2104 340.073 51.2104H356.526C358.502 51.2104 360.102 49.6088 360.102 47.6341V31.18C360.104 29.2053 358.502 27.6037 356.526 27.6037Z" fill="#FFDCF9"/>
<path d="M445.045 151.813H429.45C427.577 151.813 426.061 153.332 426.061 155.203V170.799C426.061 172.671 427.579 174.189 429.45 174.189H445.045C446.918 174.189 448.435 172.671 448.435 170.799V155.203C448.436 153.332 446.918 151.813 445.045 151.813Z" fill="#B2F5F9"/>
<path d="M312.267 125.462H296.672C294.799 125.462 293.282 126.98 293.282 128.852V144.448C293.282 146.319 294.8 147.837 296.672 147.837H312.267C314.14 147.837 315.656 146.319 315.656 144.448V128.852C315.658 126.98 314.14 125.462 312.267 125.462Z" fill="#86B7FF"/>
<path d="M0 384H440" stroke="url(#paint0_linear_330_5355)" stroke-width="3"/>
<defs>
<linearGradient id="paint0_linear_330_5355" x1="0" y1="384.5" x2="440" y2="384.5" gradientUnits="userSpaceOnUse">
<stop stop-color="white"/>
<stop offset="0.490385" stop-color="#C5D5EB"/>
<stop offset="1" stop-color="white"/>
</linearGradient>
</defs>
</svg>
