<svg width="475" height="398" viewBox="0 0 475 398" fill="none" xmlns="http://www.w3.org/2000/svg">
<path opacity="0.4" d="M376.988 258.734H437.009" stroke="#85ADDE" stroke-width="1.5" stroke-linejoin="round"/>
<path opacity="0.4" d="M386.205 259.262L420.413 293.469H455.66" stroke="#85ADDE" stroke-width="1.5" stroke-linejoin="round"/>
<path d="M462.272 293.5C462.272 295.965 460.264 297.965 457.799 297.965C455.334 297.965 453.326 295.965 453.326 293.5C453.326 291.027 455.334 289.027 457.799 289.027C460.264 289.027 462.272 291.027 462.272 293.5Z" fill="#C5AAFF"/>
<path d="M441.482 259.263C441.482 261.728 439.474 263.728 437.009 263.728C434.544 263.728 432.536 261.728 432.536 259.263C432.536 256.79 434.544 254.791 437.009 254.791C439.474 254.791 441.482 256.79 441.482 259.263Z" fill="#C5AAFF"/>
<path opacity="0.4" d="M280.388 258.732H387.934L414.708 227.392H455.07" stroke="#85ADDE" stroke-width="1.5" stroke-linejoin="round"/>
<path d="M458.032 227.921C458.032 229.549 456.706 230.875 455.07 230.875C453.435 230.875 452.109 229.549 452.109 227.921C452.109 226.286 453.435 224.96 455.07 224.96C456.706 224.96 458.032 226.286 458.032 227.921Z" fill="#C5AAFF"/>
<path opacity="0.4" d="M291.938 177.617H399.483L426.257 139.479H466.62" stroke="#85ADDE" stroke-width="1.5" stroke-linejoin="round"/>
<path opacity="0.4" d="M275.388 119.735H382.934L409.708 81.5966H450.07" stroke="#85ADDE" stroke-width="1.5" stroke-linejoin="round"/>
<path opacity="0.4" d="M379.275 177.616L413.483 211.824H448.738" stroke="#85ADDE" stroke-width="1.5" stroke-linejoin="round"/>
<path d="M474.046 139.478C474.046 141.95 472.046 143.95 469.581 143.95C467.108 143.95 465.108 141.95 465.108 139.478C465.108 137.013 467.108 135.013 469.581 135.013C472.046 135.013 474.046 137.013 474.046 139.478Z" fill="#C5AAFF"/>
<path d="M451.691 211.823C451.691 213.459 450.365 214.784 448.73 214.784C447.102 214.784 445.776 213.459 445.776 211.823C445.776 210.188 447.102 208.862 448.73 208.862C450.365 208.862 451.691 210.188 451.691 211.823Z" fill="#C5AAFF"/>
<path d="M181.33 39.2632C181.33 36.7904 183.33 34.7905 185.795 34.7905C188.268 34.7905 190.268 36.7904 190.268 39.2632C190.268 41.7282 188.268 43.7359 185.795 43.7359C183.33 43.7359 181.33 41.7282 181.33 39.2632Z" fill="#C5AAFF"/>
<path opacity="0.4" d="M193.732 155.438V106.874L220.406 80.2004" stroke="#85ADDE" stroke-width="1.5" stroke-linejoin="round"/>
<path d="M215.934 80.1988C215.934 77.7338 217.933 75.7339 220.406 75.7339C222.871 75.7339 224.871 77.7338 224.871 80.1988C224.871 82.6716 222.871 84.6715 220.406 84.6715C217.933 84.6715 215.934 82.6716 215.934 80.1988Z" fill="#C5AAFF"/>
<path d="M222.437 30.3283C222.437 27.8555 224.436 25.8556 226.909 25.8556C229.374 25.8556 231.374 27.8555 231.374 30.3283C231.374 32.7933 229.374 34.7932 226.909 34.7932C224.436 34.7932 222.437 32.7933 222.437 30.3283Z" fill="#C5AAFF"/>
<path d="M262.318 28.1633C262.318 26.4192 263.729 25.0006 265.481 25.0006C267.225 25.0006 268.636 26.4192 268.636 28.1633C268.636 29.9074 267.225 31.3259 265.481 31.3259C263.729 31.3259 262.318 29.9074 262.318 28.1633Z" fill="#C5AAFF"/>
<path opacity="0.4" d="M234.343 155.437V59.3015L265.481 28.1633" stroke="#85ADDE" stroke-width="1.5" stroke-linejoin="round"/>
<path opacity="0.4" d="M244.722 48.9212L227.815 32.0072" stroke="#85ADDE" stroke-width="1.5" stroke-linejoin="round"/>
<path opacity="0.4" d="M274.954 155.437V117.803L254.04 96.897" stroke="#85ADDE" stroke-width="1.5" stroke-linejoin="round"/>
<path opacity="0.4" d="M298.069 75.735L265.474 108.331" stroke="#85ADDE" stroke-width="1.5" stroke-linejoin="round"/>
<path d="M249.908 96.8982C249.908 94.6192 251.761 92.7666 254.04 92.7666C256.327 92.7666 258.179 94.6192 258.179 96.8982C258.179 99.1772 256.327 101.03 254.04 101.03C251.761 101.03 249.908 99.1772 249.908 96.8982Z" fill="#C5AAFF"/>
<path d="M294.627 75.7343C294.627 73.8352 296.17 72.2926 298.069 72.2926C299.968 72.2926 301.51 73.8352 301.51 75.7343C301.51 77.6335 299.968 79.176 298.069 79.176C296.17 79.176 294.627 77.6335 294.627 75.7343Z" fill="#C5AAFF"/>
<path opacity="0.4" d="M124.34 218.29L97.5656 176.703H37.5371" stroke="#85ADDE" stroke-width="1.5" stroke-linejoin="round"/>
<path d="M118 218.5H348" stroke="#FFB5F4" stroke-width="3"/>
<path d="M118 224.5H348" stroke="#FFB5F4" stroke-width="3"/>
<path d="M118 212.5H348" stroke="#FFB5F4" stroke-width="3"/>
<path d="M348 218.5H232L129 363H0" stroke="#C5AAFF" stroke-width="3"/>
<path d="M348 224.5H235H220.5L125 357H0" stroke="#C5AAFF" stroke-width="3"/>
<path d="M348 212.5H222.5L121 352H0" stroke="#C5AAFF" stroke-width="3"/>
<path d="M33.0723 176.183C33.0723 173.71 35.0722 171.71 37.5372 171.71C40.01 171.71 42.0099 173.71 42.0099 176.183C42.0099 178.648 40.01 180.648 37.5372 180.648C35.0722 180.648 33.0723 178.648 33.0723 176.183Z" fill="#C5AAFF"/>
<path opacity="0.4" d="M182.617 176.702H75.0635L48.2972 208.049H7.93457" stroke="#85ADDE" stroke-width="1.5" stroke-linejoin="round"/>
<path opacity="0.4" d="M88.349 176.183L54.1411 141.975H18.8945" stroke="#85ADDE" stroke-width="1.5" stroke-linejoin="round"/>
<path d="M12.2822 141.943C12.2822 139.47 14.2822 137.47 16.7549 137.47C19.2199 137.47 21.2199 139.47 21.2199 141.943C21.2199 144.408 19.2199 146.408 16.7549 146.408C14.2822 146.408 12.2822 144.408 12.2822 141.943Z" fill="#85ADDE"/>
<path d="M4.97266 207.522C4.97266 205.887 6.29819 204.561 7.93378 204.561C9.56937 204.561 10.8949 205.887 10.8949 207.522C10.8949 209.158 9.56937 210.483 7.93378 210.483C6.29819 210.483 4.97266 209.158 4.97266 207.522Z" fill="#85ADDE"/>
<path opacity="0.4" d="M189 257.832H75.0626L48.2963 295.97H7.93359" stroke="#85ADDE" stroke-width="1.5" stroke-linejoin="round"/>
<path opacity="0.4" d="M95.2708 257.833L61.063 223.625H25.8164" stroke="#85ADDE" stroke-width="1.5" stroke-linejoin="round"/>
<path d="M0.5 295.971C0.5 293.498 2.49993 291.498 4.9727 291.498C7.43771 291.498 9.43763 293.498 9.43763 295.971C9.43763 298.436 7.43771 300.436 4.9727 300.436C2.49993 300.436 0.5 298.436 0.5 295.971Z" fill="#C5AAFF"/>
<path d="M22.8555 223.624C22.8555 221.988 24.181 220.663 25.8166 220.663C27.4522 220.663 28.7777 221.988 28.7777 223.624C28.7777 225.259 27.4522 226.585 25.8166 226.585C24.181 226.585 22.8555 225.259 22.8555 223.624Z" fill="#85ADDE"/>
<path opacity="0.4" d="M275.132 267.575V316.138L248.467 342.804" stroke="#85ADDE" stroke-width="1.5" stroke-linejoin="round"/>
<path opacity="0.4" d="M259.567 331.704L283.078 355.214V383.74" stroke="#85ADDE" stroke-width="1.5" stroke-linejoin="round"/>
<path opacity="0.4" d="M234.529 150.503V363.703L203.391 394.841" stroke="#85ADDE" stroke-width="1.5" stroke-linejoin="round"/>
<path opacity="0.4" d="M224.149 374.092L241.056 390.998" stroke="#85ADDE" stroke-width="1.5" stroke-linejoin="round"/>
<path d="M246.435 392.68C246.435 395.153 244.435 397.153 241.962 397.153C239.497 397.153 237.497 395.153 237.497 392.68C237.497 390.215 239.497 388.215 241.962 388.215C244.435 388.215 246.435 390.215 246.435 392.68Z" fill="#FFD9F9"/>
<path d="M206.553 394.84C206.553 396.584 205.134 398.002 203.39 398.002C201.646 398.002 200.235 396.584 200.235 394.84C200.235 393.096 201.646 391.685 203.39 391.685C205.134 391.685 206.553 393.096 206.553 394.84Z" fill="#FFD9F9"/>
<path opacity="0.4" d="M193.918 272.003V305.202L214.832 326.108" stroke="#85ADDE" stroke-width="1.5" stroke-linejoin="round"/>
<path opacity="0.4" d="M170.804 347.276L203.399 314.673" stroke="#85ADDE" stroke-width="1.5" stroke-linejoin="round"/>
<path d="M218.964 326.109C218.964 328.396 217.112 330.24 214.833 330.24C212.546 330.24 210.693 328.396 210.693 326.109C210.693 323.83 212.546 321.977 214.833 321.977C217.112 321.977 218.964 323.83 218.964 326.109Z" fill="#FFD9F9"/>
<path d="M174.245 347.277C174.245 349.176 172.702 350.718 170.803 350.718C168.904 350.718 167.361 349.176 167.361 347.277C167.361 345.37 168.904 343.827 170.803 343.827C172.702 343.827 174.245 345.37 174.245 347.277Z" fill="#FFD9F9"/>
<path d="M287.543 383.74C287.543 386.213 285.543 388.212 283.078 388.212C280.605 388.212 278.605 386.213 278.605 383.74C278.605 381.275 280.605 379.275 283.078 379.275C285.543 379.275 287.543 381.275 287.543 383.74Z" fill="#FFD9F9"/>
<path d="M252.94 342.804C252.94 345.269 250.94 347.269 248.467 347.269C246.002 347.269 244.002 345.269 244.002 342.804C244.002 340.339 246.002 338.331 248.467 338.331C250.94 338.331 252.94 340.339 252.94 342.804Z" fill="#FFD9F9"/>
<path d="M125.239 203.178L138.243 210.686V225.701L125.239 233.208L112.236 225.701V210.686L125.239 203.178Z" fill="#E5D9FF"/>
<path d="M385.111 247.914L395.114 253.689V265.239L385.111 271.014L375.109 265.239V253.689L385.111 247.914Z" fill="#FFB9F4"/>
<path d="M409.366 197.094L419.369 202.869V214.419L409.366 220.194L399.364 214.419V202.869L409.366 197.094Z" fill="#E5D9FF"/>
<path d="M340.067 165.909L350.07 171.684V183.234L340.067 189.009L330.065 183.234V171.684L340.067 165.909Z" fill="#85ADDE"/>
<path d="M188.763 150.895L206.768 161.289V182.079L188.763 192.474L170.759 182.079V161.289L188.763 150.895Z" fill="#FFB9F4"/>
<path d="M275.388 150.895L291.392 160.134V178.614L275.388 187.854L259.384 178.614V160.134L275.388 150.895Z" fill="#E5D9FF"/>
<path d="M352.282 72.0006L363.785 78.6418V91.9242L352.282 98.5654L340.78 91.9242V78.6418L352.282 72.0006Z" fill="#9AEDF2"/>
<path d="M233.808 134.725L243.81 140.5V152.05L233.808 157.825L223.805 152.05V140.5L233.808 134.725Z" fill="#85ADDE"/>
<path d="M193.384 96.61L203.386 102.385V113.935L193.384 119.71L183.381 113.935V102.385L193.384 96.61Z" fill="#9AEDF2"/>
<path d="M131.592 96.61L147.096 105.561V123.464L131.592 132.415L116.088 123.464V105.561L131.592 96.61Z" fill="#FFD9F9"/>
<path d="M98.0971 164.755L108.6 170.818V182.946L98.0971 189.009L87.5945 182.946V170.818L98.0971 164.755Z" fill="#E5D9FF"/>
<path d="M61.1372 212.109L71.6398 218.173V230.3L61.1372 236.364L50.6345 230.3V218.173L61.1372 212.109Z" fill="#FFD9F9"/>
<path d="M233.808 287.183L243.81 292.958V304.508L233.808 310.283L223.805 304.508V292.958L233.808 287.183Z" fill="#E5D9FF"/>
<path d="M275.388 247.914L285.39 253.689V265.239L275.388 271.014L265.385 265.239V253.689L275.388 247.914Z" fill="#9AEDF2"/>
<path d="M234 199.001L251.321 209.001V229.001L234 239.001L216.679 229.001V209.001L234 199.001Z" fill="#C5AAFF"/>
<path opacity="0.4" d="M194 305.662H134.657L107.883 342.25H47.8545" stroke="#85ADDE" stroke-width="1.5" stroke-linejoin="round"/>
<path d="M80.3753 398.001H3.66638C1.64092 398.001 0 396.729 0 395.158V290.841C0 289.272 1.64092 288.001 3.66638 288.001H80.3753C82.4007 288.001 84.0449 289.272 84.0449 290.841V395.158C84.0449 396.729 82.4007 398.001 80.3753 398.001Z" fill="#C6DAFF"/>
<path d="M77.5673 324.855H6.47737C5.81437 324.855 5.27734 324.318 5.27734 323.655V295.908C5.27734 295.245 5.81437 294.705 6.47737 294.705H77.5673C78.2303 294.705 78.7674 295.245 78.7674 295.908V323.655C78.7674 324.318 78.2303 324.855 77.5673 324.855Z" fill="white"/>
<path d="M12.0569 322.144H9.51765C8.93752 322.144 8.4668 321.673 8.4668 321.093V298.468C8.4668 297.891 8.93752 297.421 9.51765 297.421H12.0569C12.6337 297.421 13.1045 297.891 13.1045 298.468V321.093C13.1045 321.673 12.6337 322.144 12.0569 322.144Z" fill="#D7E5FF"/>
<path d="M18.7001 322.144H16.1608C15.584 322.144 15.1133 321.673 15.1133 321.093V298.468C15.1133 297.891 15.584 297.421 16.1608 297.421H18.7001C19.2802 297.421 19.7476 297.891 19.7476 298.468V321.093C19.7476 321.673 19.2802 322.144 18.7001 322.144Z" fill="#D7E5FF"/>
<path d="M25.3495 322.144H22.8102C22.2334 322.144 21.7627 321.673 21.7627 321.093V298.468C21.7627 297.891 22.2334 297.421 22.8102 297.421H25.3495C25.9296 297.421 26.4004 297.891 26.4004 298.468V321.093C26.4004 321.673 25.9296 322.144 25.3495 322.144Z" fill="#D7E5FF"/>
<path d="M31.8436 322.035H29.3044C28.7276 322.035 28.2568 321.564 28.2568 320.984V298.359C28.2568 297.783 28.7276 297.312 29.3044 297.312H31.8436C32.4238 297.312 32.8912 297.783 32.8912 298.359V320.984C32.8912 321.564 32.4238 322.035 31.8436 322.035Z" fill="#D7E5FF"/>
<path d="M77.5673 358.582H6.47737C5.81437 358.582 5.27734 358.045 5.27734 357.382V329.636C5.27734 328.973 5.81437 328.432 6.47737 328.432H77.5673C78.2303 328.432 78.7674 328.973 78.7674 329.636V357.382C78.7674 358.045 78.2303 358.582 77.5673 358.582Z" fill="white"/>
<path d="M12.0569 355.871H9.51765C8.93752 355.871 8.4668 355.4 8.4668 354.82V332.195C8.4668 331.618 8.93752 331.148 9.51765 331.148H12.0569C12.6337 331.148 13.1045 331.618 13.1045 332.195V354.82C13.1045 355.4 12.6337 355.871 12.0569 355.871Z" fill="#D7E5FF"/>
<path d="M18.7001 355.871H16.1608C15.584 355.871 15.1133 355.4 15.1133 354.82V332.195C15.1133 331.618 15.584 331.148 16.1608 331.148H18.7001C19.2802 331.148 19.7476 331.618 19.7476 332.195V354.82C19.7476 355.4 19.2802 355.871 18.7001 355.871Z" fill="#D7E5FF"/>
<path d="M25.3495 355.871H22.8102C22.2334 355.871 21.7627 355.4 21.7627 354.82V332.195C21.7627 331.618 22.2334 331.148 22.8102 331.148H25.3495C25.9296 331.148 26.4004 331.618 26.4004 332.195V354.82C26.4004 355.4 25.9296 355.871 25.3495 355.871Z" fill="#D7E5FF"/>
<path d="M31.8436 355.762H29.3044C28.7276 355.762 28.2568 355.291 28.2568 354.711V332.086C28.2568 331.51 28.7276 331.039 29.3044 331.039H31.8436C32.4238 331.039 32.8912 331.51 32.8912 332.086V354.711C32.8912 355.291 32.4238 355.762 31.8436 355.762Z" fill="#D7E5FF"/>
<path d="M77.5673 392.315H6.47737C5.81437 392.315 5.27734 391.778 5.27734 391.115V363.369C5.27734 362.706 5.81437 362.166 6.47737 362.166H77.5673C78.2303 362.166 78.7674 362.706 78.7674 363.369V391.115C78.7674 391.778 78.2303 392.315 77.5673 392.315Z" fill="white"/>
<path d="M12.0569 389.605H9.51765C8.93752 389.605 8.4668 389.134 8.4668 388.554V365.929C8.4668 365.352 8.93752 364.881 9.51765 364.881H12.0569C12.6337 364.881 13.1045 365.352 13.1045 365.929V388.554C13.1045 389.134 12.6337 389.605 12.0569 389.605Z" fill="#D7E5FF"/>
<path d="M18.7001 389.605H16.1608C15.584 389.605 15.1133 389.134 15.1133 388.554V365.929C15.1133 365.352 15.584 364.881 16.1608 364.881H18.7001C19.2802 364.881 19.7476 365.352 19.7476 365.929V388.554C19.7476 389.134 19.2802 389.605 18.7001 389.605Z" fill="#D7E5FF"/>
<path d="M25.3495 389.605H22.8102C22.2334 389.605 21.7627 389.134 21.7627 388.554V365.929C21.7627 365.352 22.2334 364.881 22.8102 364.881H25.3495C25.9296 364.881 26.4004 365.352 26.4004 365.929V388.554C26.4004 389.134 25.9296 389.605 25.3495 389.605Z" fill="#D7E5FF"/>
<path d="M31.8436 389.496H29.3044C28.7276 389.496 28.2568 389.025 28.2568 388.445V365.82C28.2568 365.244 28.7276 364.773 29.3044 364.773H31.8436C32.4238 364.773 32.8912 365.244 32.8912 365.82V388.445C32.8912 389.025 32.4238 389.496 31.8436 389.496Z" fill="#D7E5FF"/>
<path d="M279.938 30.0013C277.37 30.0013 274.949 30.6651 272.794 31.8131C272.131 23.0152 265.264 16.0943 256.874 16.0943C255.993 16.0943 255.139 16.1922 254.295 16.3391C251.433 6.86102 243.13 0 233.32 0C223.489 0 215.164 6.89366 212.324 16.4098C211.337 16.2031 210.325 16.0979 209.288 16.0943C201.029 16.0943 194.238 22.7975 193.395 31.3942C191.452 30.5019 189.309 30.0013 187.062 30.0013C178.187 30.0013 171 37.7002 171 47.1947C171 56.6945 178.187 64.388 187.062 64.388C188.357 64.388 190.81 64.388 190.81 64.388H279.938C288.807 64.388 296 56.6945 296 47.1947C296 37.7002 288.807 30.0013 279.938 30.0013Z" fill="#E5D9FF"/>
<path d="M277.48 32.0255C275.159 32.0255 272.97 32.6234 271.022 33.6575C270.422 25.7324 264.215 19.4982 256.63 19.4982C255.834 19.4982 255.061 19.5864 254.299 19.7187C251.712 11.1809 244.206 5.00061 235.338 5.00061C226.45 5.00061 218.924 11.2103 216.357 19.7824C215.465 19.5962 214.55 19.5014 213.612 19.4982C206.146 19.4982 200.007 25.5363 199.245 33.2801C197.489 32.4764 195.551 32.0255 193.52 32.0255C185.497 32.0255 179 38.9606 179 47.513C179 56.0704 185.497 63.0006 193.52 63.0006C194.69 63.0006 196.909 63.0006 196.909 63.0006H277.48C285.498 63.0006 292 56.0704 292 47.513C292 38.9606 285.498 32.0255 277.48 32.0255Z" fill="white"/>
<path d="M231.39 33.9765L225.625 27.2948C225.033 26.6146 223.973 26.6146 223.385 27.2948L217.62 33.9765C216.792 34.9343 217.472 36.4196 218.74 36.4196H219.878C220.151 36.4196 220.368 36.6417 220.368 36.9101V50.2456C220.368 51.06 221.03 51.7217 221.844 51.7217H227.161C227.98 51.7217 228.642 51.06 228.642 50.2456V36.9101C228.642 36.6417 228.859 36.4196 229.132 36.4196H230.271C231.534 36.4196 232.219 34.9343 231.39 33.9765Z" fill="#E5D9FF"/>
<path d="M235.61 43.7458L241.376 50.4275C241.963 51.1076 243.023 51.1076 243.615 50.4275L249.381 43.7458C250.209 42.788 249.529 41.3027 248.261 41.3027H247.331C246.942 41.3027 246.632 40.988 246.632 40.604V27.4813C246.632 26.6623 245.97 26.0006 245.151 26.0006H239.835C239.02 26.0006 238.359 26.6623 238.359 27.4813V40.8122C238.359 41.0806 238.141 41.3027 237.868 41.3027H236.73C235.462 41.3027 234.782 42.788 235.61 43.7458Z" fill="#E5D9FF"/>
</svg>
