<svg width="515" height="384" viewBox="0 0 515 384" fill="none" xmlns="http://www.w3.org/2000/svg">
<path d="M478.017 15.8716V304.907C478.017 313.685 470.9 320.778 462.146 320.778H65.7681C57.0138 320.778 49.8965 313.685 49.8965 304.907V15.8716C49.8965 7.09311 57.0138 0 65.7681 0H462.146C470.9 0 478.017 7.09311 478.017 15.8716Z" fill="#E2EEFD"/>
<path d="M69.2871 299.932V20.8516H458.644V299.932H69.2871Z" fill="white"/>
<path d="M478.017 15.8716V40.3034H49.8965V15.8716C49.8965 7.09311 57.0138 0 65.7681 0H462.146C470.9 0 478.017 7.09311 478.017 15.8716Z" fill="#E2EEFD"/>
<path d="M87.7181 18.8058C87.7181 21.934 85.184 24.4802 82.0436 24.4802C78.9154 24.4802 76.3691 21.934 76.3691 18.8058C76.3691 15.6654 78.9154 13.1191 82.0436 13.1191C85.184 13.1191 87.7181 15.6654 87.7181 18.8058Z" fill="white"/>
<path d="M107.152 18.8058C107.152 21.934 104.618 24.4802 101.477 24.4802C98.349 24.4802 95.8027 21.934 95.8027 18.8058C95.8027 15.6654 98.349 13.1191 101.477 13.1191C104.618 13.1191 107.152 15.6654 107.152 18.8058Z" fill="white"/>
<path d="M126.589 18.8058C126.589 21.934 124.055 24.4802 120.915 24.4802C117.786 24.4802 115.24 21.934 115.24 18.8058C115.24 15.6654 117.786 13.1191 120.915 13.1191C124.055 13.1191 126.589 15.6654 126.589 18.8058Z" fill="white"/>
<path d="M164.476 162.473H98.5893C96.1158 162.473 94.1152 160.472 94.1152 157.999V152.239C94.1152 149.766 96.1158 147.777 98.5893 147.777H164.476C166.95 147.777 168.951 149.766 168.951 152.239V157.999C168.951 160.472 166.95 162.473 164.476 162.473Z" fill="white"/>
<path d="M104.7 151.148L106.325 153.306L108.883 154.179L107.319 156.386L107.283 159.09L104.7 158.289L102.13 159.09L102.093 156.386L100.529 154.179L103.088 153.306L104.7 151.148Z" fill="#5CCDD3"/>
<path d="M118.125 151.148L119.737 153.318L122.296 154.179L120.743 156.386L120.707 159.09L118.125 158.289L115.542 159.09L115.506 156.386L113.941 154.179L116.5 153.318L118.125 151.148Z" fill="#D0DDF5"/>
<path d="M131.536 151.148L133.149 153.319L135.707 154.192L134.155 156.398L134.119 159.09L131.536 158.29L128.954 159.09L128.917 156.398L127.365 154.192L129.924 153.319L131.536 151.148Z" fill="#D0DDF5"/>
<path d="M144.942 151.16L146.567 153.318L149.126 154.191L147.561 156.398L147.525 159.102L144.942 158.302L142.36 159.102L142.323 156.398L140.771 154.191L143.33 153.318L144.942 151.16Z" fill="#D0DDF5"/>
<path d="M158.353 151.16L159.977 153.33L162.536 154.191L160.972 156.398L160.935 159.102L158.353 158.302L155.782 159.102L155.746 156.398L154.182 154.191L156.74 153.33L158.353 151.16Z" fill="#D0DDF5"/>
<path d="M164.844 141.531H98.2296C95.7682 141.531 93.7676 139.531 93.7676 137.069V74.9288C93.7676 72.4674 95.7682 70.4668 98.2296 70.4668H164.844C167.306 70.4668 169.306 72.4674 169.306 74.9288V137.069C169.306 139.531 167.306 141.531 164.844 141.531Z" fill="#FFF1FD"/>
<path d="M156.853 92.7034L147.347 82.4336L147.335 82.4457V82.4336H139.647H137.477C137.477 84.8828 135.973 86.9926 133.852 87.902C133.132 88.2091 132.364 88.3627 131.548 88.3627C131.136 88.3627 130.735 88.3223 130.347 88.2415C127.644 87.6837 125.594 85.283 125.594 82.4336H123.424H115.737V82.4457L115.725 82.4336L106.219 92.7034L104.703 94.3403L112.402 101.458L113.906 99.8329L115.737 97.8687V129.563H147.335V97.8687L149.165 99.8329L150.669 101.458L158.368 94.3403L156.853 92.7034Z" fill="#FFB3F3"/>
<path d="M251.875 162.473H185.976C183.514 162.473 181.514 160.472 181.514 157.999V152.239C181.514 149.766 183.514 147.777 185.976 147.777H251.875C254.348 147.777 256.337 149.766 256.337 152.239V157.999C256.337 160.472 254.348 162.473 251.875 162.473Z" fill="white"/>
<path d="M192.097 151.148L193.721 153.307L196.28 154.18L194.716 156.386L194.679 159.09L192.097 158.29L189.514 159.09L189.478 156.386L187.926 154.18L190.484 153.307L192.097 151.148Z" fill="#5CCDD3"/>
<path d="M205.509 151.148L207.134 153.319L209.692 154.18L208.128 156.386L208.092 159.09L205.509 158.29L202.938 159.09L202.902 156.386L201.338 154.18L203.896 153.319L205.509 151.148Z" fill="#5CCDD3"/>
<path d="M218.929 151.148L220.542 153.319L223.1 154.192L221.548 156.399L221.512 159.09L218.929 158.29L216.347 159.09L216.31 156.399L214.746 154.192L217.304 153.319L218.929 151.148Z" fill="#5CCDD3"/>
<path d="M232.339 151.16L233.952 153.318L236.51 154.191L234.958 156.398L234.922 159.102L232.339 158.302L229.756 159.102L229.72 156.398L228.168 154.191L230.726 153.318L232.339 151.16Z" fill="#D0DDF5"/>
<path d="M245.749 151.16L247.374 153.331L249.932 154.191L248.368 156.398L248.332 159.102L245.749 158.302L243.166 159.102L243.13 156.398L241.578 154.191L244.136 153.331L245.749 151.16Z" fill="#D0DDF5"/>
<path d="M252.229 141.531H185.626C183.165 141.531 181.164 139.531 181.164 137.069V74.9288C181.164 72.4674 183.165 70.4668 185.626 70.4668H252.229C254.702 70.4668 256.703 72.4674 256.703 74.9288V137.069C256.703 139.531 254.702 141.531 252.229 141.531Z" fill="#F6F2FF"/>
<path d="M339.273 162.473H273.374C270.913 162.473 268.912 160.472 268.912 157.999V152.239C268.912 149.766 270.913 147.777 273.374 147.777H339.273C341.735 147.777 343.735 149.766 343.735 152.239V157.999C343.735 160.472 341.735 162.473 339.273 162.473Z" fill="white"/>
<path d="M279.495 151.148L281.108 153.307L283.666 154.18L282.114 156.386L282.078 159.09L279.495 158.29L276.913 159.09L276.876 156.386L275.324 154.18L277.883 153.307L279.495 151.148Z" fill="#5CCDD3"/>
<path d="M292.903 151.148L294.528 153.319L297.087 154.18L295.522 156.386L295.486 159.09L292.903 158.29L290.321 159.09L290.284 156.386L288.732 154.18L291.291 153.319L292.903 151.148Z" fill="#5CCDD3"/>
<path d="M306.328 151.148L307.94 153.319L310.499 154.192L308.935 156.399L308.898 159.09L306.328 158.29L303.745 159.09L303.709 156.399L302.145 154.192L304.703 153.319L306.328 151.148Z" fill="#5CCDD3"/>
<path d="M319.736 151.16L321.349 153.318L323.907 154.191L322.355 156.398L322.318 159.102L319.736 158.302L317.153 159.102L317.117 156.398L315.553 154.191L318.111 153.318L319.736 151.16Z" fill="#5CCDD3"/>
<path d="M333.15 151.16L334.762 153.331L337.321 154.191L335.769 156.398L335.732 159.102L333.15 158.302L330.567 159.102L330.531 156.398L328.979 154.191L331.537 153.331L333.15 151.16Z" fill="#D0DDF5"/>
<path d="M339.625 141.531H273.023C270.549 141.531 268.561 139.531 268.561 137.069V74.9288C268.561 72.4674 270.549 70.4668 273.023 70.4668H339.625C342.099 70.4668 344.087 72.4674 344.087 74.9288V137.069C344.087 139.531 342.099 141.531 339.625 141.531Z" fill="#E7F8F9"/>
<path d="M148.727 187.44H115.481C111.649 187.44 108.533 184.336 108.533 180.493C108.533 176.661 111.649 173.545 115.481 173.545H148.727C152.559 173.545 155.675 176.661 155.675 180.493C155.675 184.336 152.559 187.44 148.727 187.44Z" fill="#C5D9FF"/>
<path d="M236.116 187.44H202.881C199.05 187.44 195.934 184.336 195.934 180.493C195.934 176.661 199.05 173.545 202.881 173.545H236.116C239.959 173.545 243.063 176.661 243.063 180.493C243.063 184.336 239.959 187.44 236.116 187.44Z" fill="#C5D9FF"/>
<path d="M323.512 187.44H290.278C286.434 187.44 283.33 184.336 283.33 180.493C283.33 176.661 286.434 173.545 290.278 173.545H323.512C327.356 173.545 330.46 176.661 330.46 180.493C330.46 184.336 327.356 187.44 323.512 187.44Z" fill="#C5D9FF"/>
<path d="M410.909 187.44H377.674C373.831 187.44 370.727 184.336 370.727 180.493C370.727 176.661 373.831 173.545 377.674 173.545H410.909C414.74 173.545 417.856 176.661 417.856 180.493C417.856 184.336 414.74 187.44 410.909 187.44Z" fill="#C5D9FF"/>
<path d="M426.672 162.473H360.773C358.299 162.473 356.311 160.472 356.311 157.999V152.239C356.311 149.766 358.299 147.777 360.773 147.777H426.672C429.133 147.777 431.134 149.766 431.134 152.239V157.999C431.134 160.472 429.133 162.473 426.672 162.473Z" fill="white"/>
<path d="M366.896 151.148L368.509 153.307L371.067 154.18L369.515 156.386L369.479 159.09L366.896 158.29L364.313 159.09L364.277 156.386L362.713 154.18L365.271 153.307L366.896 151.148Z" fill="#5CCDD3"/>
<path d="M380.304 151.148L381.916 153.319L384.475 154.18L382.923 156.386L382.886 159.09L380.304 158.29L377.721 159.09L377.685 156.386L376.133 154.18L378.691 153.319L380.304 151.148Z" fill="#5CCDD3"/>
<path d="M393.714 151.148L395.339 153.319L397.897 154.192L396.333 156.399L396.297 159.09L393.714 158.29L391.131 159.09L391.095 156.399L389.543 154.192L392.101 153.319L393.714 151.148Z" fill="#D0DDF5"/>
<path d="M407.134 151.16L408.747 153.318L411.305 154.191L409.741 156.398L409.705 159.102L407.134 158.302L404.552 159.102L404.515 156.398L402.951 154.191L405.51 153.318L407.134 151.16Z" fill="#D0DDF5"/>
<path d="M420.548 151.16L422.161 153.331L424.719 154.191L423.167 156.398L423.131 159.102L420.548 158.302L417.966 159.102L417.929 156.398L416.365 154.191L418.924 153.331L420.548 151.16Z" fill="#D0DDF5"/>
<path d="M427.02 141.531H360.417C357.944 141.531 355.943 139.531 355.943 137.069V74.9288C355.943 72.4674 357.944 70.4668 360.417 70.4668H427.02C429.481 70.4668 431.482 72.4674 431.482 74.9288V137.069C431.482 139.531 429.481 141.531 427.02 141.531Z" fill="#F1F7FF"/>
<path d="M415.685 121.238H396.066L393.714 109.367L391.374 121.238H371.756L376.388 95.6419H376.194V92.8047H411.065V95.6419L415.685 121.238Z" fill="#86B7FF"/>
<path d="M426.668 282.899H98.9663C96.4928 282.899 94.4922 280.899 94.4922 278.425V205.081C94.4922 202.62 96.4928 200.619 98.9663 200.619H426.668C429.129 200.619 431.13 202.62 431.13 205.081V278.425C431.13 280.899 429.129 282.899 426.668 282.899Z" fill="#F8FBFF"/>
<path d="M414.559 229.076H112.234V226.045H414.559V229.076Z" fill="#EDF1F6"/>
<path d="M284.664 221.23H112.234V218.199H284.664V221.23Z" fill="#EDF1F6"/>
<path d="M338.547 221.23H292.363V218.199H338.547V221.23Z" fill="#EDF1F6"/>
<path d="M414.558 221.23H346.246V218.199H414.558V221.23Z" fill="#EDF1F6"/>
<path d="M227.81 236.918H112.234V233.887H227.81V236.918Z" fill="#EDF1F6"/>
<path d="M414.557 236.918H243.57V233.887H414.557V236.918Z" fill="#EDF1F6"/>
<path d="M245.876 257.082H112.234V254.062H245.876V257.082Z" fill="#EDF1F6"/>
<path d="M188.452 249.252H112.234V246.221H188.452V249.252Z" fill="#EDF1F6"/>
<path d="M212.274 249.252H191.855V246.221H212.274V249.252Z" fill="#EDF1F6"/>
<path d="M245.877 249.252H215.674V246.221H245.877V249.252Z" fill="#EDF1F6"/>
<path d="M163.329 264.929H112.234V261.91H163.329V264.929Z" fill="#EDF1F6"/>
<path d="M245.876 264.929H170.289V261.91H245.876V264.929Z" fill="#EDF1F6"/>
<path d="M414.133 257.082H254.859V254.062H414.133V257.082Z" fill="#EDF1F6"/>
<path d="M345.7 249.252H254.859V246.221H345.7V249.252Z" fill="#EDF1F6"/>
<path d="M374.086 249.252H349.764V246.221H374.086V249.252Z" fill="#EDF1F6"/>
<path d="M414.133 249.252H378.146V246.221H414.133V249.252Z" fill="#EDF1F6"/>
<path d="M315.751 264.929H254.859V261.91H315.751V264.929Z" fill="#EDF1F6"/>
<path d="M414.133 264.929H324.057V261.91H414.133V264.929Z" fill="#EDF1F6"/>
<path d="M485.962 267.674C484.868 267.674 483.988 266.794 483.988 265.7V248.48C483.988 238.159 475.598 229.779 465.288 229.779C454.977 229.779 446.587 238.159 446.587 248.48V264.402C446.587 265.496 445.707 266.376 444.613 266.376C443.518 266.376 442.639 265.496 442.639 264.402V248.48C442.639 235.981 452.799 225.82 465.288 225.82C477.776 225.82 487.936 235.981 487.936 248.48V265.7C487.936 266.794 487.057 267.674 485.962 267.674Z" fill="#FCB5F1"/>
<path d="M513.889 383.964V383.975L476.391 383.964L401.438 383.921H401.385L401.696 379.576L402.307 370.982L402.608 366.573L403.219 358L403.531 353.59L404.142 345.007L404.464 340.619L405.076 332.025L405.387 327.637L405.987 319.043L406.299 314.655L406.91 306.061L407.232 301.673L407.844 293.079L408.155 288.702L408.766 280.108L408.852 279.003L409.067 275.72L410.644 253.596L410.826 251.064H505.198L505.359 253.596L506.067 264.283L506.303 267.877L506.818 275.72L507.097 280.108L507.666 288.702L507.945 293.079L508.513 301.673L508.792 306.061L509.361 314.655L509.64 319.043L510.198 327.637L510.488 332.025L511.045 340.619L511.346 345.007L511.893 353.59L512.194 358L512.741 366.573L512.945 369.405L512.955 369.738L513.041 370.982L513.588 379.576L513.889 383.964Z" fill="white"/>
<path d="M415.691 257.759L410.574 267.169L409.898 275.72L409.565 280.108L408.889 288.702L408.557 293.079L407.881 301.673L407.527 306.061L406.861 314.655L406.518 319.043L405.853 327.637L405.51 332.025L404.844 340.619L404.49 345.007L403.814 353.59L403.482 358L402.806 366.573L402.473 370.982L401.797 379.576L401.443 383.921L401.765 379.576L402.377 370.982L402.666 366.573L403.278 358L403.6 353.59L404.19 345.007L404.512 340.619L405.123 332.025L405.413 327.637L406.025 319.043L406.347 314.655L406.937 306.061H406.958L407.248 301.673L407.87 293.079L408.181 288.702L408.771 280.108L408.857 279.003L409.093 275.72L410.649 253.596L410.831 251.064L412.666 253.596L415.691 257.759Z" fill="white"/>
<path d="M415.678 257.762V271.827L410.561 267.139L415.678 257.762Z" fill="#BF5A4D"/>
<path d="M514.084 383.967H514.073L513.987 382.958L513.955 382.207L513.73 379.579L513.064 370.985L512.968 369.74L512.946 369.408L512.721 366.575L512.034 358.003L511.702 353.593L511.026 345.01L510.672 340.622L509.996 332.028L509.663 327.64L508.987 319.046L508.633 314.658L507.968 306.064L507.625 301.676L506.96 293.082L506.606 288.704L505.93 280.11L505.597 275.722L504.921 267.182L503.022 263.32L500.318 257.783L501.091 256.721L503.365 253.599L505.179 251.089L505.361 253.599L506.069 264.285L506.305 267.879L506.348 268.609L506.842 275.722L507.11 280.11L507.711 288.704L507.979 293.082L508.58 301.676L508.859 306.064L509.449 314.658L509.728 319.046L510.318 327.64L510.597 332.028L511.187 340.622L511.466 345.01L512.056 353.593L512.346 358.003L512.925 366.575L513.215 370.985L513.794 379.579L514.084 383.967Z" fill="white"/>
<path d="M500.318 255.639V265.188L504.921 262.023L500.318 255.639Z" fill="#BF5A4D"/>
<path d="M514.076 383.965V383.976H401.443V383.922L401.765 379.577L402.355 370.983L402.666 366.574L403.278 358.001L403.6 353.592L404.19 345.008L404.512 340.62L405.123 332.026L405.413 327.638L406.025 319.044L406.347 314.656L406.937 306.062H406.958L407.258 301.674L407.87 293.08L408.16 288.703H408.181L408.771 280.109L408.857 279.004L409.093 275.721L410.649 253.598H505.364L506.072 264.284L506.308 267.878L506.351 268.608L506.845 275.721L507.134 280.109L507.714 288.703L508.003 293.08L508.583 301.674L508.862 306.062L509.452 314.656L509.731 319.044L510.299 327.638L510.6 332.026L511.169 340.62L511.469 345.008L512.038 353.592L512.338 358.001L512.907 366.574L513.207 370.983L513.776 379.577L513.958 382.206L513.99 382.957L514.076 383.965Z" fill="#FFC6F6"/>
<path d="M440.151 267.073C440.645 269.186 439.325 271.3 437.212 271.793C435.098 272.287 432.984 270.967 432.491 268.854C431.997 266.74 433.306 264.626 435.42 264.133C437.544 263.639 439.658 264.959 440.151 267.073Z" fill="white"/>
<path d="M481.5 267.578C481.994 269.692 480.685 271.806 478.561 272.299C476.447 272.793 474.333 271.484 473.84 269.37C473.346 267.246 474.666 265.132 476.78 264.639C478.893 264.145 481.007 265.465 481.5 267.578Z" fill="white"/>
<path d="M477.669 271.238C476.575 271.238 475.695 270.359 475.695 269.264V252.034C475.695 241.723 467.305 233.333 456.995 233.333C446.684 233.333 438.294 241.723 438.294 252.034V267.966C438.294 269.06 437.414 269.94 436.32 269.94C435.226 269.94 434.346 269.06 434.346 267.966V252.034C434.346 239.545 444.506 229.385 456.995 229.385C469.483 229.385 479.643 239.545 479.643 252.034V269.264C479.643 270.359 478.764 271.238 477.669 271.238Z" fill="#FCB5F1"/>
<g style="mix-blend-mode:overlay" opacity="0.25">
<path d="M507.133 280.109H408.77L408.855 279.004L409.07 275.721H506.843L507.133 280.109Z" fill="#FDFCFF"/>
</g>
<g style="mix-blend-mode:overlay" opacity="0.25">
<path d="M507.999 293.081H407.844L408.155 288.703H507.709L507.999 293.081Z" fill="#FDFCFF"/>
</g>
<g style="mix-blend-mode:overlay" opacity="0.25">
<path d="M508.857 306.06H406.91L407.232 301.672H508.578L508.857 306.06Z" fill="#FDFCFF"/>
</g>
<g style="mix-blend-mode:overlay" opacity="0.25">
<path d="M509.727 319.042H405.988L406.299 314.654H509.448L509.727 319.042Z" fill="#FDFCFF"/>
</g>
<g style="mix-blend-mode:overlay" opacity="0.25">
<path d="M510.597 332.031H405.078L405.389 327.643H510.319L510.597 332.031Z" fill="#FDFCFF"/>
</g>
<g style="mix-blend-mode:overlay" opacity="0.25">
<path d="M511.468 345.01H404.146L404.468 340.622H511.189L511.468 345.01Z" fill="#FDFCFF"/>
</g>
<g style="mix-blend-mode:overlay" opacity="0.25">
<path d="M512.347 357.999H403.223L403.534 353.59H512.057L512.347 357.999Z" fill="#FDFCFF"/>
</g>
<g style="mix-blend-mode:overlay" opacity="0.25">
<path d="M513.214 370.984H402.309L402.609 366.574H512.924L513.214 370.984Z" fill="#FDFCFF"/>
</g>
<g style="mix-blend-mode:overlay" opacity="0.25">
<path d="M514.082 383.966H401.438V383.923H401.385L401.696 379.578H513.792L514.082 383.966Z" fill="#FDFCFF"/>
</g>
<path d="M405.67 312.984C404.576 312.984 403.696 312.093 403.696 311.009V293.779C403.696 283.468 395.306 275.078 384.985 275.078C374.674 275.078 366.284 283.468 366.284 293.779V309.701C366.284 310.795 365.404 311.675 364.31 311.675C363.216 311.675 362.336 310.795 362.336 309.701V293.779C362.336 281.29 372.496 271.119 384.985 271.119C397.484 271.119 407.644 281.29 407.644 293.779V311.009C407.644 312.093 406.754 312.984 405.67 312.984Z" fill="#D0BFFF"/>
<path d="M427.458 293.596L436.148 383.934L323.645 383.891L333.075 293.596" fill="#AB8DFF"/>
<path d="M333.075 293.596L337.936 298.145L332.818 304.529L323.688 383.944L333.075 293.596Z" fill="#AB8DFF"/>
<path d="M337.936 298.148V307.708L332.818 304.521L337.936 298.148Z" fill="#BF5A4D"/>
<path d="M427.438 293.619L422.578 298.157L427.17 304.541L436.343 383.978L427.438 293.619Z" fill="#AB8DFF"/>
<path d="M422.578 298.156V307.716L427.17 304.54L422.578 298.156Z" fill="#BF5A4D"/>
<path d="M436.331 383.935H323.688L332.818 296.129H427.694L436.331 383.935Z" fill="#D0BFFF"/>
<mask id="mask0_761_2784" style="mask-type:luminance" maskUnits="userSpaceOnUse" x="323" y="296" width="114" height="88">
<path d="M436.331 383.935H323.688L332.818 296.129H427.694L436.331 383.935Z" fill="white"/>
</mask>
<g mask="url(#mask0_761_2784)">
<g style="mix-blend-mode:overlay" opacity="0.25">
<path d="M434.002 390.415V287.642L435.15 287.718L438.583 287.943V390.104L434.002 390.415Z" fill="#FDFCFF"/>
</g>
<g style="mix-blend-mode:overlay" opacity="0.25">
<path d="M420.438 391.318V286.668L425.019 287.001V391.018L420.438 391.318Z" fill="#FDFCFF"/>
</g>
<g style="mix-blend-mode:overlay" opacity="0.25">
<path d="M406.877 392.208V285.701L411.458 286.034V391.918L406.877 392.208Z" fill="#FDFCFF"/>
</g>
<g style="mix-blend-mode:overlay" opacity="0.25">
<path d="M393.318 393.121V284.727L397.9 285.059V392.832L393.318 393.121Z" fill="#FDFCFF"/>
</g>
<g style="mix-blend-mode:overlay" opacity="0.25">
<path d="M379.76 394.03V283.779L384.341 284.112V393.741L379.76 394.03Z" fill="#FDFCFF"/>
</g>
<g style="mix-blend-mode:overlay" opacity="0.25">
<path d="M366.195 394.933V282.805L370.777 283.137V394.643L366.195 394.933Z" fill="#FDFCFF"/>
</g>
<g style="mix-blend-mode:overlay" opacity="0.25">
<path d="M352.611 395.865V281.838L357.214 282.17V395.554L352.611 395.865Z" fill="#FDFCFF"/>
</g>
<g style="mix-blend-mode:overlay" opacity="0.25">
<path d="M339.051 396.77V280.887L343.654 281.198V396.47L339.051 396.77Z" fill="#FDFCFF"/>
</g>
<g style="mix-blend-mode:overlay" opacity="0.25">
<path d="M325.49 397.681V279.984H325.522V279.92L330.071 280.253V397.37L325.49 397.681Z" fill="#FDFCFF"/>
</g>
</g>
<path d="M362.398 309.592C362.892 311.705 361.583 313.819 359.469 314.312C357.356 314.806 355.242 313.497 354.749 311.383C354.255 309.27 355.564 307.156 357.678 306.663C359.791 306.169 361.905 307.478 362.398 309.592Z" fill="#AB8DFF"/>
<path d="M403.756 310.11C404.25 312.224 402.93 314.337 400.816 314.831C398.703 315.324 396.589 314.005 396.096 311.891C395.602 309.778 396.922 307.664 399.035 307.17C401.149 306.677 403.263 307.986 403.756 310.11Z" fill="#AB8DFF"/>
<path d="M399.734 312.984C398.639 312.984 397.76 312.093 397.76 311.009V293.779C397.76 283.468 389.37 275.078 379.059 275.078C368.748 275.078 360.358 283.468 360.358 293.779V309.701C360.358 310.795 359.479 311.675 358.384 311.675C357.29 311.675 356.41 310.795 356.41 309.701V293.779C356.41 281.29 366.57 271.119 379.059 271.119C391.548 271.119 401.708 281.29 401.708 293.779V311.009C401.708 312.093 400.828 312.984 399.734 312.984Z" fill="#AB8DFF"/>
<path d="M182.481 380.375H19.9078C14.9359 380.375 10.9043 376.349 10.9043 371.377V279.03C10.9043 274.058 14.9359 270.031 19.9078 270.031H182.481C187.453 270.031 191.479 274.058 191.479 279.03V371.377C191.479 376.349 187.453 380.375 182.481 380.375Z" fill="#DDEBFE" style="mix-blend-mode:multiply"/>
<path d="M9.00391 261.703H171.576C176.272 261.703 180.075 265.506 180.075 270.201V362.549C180.075 367.245 176.272 371.047 171.576 371.047H9.00391C4.30772 371.047 0.5 367.244 0.5 362.549V270.201C0.500165 265.506 4.30782 261.703 9.00391 261.703Z" fill="white" stroke="#E5EEFF"/>
<g style="mix-blend-mode:multiply" opacity="0.69">
<path d="M162.966 358.262H130.355C127.68 358.262 125.508 356.096 125.508 353.42C125.508 350.745 127.68 348.578 130.355 348.578H162.966C165.642 348.578 167.814 350.745 167.814 353.42C167.814 356.096 165.642 358.262 162.966 358.262Z" fill="#C0CEF5"/>
</g>
<g style="mix-blend-mode:multiply" opacity="0.69">
<path d="M162.966 341.481H102.742C100.066 341.481 97.8945 339.315 97.8945 336.639C97.8945 333.963 100.066 331.797 102.742 331.797H162.966C165.642 331.797 167.814 333.963 167.814 336.639C167.814 339.315 165.642 341.481 162.966 341.481Z" fill="#C0CEF5"/>
</g>
<g style="mix-blend-mode:multiply" opacity="0.69">
<path d="M77.8452 286.473H17.6155C14.9399 286.473 12.7734 284.301 12.7734 281.63C12.7734 278.955 14.9399 276.783 17.6155 276.783H77.8452C80.5208 276.783 82.6873 278.955 82.6873 281.63C82.6873 284.301 80.5208 286.473 77.8452 286.473Z" fill="#C0CEF5"/>
</g>
<g style="mix-blend-mode:multiply" opacity="0.69">
<path d="M26.7515 321.686H12.7656V307.705H26.7515V321.686Z" fill="#C0CEF5"/>
</g>
<g style="mix-blend-mode:multiply" opacity="0.69">
<path d="M46.9045 321.686H32.9238V307.705H46.9045V321.686Z" fill="#C0CEF5"/>
</g>
<g style="mix-blend-mode:multiply" opacity="0.69">
<path d="M67.051 321.686H53.0703V307.705H67.051V321.686Z" fill="#C0CEF5"/>
</g>
<g style="mix-blend-mode:multiply" opacity="0.69">
<path d="M87.2072 321.686H73.2266V307.705H87.2072V321.686Z" fill="#C0CEF5"/>
</g>
<g style="mix-blend-mode:multiply" opacity="0.69">
<path d="M107.354 321.686H93.373V307.705H107.354V321.686Z" fill="#C0CEF5"/>
</g>
<g style="mix-blend-mode:multiply" opacity="0.69">
<path d="M127.513 321.686H113.527V307.705H127.513V321.686Z" fill="#C0CEF5"/>
</g>
<g style="mix-blend-mode:multiply" opacity="0.69">
<path d="M147.664 321.686H133.678V307.705H147.664V321.686Z" fill="#C0CEF5"/>
</g>
<g style="mix-blend-mode:multiply" opacity="0.69">
<path d="M167.818 321.686H153.832V307.705H167.818V321.686Z" fill="#C0CEF5"/>
</g>
<path d="M162.582 270.248C165.497 273.163 167.299 277.189 167.299 281.636C167.299 286.078 165.497 290.105 162.582 293.019" stroke="white" stroke-width="3.5" stroke-linecap="round" stroke-linejoin="round"/>
<path d="M159.711 273.104C161.893 275.286 163.244 278.299 163.244 281.629C163.244 284.954 161.893 287.967 159.711 290.149" stroke="white" stroke-width="3.5" stroke-linecap="round" stroke-linejoin="round"/>
<path d="M156.852 275.971C158.296 277.42 159.195 279.415 159.195 281.628C159.195 283.836 158.296 285.831 156.852 287.281" stroke="white" stroke-width="3.5" stroke-linecap="round" stroke-linejoin="round"/>
<path d="M425.517 49.9553H166.419C157.798 49.9553 150.826 42.9714 150.826 34.3626C150.826 25.7418 157.798 18.7578 166.419 18.7578H425.517C434.126 18.7578 441.11 25.7418 441.11 34.3626C441.11 42.9714 434.126 49.9553 425.517 49.9553Z" fill="#F1F6FF"/>
<path d="M426.428 34.3599C426.428 39.9373 421.906 44.4599 416.34 44.4599C410.763 44.4599 406.24 39.9373 406.24 34.3599C406.24 28.7824 410.763 24.2598 416.34 24.2598C421.906 24.2598 426.428 28.7824 426.428 34.3599Z" fill="#5E66D0"/>
<path fill-rule="evenodd" clip-rule="evenodd" d="M421.165 39.1987C420.741 39.6231 420.05 39.6231 419.625 39.1987L418.013 37.5983C416.364 38.5561 414.205 38.35 412.787 36.9314C411.089 35.2339 411.089 32.4936 412.787 30.8083C414.472 29.1108 417.212 29.1108 418.898 30.8083C420.329 32.2269 420.535 34.3852 419.565 36.0463L421.165 37.6467C421.602 38.0711 421.602 38.7744 421.165 39.1987ZM417.916 35.9371C419.055 34.7974 419.055 32.9423 417.916 31.8025C416.764 30.6628 414.921 30.6628 413.769 31.8025C412.629 32.9423 412.629 34.7974 413.769 35.9371C414.921 37.0769 416.764 37.0769 417.916 35.9371Z" fill="white"/>
<path d="M388.951 39.5129H178.801V36.7969H388.951V39.5129Z" fill="#D3D7FD"/>
<path d="M239.181 103.834V125.295C239.181 127.029 237.775 128.436 236.029 128.436H202.782C201.073 128.436 199.666 127.029 199.666 125.295V103.834C199.666 102.088 201.073 100.682 202.782 100.682H236.029C237.775 100.682 239.181 102.088 239.181 103.834Z" fill="#C5AAFF"/>
<path d="M223.819 92.9844H215.016C212.785 92.9844 210.979 94.791 210.979 97.022V100.684H212.591V97.022C212.591 95.6882 213.682 94.597 215.016 94.597H223.819C225.153 94.597 226.256 95.6882 226.256 97.022V100.684H227.857V97.022C227.857 94.791 226.026 92.9844 223.819 92.9844Z" fill="#C5AAFF"/>
<path d="M328.663 122.597C328.591 122.766 328.421 122.815 328.239 122.863C324.844 123.482 321.449 124.137 317.994 124.064C315.641 124.027 306.863 122.912 304.862 121.651C304.377 121.348 304.013 120.851 303.65 120.402C301.516 117.662 299.685 114.715 297.466 112.036C296.488 110.823 295.417 109.7 294.253 108.665L292.919 122.912H291.149L287.851 104.906C287.794 104.866 287.762 104.821 287.754 104.773C285.644 94.7941 292.361 94.2363 292.361 94.2363L300.618 99.1712C301.019 99.4137 301.443 100.626 301.71 101.075C302.065 101.689 302.425 102.307 302.789 102.93C303.71 104.393 304.692 105.804 305.735 107.162C306.487 108.168 307.36 109.089 308.391 109.708C309.664 110.472 311.046 110.945 312.428 111.296C314.489 111.83 326.105 115.71 328.53 122.124C328.579 122.269 328.7 122.439 328.663 122.597Z" fill="#47CED7"/>
</svg>
