<svg width="592" height="421" viewBox="0 0 592 421" fill="none" xmlns="http://www.w3.org/2000/svg">
<g opacity="0.3">
<path d="M536.192 21.8162C534.778 21.0258 533.928 20.0786 534.464 18.5235C534.771 17.6339 535.561 17.3778 536.451 17.4597C537.381 17.5449 537.977 18.0637 538.058 18.9904C538.11 19.5784 538.15 20.3302 537.843 20.7453C537.464 21.2576 536.719 21.4966 536.192 21.8162Z" fill="#909090"/>
<path d="M572.177 21.8533C570.189 20.1746 569.796 19.0192 570.753 17.9977C571.436 17.2676 572.824 17.2509 573.53 17.9644C574.511 18.9546 574.137 20.1215 572.177 21.8533Z" fill="#909090"/>
<path d="M446.911 4.41289C444.928 2.7517 444.529 1.58461 445.481 0.561694C446.165 -0.173207 447.549 -0.189781 448.258 0.528545C449.242 1.52645 448.868 2.70041 446.911 4.41289Z" fill="#909090"/>
<path d="M502.592 54.2976C502.548 55.2987 501.623 56.1191 500.539 56.1197C499.392 56.1204 498.339 55.0418 498.471 54.0005C498.603 52.9552 499.495 52.2827 500.68 52.3353C501.727 52.382 502.635 53.3139 502.592 54.2976Z" fill="#909090"/>
<path d="M480.937 1.9755C481.004 0.831246 481.636 0.047559 482.505 0.0316052C483.466 0.014095 484.742 1.30377 484.702 2.25101C484.662 3.22796 483.323 4.43163 482.385 4.33531C481.423 4.2368 480.859 3.31834 480.937 1.9755Z" fill="#909090"/>
<path d="M498.348 1.90449C499.018 0.819338 499.607 -0.179466 500.969 0.100075C501.809 0.272698 502.625 1.6784 502.372 2.49617C502.102 3.36836 501.726 4.32373 500.619 4.32717C499.006 4.33248 498.964 2.84677 498.348 1.90449Z" fill="#909090"/>
<path d="M520.138 2.21293C520.127 3.52703 519.422 4.41951 518.447 4.34977C517.602 4.2888 516.453 3.16799 516.372 2.32426C516.282 1.39046 517.505 0.0657644 518.489 0.0310515C519.449 -0.00303371 520.147 0.921064 520.138 2.21293Z" fill="#909090"/>
<path d="M538.113 2.26413C538.086 3.59727 537.368 4.45507 536.373 4.34311C535.504 4.24523 534.389 3.11192 534.338 2.27382C534.281 1.3335 535.544 0.0294012 536.514 0.0272108C537.468 0.0250204 538.14 0.96507 538.113 2.26413Z" fill="#909090"/>
<path d="M554.283 4.3966C552.23 2.80984 551.803 1.7069 552.717 0.621713C553.356 -0.139145 554.741 -0.215136 555.494 0.469143C556.528 1.41009 556.187 2.63002 554.283 4.3966Z" fill="#909090"/>
<path d="M446.99 21.8353C444.932 20.2329 444.507 19.1428 445.417 18.0617C446.053 17.3053 447.443 17.2246 448.195 17.9003C449.232 18.8322 448.896 20.0445 446.99 21.8353Z" fill="#909090"/>
<path d="M589.674 0.0491433C590.612 -0.05374 591.948 1.13961 591.997 2.12437C592.037 2.92155 590.996 4.13769 590.113 4.32658C589.133 4.53587 588.317 3.70614 588.231 2.41302C588.142 1.07582 588.704 0.155472 589.674 0.0491433Z" fill="#909090"/>
<path d="M428.999 21.836C426.967 20.2174 426.545 19.1082 427.457 18.0463C428.101 17.297 429.489 17.2323 430.234 17.917C431.267 18.8661 430.924 20.0657 428.999 21.836Z" fill="#909090"/>
<path d="M465.069 21.7526C463.634 21.4644 462.767 20.8182 462.958 19.2344C463.089 18.1532 463.607 17.5692 464.71 17.4507C465.773 17.3367 466.151 18.0412 466.501 18.8123C467.223 20.4096 465.994 21.0039 465.069 21.7526Z" fill="#909090"/>
<path d="M554.096 21.841C552.174 20.0644 551.83 18.8693 552.856 17.9189C553.599 17.231 554.986 17.2938 555.633 18.0444C556.554 19.1133 556.138 20.2162 554.096 21.841Z" fill="#909090"/>
<path d="M428.829 4.4366C427.851 3.58756 426.502 3.04467 427.259 1.48136C427.654 0.667654 428.355 -0.183891 429.389 0.112571C429.936 0.26956 430.394 0.968497 430.739 1.51952C430.924 1.81441 430.83 2.32041 430.777 2.71975C430.74 3.00464 430.636 3.37244 430.43 3.5247C429.956 3.87687 429.402 4.12044 428.829 4.4366Z" fill="#909090"/>
<path d="M465.086 4.29908C463.743 4.05672 462.8 3.52008 462.952 1.91487C463.038 1.01083 463.354 0.333113 464.256 0.0801193C465.034 -0.138162 466.314 0.677737 466.614 1.64155C467.051 3.04287 465.984 3.63236 465.086 4.29908Z" fill="#909090"/>
<path d="M572.427 4.36256C570.684 3.93128 570.011 3.1035 570.27 1.61962C570.429 0.711506 570.964 -0.1013 571.825 0.101969C572.6 0.285224 573.515 0.953201 573.861 1.65808C574.518 3.00159 573.192 3.56914 572.427 4.36256Z" fill="#909090"/>
<path d="M518.016 21.7694C517.082 21.004 515.867 20.354 516.565 19.0385C516.931 18.3487 517.856 17.7095 518.63 17.5526C519.508 17.3746 519.99 18.2193 520.131 19.1217C520.369 20.6319 519.627 21.4011 518.016 21.7694Z" fill="#909090"/>
<path d="M498.401 89.2531C498.808 87.912 499.394 86.7458 500.657 86.9776C501.461 87.1249 502.108 88.1413 502.793 88.7408C500.827 91.6478 500.581 91.6664 498.401 89.2531Z" fill="#909090"/>
<path d="M483.114 21.8001C481.358 21.3645 480.701 20.5262 480.95 19.0512C481.104 18.1398 481.646 17.3367 482.507 17.5429C483.279 17.728 484.187 18.3966 484.533 19.1012C485.193 20.4461 483.855 21.0052 483.114 21.8001Z" fill="#909090"/>
<path d="M502.611 71.8583C501.952 73.0214 501.067 73.9853 499.694 73.4184C499.123 73.1828 498.529 72.1632 498.554 71.5221C498.584 70.7035 499.04 69.8171 500.251 69.739C501.857 69.6346 502.382 70.5377 502.611 71.8583Z" fill="#909090"/>
<path d="M466.743 36.8618C466.706 38.0345 465.972 38.7146 464.784 38.6775C463.598 38.641 462.932 37.9218 462.97 36.7196C463.008 35.5303 463.716 34.877 464.93 34.9077C466.128 34.9379 466.781 35.6411 466.743 36.8618Z" fill="#909090"/>
<path d="M589.689 86.8925C590.587 86.8163 591.843 87.7532 591.972 88.5948C592.115 89.5228 590.986 90.8646 589.972 90.9728C589.088 91.067 588.361 90.3324 588.234 89.2186C588.093 87.9838 588.725 86.9744 589.689 86.8925Z" fill="#909090"/>
<path d="M428.949 87.1942C430.122 87.2044 430.824 87.9364 430.801 89.1232C430.779 90.3087 430.062 91.0062 428.882 90.9902C427.696 90.9748 427.013 90.2645 427.027 89.0618C427.041 87.882 427.759 87.1839 428.949 87.1942Z" fill="#909090"/>
<path d="M446.924 87.1936C448.094 87.2134 448.796 87.9518 448.772 89.1341C448.749 90.317 448.029 91.0107 446.843 90.9928C445.659 90.9735 444.981 90.262 444.996 89.0522C445.01 87.8698 445.733 87.1731 446.924 87.1936Z" fill="#909090"/>
<path d="M572.19 69.7659C573.363 69.7865 574.059 70.5147 574.039 71.704C574.02 72.8876 573.306 73.5735 572.111 73.5575C570.923 73.5415 570.246 72.8338 570.26 71.6227C570.275 70.4442 571 69.7461 572.19 69.7659Z" fill="#909090"/>
<path d="M428.872 34.9077C430.071 34.8898 430.779 35.5655 430.804 36.7503C430.83 37.9499 430.152 38.6551 428.956 38.6743C427.76 38.6929 427.045 38.0102 427.024 36.8311C427.004 35.6206 427.672 34.9257 428.872 34.9077Z" fill="#909090"/>
<path d="M592 19.6353C592.008 20.4628 590.844 21.5497 589.897 21.5977C589.097 21.6374 588.273 20.7318 588.231 19.7659C588.173 18.4389 588.777 17.5301 589.75 17.4782C590.72 17.4264 591.99 18.6432 592 19.6353Z" fill="#909090"/>
<path d="M448.775 36.7292C448.805 37.9339 448.134 38.648 446.946 38.6749C445.747 38.7018 445.023 38.0242 444.997 36.8509C444.971 35.6384 445.63 34.9378 446.827 34.9077C448.025 34.877 448.745 35.5507 448.775 36.7292Z" fill="#909090"/>
<path d="M554.329 87.1934C555.471 87.2715 556.148 88.0689 556.068 89.2435C555.99 90.3957 555.202 91.072 554.031 90.9939C552.898 90.9177 552.216 90.1145 552.288 88.9412C552.358 87.807 553.167 87.114 554.329 87.1934Z" fill="#909090"/>
<path d="M572.179 87.1929C573.349 87.2146 574.054 87.948 574.039 89.127C574.024 90.3138 573.31 91.008 572.119 90.994C570.941 90.9805 570.253 90.2638 570.26 89.0591C570.268 87.8749 570.991 87.1717 572.179 87.1929Z" fill="#909090"/>
<path d="M554.321 69.7659C555.463 69.8364 556.145 70.6306 556.071 71.8039C555.998 72.9548 555.218 73.6305 554.042 73.5587C552.905 73.489 552.22 72.6935 552.289 71.5228C552.356 70.3827 553.152 69.6942 554.321 69.7659Z" fill="#909090"/>
<path d="M430.805 54.2791C430.778 55.4543 430.057 56.1345 428.864 56.1095C427.665 56.0846 427.004 55.3877 427.027 54.1766C427.051 52.9911 427.761 52.3193 428.966 52.3436C430.159 52.368 430.833 53.0769 430.805 54.2791Z" fill="#909090"/>
<path d="M538.103 71.6931C538.081 72.8793 537.365 73.5729 536.181 73.5562C534.992 73.5403 534.308 72.83 534.324 71.631C534.339 70.4532 535.065 69.7481 536.247 69.7628C537.421 69.7782 538.124 70.5102 538.103 71.6931Z" fill="#909090"/>
<path d="M498.378 19.2472C499.099 18.2065 499.702 17.0921 501.108 17.6109C502.066 17.9651 502.573 18.9546 502.346 19.841C502.177 20.4981 501.38 21.3518 500.751 21.4588C499.166 21.7277 498.831 20.3431 498.378 19.2472Z" fill="#909090"/>
<path d="M466.743 71.6085C466.77 72.8138 466.096 73.5293 464.91 73.5555C463.722 73.5824 463.004 72.9022 462.969 71.7155C462.933 70.5306 463.625 69.7928 464.8 69.7653C465.984 69.7377 466.717 70.4326 466.743 71.6085Z" fill="#909090"/>
<path d="M448.774 71.6066C448.799 72.8132 448.124 73.5299 446.94 73.5555C445.752 73.5811 445.028 72.8978 444.996 71.7181C444.963 70.53 445.653 69.796 446.829 69.7672C448.012 69.7378 448.749 70.4352 448.774 71.6066Z" fill="#909090"/>
<path d="M430.804 71.6066C430.828 72.8138 430.154 73.5299 428.97 73.5548C427.772 73.5805 427.056 72.9048 427.027 71.7199C426.997 70.5287 427.683 69.7986 428.859 69.7685C430.046 69.7383 430.781 70.4326 430.804 71.6066Z" fill="#909090"/>
<path d="M574.04 54.1055C574.102 55.3102 573.45 56.0506 572.274 56.1095C571.083 56.1691 570.324 55.5055 570.261 54.3502C570.196 53.1685 570.869 52.4057 572.03 52.343C573.219 52.2789 573.98 52.9469 574.04 54.1055Z" fill="#909090"/>
<path d="M556.072 54.286C556.044 55.4581 555.319 56.137 554.124 56.1101C552.927 56.0831 552.263 55.3806 552.29 54.1695C552.316 52.9949 553.041 52.3147 554.238 52.3422C555.429 52.3698 556.101 53.082 556.072 54.286Z" fill="#909090"/>
<path d="M536.167 52.3429C537.364 52.3243 538.082 53.007 538.102 54.1829C538.122 55.3908 537.453 56.0889 536.255 56.1101C535.054 56.1312 534.345 55.4561 534.323 54.2719C534.301 53.0653 534.974 52.3614 536.167 52.3429Z" fill="#909090"/>
<path d="M556.072 36.8413C556.048 38.0121 555.322 38.6993 554.129 38.6756C552.935 38.6518 552.263 37.9435 552.291 36.7394C552.32 35.5578 553.035 34.8814 554.232 34.9058C555.432 34.9295 556.096 35.6289 556.072 36.8413Z" fill="#909090"/>
<path d="M464.904 52.3442C466.1 52.3653 466.766 53.0653 466.743 54.2758C466.72 55.4574 466.007 56.1331 464.807 56.1101C463.61 56.0877 462.946 55.3902 462.967 54.1778C462.987 52.9942 463.696 52.323 464.904 52.3442Z" fill="#909090"/>
<path d="M448.776 54.1727C448.803 55.3838 448.138 56.0858 446.941 56.1101C445.74 56.1338 445.022 55.4601 444.996 54.2841C444.969 53.0795 445.639 52.3698 446.83 52.3429C448.025 52.316 448.749 52.9974 448.776 54.1727Z" fill="#909090"/>
<path d="M588.55 38.4943C588.166 35.6603 588.52 34.9097 590.117 34.9109C591.047 34.9116 591.899 35.8402 591.985 36.9482C592.082 38.2067 591.149 38.6544 588.55 38.4943Z" fill="#909090"/>
<path d="M574.04 36.635C574.119 37.8237 573.46 38.5993 572.306 38.6762C571.12 38.7543 570.334 38.0908 570.26 36.9482C570.183 35.7717 570.852 34.9871 571.998 34.9065C573.184 34.8232 573.963 35.4828 574.04 36.635Z" fill="#909090"/>
<path d="M538.105 36.9463C538.035 38.0863 537.248 38.7518 536.061 38.6762C534.907 38.6019 534.249 37.8301 534.324 36.637C534.397 35.4829 535.171 34.8251 536.362 34.9071C537.505 34.9859 538.177 35.7717 538.105 36.9463Z" fill="#909090"/>
<path d="M519.902 38.4033C517.33 38.6883 516.351 38.2887 516.363 37.0641C516.374 35.8844 517.406 34.8103 518.435 34.9083C519.882 35.0461 520.137 35.6135 519.902 38.4033Z" fill="#909090"/>
<path d="M498.401 36.6498C500.465 34.3268 500.61 34.3262 502.622 36.6037C502.324 37.5349 502.239 38.5699 500.844 38.7018C499.406 38.8369 498.814 38.0735 498.401 36.6498Z" fill="#909090"/>
<path d="M588.578 69.8704C589.283 69.83 589.8 69.7096 590.283 69.7916C591.259 69.9562 592.155 71.1206 591.855 71.9429C591.599 72.6442 591.376 73.5178 590.299 73.5639C589.148 73.6132 588.341 73.0624 588.26 71.8533C588.217 71.2026 588.462 70.532 588.578 69.8704Z" fill="#909090"/>
<path d="M484.656 89.2411C484.102 90.2043 483.502 91.1798 482.138 90.9127C481.288 90.7462 480.398 89.3032 480.749 88.5334C480.998 87.9877 481.611 87.4049 482.173 87.2505C483.384 86.9181 483.661 87.2255 484.656 89.2411Z" fill="#909090"/>
<path d="M519.919 87.5074C520.111 90.0301 519.666 91.0331 518.473 90.9825C517.518 90.9421 516.327 89.6734 516.365 88.7383C516.414 87.5425 517.422 87.1641 519.919 87.5074Z" fill="#909090"/>
<path d="M481.165 38.402C480.921 35.6192 481.311 34.8763 482.88 34.9109C483.789 34.9307 484.722 36.0343 484.624 36.9732C484.493 38.24 483.529 38.6691 481.165 38.402Z" fill="#909090"/>
<path d="M481.092 69.9113C481.887 69.8453 482.388 69.7256 482.869 69.7813C483.816 69.8915 484.828 71.0315 484.586 71.8289C484.368 72.5494 484.149 73.4172 483.126 73.5555C482.021 73.706 481.158 73.152 480.975 71.9717C480.886 71.3985 481.032 70.7888 481.092 69.9113Z" fill="#909090"/>
<path d="M520.126 54.1721C520.152 55.4031 519.473 56.1044 518.252 56.1101C517.186 56.1146 516.358 55.414 516.363 54.5097C516.367 53.5156 517.291 52.3929 518.138 52.35C519.371 52.2879 520.101 52.9571 520.126 54.1721Z" fill="#909090"/>
<path d="M464.506 90.9786C463.632 90.9453 462.959 90.0999 462.969 89.047C462.981 87.8571 463.697 87.1685 464.895 87.1942C465.915 87.2159 466.752 87.9627 466.733 88.8325C466.712 89.804 465.456 91.0145 464.506 90.9786Z" fill="#909090"/>
<path d="M536.083 87.1935C537.262 87.123 538.044 87.8058 538.103 88.9592C538.157 90.009 537.528 90.8768 536.649 90.9671C535.711 91.0632 534.43 89.9257 534.342 88.9183C534.264 88.0299 535.046 87.2556 536.083 87.1935Z" fill="#909090"/>
<path d="M516.44 71.7444C516.39 70.7625 517.353 69.7448 518.31 69.7679C519.366 69.7942 520.027 70.3968 520.127 71.4267C520.241 72.5987 519.59 73.4339 518.467 73.5594C517.526 73.6644 516.492 72.7383 516.44 71.7444Z" fill="#909090"/>
<path d="M484.625 54.1446C484.672 55.1315 483.719 56.1287 482.76 56.1095C481.675 56.0877 481.068 55.5362 480.945 54.4609C480.81 53.2838 481.456 52.4666 482.597 52.341C483.55 52.2366 484.577 53.1512 484.625 54.1446Z" fill="#909090"/>
<path d="M590.039 56.1075C588.851 56.0717 588.196 55.3594 588.234 54.1439C588.271 52.952 588.99 52.2974 590.206 52.3487C590.988 52.3813 591.882 53.326 591.916 54.1561C591.958 55.1494 591.008 56.137 590.039 56.1075Z" fill="#909090"/>
</g>
<path d="M563.448 420H34.5524C32.5905 420 31 417.953 31 415.427V43.5729C31 41.0475 32.5905 39 34.5524 39H563.448C565.409 39 567 41.0475 567 43.5729V415.429C566.998 417.955 565.409 420 563.448 420Z" fill="#EFF6FF"/>
<rect x="46" y="60" width="83" height="340" rx="10" fill="white"/>
<path d="M54.4286 81H83.5713C83.8081 81 84 79.4926 84 77.6325V75.3675C84 73.5074 83.8081 72 83.5713 72H54.4284C54.1919 72 54 73.506 54 75.3656V77.6325C54 79.4926 54.1919 81 54.4286 81Z" fill="#E9F0FE"/>
<path d="M54.9001 114H116.1C116.597 114 117 112.493 117 110.633V108.367C117 106.507 116.597 105 116.1 105H54.8997C54.403 105 54 106.506 54 108.366V110.633C54 112.493 54.403 114 54.9001 114Z" fill="#E9F0FE"/>
<path d="M54.7715 131H107.228C107.655 131 108 129.493 108 127.633V125.367C108 123.507 107.655 122 107.228 122H54.7712C54.3454 122 54 123.506 54 125.366V127.633C54 129.493 54.3454 131 54.7715 131Z" fill="#E9F0FE"/>
<path d="M54.9001 148H116.1C116.597 148 117 146.493 117 144.633V142.367C117 140.507 116.597 139 116.1 139H54.8997C54.403 139 54 140.506 54 142.366V144.633C54 146.493 54.403 148 54.9001 148Z" fill="#E9F0FE"/>
<path d="M54.6143 165H96.3856C96.725 165 97 163.493 97 161.633V159.367C97 157.507 96.725 156 96.3856 156H54.6141C54.275 156 54 157.506 54 159.366V161.633C54 163.493 54.275 165 54.6143 165Z" fill="#E9F0FE"/>
<path d="M54.8143 182H110.186C110.635 182 111 180.493 111 178.633V176.367C111 174.507 110.635 173 110.186 173H54.814C54.3646 173 54 174.506 54 176.366V178.633C54 180.493 54.3646 182 54.8143 182Z" fill="#E9F0FE"/>
<rect x="353" y="212" width="194" height="188" rx="10" fill="white"/>
<path d="M515.16 380.069V350.073C515.16 346.658 512.391 343.889 508.975 343.889C505.56 343.889 502.791 346.658 502.791 350.073V380.069C502.791 383.485 505.56 386.254 508.975 386.254C512.391 386.254 515.16 383.485 515.16 380.069Z" fill="#FFD9F9"/>
<path d="M496.774 380.069V361.956C496.774 358.54 494.005 355.771 490.589 355.771C487.173 355.771 484.404 358.54 484.404 361.956V380.069C484.404 383.485 487.173 386.254 490.589 386.254C494.005 386.254 496.774 383.485 496.774 380.069Z" fill="#FFD9F9"/>
<path d="M439.393 380.069V361.956C439.393 358.54 436.624 355.771 433.208 355.771C429.792 355.771 427.023 358.54 427.023 361.956V380.069C427.023 383.485 429.792 386.254 433.208 386.254C436.624 386.254 439.393 383.485 439.393 380.069Z" fill="#FFD9F9"/>
<path d="M477.312 380.069V350.073C477.312 346.658 474.543 343.889 471.128 343.889C467.712 343.889 464.943 346.658 464.943 350.073V380.069C464.943 383.485 467.712 386.254 471.128 386.254C474.543 386.254 477.312 383.485 477.312 380.069Z" fill="#FFD9F9"/>
<path d="M458.926 380.069V361.956C458.926 358.54 456.157 355.771 452.741 355.771C449.326 355.771 446.557 358.54 446.557 361.956V380.069C446.557 383.485 449.326 386.254 452.741 386.254C456.157 386.254 458.926 383.485 458.926 380.069Z" fill="#FFD9F9"/>
<path d="M419.859 380.069V361.956C419.859 358.54 417.091 355.771 413.675 355.771C410.259 355.771 407.49 358.54 407.49 361.956V380.069C407.49 383.485 410.259 386.254 413.675 386.254C417.091 386.254 419.859 383.485 419.859 380.069Z" fill="#FFD9F9"/>
<path d="M400.4 380.069V350.073C400.4 346.658 397.631 343.889 394.216 343.889C390.8 343.889 388.031 346.658 388.031 350.073V380.069C388.031 383.485 390.8 386.254 394.216 386.254C397.631 386.254 400.4 383.485 400.4 380.069Z" fill="#FFD9F9"/>
<path d="M382.014 380.069V361.956C382.014 358.54 379.245 355.771 375.829 355.771C372.413 355.771 369.645 358.54 369.645 361.956V380.069C369.645 383.485 372.413 386.254 375.829 386.254C379.245 386.254 382.014 383.485 382.014 380.069Z" fill="#FFD9F9"/>
<path d="M533 380.069V306.669C533 303.253 530.231 300.484 526.815 300.484C523.4 300.484 520.631 303.253 520.631 306.669V380.069C520.631 383.485 523.4 386.254 526.815 386.254C530.231 386.254 533 383.485 533 380.069Z" fill="#FFD9F9"/>
<path d="M531.531 281.04V279.199L485.797 279.201L471.239 310.228L421.94 310.217L407.14 336.649L369.87 336.677L369.824 338.539H408.11L422.972 312.014H472.461L487.068 280.88L531.531 281.04Z" fill="#FFD9F9"/>
<path d="M482.224 238H440.985C439.336 238 438 239.336 438 240.985C438 242.633 439.336 243.969 440.985 243.969H482.224C483.872 243.969 485.209 242.633 485.209 240.985C485.209 239.336 483.872 238 482.224 238Z" fill="#F9E5F5"/>
<path d="M472.51 250.518H440.986C439.337 250.518 438 251.854 438 253.504C438 255.153 439.337 256.49 440.986 256.49H472.51C474.16 256.49 475.496 255.153 475.496 253.504C475.496 251.854 474.16 250.518 472.51 250.518Z" fill="#F9E5F5"/>
<path d="M404.148 247.888C404.148 251.51 401.214 254.445 397.592 254.445C393.972 254.445 391.035 251.51 391.035 247.888C391.035 244.269 393.972 241.334 397.592 241.334C401.214 241.334 404.148 244.268 404.148 247.888Z" fill="#FFD9F9"/>
<path d="M409.421 269.263V281.732C405.801 283.38 401.774 284.294 397.538 284.294C393.299 284.294 389.272 283.38 385.652 281.732V269.263C385.652 262.701 390.971 257.379 397.538 257.379C404.102 257.379 409.421 262.701 409.421 269.263Z" fill="#FFD9F9"/>
<path d="M397.539 285.074C393.278 285.074 389.171 284.186 385.33 282.44C374.802 277.656 368 267.096 368 255.535C368 239.25 381.252 226 397.539 226C413.825 226 427.074 239.25 427.074 255.535C427.074 267.096 420.272 277.656 409.744 282.44C405.903 284.187 401.798 285.074 397.539 285.074ZM397.539 227.559C382.109 227.559 369.558 240.108 369.558 255.535C369.558 266.486 376.004 276.489 385.975 281.022C389.61 282.677 393.501 283.514 397.539 283.514C401.573 283.514 405.463 282.677 409.098 281.022C419.071 276.489 425.515 266.486 425.515 255.535C425.515 240.108 412.964 227.559 397.539 227.559Z" fill="#F9E5F5"/>
<rect x="145" y="60" width="402" height="138" rx="10" fill="white"/>
<path d="M259.02 115.611C251.59 94.8415 231.742 82.0833 210.821 82.7137C205.757 82.8679 200.629 83.8035 195.597 85.6029C180.36 91.0517 169.433 103.191 164.943 117.531C161.831 127.468 161.812 138.463 165.591 149.024C165.966 150.074 166.374 151.108 166.811 152.117C168.798 156.692 171.406 160.83 174.502 164.469C187.485 179.732 209.028 186.182 229.012 179.035C254.812 169.806 268.245 141.411 259.02 115.611ZM224.831 167.342C209.847 172.702 193.696 167.866 183.961 156.425C181.643 153.696 179.686 150.593 178.197 147.163C177.867 146.407 177.562 145.631 177.28 144.843C174.449 136.925 174.465 128.681 176.797 121.23C180.162 110.479 188.353 101.379 199.778 97.2948C203.55 95.9441 207.394 95.2441 211.191 95.1263C226.875 94.6537 241.758 104.219 247.328 119.79C254.247 139.135 244.173 160.423 224.831 167.342Z" fill="#FFC6F6"/>
<path d="M176.796 121.232L164.941 117.532C169.431 103.192 180.358 91.0528 195.596 85.604C200.628 83.8046 205.755 82.8695 210.819 82.7148L211.19 95.1274C207.392 95.2453 203.549 95.9452 199.776 97.2959C188.352 101.38 180.16 110.48 176.796 121.232Z" fill="#ECF2FF"/>
<path d="M178.197 147.163L166.811 152.117C166.374 151.108 165.966 150.074 165.591 149.024C161.812 138.463 161.831 127.468 164.943 117.531L176.798 121.23C174.465 128.681 174.449 136.925 177.281 144.843C177.562 145.631 177.868 146.407 178.197 147.163Z" fill="#D0BFFF"/>
<path d="M287.419 176.828V123.04C287.419 120.613 285.453 118.646 283.026 118.646C280.6 118.646 278.633 120.613 278.633 123.04V176.828C278.633 179.254 280.6 181.221 283.026 181.221C285.453 181.221 287.419 179.254 287.419 176.828Z" fill="#ECF2FF"/>
<path d="M309.235 176.828V135.754C309.235 133.328 307.268 131.361 304.842 131.361C302.416 131.361 300.449 133.328 300.449 135.754V176.828C300.449 179.254 302.416 181.221 304.842 181.221C307.268 181.221 309.235 179.254 309.235 176.828Z" fill="#ECF2FF"/>
<path d="M331.047 176.827V126.399C331.047 123.973 329.08 122.006 326.654 122.006C324.228 122.006 322.262 123.973 322.262 126.399V176.827C322.262 179.253 324.228 181.22 326.654 181.22C329.08 181.22 331.047 179.253 331.047 176.827Z" fill="#ECF2FF"/>
<path d="M352.861 176.827V144.87C352.861 142.444 350.894 140.477 348.468 140.477C346.041 140.477 344.074 142.444 344.074 144.87V176.827C344.074 179.254 346.041 181.221 348.468 181.221C350.894 181.221 352.861 179.254 352.861 176.827Z" fill="#ECF2FF"/>
<path d="M374.676 176.827V128.316C374.676 125.89 372.709 123.924 370.283 123.924C367.857 123.924 365.891 125.89 365.891 128.316V176.827C365.891 179.253 367.857 181.22 370.283 181.22C372.709 181.22 374.676 179.253 374.676 176.827Z" fill="#ECF2FF"/>
<path d="M396.488 176.828V119.68C396.488 117.254 394.522 115.287 392.096 115.287C389.67 115.287 387.703 117.254 387.703 119.68V176.828C387.703 179.254 389.67 181.22 392.096 181.22C394.522 181.22 396.488 179.254 396.488 176.828Z" fill="#ECF2FF"/>
<path d="M418.301 176.829V116.079C418.301 113.654 416.335 111.688 413.909 111.688C411.484 111.688 409.518 113.654 409.518 116.079V176.829C409.518 179.255 411.484 181.221 413.909 181.221C416.335 181.221 418.301 179.255 418.301 176.829Z" fill="#ECF2FF"/>
<path d="M287.419 176.826V146.354C287.419 143.928 285.453 141.961 283.026 141.961C280.6 141.961 278.633 143.928 278.633 146.354V176.826C278.633 179.252 280.6 181.219 283.026 181.219C285.453 181.219 287.419 179.252 287.419 176.826Z" fill="#C5AAFF"/>
<path d="M309.235 176.828V154.332C309.235 151.906 307.268 149.939 304.842 149.939C302.416 149.939 300.449 151.906 300.449 154.332V176.828C300.449 179.254 302.416 181.22 304.842 181.22C307.268 181.22 309.235 179.254 309.235 176.828Z" fill="#C5AAFF"/>
<path d="M331.047 176.827V148.461C331.047 146.035 329.08 144.068 326.654 144.068C324.228 144.068 322.262 146.035 322.262 148.461V176.827C322.262 179.253 324.228 181.22 326.654 181.22C329.08 181.22 331.047 179.253 331.047 176.827Z" fill="#C5AAFF"/>
<path d="M352.861 176.826V160.052C352.861 157.625 350.894 155.658 348.468 155.658C346.041 155.658 344.074 157.625 344.074 160.052V176.826C344.074 179.253 346.041 181.22 348.468 181.22C350.894 181.22 352.861 179.253 352.861 176.826Z" fill="#C5AAFF"/>
<path d="M374.676 176.828V149.666C374.676 147.24 372.709 145.273 370.283 145.273C367.857 145.273 365.891 147.24 365.891 149.666V176.828C365.891 179.254 367.857 181.22 370.283 181.22C372.709 181.22 374.676 179.254 374.676 176.828Z" fill="#C5AAFF"/>
<path d="M396.488 176.827V144.248C396.488 141.822 394.522 139.855 392.096 139.855C389.67 139.855 387.703 141.822 387.703 144.248V176.827C387.703 179.253 389.67 181.22 392.096 181.22C394.522 181.22 396.488 179.253 396.488 176.827Z" fill="#C5AAFF"/>
<path d="M418.301 176.827V141.987C418.301 139.562 416.335 137.596 413.909 137.596C411.484 137.596 409.518 139.562 409.518 141.987V176.827C409.518 179.253 411.484 181.219 413.909 181.219C416.335 181.219 418.301 179.253 418.301 176.827Z" fill="#C5AAFF"/>
<path d="M442.371 176.829V123.039C442.371 120.613 440.405 118.646 437.979 118.646C435.553 118.646 433.586 120.613 433.586 123.039V176.829C433.586 179.255 435.553 181.221 437.979 181.221C440.405 181.221 442.371 179.255 442.371 176.829Z" fill="#ECF2FF"/>
<path d="M464.184 176.828V135.754C464.184 133.328 462.217 131.361 459.791 131.361C457.365 131.361 455.398 133.328 455.398 135.754V176.828C455.398 179.254 457.365 181.221 459.791 181.221C462.217 181.221 464.184 179.254 464.184 176.828Z" fill="#ECF2FF"/>
<path d="M485.998 176.828V126.398C485.998 123.972 484.032 122.006 481.607 122.006C479.181 122.006 477.215 123.972 477.215 126.398V176.828C477.215 179.254 479.181 181.22 481.607 181.22C484.032 181.22 485.998 179.254 485.998 176.828Z" fill="#ECF2FF"/>
<path d="M507.813 176.828V144.869C507.813 142.443 505.846 140.477 503.42 140.477C500.994 140.477 499.027 142.443 499.027 144.869V176.828C499.027 179.254 500.994 181.221 503.42 181.221C505.846 181.221 507.813 179.254 507.813 176.828Z" fill="#ECF2FF"/>
<path d="M442.371 176.826V146.354C442.371 143.928 440.405 141.961 437.979 141.961C435.553 141.961 433.586 143.928 433.586 146.354V176.826C433.586 179.252 435.553 181.219 437.979 181.219C440.405 181.219 442.371 179.252 442.371 176.826Z" fill="#C5AAFF"/>
<path d="M464.184 176.828V154.332C464.184 151.906 462.217 149.939 459.791 149.939C457.365 149.939 455.398 151.906 455.398 154.332V176.828C455.398 179.254 457.365 181.22 459.791 181.22C462.217 181.22 464.184 179.254 464.184 176.828Z" fill="#C5AAFF"/>
<path d="M485.998 176.828V148.46C485.998 146.035 484.032 144.068 481.607 144.068C479.181 144.068 477.215 146.035 477.215 148.46V176.828C477.215 179.254 479.181 181.22 481.607 181.22C484.032 181.22 485.998 179.254 485.998 176.828Z" fill="#C5AAFF"/>
<path d="M507.813 176.827V160.051C507.813 157.625 505.846 155.658 503.42 155.658C500.994 155.658 499.027 157.625 499.027 160.051V176.827C499.027 179.253 500.994 181.22 503.42 181.22C505.846 181.22 507.813 179.253 507.813 176.827Z" fill="#C5AAFF"/>
<path d="M277.104 87.7408H504.467C506.314 87.7408 507.812 86.2419 507.812 84.3951V82.147C507.812 80.2998 506.314 78.8027 504.467 78.8027H277.102C275.257 78.8027 273.76 80.2998 273.76 82.1452V84.3965C273.76 86.2438 275.257 87.7408 277.104 87.7408Z" fill="#E9F0FE"/>
<path d="M275.129 103H351.871C352.495 103 353 101.493 353 99.6325V97.3675C353 95.5074 352.495 94 351.871 94H275.128C274.505 94 274 95.506 274 97.3656V99.6325C274 101.493 274.505 103 275.129 103Z" fill="#E9F0FE"/>
<path d="M331.099 268.93H265.323C261.662 268.93 258.691 265.962 258.691 262.298V261.315C258.691 257.652 261.66 254.684 265.323 254.684H331.101C334.763 254.684 337.733 257.652 337.733 261.315V262.298C337.731 265.962 334.763 268.93 331.099 268.93Z" fill="#EFF5FF"/>
<rect x="145" y="214" width="194" height="186" rx="10" fill="white"/>
<path d="M227.936 272.424H166.912C164.634 272.424 162.789 270.579 162.789 268.301V266.456C162.789 264.178 164.634 262.338 166.908 262.338H227.936C230.21 262.338 232.055 264.178 232.055 266.456V268.305C232.055 270.584 230.21 272.424 227.936 272.424Z" fill="#DED4FA"/>
<path d="M213.42 249.599H166.44C164.424 249.599 162.789 247.969 162.789 245.953V243.163C162.789 241.147 164.424 239.512 166.44 239.512H213.42C215.436 239.512 217.068 241.142 217.068 243.158V245.952C217.068 247.969 215.436 249.599 213.42 249.599Z" fill="#DED4FA"/>
<path d="M156.789 386.979L196.931 346.839L208.929 358.836L252.979 314.781L272.528 334.33L323.678 283.184V386.979H156.789Z" fill="#E5DBFF"/>
<path d="M323.215 386.979V307.383L270.459 360.139L251.568 341.241L220.064 372.745L196.192 363.251L156.789 386.979H323.215Z" fill="#D0BFFF"/>
<path d="M4.69448 263.227C9.32695 261.011 13.9378 275.758 13.9378 275.758C21.8118 286.165 32.8155 272.322 31.7394 287.877C29.8572 315.093 63.068 296.436 47.746 324.851C32.4254 353.264 61.275 340.917 51.7537 363.829C42.2322 386.742 54.5729 414.07 40.2461 402.838C40.2461 402.838 27.6318 375.175 14.6228 366.619C1.61304 358.059 22.4159 347.903 18.3463 336.279C12.4337 319.394 -1.81055 320.057 8.4599 301.913C18.7303 283.768 -11.0538 270.759 4.69448 263.227Z" fill="#E9E1FF"/>
<path d="M44.7827 392.429C38.5729 388.062 31.3043 357.626 30.8717 339.499C30.6483 330.213 27.904 326.344 25.4819 322.932C23.1684 319.669 21.1684 316.85 22.3326 310.382C24.559 298.017 18.707 292.679 18.6484 292.627L19.3251 291.855C19.586 292.083 25.68 297.589 23.3441 310.562C22.2554 316.609 24.0494 319.136 26.3194 322.337C28.7025 325.696 31.6678 329.874 31.8978 339.475C32.3627 358.928 39.7938 387.664 45.3728 391.588L44.7827 392.429Z" fill="white"/>
<path d="M47.1059 394.685C46.3051 394.685 45.434 394.593 44.4811 394.399C42.0866 393.915 40.5173 392.654 39.815 390.646C38.1421 385.86 42.0207 378.081 45.169 374.332C45.2206 374.269 50.4895 367.83 49.928 358.904C49.8338 357.408 49.6784 356.023 49.5416 354.802C49.1458 351.269 48.8602 348.716 50.377 347.012C51.714 345.509 54.2949 344.858 59.0079 344.836C67.272 344.798 70.5408 341.377 73.1666 338.627C74.2816 337.459 75.3343 336.357 76.6138 335.659C80.733 333.409 85.0949 333.079 86.9878 334.873C87.8864 335.724 88.6449 337.393 87.1558 340.503C85.7958 343.349 84.0318 345.149 82.6132 346.595C80.7057 348.542 79.4456 349.827 80.1016 352.39C80.2557 352.992 80.4341 353.599 80.6112 354.21C81.886 358.567 83.3302 363.506 75.8716 366.857C74.2896 367.57 72.848 368.135 71.5753 368.634C66.3686 370.678 63.2263 371.911 59.6789 379.399C58.9922 380.849 58.3855 382.223 57.7997 383.551C55.0025 389.891 52.8866 394.684 47.1059 394.685ZM77.1061 336.559C75.9667 337.181 75.0132 338.181 73.9085 339.337C71.1482 342.228 67.7137 345.823 59.0122 345.865C54.679 345.884 52.2522 346.449 51.1442 347.695C49.9313 349.058 50.1959 351.419 50.5621 354.687C50.7002 355.921 50.8566 357.319 50.9532 358.839C51.5423 368.187 46.1839 374.718 45.9559 374.992C42.8402 378.703 39.3097 386.089 40.7849 390.307C41.3594 391.949 42.6698 392.987 44.6834 393.393C51.708 394.813 53.6472 390.418 56.8594 383.136C57.4489 381.801 58.0586 380.421 58.7499 378.959C62.4724 371.103 65.9439 369.739 71.1998 367.677C72.4609 367.183 73.8911 366.622 75.4505 365.922C82.093 362.936 80.8951 358.836 79.6263 354.497C79.4443 353.877 79.2635 353.258 79.1071 352.646C78.3076 349.522 79.8836 347.912 81.88 345.875C83.3152 344.41 84.9431 342.75 86.2295 340.06C86.9035 338.65 87.4607 336.736 86.2798 335.617C84.7294 334.146 80.7846 334.55 77.1061 336.559Z" fill="#E5DBFF"/>
<path d="M44.5929 400.612L43.5664 400.559C43.617 399.595 44.9114 376.883 54.0302 370.235C64.0351 362.942 67.1901 355.105 68.6928 349.844C70.4625 343.646 79.4732 341.99 79.8563 341.922L80.0347 342.933C79.9472 342.948 71.2737 344.546 69.6801 350.126C68.137 355.532 64.8968 363.586 54.6357 371.064C45.9066 377.427 44.6042 400.382 44.5929 400.612Z" fill="#E5DBFF"/>
<path d="M65.4436 286.146C58.9619 283.926 60.3082 296.418 57.5699 305.663C54.8313 314.906 27.0997 309.695 38.7408 332.841C50.3809 355.988 24.0196 340.582 31.8933 360.783C39.7673 380.98 32.5783 402.583 41.1366 397.088C49.6952 391.592 45.9451 366.157 54.8466 363.134C63.7478 360.112 65.1999 356.586 56.386 348.371C47.5731 340.155 79.4804 331.998 71.6065 315.406C63.7328 298.815 72.9318 288.716 65.4436 286.146Z" fill="#D8CBFA"/>
<path d="M45.1059 396.119C44.2914 392.662 37.3301 362.231 43.8251 358.553C49.5506 355.312 49.4092 342.702 48.5165 330.794C47.726 320.254 61.2633 315.328 61.8394 315.123L62.1822 316.091C62.0488 316.138 48.8084 320.961 49.5403 330.718C50.4576 342.946 50.5565 355.921 44.3314 359.447C39.3987 362.242 43.9403 386.696 46.1058 395.884L45.1059 396.119Z" fill="white"/>
<path d="M59.8419 385.285L50.5876 420.394H29.906L20.6523 385.285H59.8419Z" fill="#B4CAF2"/>
<path d="M59.8419 385.285C59.8419 385.285 39.4688 389.109 39.4688 420.393H29.906L20.6523 385.285H59.8419Z" fill="#C9DAF8"/>
</svg>
