<svg width="40" height="40" viewBox="0 0 40 40" fill="none" xmlns="http://www.w3.org/2000/svg">
<g clip-path="url(#clip0_331_10659)">
<path d="M16.667 20C16.667 20.884 17.0182 21.7319 17.6433 22.357C18.2684 22.9821 19.1163 23.3333 20.0003 23.3333C20.8844 23.3333 21.7322 22.9821 22.3573 22.357C22.9825 21.7319 23.3337 20.884 23.3337 20C23.3337 19.1159 22.9825 18.2681 22.3573 17.6429C21.7322 17.0178 20.8844 16.6666 20.0003 16.6666C19.1163 16.6666 18.2684 17.0178 17.6433 17.6429C17.0182 18.2681 16.667 19.1159 16.667 20Z" stroke="#8D68F6" stroke-width="1.5" stroke-linecap="round" stroke-linejoin="round"/>
<path d="M19.4483 29.99C13.6928 29.79 8.87667 26.46 5 20C9 13.3333 14 10 20 10C26 10 31 13.3333 35 20" stroke="#8D68F6" stroke-width="1.5" stroke-linecap="round" stroke-linejoin="round"/>
<path d="M19.6322 27C15.7952 26.86 12.5844 24.5278 10 20.0035" stroke="#13D9E4" stroke-width="1.5" stroke-linecap="round" stroke-linejoin="round"/>
<path d="M31.6663 37.5C32.0085 36.0855 32.734 34.7926 33.7631 33.7635C34.7922 32.7344 36.0851 32.0089 37.4997 31.6667C36.0851 31.3245 34.7922 30.599 33.7631 29.5699C32.734 28.5408 32.0085 27.2479 31.6663 25.8334C31.3242 27.2479 30.5986 28.5408 29.5695 29.5699C28.5404 30.599 27.2476 31.3245 25.833 31.6667C27.2476 32.0089 28.5404 32.7344 29.5695 33.7635C30.5986 34.7926 31.3242 36.0855 31.6663 37.5Z" stroke="#FC4BDA" stroke-width="1.5" stroke-linecap="round" stroke-linejoin="round"/>
</g>
<defs>
<clipPath id="clip0_331_10659">
<rect width="40" height="40" fill="white"/>
</clipPath>
</defs>
</svg>
