<svg width="555" height="318" viewBox="0 0 555 318" fill="none" xmlns="http://www.w3.org/2000/svg">
<path d="M554.696 43.4785V172.6L405.634 236.633C400.508 238.837 394.737 239.042 389.467 237.207L384.628 235.526C385.069 234.316 385.305 233.035 385.305 231.722C385.449 195.195 365.222 184.113 355.482 180.894C355.482 173.307 359.327 166.244 365.683 162.123L554.696 43.4785Z" fill="#FFDCF9"/>
<path d="M355.483 180.894C365.222 184.113 385.449 195.195 385.305 231.722C385.305 233.035 385.07 234.316 384.629 235.526C383.891 237.597 382.548 239.442 380.743 240.806L370.84 248.3C375.843 238.55 378.56 225.089 370.584 209.281C362.997 194.231 352.223 187.096 342.729 183.785L346.492 181.745C349.25 180.238 352.499 179.91 355.483 180.894Z" fill="#F0ADE5"/>
<path d="M370.839 248.3C368.071 253.702 364.585 257.967 361.838 260.848C361.643 260.684 361.445 260.523 361.243 260.366L321.046 228.954C330.344 231.097 339.571 225.059 341.334 215.678C341.734 213.536 341.929 211.393 341.929 209.291C341.929 197.871 336.208 187.352 327.084 181.068C330.939 181.099 336.557 181.632 342.729 183.785C352.222 187.096 362.996 194.231 370.583 209.281C378.559 225.089 375.842 238.55 370.839 248.3Z" fill="#F7DDB9"/>
<path d="M327.085 181.068C336.209 187.352 341.93 197.871 341.93 209.291C341.93 211.393 341.735 213.536 341.335 215.678C339.572 225.059 330.345 231.097 321.047 228.954L288.087 203.202L288.159 202.987L288.22 203.007C288.22 203.007 303.936 193.206 303.844 173.841L313.358 175.471C318.453 176.342 323.097 178.29 327.085 181.068Z" fill="#F7DDB9"/>
<path d="M363.52 277.958C361.06 281.157 357.338 282.828 353.576 282.828C350.9 282.828 348.204 281.987 345.938 280.234L342.33 277.415C343.252 281.034 342.576 285.021 340.136 288.189C337.675 291.388 333.944 293.059 330.181 293.059C329.136 293.059 328.08 292.926 327.054 292.669C327.28 295.632 326.45 298.667 324.512 301.189C322.052 304.377 318.32 306.058 314.547 306.058C312.835 306.058 311.103 305.71 309.483 304.992C309.144 305.669 308.734 306.314 308.253 306.93C305.792 310.128 302.06 311.799 298.298 311.799C295.633 311.799 292.936 310.959 290.671 309.216L288.446 307.483L294.556 299.907C295.622 298.595 296.371 297.119 296.832 295.581C297.17 294.422 297.334 293.223 297.334 292.034C297.334 288.374 295.756 284.734 292.701 282.264C289.276 279.496 284.807 278.829 280.89 280.111C281.424 278.686 281.69 277.179 281.69 275.682C281.69 272.022 280.111 268.383 277.056 265.912C273.191 262.775 267.963 262.344 263.729 264.364C263.801 263.8 263.838 263.236 263.842 262.672C263.842 259.013 262.263 255.383 259.208 252.913C253.846 248.576 245.911 249.407 241.564 254.768L237.248 260.099C237.289 259.682 237.31 259.265 237.31 258.849C237.31 255.189 235.721 251.549 232.676 249.079C227.314 244.742 219.379 245.572 215.033 250.934L208.841 258.613C207.805 259.894 207.057 261.34 206.595 262.837L206.062 262.662C188.685 253.835 182.022 243.573 182.022 243.573L159.509 231.568C168.961 222.034 191.771 196.507 194.98 169.237L210.706 176.219C210.706 176.219 237.115 171.657 257.403 176.219L221.143 206.308C218.057 208.861 218.139 213.669 221.358 216.047C227.253 220.394 237.843 224.956 253.026 219.256C277.682 209.988 279.958 200.3 279.958 200.3L288.159 202.986L288.087 203.202L321.047 228.954L361.244 260.366C361.446 260.523 361.644 260.684 361.839 260.848C366.78 265.164 367.58 272.699 363.52 277.958Z" fill="#FFEACD"/>
<path d="M303.844 173.841C303.937 193.206 288.221 203.007 288.221 203.007L288.159 202.987L279.958 200.301C279.958 200.301 282.746 181.242 261.761 172.6C265.533 169.473 270.485 168.141 275.324 168.971L303.844 173.841Z" fill="#F7DDB9"/>
<path d="M261.761 172.6C282.746 181.242 279.958 200.301 279.958 200.301C279.958 200.301 277.682 209.989 253.026 219.256C237.843 224.956 227.253 220.394 221.358 216.047C218.139 213.669 218.057 208.861 221.143 206.308L257.403 176.219L261.761 172.6Z" fill="#F7DDB9"/>
<path d="M194.98 169.237C191.771 196.507 168.96 222.034 159.508 231.569C156.986 234.111 155.418 235.515 155.418 235.515L140.973 229.385C134.473 241.339 114.38 234.449 114.38 234.449L0 206.718V66.1143C0 66.1143 159.6 130.332 171 136.411C182.401 142.501 180.74 157.315 180.74 157.315L195.318 165.096C195.256 166.483 195.144 167.864 194.98 169.237Z" fill="#D0BFFF"/>
<path d="M342.33 278.44C341.858 278.44 341.438 278.122 341.33 277.646C340.146 272.479 336.789 269.454 336.753 269.424L299.913 238.437C299.477 238.068 299.421 237.423 299.79 236.992C300.154 236.556 300.8 236.5 301.23 236.864L338.091 267.87C338.265 268.024 341.992 271.351 343.329 277.189C343.452 277.738 343.109 278.291 342.555 278.414C342.48 278.432 342.405 278.44 342.33 278.44Z" fill="#EACA9D"/>
<path d="M327.054 293.695C327.034 293.695 327.015 293.695 326.998 293.695C326.434 293.664 325.998 293.182 326.029 292.618C326.032 292.601 326.034 292.512 326.034 292.352C326.024 289.614 324.768 287.036 322.595 285.273L285.299 255.009C284.858 254.656 284.791 254.01 285.145 253.569C285.504 253.128 286.149 253.062 286.59 253.42L323.886 283.679C326.542 285.832 328.069 288.994 328.084 292.347C328.081 292.596 328.078 292.722 328.074 292.726C328.044 293.269 327.592 293.695 327.054 293.695Z" fill="#EACA9D"/>
<path d="M308.054 305.695C308.033 305.695 308.015 305.695 307.997 305.695C307.434 305.664 306.998 305.182 307.029 304.618C307.032 304.601 307.034 304.512 307.034 304.352C307.023 301.614 305.768 299.036 303.594 297.273L295.972 289.5C295.531 289.146 295.618 288.441 295.972 288C296.33 287.559 297.031 287.641 297.472 288L304.886 295.679C307.541 297.832 309.069 300.994 309.084 304.347C309.081 304.596 309.077 304.723 309.074 304.726C309.043 305.269 308.592 305.695 308.054 305.695Z" fill="#EACA9D"/>
<path d="M366.114 186.896C365.622 186.896 365.186 186.537 365.104 186.035C365.084 185.902 363.136 172.867 375.156 166.757L545.613 69.2822C546.105 69.0054 546.73 69.1746 547.012 69.6666C547.294 70.1536 547.125 70.7841 546.633 71.0609L376.13 168.561C365.417 174.01 367.052 185.236 367.129 185.707C367.216 186.266 366.837 186.794 366.278 186.881C366.223 186.891 366.168 186.896 366.114 186.896Z" fill="white"/>
<path d="M142.587 226.263C142.367 226.263 142.147 226.197 141.957 226.048C141.511 225.699 141.434 225.054 141.783 224.608C142.065 224.254 169.806 188.675 176.936 160.016C177.069 159.468 177.628 159.134 178.177 159.268C178.725 159.406 179.063 159.96 178.925 160.508C171.687 189.598 143.679 225.515 143.397 225.874C143.192 226.13 142.895 226.268 142.587 226.268V226.263Z" fill="white"/>
<path d="M237.304 217.718C236.822 217.718 236.392 217.37 236.299 216.873C236.197 216.319 236.566 215.786 237.125 215.683C237.381 215.637 263.005 210.799 270.797 196.764C271.074 196.272 271.694 196.092 272.191 196.369C272.683 196.641 272.862 197.266 272.586 197.763C264.328 212.644 238.585 217.498 237.494 217.698C237.429 217.712 237.366 217.718 237.304 217.718Z" fill="#EACA9D"/>
<path d="M402.789 230.415C402.395 230.415 402.02 230.185 401.851 229.805C401.621 229.288 401.856 228.678 402.374 228.452L491.006 189.249C491.524 189.019 492.129 189.254 492.36 189.772C492.59 190.29 492.354 190.895 491.837 191.125L403.205 230.323C403.068 230.385 402.929 230.415 402.789 230.415Z" fill="white"/>
<path d="M502.253 186.896C501.848 186.896 501.464 186.655 501.305 186.256C501.089 185.733 501.341 185.133 501.863 184.923L542.62 168.289C543.142 168.074 543.742 168.325 543.952 168.853C544.168 169.376 543.916 169.976 543.394 170.186L502.637 186.819C502.511 186.871 502.383 186.896 502.253 186.896Z" fill="white"/>
<path fill-rule="evenodd" clip-rule="evenodd" d="M258.429 117.222L262.548 123.253C256.868 127.104 250.264 129.589 243.458 130.274L242.689 122.961C238.26 123.462 233.707 123.021 229.32 121.698L227.186 128.677C220.63 126.585 214.581 123.069 209.783 118.092L214.998 112.996C211.779 109.712 209.324 105.874 207.703 101.719L200.884 104.384C198.375 98.0301 197.398 91.0388 198.304 84.2204L205.539 85.1145C206.093 80.7338 207.488 76.3888 209.801 72.3657L203.477 68.7122C206.833 62.7818 211.738 57.674 217.638 54.1039L221.447 60.3382C225.327 57.9541 229.63 56.3806 234.076 55.7191L232.974 48.5073C239.738 47.3868 246.783 48.1616 253.22 50.4444L250.759 57.3045C253.089 58.1687 255.366 59.2713 257.571 60.6898C259.264 61.7746 260.825 63.0024 262.256 64.2838L267.173 58.9495C272.317 63.5209 276.03 69.5585 278.289 76.0253L271.375 78.3557C272.829 82.6291 273.401 87.1528 273.068 91.6766L280.357 92.207C279.844 99.0552 277.621 105.754 273.956 111.53L267.787 107.566C265.26 111.5 262.041 114.754 258.429 117.222ZM256.82 100.527C263.06 90.8064 260.265 77.861 250.55 71.6207C240.829 65.3804 227.866 68.2056 221.626 77.9265C215.385 87.6416 218.21 100.611 227.931 106.851C237.646 113.091 250.58 110.242 256.82 100.527Z" fill="#E6EBF2"/>
<path fill-rule="evenodd" clip-rule="evenodd" d="M351.95 104.453L354.054 107.54C351.157 109.507 347.778 110.776 344.303 111.122L343.909 107.391C341.645 107.641 339.32 107.421 337.079 106.741L335.988 110.311C332.639 109.238 329.545 107.445 327.096 104.9L329.76 102.295C328.115 100.614 326.857 98.6593 326.029 96.5315L322.548 97.8964C321.267 94.6481 320.766 91.078 321.231 87.5913L324.926 88.0502C325.212 85.8092 325.922 83.592 327.102 81.5358L323.871 79.6643C325.588 76.6366 328.091 74.026 331.113 72.2022L333.056 75.3909C335.035 74.1691 337.24 73.3704 339.511 73.0247L338.945 69.3413C342.402 68.7692 346.001 69.1685 349.291 70.3307L348.034 73.8412C349.226 74.2823 350.388 74.8426 351.515 75.5697C352.379 76.124 353.177 76.7498 353.911 77.4054L356.42 74.6816C359.048 77.018 360.943 80.0994 362.1 83.4013L358.565 84.5933C359.31 86.7807 359.602 89.0873 359.43 91.3998L363.161 91.674C362.892 95.1726 361.76 98.5937 359.889 101.544L356.736 99.5235C355.442 101.532 353.797 103.195 351.95 104.453ZM351.133 95.9236C354.322 90.9588 352.891 84.343 347.927 81.1543C342.962 77.9657 336.334 79.408 333.145 84.3728C329.957 89.3436 331.399 95.9653 336.37 99.154C341.335 102.343 347.944 100.888 351.133 95.9236Z" fill="#B5E1FA"/>
<path fill-rule="evenodd" clip-rule="evenodd" d="M316.861 35.3695L318.965 38.4569C316.068 40.4237 312.689 41.6932 309.214 42.0389L308.821 38.3079C306.556 38.5582 304.231 38.3376 301.99 37.6582L300.9 41.2283C297.55 40.1555 294.457 38.3615 292.007 35.8165L294.671 33.2119C293.026 31.5312 291.769 29.5762 290.94 27.4485L287.459 28.8134C286.178 25.5651 285.677 21.9949 286.142 18.5083L289.838 18.9672C290.124 16.7262 290.833 14.509 292.013 12.4528L288.783 10.5813C290.499 7.55354 293.002 4.94299 296.024 3.11919L297.967 6.30788C299.946 5.08606 302.151 4.28738 304.422 3.94169L303.856 0.258331C307.313 -0.313842 310.913 0.0855078 314.203 1.24773L312.945 4.75823C314.137 5.19928 315.299 5.75954 316.426 6.48668C317.29 7.04097 318.089 7.6668 318.822 8.32241L321.331 5.59863C323.959 7.935 325.855 11.0164 327.011 14.3183L323.477 15.5103C324.222 17.6977 324.514 20.0043 324.341 22.3168L328.072 22.591C327.804 26.0896 326.671 29.5107 324.8 32.461L321.647 30.4405C320.353 32.449 318.708 34.1119 316.861 35.3695ZM316.044 26.8406C319.233 21.8758 317.802 15.26 312.838 12.0713C307.873 8.88265 301.245 10.325 298.057 15.2898C294.868 20.2606 296.31 26.8823 301.281 30.0709C306.246 33.2596 312.856 31.8054 316.044 26.8406Z" fill="#E2D8FF"/>
<path d="M296.832 295.581C296.37 297.119 295.622 298.595 294.556 299.907L288.446 307.483L283.719 313.337C279.383 318.699 271.438 319.529 266.086 315.193C263.031 312.722 261.452 309.093 261.452 305.433C261.449 304.972 261.473 304.51 261.524 304.049C262.614 303.355 263.588 302.48 264.446 301.424L278.911 283.555C279.772 282.489 280.429 281.331 280.89 280.111C284.806 278.829 289.276 279.496 292.7 282.264C295.755 284.734 297.334 288.374 297.334 292.034C297.334 293.223 297.17 294.422 296.832 295.581Z" fill="#F7DDB9"/>
<path d="M281.69 275.682C281.69 277.179 281.423 278.686 280.89 280.111C280.429 281.331 279.773 282.489 278.911 283.556L264.446 301.425C263.588 302.48 262.615 303.355 261.524 304.049C257.085 306.909 251.119 306.766 246.803 303.28C243.758 300.809 242.169 297.18 242.169 293.52C242.169 292.957 242.207 292.393 242.282 291.829C243.902 291.05 245.388 289.912 246.587 288.425L261.063 270.546C262.55 268.711 263.431 266.568 263.729 264.364C267.963 262.345 273.191 262.775 277.056 265.912C280.111 268.383 281.69 272.022 281.69 275.682Z" fill="#F7DDB9"/>
<path d="M263.841 262.673C263.838 263.236 263.8 263.8 263.728 264.364C263.431 266.568 262.549 268.711 261.063 270.546L246.587 288.425C245.388 289.912 243.901 291.05 242.282 291.829C238.048 293.848 232.829 293.418 228.954 290.281C225.899 287.81 224.32 284.181 224.32 280.511C224.32 279.482 224.443 278.464 224.689 277.456C226.053 276.707 227.293 275.682 228.329 274.401L234.531 266.712C236.12 264.754 237.012 262.447 237.248 260.099L241.564 254.768C245.911 249.407 253.846 248.576 259.207 252.913C262.262 255.384 263.841 259.013 263.841 262.673Z" fill="#F7DDB9"/>
<path d="M237.31 258.849C237.31 259.266 237.29 259.682 237.249 260.099C237.013 262.447 236.121 264.754 234.532 266.712L228.329 274.401C227.294 275.682 226.054 276.707 224.69 277.456C220.354 279.865 214.777 279.557 210.696 276.256C207.641 273.786 206.062 270.146 206.062 266.486C206.062 265.256 206.237 264.026 206.596 262.837C207.057 261.34 207.805 259.894 208.841 258.613L215.033 250.934C219.38 245.572 227.315 244.742 232.676 249.079C235.721 251.549 237.31 255.189 237.31 258.849Z" fill="#F7DDB9"/>
<path d="M224.972 276.5L235.972 261.5" stroke="#EACA9D" stroke-width="2" stroke-linecap="round"/>
<path d="M242.972 291.5L261.972 266.5" stroke="#EACA9D" stroke-width="2" stroke-linecap="round"/>
<path d="M261.972 303.5L273.472 287.5" stroke="#EACA9D" stroke-width="2" stroke-linecap="round"/>
</svg>
