<svg width="463" height="392" viewBox="0 0 463 392" fill="none" xmlns="http://www.w3.org/2000/svg">
<path d="M333.698 305.126H300.412C300.324 300.34 300.281 297.424 300.281 296.379C300.281 285.589 302.063 276.712 305.633 269.748C309.2 262.786 316.336 254.953 327.04 246.249C337.744 237.547 344.141 231.846 346.229 229.148C349.448 224.884 351.059 220.185 351.059 215.048C351.059 207.913 348.208 201.798 342.508 196.706C336.808 191.616 329.129 189.07 319.47 189.07C310.157 189.07 302.37 191.726 296.104 197.033C289.838 202.343 285.53 210.436 283.182 221.316L249.504 217.137C250.46 201.559 257.095 188.332 269.41 177.452C281.724 166.573 297.887 161.133 317.903 161.133C338.963 161.133 355.713 166.638 368.159 177.647C380.603 188.657 386.825 201.471 386.825 216.093C386.825 224.187 384.541 231.846 379.972 239.07C375.403 246.294 365.634 256.128 350.667 268.573C342.921 275.015 338.113 280.192 336.243 284.109C334.371 288.024 333.523 295.031 333.698 305.126Z" fill="#FFD9F9"/>
<path d="M317.498 321H316.498C304.624 321 294.998 330.626 294.998 342.5C294.998 354.374 304.624 364 316.498 364H317.498C329.372 364 338.998 354.374 338.998 342.5C338.998 330.626 329.372 321 317.498 321Z" fill="#FFD9F9"/>
<path d="M227.276 315.586H172.796C172.652 307.753 172.582 302.979 172.582 301.269C172.582 283.609 175.499 269.08 181.341 257.682C187.18 246.286 198.86 233.467 216.379 219.221C233.898 204.979 244.368 195.647 247.787 191.231C253.054 184.253 255.691 176.562 255.691 168.155C255.691 156.477 251.025 146.468 241.696 138.134C232.366 129.802 219.798 125.636 203.988 125.636C188.747 125.636 176.001 129.983 165.745 138.669C155.491 147.359 148.44 160.606 144.596 178.412L89.4746 171.574C91.0397 146.077 101.899 124.427 122.054 106.619C142.209 88.814 168.663 79.9102 201.424 79.9102C235.892 79.9102 263.308 88.9216 283.679 106.939C304.045 124.961 314.23 145.933 314.23 169.865C314.23 183.112 310.492 195.648 303.013 207.47C295.535 219.294 279.546 235.391 255.049 255.759C242.372 266.302 234.502 274.775 231.442 281.186C228.377 287.595 226.989 299.062 227.276 315.586Z" fill="#D0BFFF"/>
<path d="M174 366.5C174 380.583 185.417 392 199.5 392C213.583 392 225 380.583 225 366.5C225 352.417 213.583 341 199.5 341C185.417 341 174 352.417 174 366.5Z" fill="#D0BFFF"/>
<path d="M103.594 86.179C87.5114 92.9199 68.9435 85.3188 62.2032 69.2347C55.463 53.1506 63.0633 34.5808 79.1458 27.8398C95.2287 21.0986 113.796 28.7 120.537 44.7842C127.277 60.8683 119.676 79.4377 103.594 86.179Z" fill="#FFDCF9"/>
<path d="M101.425 81.5868C88.1492 87.2698 72.8219 80.8616 67.2576 67.3022C61.6937 53.7428 67.9677 38.0878 81.2432 32.4046C94.5191 26.7216 109.846 33.1295 115.41 46.6892C120.975 60.2489 114.701 75.9039 101.425 81.5868Z" fill="white"/>
<path d="M71.8542 63.8234L67.9171 65.4736C67.2699 65.745 66.9642 66.4917 67.2355 67.1386C67.5069 67.7856 68.2534 68.0913 68.9006 67.82L72.8374 66.1698C73.4846 65.8987 73.7904 65.1517 73.519 64.5047C73.2477 63.8578 72.5007 63.5523 71.8542 63.8234Z" fill="#D597CB"/>
<path d="M98.8588 74.8797C98.2119 75.151 97.9062 75.8974 98.1776 76.5447L99.8277 80.4821C100.099 81.1291 100.846 81.4349 101.493 81.1635C102.14 80.8925 102.445 80.1458 102.174 79.4988L100.524 75.5613C100.253 74.9144 99.5061 74.6086 98.8588 74.8797Z" fill="#D597CB"/>
<path d="M113.85 46.2209L109.913 47.8711C109.266 48.1425 108.96 48.8892 109.232 49.5362C109.503 50.1831 110.25 50.4889 110.897 50.2178L114.834 48.5676C115.481 48.2966 115.787 47.5499 115.515 46.9029C115.244 46.2553 114.497 45.9499 113.85 46.2209Z" fill="#D597CB"/>
<path d="M80.7808 33.1103C80.1339 33.3817 79.8296 33.4471 80.1009 34.0937L82.2264 38.4802C82.4978 39.1275 83.2444 39.4329 83.8913 39.1615C84.5382 38.8905 84.8442 38.1438 84.5726 37.4969L82.4471 33.1103C82.1761 32.4634 80.7808 33.1103 80.7808 33.1103Z" fill="#D597CB"/>
<path d="M90.1043 22.1679L90.4555 17.1743C90.4844 16.7646 90.8396 16.4558 91.2496 16.4843L96.977 16.8867C97.3866 16.9156 97.6958 17.2712 97.6669 17.6809L97.3157 22.6742C97.2872 23.0842 96.9313 23.3934 96.521 23.3645L90.7949 22.9621C90.3846 22.9339 90.0754 22.5779 90.1043 22.1679Z" fill="#D597CB"/>
<path d="M67.7606 31.6683L63.955 28.417C63.6427 28.1504 63.1733 28.1872 62.9064 28.4995L59.1774 32.8659C58.9105 33.1782 58.9473 33.6477 59.2596 33.9146L63.0657 37.1658C63.3779 37.4327 63.8477 37.3959 64.1149 37.0833L67.8432 32.718C68.1104 32.4053 68.0733 31.9355 67.7606 31.6683Z" fill="#D597CB"/>
<path d="M73.8977 23.4846C73.5297 23.639 73.1046 23.465 72.9499 23.0963L71.5574 19.7728C71.403 19.4041 71.577 18.9793 71.9449 18.8249L78.7265 15.9822C79.0944 15.8278 79.5196 16.0018 79.674 16.3705L81.0668 19.6937C81.2212 20.0624 81.0471 20.4871 80.6792 20.6416L73.8977 23.4846Z" fill="#D597CB"/>
<path d="M75.6784 24.6824C72.3721 24.9338 69.1311 23.0783 67.7788 19.8514C66.0892 15.819 67.9876 11.1806 72.0196 9.49015C76.0515 7.80036 80.6895 9.69926 82.3795 13.7313C83.7321 16.9585 82.7845 20.5733 80.2854 22.7546L81.0406 24.5565C84.4793 21.9147 85.8616 17.19 84.1083 13.0066C82.0218 8.02736 76.2737 5.67411 71.2946 7.76115C66.3159 9.84784 63.9632 15.5968 66.0497 20.5761C67.803 24.7595 72.1403 27.0869 76.4347 26.4874L75.6784 24.6824Z" fill="#D597CB"/>
<path d="M78.9022 27.2554C79.6935 26.9239 80.4904 26.6264 81.2917 26.3619L79.2822 21.5666L75.5357 23.1367L77.5204 27.8725C77.9741 27.6572 78.4345 27.4515 78.9022 27.2554Z" fill="#D597CB"/>
<path d="M93.5114 56.0764C94.0063 57.2582 93.4502 58.6175 92.2689 59.1127C91.0872 59.608 89.7281 59.0515 89.2329 57.8701C88.738 56.6886 89.2941 55.329 90.4754 54.8337C91.6571 54.3388 93.0162 54.895 93.5114 56.0764Z" fill="#D597CB"/>
<path d="M93.8402 38.0084C93.1936 45.4527 92.831 49.6264 92.1843 57.0707C92.1424 57.5508 91.7193 57.9065 91.2393 57.8645C90.7592 57.8229 90.4035 57.3999 90.4451 56.9197C90.452 56.844 90.3055 57.6843 93.8402 38.0084Z" fill="#D597CB"/>
<path d="M108.135 66.4079L91.0377 57.8207C90.6071 57.6043 90.4335 57.0798 90.6494 56.6492C90.8658 56.2186 91.3902 56.0445 91.8211 56.2609C91.8885 56.2946 91.1622 55.8481 108.135 66.4079Z" fill="#D597CB"/>
<path d="M92.2455 56.6071C92.4477 57.09 92.2203 57.6454 91.7374 57.8477C91.2545 58.0499 90.699 57.8225 90.4967 57.34C90.2945 56.8571 90.5218 56.3016 91.0048 56.0994C91.4874 55.8968 92.0432 56.1245 92.2455 56.6071Z" fill="#FFDCF9"/>
<path d="M412.114 169.085C411.952 168.9 411.698 168.824 411.46 168.889C410.295 169.203 408.184 168.734 407.14 168.369L406.004 162.741C406.824 162 408.587 160.747 409.784 160.586C410.028 160.553 410.232 160.384 410.311 160.15L411.749 155.873C411.827 155.64 411.766 155.381 411.591 155.208C410.736 154.356 410.088 152.293 409.882 151.207L414.187 147.409C415.239 147.749 417.205 148.649 417.943 149.604C418.093 149.799 418.342 149.892 418.583 149.843L423.006 148.95C423.247 148.901 423.441 148.719 423.504 148.482C423.814 147.315 425.276 145.721 426.114 145L431.555 146.83C431.787 147.911 431.99 150.064 431.532 151.181C431.438 151.409 431.482 151.67 431.645 151.855L434.63 155.239C434.793 155.424 435.047 155.5 435.285 155.436C436.45 155.121 438.561 155.591 439.605 155.956L440.741 161.583C439.921 162.324 438.158 163.577 436.961 163.739C436.717 163.772 436.513 163.941 436.434 164.174L434.996 168.451C434.918 168.685 434.979 168.943 435.153 169.116C436.009 169.968 436.657 172.031 436.863 173.118L432.558 176.916C431.506 176.576 429.54 175.675 428.801 174.72C428.651 174.525 428.403 174.432 428.161 174.481L423.738 175.375C423.497 175.423 423.304 175.605 423.241 175.843C422.931 177.01 421.468 178.603 420.631 179.325L415.19 177.495C414.958 176.414 414.755 174.261 415.213 173.143C415.307 172.916 415.262 172.654 415.1 172.47L412.114 169.085ZM424.492 167.704C427.552 167.086 429.532 164.104 428.914 161.043C428.296 157.982 425.314 156.002 422.254 156.62C419.193 157.238 417.213 160.22 417.831 163.281C418.449 166.342 421.431 168.323 424.492 167.704ZM425.209 171.259C430.233 170.244 433.483 165.349 432.468 160.325C431.454 155.301 426.559 152.051 421.536 153.065C416.513 154.08 413.262 158.975 414.277 163.999C415.291 169.023 420.186 172.273 425.209 171.259Z" fill="#FFDCF9"/>
<path d="M448.661 189.235C448.711 189.046 448.864 188.902 449.056 188.863L452.558 188.156C452.749 188.118 452.945 188.191 453.065 188.345C453.65 189.102 455.206 189.815 456.039 190.084L459.448 187.077C459.285 186.217 458.772 184.583 458.094 183.908C457.956 183.771 457.908 183.567 457.969 183.382L459.108 179.995C459.17 179.81 459.332 179.676 459.525 179.65C460.472 179.522 461.869 178.53 462.518 177.943L461.619 173.487C460.792 173.198 459.121 172.826 458.198 173.076C458.01 173.127 457.809 173.066 457.68 172.92L455.316 170.24C455.187 170.094 455.152 169.887 455.226 169.707C455.589 168.822 455.428 167.117 455.245 166.261L450.936 164.812C450.273 165.384 449.115 166.645 448.87 167.569C448.82 167.758 448.667 167.902 448.476 167.94L444.973 168.648C444.782 168.686 444.585 168.613 444.466 168.459C443.882 167.702 442.325 166.989 441.492 166.72L438.083 169.727C438.246 170.587 438.759 172.221 439.437 172.895C439.575 173.033 439.623 173.237 439.562 173.422L438.423 176.809C438.36 176.994 438.198 177.128 438.006 177.154C437.058 177.282 435.662 178.273 435.013 178.86L435.912 183.317C436.739 183.605 438.41 183.978 439.333 183.728C439.521 183.677 439.722 183.738 439.851 183.884L442.215 186.564C442.344 186.71 442.379 186.917 442.305 187.097C441.942 187.982 442.103 189.687 442.286 190.543L446.595 191.992C447.258 191.42 448.416 190.158 448.661 189.235ZM449.868 183.861C446.853 184.47 443.915 182.519 443.307 179.504C442.698 176.489 444.648 173.551 447.663 172.942C450.678 172.333 453.615 174.284 454.224 177.299C454.833 180.315 452.883 183.252 449.868 183.861Z" fill="#9AEDF2"/>
<path d="M54.4207 146.447L51.9976 139.877L45.7999 141.749L43.1304 135.383L36.9893 136.434L34.2204 132L31.998 133.416L35.7009 139.347L41.5213 138.35L44.2981 144.973L50.3939 143.132L52.5896 149.086L54.4207 146.447Z" fill="#C5D5EB"/>
<path d="M386.416 119.469L379.845 116L376.095 121.677L369.466 118.535L365.188 123.533L359.828 121.964L359.004 124.579L366.172 126.679L370.226 121.941L377.123 125.21L380.811 119.627L386.765 122.771L386.416 119.469Z" fill="#C5D5EB"/>
<path d="M173.62 15.6983L170.998 22.2041L176.86 25.0524L174.559 31.576L179.827 34.9921L178.9 40.1569L181.502 40.6285L182.743 33.7208L177.751 30.4836L180.145 23.6973L174.379 20.8956L176.755 15L173.62 15.6983Z" fill="#C5D5EB"/>
<path d="M310.644 58.2891L309.378 54.1717L315.214 51.2128L314.041 44.943L318.077 41.9482L316.691 39.7148L311.292 43.7202L312.403 49.6621L306.332 52.7401L308.238 58.9362L310.644 58.2891Z" fill="#C5D5EB"/>
<path d="M383.774 52.6179C393.682 67.761 380.207 88.7771 362.564 85.6507C359.395 85.0894 356.089 85.8189 353.255 87.5669L343.498 93.5819C340.81 95.2396 337.431 94.5209 335.737 91.9308L331.983 86.1942C330.288 83.6041 330.846 80.0119 333.265 77.941C342.088 70.3844 345.841 68.2404 347.026 61.9035C350.492 43.3673 373.864 37.472 383.774 52.6179Z" fill="#E6E0FF"/>
<path d="M360.507 60.9541C360.312 60.1304 360.123 59.2049 360.045 58.2865C359.594 52.9927 363.685 51.1624 365.841 52.5276C367.222 53.4014 367.78 55.4285 366.987 57.3499C366.275 59.0757 364.729 60.3228 363.162 61.6915C364.006 64.6302 365.324 67.3379 367.087 69.7527C371.912 66.845 375.359 68.4348 375.583 71.0662C375.727 72.7546 374.644 74.4958 373.008 75.2074C372.032 75.632 369.506 76.2164 366.516 72.9076C358.372 78.651 347.744 87.1395 347.71 87.1654L346.361 85.2897C346.394 85.2643 356.961 76.8315 365.076 71.0956C363.398 68.7699 362.094 66.195 361.192 63.4201C351.91 71.5226 343.729 77.9291 343.444 78.1609L342.1 76.2808C342.693 75.7982 350.619 69.627 360.507 60.9541ZM364.421 54.505C363.701 54.2315 361.791 55.0238 362.56 59.152C364.709 57.2664 365.363 56.4403 364.421 54.505ZM368.573 71.5691C369.759 72.8023 371.554 73.917 372.759 72.584C374.306 70.8742 372.094 69.5936 368.573 71.5691Z" fill="#CBC2F0"/>
<path d="M353.503 87.4303C353.421 87.4788 353.335 87.5198 353.255 87.5699L343.498 93.5848C340.81 95.2426 337.431 94.5238 335.737 91.9338L331.983 86.1971C330.288 83.6071 330.846 80.0148 333.265 77.944C337.189 74.5823 340.109 72.2924 342.248 70.2275L353.503 87.4303Z" fill="#CBC2F0"/>
<path d="M12.6891 187.825C-4.19584 207.365 10.8797 239.641 36.4257 238.562C41.0142 238.369 45.5513 240.027 49.2291 243.036L61.888 253.392C65.376 256.246 70.2913 255.87 73.1785 252.528L79.5746 245.125C82.463 241.783 82.3553 236.597 79.3273 233.21C68.2808 220.851 63.3781 217.108 62.9041 207.921C61.5157 181.048 29.5768 168.282 12.6891 187.825Z" fill="#D3FDFB"/>
<path d="M44.0161 204.023C44.4472 202.895 44.8902 201.621 45.1746 200.337C46.8157 192.936 41.377 189.572 38.0692 191.095C35.9498 192.069 34.7761 194.83 35.5335 197.697C36.2144 200.273 38.1633 202.33 40.1207 204.563C38.3705 208.559 35.9928 212.139 33.0404 215.22C26.7685 210.193 21.5915 211.788 20.7755 215.468C20.2524 217.828 21.4539 220.496 23.6319 221.812C24.9317 222.598 28.3944 223.903 33.2508 219.79C43.6802 229.456 57.103 243.475 57.1454 243.518L59.4097 241.121C59.3685 241.079 46.0204 227.15 35.6311 217.5C38.4452 214.529 40.7769 211.134 42.5798 207.381C54.1711 220.599 64.5272 231.209 64.8875 231.591L67.1447 229.187C66.3974 228.392 56.3566 218.162 44.0161 204.023ZM39.7031 194.16C40.7721 193.91 43.3244 195.392 41.4539 201.085C38.772 198.011 38.0026 196.719 39.7031 194.16ZM30.5945 217.507C28.6835 219.026 25.9343 220.263 24.4818 218.149C22.6183 215.438 25.9893 214.046 30.5945 217.507Z" fill="#9AEDF2"/>
<path d="M48.9018 242.797C49.009 242.881 49.1227 242.956 49.2273 243.042L61.8862 253.397C65.3742 256.251 70.2895 255.875 73.1767 252.533L79.5728 245.131C82.4612 241.789 82.3535 236.603 79.3255 233.216C74.412 227.718 70.7159 223.926 68.0821 220.6L48.9018 242.797Z" fill="#9AEDF2"/>
<path d="M275.689 37.3172L249.146 55.2759C246.452 57.0991 242.789 56.3921 240.967 53.6977L223.009 27.1519C221.186 24.4571 221.893 20.7943 224.587 18.9711L251.13 1.0124C253.825 -0.810798 257.487 -0.104198 259.31 2.59064L277.267 29.136C279.09 31.8315 278.384 35.494 275.689 37.3172Z" fill="#FFDCF9"/>
<path d="M262.344 18.4976C266.991 25.3681 265.19 34.7064 258.32 39.3545C251.45 44.0027 242.113 42.2012 237.466 35.3303C232.818 28.4597 234.619 19.1218 241.489 14.4736C248.359 9.82543 257.696 11.627 262.344 18.4976Z" fill="white"/>
<path d="M244.959 20.7456L251.121 27.4644C251.572 27.9567 251.539 28.7212 251.047 29.1724C250.555 29.6236 249.79 29.5904 249.339 29.0984C249.266 29.0196 249.204 28.9282 249.157 28.8381L244.959 20.7456Z" fill="#D597CB"/>
<path d="M249.65 27.5079L258.944 22.3042L250.837 29.2128C250.398 29.5869 249.739 29.5342 249.365 29.0956C248.992 28.6569 249.044 27.9982 249.483 27.6244C249.534 27.5805 249.593 27.54 249.65 27.5079Z" fill="#D597CB"/>
</svg>
